<?xml version="1.0" encoding="UTF-8" standalone="no"?>
<!-- Generator: Adobe Illustrator 22.1.0, SVG Export Plug-In . SVG Version: 6.00 Build 0)  -->

<svg
   xmlns:dc="http://purl.org/dc/elements/1.1/"
   xmlns:cc="http://creativecommons.org/ns#"
   xmlns:rdf="http://www.w3.org/1999/02/22-rdf-syntax-ns#"
   xmlns:svg="http://www.w3.org/2000/svg"
   xmlns="http://www.w3.org/2000/svg"
   xmlns:sodipodi="http://sodipodi.sourceforge.net/DTD/sodipodi-0.dtd"
   xmlns:inkscape="http://www.inkscape.org/namespaces/inkscape"
   version="1.1"
   id="Layer_3_1_"
   x="0px"
   y="0px"
   viewBox="0 0 468.19245 800.00002"
   xml:space="preserve"
   sodipodi:docname="Adeptus Astra Telepathica [Imperium].svg"
   width="468.19244"
   height="800"
   inkscape:version="0.92.3 (2405546, 2018-03-11)"><metadata
   id="metadata9"><rdf:RDF><cc:Work
       rdf:about=""><dc:format>image/svg+xml</dc:format><dc:type
         rdf:resource="http://purl.org/dc/dcmitype/StillImage" /><dc:title></dc:title></cc:Work></rdf:RDF></metadata><defs
   id="defs7" /><sodipodi:namedview
   pagecolor="#ffffff"
   bordercolor="#666666"
   borderopacity="1"
   objecttolerance="10"
   gridtolerance="10"
   guidetolerance="10"
   inkscape:pageopacity="0"
   inkscape:pageshadow="2"
   inkscape:window-width="1920"
   inkscape:window-height="1017"
   id="namedview5"
   showgrid="false"
   fit-margin-top="0"
   fit-margin-left="0"
   fit-margin-right="0"
   fit-margin-bottom="0"
   inkscape:zoom="0.36742956"
   inkscape:cx="-150.89046"
   inkscape:cy="321.15001"
   inkscape:window-x="-8"
   inkscape:window-y="-8"
   inkscape:window-maximized="1"
   inkscape:current-layer="Layer_3_1_" />
<path
   d="m 468.19243,235.03036 c 0,-10.33785 -65.88821,-70.3721 -150.45928,-98.39639 l 0.12455,-25.65779 c 0,-8.71867 1.24552,-27.775184 13.94987,-45.710728 C 357.83902,28.7716 406.539,32.25907 409.27915,32.63273 c 0,-10.96061 0,-21.79667 0,-32.63273 H 234.78125 234.6567 60.158804 c 0,10.96061 0,21.79667 0,32.63273 2.740153,-0.24911 51.440136,-3.86113 77.471586,32.632722 12.8289,17.935544 13.94987,37.116608 13.94987,45.710728 0,0 0,9.46598 0,25.9069 C 66.510976,166.02834 0,228.67819 0,235.03036 c 0,6.35217 66.635529,69.12658 151.82936,98.14728 0.12456,145.7263 0.12456,310.75822 -0.2491,351.98506 0.37366,6.10306 1.37007,31.6363 -16.81457,53.18387 -17.56189,20.80025 -46.333493,30.01712 -74.731438,24.28771 V 800 h 174.622448 0.12455 174.62246 v -37.36572 c -28.39795,5.72941 -57.16955,-3.48746 -74.73144,-24.28771 C 316.48762,716.799 317.48404,691.26576 317.8577,685.1627 317.23494,611.67679 316.61217,538.31543 315.98941,464.82952 l 0.74732,-131.02912 c 85.19383,-27.89973 151.4557,-88.30764 151.4557,-98.77004 z m -421.236179,0 c 0,-5.72941 59.536039,-57.66776 137.256729,-75.10509 -16.06725,13.94987 -26.4051,34.62556 -26.4051,57.66776 0,42.22326 34.12735,76.35061 76.35061,76.35061 42.22326,0 76.35062,-34.12735 76.35062,-76.35061 0,-23.2913 -10.4624,-44.09155 -26.77877,-58.04142 77.9698,16.56547 137.63039,66.13732 137.63039,75.6033 0,11.45882 -86.56391,80.95906 -187.20224,80.95906 -100.63833,0 -187.202239,-74.10868 -187.202239,-81.08361 z"
   id="path2"
   inkscape:connector-curvature="0"
   style="stroke-width:1.24552393" />
</svg>