<?xml version="1.0" encoding="UTF-8" standalone="no"?>
<!-- Generator: Adobe Illustrator 22.1.0, SVG Export Plug-In . SVG Version: 6.00 Build 0)  -->

<svg
   xmlns:dc="http://purl.org/dc/elements/1.1/"
   xmlns:cc="http://creativecommons.org/ns#"
   xmlns:rdf="http://www.w3.org/1999/02/22-rdf-syntax-ns#"
   xmlns:svg="http://www.w3.org/2000/svg"
   xmlns="http://www.w3.org/2000/svg"
   xmlns:sodipodi="http://sodipodi.sourceforge.net/DTD/sodipodi-0.dtd"
   xmlns:inkscape="http://www.inkscape.org/namespaces/inkscape"
   version="1.1"
   id="Layer_4"
   x="0px"
   y="0px"
   viewBox="0 0 339.31393 800"
   xml:space="preserve"
   sodipodi:docname="Adeptus Administratum [Imperium].svg"
   width="339.31393"
   height="800"
   inkscape:version="0.92.3 (2405546, 2018-03-11)"><metadata
   id="metadata13"><rdf:RDF><cc:Work
       rdf:about=""><dc:format>image/svg+xml</dc:format><dc:type
         rdf:resource="http://purl.org/dc/dcmitype/StillImage" /><dc:title></dc:title></cc:Work></rdf:RDF></metadata><defs
   id="defs11" /><sodipodi:namedview
   pagecolor="#ffffff"
   bordercolor="#666666"
   borderopacity="1"
   objecttolerance="10"
   gridtolerance="10"
   guidetolerance="10"
   inkscape:pageopacity="0"
   inkscape:pageshadow="2"
   inkscape:window-width="1920"
   inkscape:window-height="1017"
   id="namedview9"
   showgrid="false"
   fit-margin-top="0"
   fit-margin-left="0"
   fit-margin-right="0"
   fit-margin-bottom="0"
   inkscape:zoom="0.236"
   inkscape:cx="-310.84237"
   inkscape:cy="499.9"
   inkscape:window-x="-8"
   inkscape:window-y="-8"
   inkscape:window-maximized="1"
   inkscape:current-layer="Layer_4" />
<g
   id="g6"
   transform="matrix(0.80008001,0,0,0.80008001,-226.66267,0)">
	<path
   d="M 613.5,81.7 C 645,36.1 704,40.5 707.4,40.8 c 0,-13.7 0,-27.2 0,-40.8 H 495.8 495.7 284 c 0,13.7 0,27.2 0,40.8 3.4,-0.4 62.4,-4.8 93.9,40.8 15.5,22.4 17,46.3 17,57.2 0,0 0,13.3 0,36.3 -66.4,35.8 -111.6,106 -111.6,186.7 0,80.9 45.3,151.2 111.9,186.9 0,139.3 0,269.5 -0.3,307.7 0.5,7.7 1.7,39.6 -20.4,66.5 -21.3,26 -56.1,37.6 -90.5,30.3 v 46.7 h 211.6 0.1 211.6 v -46.7 c -34.4,7.2 -69.3,-4.3 -90.5,-30.3 -22.1,-27 -20.8,-58.8 -20.4,-66.5 -0.8,-91.8 -1.5,-183.6 -2.3,-275.4 l 0.2,-31.7 c 67.2,-35.6 113,-106.2 113,-187.5 0,-80.5 -44.9,-150.6 -111.1,-186.5 l 0.2,-36.5 c 0.1,-10.8 1.6,-34.7 17.1,-57.1 z m 60.7,280.2 c 0,98.7 -80.1,178.8 -178.8,178.8 -98.7,0 -178.8,-80.1 -178.8,-178.8 0,-98.7 80.1,-178.8 178.8,-178.8 98.7,0 178.8,80 178.8,178.8 z"
   id="path2"
   inkscape:connector-curvature="0" />
	<path
   d="M 483.6,201.3 V 189.5 L 424.7,240.9 435.4,258 463.2,235.5 573.5,319 535,374.7 431.1,296.5 373.3,345.8 384,457.2 471.8,519.3 542,401.7 c 11.9,8.5 23.8,17 35.8,25.5 -1,3.2 -2.1,6.4 -3.2,9.6 -7.2,20.7 -15.6,39.6 -24.6,56.7 l 8.6,6.4 70.7,-126.3 -11.8,-11.8 -34.3,51.4 -33.1,-25.1 56.6,-94.9 z m -9.6,277.3 -42.8,-31 -6.4,-88.9 27.8,-22.5 74.9,56.7 c 0,0 -53.5,82.5 -53.5,85.7 z"
   id="path4"
   inkscape:connector-curvature="0" />
</g>
</svg>