<?xml version="1.0" encoding="UTF-8" standalone="no"?>
<!-- Created with Inkscape (http://www.inkscape.org/) -->

<svg
   xmlns:dc="http://purl.org/dc/elements/1.1/"
   xmlns:cc="http://creativecommons.org/ns#"
   xmlns:rdf="http://www.w3.org/1999/02/22-rdf-syntax-ns#"
   xmlns:svg="http://www.w3.org/2000/svg"
   xmlns="http://www.w3.org/2000/svg"
   xmlns:sodipodi="http://sodipodi.sourceforge.net/DTD/sodipodi-0.dtd"
   xmlns:inkscape="http://www.inkscape.org/namespaces/inkscape"
   width="1231.6703"
   height="800"
   viewBox="0 0 325.87942 211.66668"
   version="1.1"
   id="svg8"
   inkscape:version="0.92.3 (2405546, 2018-03-11)"
   sodipodi:docname="Aeronautica Imperialis [Imperium, Imperial Navy].svg">
  <defs
     id="defs2" />
  <sodipodi:namedview
     id="base"
     pagecolor="#ffffff"
     bordercolor="#666666"
     borderopacity="1.0"
     inkscape:pageopacity="0.0"
     inkscape:pageshadow="2"
     inkscape:zoom="1"
     inkscape:cx="379.28466"
     inkscape:cy="232.36808"
     inkscape:document-units="px"
     inkscape:current-layer="layer1"
     showgrid="false"
     units="px"
     inkscape:window-width="1920"
     inkscape:window-height="1017"
     inkscape:window-x="-8"
     inkscape:window-y="-8"
     inkscape:window-maximized="1"
     inkscape:snap-global="false"
     inkscape:pagecheckerboard="true"
     fit-margin-top="0"
     fit-margin-left="0"
     fit-margin-right="0"
     fit-margin-bottom="0" />
  <metadata
     id="metadata5">
    <rdf:RDF>
      <cc:Work
         rdf:about="">
        <dc:format>image/svg+xml</dc:format>
        <dc:type
           rdf:resource="http://purl.org/dc/dcmitype/StillImage" />
        <dc:title></dc:title>
      </cc:Work>
    </rdf:RDF>
  </metadata>
  <g
     inkscape:label="Layer 1"
     inkscape:groupmode="layer"
     id="layer1"
     transform="translate(25.256855,-41.412448)">
    <g
       id="g1400"
       style="fill:#000000;fill-opacity:1"
       transform="matrix(1.2894315,0,0,1.2894315,7.3101304,-73.249076)">
      <path
         id="path826"
         transform="scale(0.26458333)"
         d="m 394.82812,347.25391 c 4.53839,5.67166 9.1654,9.63069 15.34961,13.9414 62.79992,6.60919 121.24565,35.19288 165.01954,80.70508 5.23264,-0.48193 10.44472,-0.98735 15.64062,-1.51172 -50.20966,-56.06562 -120.82986,-89.62108 -196.00977,-93.13476 z m -26.16601,0.22461 c -74.89055,3.64399 -145.2109,37.09693 -195.28711,92.90234 5.41089,0.54633 10.83826,1.07392 16.28906,1.57422 43.8492,-45.53197 102.38867,-74.08875 165.26367,-80.61914 5.73039,-4.2808 9.73939,-8.4929 13.73438,-13.85742 z m 293.19531,302.34375 c -4.47632,1.61741 -8.86036,2.91198 -13.16797,3.91015 -13.00883,132.29462 -120.80463,234.23563 -252.11914,241.2461 l -2.03515,12.96875 c 140.76695,-6.19354 256.02558,-116.38437 267.32226,-258.125 z m -559.3125,0.041 C 113.85762,791.54272 229.04415,901.69306 369.75,907.94141 l -2.03711,-12.97657 C 236.51753,887.83944 128.87033,785.96437 115.8457,653.78711 c -4.35024,-0.99708 -8.77856,-2.29493 -13.30078,-3.92383 z"
         style="opacity:1;fill:#000000;fill-opacity:1;stroke:none;stroke-width:0.59660482;stroke-linecap:round;stroke-linejoin:round;stroke-miterlimit:4;stroke-dasharray:none;stroke-opacity:1;paint-order:normal"
         inkscape:connector-curvature="0" />
      <path
         id="circle844"
         transform="scale(0.26458333)"
         d="m 421.97266,368.96484 1.38476,8.15821 c 52.9282,7.85623 99.27154,31.73075 135.04492,66.2539 2.96217,-0.24529 5.90849,-0.50703 8.85743,-0.76562 -38.23038,-38.25615 -88.44143,-64.89618 -145.28711,-73.64649 z m -78.875,0.0176 c -57.09424,8.61129 -107.54827,35.27022 -145.94532,73.64063 3.23937,0.28384 6.47707,0.56815 9.73243,0.83593 35.99671,-34.41917 82.43783,-58.29283 135.0957,-66.3125 z M 121.77539,654.96875 c 13.19729,126.65567 116.69551,226.4467 244.97852,233.88477 l -1.32227,-8.42579 C 242.72877,872.43931 143.85017,777.1416 130.28711,656.03906 c -2.80686,-0.22488 -5.64398,-0.58664 -8.51172,-1.07031 z m 520.73438,0 c -2.86757,0.48363 -5.70501,0.84532 -8.51172,1.07031 C 620.43497,777.1416 521.55636,872.43931 398.85352,880.42773 l -1.32227,8.42579 c 128.28297,-7.43807 231.78124,-107.2291 244.97852,-233.88477 z"
         style="opacity:1;fill:#000000;fill-opacity:1;stroke:none;stroke-width:0.55639797;stroke-linecap:round;stroke-linejoin:round;stroke-miterlimit:4;stroke-dasharray:none;stroke-opacity:1;paint-order:normal"
         inkscape:connector-curvature="0" />
      <path
         sodipodi:nodetypes="ccccc"
         inkscape:connector-curvature="0"
         id="path856"
         d="m 101.10867,108.20088 c -3.113145,-5.74978 -4.374925,-6.23262 -9.638505,-9.638395 5.749779,-3.113143 6.232619,-4.374815 9.638395,-9.638394 3.11314,5.749784 4.37481,6.232616 9.63839,9.638393 -5.74978,3.113146 -6.23251,4.374816 -9.63828,9.638396 z"
         inkscape:transform-center-y="-4.8973553e-006"
         inkscape:transform-center-x="-5.0804833e-006"
         style="opacity:1;fill:#000000;fill-opacity:1;stroke:none;stroke-width:0.11860465;stroke-linecap:round;stroke-linejoin:round;stroke-miterlimit:4;stroke-dasharray:none;stroke-opacity:1;paint-order:normal" />
      <path
         sodipodi:nodetypes="cccccccsccscccccccccccccccc"
         inkscape:connector-curvature="0"
         id="path867"
         d="m 101.15145,119.46454 c -28.200833,16.95257 -32.421551,50.47708 -32.323094,85.59839 0.0054,2.12089 -4.340191,4.31485 -11.016898,5.15369 v 2.11667 h 11.098548 21.251415 v -2.24844 c -8.686498,-1.35616 -10.705806,-2.66835 -10.705806,-5.55677 v -19.97604 c 14.463889,0 28.927775,0 43.391665,0 v 19.97604 c 0,2.88842 -2.01931,4.20061 -10.70581,5.55677 v 2.24844 h 21.25142 11.09855 v -2.11667 c -6.67671,-0.83884 -11.0219,-3.0328 -11.0169,-5.15369 0.0985,-35.12131 -4.12226,-68.64582 -32.32309,-85.59839 z m 0,6.62854 c 15.37829,9.83131 16.98436,25.21845 19.64634,42.65837 -13.09756,0 -26.195126,0 -39.292689,0 2.661984,-17.43992 4.268057,-32.82706 19.646349,-42.65837 z m -20.81372,48.92518 c 13.875811,0 27.75162,0 41.62743,0 v 4.02249 c -13.87581,0 -27.751619,0 -41.62743,0 z"
         style="fill:#000000;fill-opacity:1;stroke:none;stroke-width:0.26458332px;stroke-linecap:butt;stroke-linejoin:miter;stroke-opacity:1" />
      <path
         id="path962"
         d="m -25.256856,105.01478 c 11.494501,15.7513 55.027225,15.84229 93.731228,19.86338 -1.446154,10.11795 -0.639746,16.13007 7.024378,23.15466 1.144707,-2.84797 2.438908,-5.59842 3.90312,-8.23567 -5.463363,-6.97742 -5.978554,-12.13805 3.852479,-20.15743 C 43.458272,118.8948 10.954911,114.167 -25.256856,105.01478 Z"
         style="fill:#000000;fill-opacity:1;stroke:none;stroke-width:0.26458332px;stroke-linecap:butt;stroke-linejoin:miter;stroke-opacity:1"
         inkscape:connector-curvature="0" />
      <path
         sodipodi:nodetypes="cccc"
         inkscape:connector-curvature="0"
         id="path967"
         d="m 34.395833,130.70937 c -2.694026,-2.20418 -4.796425,-4.71228 -6.614583,-7.67292 -17.369263,-1.77518 -34.3646669,-5.15676 -51.329166,-9.26042 15.2572549,14.85547 35.596102,17.20311 57.943749,16.93334 z"
         style="fill:#000000;fill-opacity:1;stroke:none;stroke-width:0.26458332px;stroke-linecap:butt;stroke-linejoin:miter;stroke-opacity:1" />
      <path
         id="path969"
         d="m 30.823958,123.83017 c 4.729842,9.56548 13.681128,10.31801 35.15651,10.83034 -0.288637,-2.70147 -0.168241,-5.63444 0.221692,-8.96069 -12.068784,0.25488 -23.415093,-0.0283 -35.378202,-1.86965 z"
         style="fill:#000000;fill-opacity:1;stroke:none;stroke-width:0.26458332px;stroke-linecap:butt;stroke-linejoin:miter;stroke-opacity:1"
         inkscape:connector-curvature="0" />
      <path
         id="path971"
         d="m 37.30625,136.26558 c 6.310891,6.96165 15.695474,8.63067 30.453438,5.01675 -0.711367,-1.54604 -1.20341,-3.13066 -1.513602,-4.79402 -10.697856,1.17938 -15.513672,1.03799 -28.939836,-0.22273 z"
         style="fill:#000000;fill-opacity:1;stroke:none;stroke-width:0.26458332px;stroke-linecap:butt;stroke-linejoin:miter;stroke-opacity:1"
         inkscape:connector-curvature="0" />
      <path
         id="path973"
         d="m -15.04611,128.23972 c -0.639426,0.002 -1.290058,0.009 -1.953369,0.0222 12.4491471,11.48979 34.062435,14.42195 54.056131,11.39362 -1.335037,-1.09164 -2.617165,-2.28284 -3.851444,-3.57601 2.440358,-1.33214 4.732075,-2.34805 6.905006,-3.10678 -26.658939,0.64061 -35.5081971,-4.78068 -55.156324,-4.73305 z"
         style="fill:#000000;fill-opacity:1;stroke:none;stroke-width:0.26458332px;stroke-linecap:butt;stroke-linejoin:miter;stroke-opacity:1"
         inkscape:connector-curvature="0" />
      <path
         sodipodi:nodetypes="cccc"
         inkscape:connector-curvature="0"
         id="path979"
         d="m 51.355839,152.19336 c -3.055588,-1.07027 -5.776226,-2.40308 -8.325446,-4.39658 -13.274871,5.3158 -24.679399,3.05505 -38.0725432,4.58367 12.4383012,11.01793 29.1871732,7.43343 46.3979892,-0.18709 z"
         style="fill:#000000;fill-opacity:1;stroke:none;stroke-width:0.26458332px;stroke-linecap:butt;stroke-linejoin:miter;stroke-opacity:1" />
      <path
         sodipodi:nodetypes="cccccc"
         inkscape:connector-curvature="0"
         id="path981"
         d="m 41.346596,146.95488 c -0.751072,-0.68048 -1.307524,-1.44395 -1.777344,-2.33861 1.549816,-0.69319 3.176281,-0.85655 4.864306,-0.93544 -1.579737,-0.60127 -2.901754,-1.35278 -4.115951,-2.5257 -22.085165,3.18309 -38.3229277,-2.02276 -48.1753311,-0.8419 8.35222632,9.1157 30.5962631,11.79588 49.2043201,6.64165 z"
         style="fill:#000000;fill-opacity:1;stroke:none;stroke-width:0.26458332px;stroke-linecap:butt;stroke-linejoin:miter;stroke-opacity:1" />
      <path
         id="path983"
         d="m 68.734304,143.14578 c -9.528005,2.27886 -17.076944,1.88237 -26.171527,1.65778 7.274036,7.40094 18.71536,7.69955 30.613635,3.94395 -1.881846,-1.88769 -3.340872,-3.72944 -4.442108,-5.60173 z"
         style="fill:#000000;fill-opacity:1;stroke:none;stroke-width:0.26458332px;stroke-linecap:butt;stroke-linejoin:miter;stroke-opacity:1"
         inkscape:connector-curvature="0" />
      <path
         sodipodi:nodetypes="cccc"
         inkscape:connector-curvature="0"
         id="path996"
         d="m 52.759003,159.30273 c -2.246527,-1.07568 -3.66286,-1.99032 -5.425572,-3.77387 -9.723042,6.54763 -20.201319,4.55779 -30.495451,7.14147 13.711862,8.42721 23.176257,3.62129 35.921023,-3.3676 z"
         style="fill:#000000;fill-opacity:1;stroke:none;stroke-width:0.26458332px;stroke-linecap:butt;stroke-linejoin:miter;stroke-opacity:1" />
      <path
         sodipodi:nodetypes="ccc"
         inkscape:connector-curvature="0"
         id="path998"
         d="m 50.701029,185.77577 c 7.740805,-5.38516 14.602125,-15.96477 18.147599,-15.06063 0.716702,5.95057 -12.48523,14.84071 -18.147599,15.06063 z"
         style="fill:#000000;fill-opacity:1;stroke:none;stroke-width:0.26458332px;stroke-linecap:butt;stroke-linejoin:miter;stroke-opacity:1" />
      <path
         sodipodi:nodetypes="cc"
         inkscape:connector-curvature="0"
         id="path1001"
         d="m 66.807291,168.61093 c 3.532498,-4.99655 5.500568,0.87417 0,0 z"
         style="fill:#000000;fill-opacity:1;stroke:none;stroke-width:0.26458332px;stroke-linecap:butt;stroke-linejoin:miter;stroke-opacity:1" />
      <path
         sodipodi:nodetypes="ccc"
         inkscape:connector-curvature="0"
         id="path1003"
         d="m 74.087111,150.13538 c -0.813731,10.27765 -15.393991,9.55809 -24.882793,5.14494 5.864589,-3.18511 11.379021,-1.09206 24.882793,-5.14494 z"
         style="fill:#000000;fill-opacity:1;stroke:none;stroke-width:0.26458332px;stroke-linecap:butt;stroke-linejoin:miter;stroke-opacity:1" />
      <path
         sodipodi:nodetypes="cccc"
         inkscape:connector-curvature="0"
         id="path1005"
         d="m 60.897362,160.14463 c -2.170174,0.0964 -4.301896,0.002 -6.454561,-0.28064 -10.263575,6.37424 -15.65349,8.79263 -28.063299,10.00925 13.274255,7.27813 21.722402,-0.63743 34.51786,-9.72861 z"
         style="fill:#000000;fill-opacity:1;stroke:none;stroke-width:0.26458332px;stroke-linecap:butt;stroke-linejoin:miter;stroke-opacity:1" />
      <path
         sodipodi:nodetypes="ccc"
         inkscape:connector-curvature="0"
         id="path1009"
         d="m 59.400651,163.79286 c 3.966744,-3.56306 6.393098,-4.63231 11.693043,-5.61266 -1.209076,7.37507 -4.983167,7.33966 -11.693043,5.61266 z"
         style="fill:#000000;fill-opacity:1;stroke:none;stroke-width:0.26458332px;stroke-linecap:butt;stroke-linejoin:miter;stroke-opacity:1" />
      <path
         sodipodi:nodetypes="ccc"
         inkscape:connector-curvature="0"
         id="path1011"
         d="m 65.668122,166.50564 c -7.514243,5.11868 -14.943129,10.35916 -22.357096,15.62191 5.784819,4.17776 22.66684,-9.65972 22.357096,-15.62191 z"
         style="fill:#000000;fill-opacity:1;stroke:none;stroke-width:0.26458332px;stroke-linecap:butt;stroke-linejoin:miter;stroke-opacity:1" />
      <path
         sodipodi:nodetypes="cccc"
         inkscape:connector-curvature="0"
         id="path1013"
         d="m 62.300527,166.69273 c -2.045247,-0.17433 -3.422478,-0.67169 -4.864307,-2.15152 -6.27022,7.2454 -16.425479,8.05722 -21.702286,12.25431 10.736537,5.18345 17.492189,-3.95036 26.566593,-10.10279 z"
         style="fill:#000000;fill-opacity:1;stroke:none;stroke-width:0.26458332px;stroke-linecap:butt;stroke-linejoin:miter;stroke-opacity:1" />
      <path
         style="fill:#000000;fill-opacity:1;stroke:none;stroke-width:0.26458332px;stroke-linecap:butt;stroke-linejoin:miter;stroke-opacity:1"
         d="m 227.47423,105.01478 c -11.4945,15.7513 -55.02723,15.84229 -93.73123,19.86338 1.44615,10.11795 0.63974,16.13007 -7.02438,23.15466 -1.14471,-2.84797 -2.43891,-5.59842 -3.90312,-8.23567 5.46336,-6.97742 5.97855,-12.13805 -3.85248,-20.15743 39.79608,-0.74492 72.29944,-5.47272 108.51121,-14.62494 z"
         id="path1053"
         inkscape:connector-curvature="0" />
      <path
         style="fill:#000000;fill-opacity:1;stroke:none;stroke-width:0.26458332px;stroke-linecap:butt;stroke-linejoin:miter;stroke-opacity:1"
         d="m 167.82154,130.70937 c 2.69402,-2.20418 4.79642,-4.71228 6.61458,-7.67292 17.36926,-1.77518 34.36467,-5.15676 51.32917,-9.26042 -15.25726,14.85547 -35.59611,17.20311 -57.94375,16.93334 z"
         id="path1055"
         inkscape:connector-curvature="0"
         sodipodi:nodetypes="cccc" />
      <path
         style="fill:#000000;fill-opacity:1;stroke:none;stroke-width:0.26458332px;stroke-linecap:butt;stroke-linejoin:miter;stroke-opacity:1"
         d="m 171.39341,123.83017 c -4.72984,9.56548 -13.68113,10.31801 -35.15651,10.83034 0.28864,-2.70147 0.16824,-5.63444 -0.22169,-8.96069 12.06878,0.25488 23.41509,-0.0283 35.3782,-1.86965 z"
         id="path1057"
         inkscape:connector-curvature="0" />
      <path
         style="fill:#000000;fill-opacity:1;stroke:none;stroke-width:0.26458332px;stroke-linecap:butt;stroke-linejoin:miter;stroke-opacity:1"
         d="m 164.91112,136.26558 c -6.31089,6.96165 -15.69547,8.63067 -30.45344,5.01675 0.71137,-1.54604 1.20341,-3.13066 1.5136,-4.79402 10.69786,1.17938 15.51368,1.03799 28.93984,-0.22273 z"
         id="path1059"
         inkscape:connector-curvature="0" />
      <path
         style="fill:#000000;fill-opacity:1;stroke:none;stroke-width:0.26458332px;stroke-linecap:butt;stroke-linejoin:miter;stroke-opacity:1"
         d="m 217.26348,128.23972 c 0.63943,0.002 1.29006,0.009 1.95337,0.0222 -12.44915,11.48979 -34.06244,14.42195 -54.05613,11.39362 1.33504,-1.09164 2.61716,-2.28284 3.85144,-3.57601 -2.44036,-1.33214 -4.73207,-2.34805 -6.905,-3.10678 26.65893,0.64061 35.50819,-4.78068 55.15632,-4.73305 z"
         id="path1061"
         inkscape:connector-curvature="0" />
      <path
         style="fill:#000000;fill-opacity:1;stroke:none;stroke-width:0.26458332px;stroke-linecap:butt;stroke-linejoin:miter;stroke-opacity:1"
         d="m 150.86153,152.19336 c 3.05559,-1.07027 5.77623,-2.40308 8.32545,-4.39658 13.27487,5.3158 24.6794,3.05505 38.07254,4.58367 -12.4383,11.01793 -29.18717,7.43343 -46.39799,-0.18709 z"
         id="path1063"
         inkscape:connector-curvature="0"
         sodipodi:nodetypes="cccc" />
      <path
         style="fill:#000000;fill-opacity:1;stroke:none;stroke-width:0.26458332px;stroke-linecap:butt;stroke-linejoin:miter;stroke-opacity:1"
         d="m 160.87077,146.95488 c 0.75108,-0.68048 1.30753,-1.44395 1.77735,-2.33861 -1.54982,-0.69319 -3.17628,-0.85655 -4.86431,-0.93544 1.57974,-0.60127 2.90176,-1.35278 4.11595,-2.5257 22.08517,3.18309 38.32293,-2.02276 48.17533,-0.8419 -8.35222,9.1157 -30.59626,11.79588 -49.20432,6.64165 z"
         id="path1065"
         inkscape:connector-curvature="0"
         sodipodi:nodetypes="cccccc" />
      <path
         style="fill:#000000;fill-opacity:1;stroke:none;stroke-width:0.26458332px;stroke-linecap:butt;stroke-linejoin:miter;stroke-opacity:1"
         d="m 133.48307,143.14578 c 9.528,2.27886 17.07694,1.88237 26.17152,1.65778 -7.27403,7.40094 -18.71536,7.69955 -30.61363,3.94395 1.88184,-1.88769 3.34087,-3.72944 4.44211,-5.60173 z"
         id="path1067"
         inkscape:connector-curvature="0" />
      <path
         style="fill:#000000;fill-opacity:1;stroke:none;stroke-width:0.26458332px;stroke-linecap:butt;stroke-linejoin:miter;stroke-opacity:1"
         d="m 149.45837,159.30273 c 2.24652,-1.07568 3.66286,-1.99032 5.42557,-3.77387 9.72304,6.54763 20.20132,4.55779 30.49545,7.14147 -13.71186,8.42721 -23.17626,3.62129 -35.92102,-3.3676 z"
         id="path1069"
         inkscape:connector-curvature="0"
         sodipodi:nodetypes="cccc" />
      <path
         style="fill:#000000;fill-opacity:1;stroke:none;stroke-width:0.26458332px;stroke-linecap:butt;stroke-linejoin:miter;stroke-opacity:1"
         d="m 151.51634,185.77577 c -7.7408,-5.38516 -14.60212,-15.96477 -18.1476,-15.06063 -0.7167,5.95057 12.48523,14.84071 18.1476,15.06063 z"
         id="path1071"
         inkscape:connector-curvature="0"
         sodipodi:nodetypes="ccc" />
      <path
         style="fill:#000000;fill-opacity:1;stroke:none;stroke-width:0.26458332px;stroke-linecap:butt;stroke-linejoin:miter;stroke-opacity:1"
         d="m 135.41008,168.61093 c -3.5325,-4.99655 -5.50057,0.87417 0,0 z"
         id="path1073"
         inkscape:connector-curvature="0"
         sodipodi:nodetypes="cc" />
      <path
         style="fill:#000000;fill-opacity:1;stroke:none;stroke-width:0.26458332px;stroke-linecap:butt;stroke-linejoin:miter;stroke-opacity:1"
         d="m 128.13026,150.13538 c 0.81373,10.27765 15.39399,9.55809 24.88279,5.14494 -5.86459,-3.18511 -11.37902,-1.09206 -24.88279,-5.14494 z"
         id="path1075"
         inkscape:connector-curvature="0"
         sodipodi:nodetypes="ccc" />
      <path
         style="fill:#000000;fill-opacity:1;stroke:none;stroke-width:0.26458332px;stroke-linecap:butt;stroke-linejoin:miter;stroke-opacity:1"
         d="m 141.32001,160.14463 c 2.17017,0.0964 4.30189,0.002 6.45456,-0.28064 10.26357,6.37424 15.65349,8.79263 28.0633,10.00925 -13.27426,7.27813 -21.7224,-0.63743 -34.51786,-9.72861 z"
         id="path1077"
         inkscape:connector-curvature="0"
         sodipodi:nodetypes="cccc" />
      <path
         style="fill:#000000;fill-opacity:1;stroke:none;stroke-width:0.26458332px;stroke-linecap:butt;stroke-linejoin:miter;stroke-opacity:1"
         d="m 142.81672,163.79286 c -3.96675,-3.56306 -6.3931,-4.63231 -11.69304,-5.61266 1.20907,7.37507 4.98316,7.33966 11.69304,5.61266 z"
         id="path1079"
         inkscape:connector-curvature="0"
         sodipodi:nodetypes="ccc" />
      <path
         style="fill:#000000;fill-opacity:1;stroke:none;stroke-width:0.26458332px;stroke-linecap:butt;stroke-linejoin:miter;stroke-opacity:1"
         d="m 136.54925,166.50564 c 7.51424,5.11868 14.94313,10.35916 22.35709,15.62191 -5.78482,4.17776 -22.66684,-9.65972 -22.35709,-15.62191 z"
         id="path1081"
         inkscape:connector-curvature="0"
         sodipodi:nodetypes="ccc" />
      <path
         style="fill:#000000;fill-opacity:1;stroke:none;stroke-width:0.26458332px;stroke-linecap:butt;stroke-linejoin:miter;stroke-opacity:1"
         d="m 139.91684,166.69273 c 2.04525,-0.17433 3.42248,-0.67169 4.86431,-2.15152 6.27022,7.2454 16.42548,8.05722 21.70229,12.25431 -10.73654,5.18345 -17.49219,-3.95036 -26.5666,-10.10279 z"
         id="path1083"
         inkscape:connector-curvature="0"
         sodipodi:nodetypes="cccc" />
      <path
         id="path1147"
         d="m 81.491666,110.73329 c 0.295936,1.46776 0.310814,2.3573 0.264583,3.70417 7.144266,0.41432 11.643151,0.71205 12.7,3.96875 0.131654,0.40569 0.219824,1.9965 0.272851,4.46639 0.230169,-0.18426 0.463474,-0.36625 0.697633,-0.54777 0.05011,-0.0389 0.100602,-0.0775 0.150894,-0.11627 0.369554,-0.28451 0.744418,-0.5652 1.123963,-0.84284 0.13308,-0.0975 0.265663,-0.19533 0.399976,-0.29198 0.175279,-0.12592 0.351766,-0.25122 0.529167,-0.37568 0.229915,-0.16158 0.462052,-0.3215 0.695563,-0.48059 0.102986,-0.0701 0.204306,-0.14127 0.307993,-0.21084 0.348301,-0.23406 0.701974,-0.46448 1.058334,-0.69298 0.102444,-0.0656 0.205398,-0.1307 0.308507,-0.19586 0.3794,-0.23998 0.76169,-0.47796 1.15032,-0.71158 0.38959,0.2342 0.77307,0.47255 1.15341,0.71313 0.0945,0.0597 0.18874,0.11973 0.28267,0.17984 0.35964,0.23034 0.71619,0.46268 1.06764,0.69866 0.10547,0.0707 0.20894,0.14272 0.31368,0.21394 0.23814,0.16217 0.47459,0.32568 0.709,0.49041 0.15942,0.11188 0.31874,0.22387 0.47645,0.33693 0.21199,0.15218 0.42153,0.30616 0.63046,0.46044 0.27062,0.19961 0.53858,0.40097 0.80408,0.6041 0.0998,0.0764 0.19913,0.15309 0.29817,0.22996 0.20187,0.15656 0.40418,0.31268 0.60307,0.47129 0.0532,-2.42756 0.14045,-3.99708 0.27078,-4.3987 1.05685,-3.2567 5.55574,-3.55443 12.7,-3.96875 -0.0462,-1.34687 -0.0314,-2.23641 0.26459,-3.70417 0,0 -13.04885,1.87569 -19.61689,1.85208 -6.568041,0.0236 -19.616894,-1.85208 -19.616894,-1.85208 z m 19.659784,16.41812 c -2.453123,1.56827 -4.554645,3.27813 -6.367057,5.11493 -0.01349,9.72015 -0.192532,23.00695 -0.397907,35.42678 h 13.443624 c -0.20601,-12.4577 -0.38539,-25.78844 -0.39791,-35.51514 -1.79257,-1.80342 -3.86687,-3.48338 -6.28075,-5.02657 z m -6.906042,48.92518 c -0.01193,0.66398 -0.02355,1.27593 -0.03514,1.90582 h 13.796572 c -0.0116,-0.63009 -0.0232,-1.24228 -0.0351,-1.90582 z m -0.176731,9.53378 c -0.176385,9.11491 -0.317294,15.51585 -0.317294,15.51585 2.743039,0.22605 4.854808,2.51712 4.857067,5.26945 -0.0026,2.43056 -1.660586,4.54681 -4.01991,5.13095 l 6.52002,41.5525 6.52001,-41.5525 c -2.35933,-0.58414 -4.01691,-2.70039 -4.01991,-5.13095 0.002,-2.75233 2.11403,-5.0434 4.85707,-5.26945 0,0 -0.14041,-6.40291 -0.31678,-15.51585 z"
         style="fill:#000000;fill-opacity:1;stroke:none;stroke-width:0.26458332px;stroke-linecap:butt;stroke-linejoin:miter;stroke-opacity:1"
         inkscape:connector-curvature="0" />
    </g>
  </g>
</svg>
