<?xml version="1.0" encoding="UTF-8" standalone="no"?>
<!-- Generator: Adobe Illustrator 22.1.0, SVG Export Plug-In . SVG Version: 6.00 Build 0)  -->

<svg
   xmlns:dc="http://purl.org/dc/elements/1.1/"
   xmlns:cc="http://creativecommons.org/ns#"
   xmlns:rdf="http://www.w3.org/1999/02/22-rdf-syntax-ns#"
   xmlns:svg="http://www.w3.org/2000/svg"
   xmlns="http://www.w3.org/2000/svg"
   xmlns:sodipodi="http://sodipodi.sourceforge.net/DTD/sodipodi-0.dtd"
   xmlns:inkscape="http://www.inkscape.org/namespaces/inkscape"
   version="1.1"
   id="Layer_2_copy"
   x="0px"
   y="0px"
   viewBox="0 0 217.14861 800"
   xml:space="preserve"
   sodipodi:docname="Alaitoc [Aeldari, Eldar, Asuryani, Craftworlds].svg"
   width="217.14861"
   height="800"
   inkscape:version="0.92.3 (2405546, 2018-03-11)"><metadata
   id="metadata9"><rdf:RDF><cc:Work
       rdf:about=""><dc:format>image/svg+xml</dc:format><dc:type
         rdf:resource="http://purl.org/dc/dcmitype/StillImage" /><dc:title></dc:title></cc:Work></rdf:RDF></metadata><defs
   id="defs7" /><sodipodi:namedview
   pagecolor="#ffffff"
   bordercolor="#666666"
   borderopacity="1"
   objecttolerance="10"
   gridtolerance="10"
   guidetolerance="10"
   inkscape:pageopacity="0"
   inkscape:pageshadow="2"
   inkscape:window-width="1920"
   inkscape:window-height="1017"
   id="namedview5"
   showgrid="false"
   fit-margin-top="0"
   fit-margin-left="0"
   fit-margin-right="0"
   fit-margin-bottom="0"
   inkscape:zoom="0.236"
   inkscape:cx="-410.14237"
   inkscape:cy="496"
   inkscape:window-x="-8"
   inkscape:window-y="-8"
   inkscape:window-maximized="1"
   inkscape:current-layer="Layer_2_copy" />
<path
   d="m 217.14861,262.60957 c 0,-27.00252 -9.83375,-51.6675 -26.11586,-70.60957 1.8539,7.01259 2.82115,14.34761 2.82115,21.84383 0,35.94962 -22.24685,66.65995 -53.68262,79.23426 3.78842,-33.37028 9.10832,-59.80857 14.99245,-80.68514 -7.41562,2.33753 -16.12091,1.12846 -23.29471,-4.11083 -11.36524,-8.30227 -14.42821,-23.45592 -6.85139,-33.85391 7.57683,-10.39798 22.97229,-12.09068 34.33753,-3.78841 3.14358,2.25693 5.64232,5.07808 7.41562,8.22166 14.10579,-33.12846 27.56675,-41.51133 27.56675,-41.51133 0,0 -70.93199,17.73299 -73.10831,4.43325 l -1.12846,-90.84131 c 0,0 12.17128,-6.60958 12.17128,-19.90932 C 132.27204,17.733 115.74811,0 108.01008,0 100.27204,0 83.66751,17.733 83.66751,31.03275 c 0,13.29974 12.17128,19.90932 12.17128,19.90932 l -1.12846,90.84131 c -2.17632,13.29974 -73.10831,-4.43325 -73.10831,-4.43325 0,0 13.46095,8.38287 27.56675,41.51133 1.8539,-3.06297 4.27204,-5.88413 7.41561,-8.22166 11.36524,-8.30227 26.76071,-6.60957 34.33753,3.78841 7.57683,10.39799 4.51386,25.55164 -6.85138,33.85391 -7.1738,5.23929 -15.87909,6.44836 -23.29471,4.11083 5.88413,20.79597 11.20403,47.07304 14.99244,80.20151 C 44.97733,279.69773 23.29471,249.30982 23.29471,213.84383 23.29471,206.267 24.26196,198.93199 26.11587,192 9.83375,211.02267 0,235.68766 0,262.60957 c 0,50.37784 34.33753,92.77582 80.84635,105.02771 0.96725,33.28967 0.56423,71.1738 -1.6927,114.37783 0,18.86146 -11.04282,81.97481 -11.04282,178.37784 0,56.50378 39.89925,139.60705 39.89925,139.60705 0,0 39.89924,-83.10327 39.89924,-139.60705 0,-96.40303 -11.04282,-159.51638 -11.04282,-178.37784 -2.25693,-43.12342 -2.65995,-80.92695 -1.6927,-114.05541 47.07305,-11.92947 81.97481,-54.56927 81.97481,-105.35013 z"
   id="path2"
   inkscape:connector-curvature="0"
   style="stroke-width:0.80604535" />
</svg>