<?xml version="1.0" encoding="UTF-8" standalone="no"?>
<!-- Generator: Adobe Illustrator 22.1.0, SVG Export Plug-In . SVG Version: 6.00 Build 0)  -->

<svg
   xmlns:dc="http://purl.org/dc/elements/1.1/"
   xmlns:cc="http://creativecommons.org/ns#"
   xmlns:rdf="http://www.w3.org/1999/02/22-rdf-syntax-ns#"
   xmlns:svg="http://www.w3.org/2000/svg"
   xmlns="http://www.w3.org/2000/svg"
   xmlns:sodipodi="http://sodipodi.sourceforge.net/DTD/sodipodi-0.dtd"
   xmlns:inkscape="http://www.inkscape.org/namespaces/inkscape"
   version="1.1"
   id="Layer_2"
   x="0px"
   y="0px"
   viewBox="0 0 400.82816 800"
   xml:space="preserve"
   sodipodi:docname="Angels of Defiance [Imperium, Adeptus Astartes, Space Marines, Dark Angels, Chapter].svg"
   width="400.82816"
   height="800"
   inkscape:version="0.92.3 (2405546, 2018-03-11)"><metadata
   id="metadata17"><rdf:RDF><cc:Work
       rdf:about=""><dc:format>image/svg+xml</dc:format><dc:type
         rdf:resource="http://purl.org/dc/dcmitype/StillImage" /><dc:title></dc:title></cc:Work></rdf:RDF></metadata><defs
   id="defs15" /><sodipodi:namedview
   pagecolor="#ffffff"
   bordercolor="#666666"
   borderopacity="1"
   objecttolerance="10"
   gridtolerance="10"
   guidetolerance="10"
   inkscape:pageopacity="0"
   inkscape:pageshadow="2"
   inkscape:window-width="1920"
   inkscape:window-height="1017"
   id="namedview13"
   showgrid="false"
   inkscape:pagecheckerboard="true"
   fit-margin-top="0"
   fit-margin-left="0"
   fit-margin-right="0"
   fit-margin-bottom="0"
   inkscape:zoom="0.236"
   inkscape:cx="-272.74237"
   inkscape:cy="485"
   inkscape:window-x="-8"
   inkscape:window-y="-8"
   inkscape:window-maximized="1"
   inkscape:current-layer="Layer_2" />
<g
   id="g10"
   transform="matrix(0.82815735,0,0,0.82815735,-203.06418,-15.73499)">
	<polygon
   points="336.6,835.4 486.2,985 635.7,835.4 544.3,744 544.3,656.8 428,656.8 428,744 "
   id="polygon2" />
	<rect
   x="457.10001"
   y="19"
   width="60.200001"
   height="612.79999"
   id="rect4" />
	<path
   d="m 729.2,85.5 v -52 h -108 c -18,38.5 -44.1,61.1 -72.7,76.9 v 62.3 62.3 c 28.6,15.7 54.7,38.3 72.7,76.9 h 108 V 260 c -31.8,1.7 -48.5,-12.6 -47.8,-45.7 h 47.8 v -41.5 -41.5 h -47.8 c -0.7,-33.2 16,-47.5 47.8,-45.8 z"
   id="path6"
   inkscape:connector-curvature="0" />
	<path
   d="M 425.9,235.1 V 172.8 110.5 C 397.3,94.8 371.2,72.2 353.2,33.6 h -108 v 51.9 c 31.8,-1.7 48.5,12.6 47.8,45.7 h -47.8 v 41.5 41.5 H 293 c 0.8,33.1 -16,47.4 -47.8,45.7 v 51.9 h 108 c 18,-38.4 44.1,-61 72.7,-76.7 z"
   id="path8"
   inkscape:connector-curvature="0" />
</g>
</svg>