<?xml version="1.0" encoding="UTF-8" standalone="no"?>
<!-- Generator: Adobe Illustrator 23.0.3, SVG Export Plug-In . SVG Version: 6.00 Build 0)  -->

<svg
   xmlns:dc="http://purl.org/dc/elements/1.1/"
   xmlns:cc="http://creativecommons.org/ns#"
   xmlns:rdf="http://www.w3.org/1999/02/22-rdf-syntax-ns#"
   xmlns:svg="http://www.w3.org/2000/svg"
   xmlns="http://www.w3.org/2000/svg"
   xmlns:xlink="http://www.w3.org/1999/xlink"
   xmlns:sodipodi="http://sodipodi.sourceforge.net/DTD/sodipodi-0.dtd"
   xmlns:inkscape="http://www.inkscape.org/namespaces/inkscape"
   version="1.1"
   x="0px"
   y="0px"
   viewBox="0 0 552.78461 800"
   xml:space="preserve"
   id="svg12"
   sodipodi:docname="Avatar of Khaine [Aeldari, Eldar, Gods].svg"
   width="552.78461"
   height="800"
   inkscape:version="0.92.3 (2405546, 2018-03-11)"><metadata
   id="metadata18"><rdf:RDF><cc:Work
       rdf:about=""><dc:format>image/svg+xml</dc:format><dc:type
         rdf:resource="http://purl.org/dc/dcmitype/StillImage" /><dc:title></dc:title></cc:Work></rdf:RDF></metadata><defs
   id="defs16" /><sodipodi:namedview
   pagecolor="#ffffff"
   bordercolor="#666666"
   borderopacity="1"
   objecttolerance="10"
   gridtolerance="10"
   guidetolerance="10"
   inkscape:pageopacity="0"
   inkscape:pageshadow="2"
   inkscape:window-width="1920"
   inkscape:window-height="1017"
   id="namedview14"
   showgrid="false"
   fit-margin-top="0"
   fit-margin-left="0"
   fit-margin-right="0"
   fit-margin-bottom="0"
   inkscape:pagecheckerboard="true"
   inkscape:zoom="0.236"
   inkscape:cx="-200.54237"
   inkscape:cy="471"
   inkscape:window-x="-8"
   inkscape:window-y="-8"
   inkscape:window-maximized="1"
   inkscape:current-layer="svg12" />
<style
   type="text/css"
   id="style2">
	.st0{display:none;}
</style>
<g
   id="Layer_1"
   class="st0"
   style="display:none"
   transform="translate(-173,-171)">
	
		<image
   sodipodi:absref="C:\Users\Abed\Desktop\SVG\../Documents/Bakadesign/Projects/Warhammer 40.000 icons/To Do/Avatater of Khaine.jpg"
   xlink:href="../Documents/Bakadesign/Projects/Warhammer 40.000 icons/To Do/Avatater of Khaine.jpg"
   id="image4"
   transform="matrix(3.9348,0,0,3.9348,100,84)"
   height="219"
   width="201"
   style="display:inline;overflow:visible">
	</image>
</g>
<g
   id="Layer_2"
   transform="matrix(0.83889978,0,0,0.83889978,-145.12966,-14.571689)">
	<g
   id="g9">
		<path
   d="M 831.94,462.57 722.46,300.68 h 61.42 v -43 H 635.9 L 737.46,419.57 H 530.3 V 389.22 H 688.4 L 580.28,222.26 h 156.81 l -57.31,-84.74 h 44.66 v -43 H 650.7 L 627.61,60.37 h 141.1 v -43 H 541.05 L 642.6,179.26 h -90.17 l -49.96,-77.15 -49.96,77.15 H 362.34 L 463.9,17.37 H 236.24 v 43 h 141.1 L 354.25,94.52 H 280.5 v 43 h 44.66 l -57.31,84.74 H 424.66 L 316.55,389.21 h 158.1 v 30.35 H 267.48 L 369.04,257.67 H 221.06 v 43 h 61.42 L 173,462.57 h 301.65 v 35.41 H 317.18 v 43 h 157.46 v 40.47 H 363.98 v 43 h 110.67 l 1.26,183.39 c 0,0 51.86,-60.71 158.1,-63.24 C 782,750 783.25,914.09 626.42,922.94 515.12,917.88 486.03,787.61 335.52,792.67 197.66,796.46 173.63,962.15 173.63,962.15 c 25.43,-23.35 49.34,-22.32 72.09,-5.06 0,0 25.3,-121.42 98.65,-118.89 116.36,2.53 125.21,127.74 295.95,132.8 43,0 150.51,-10.12 150.51,-136.59 C 783.02,662.65 578.51,701.37 530.29,712.92 v -88.46 h 110.67 v -43 H 530.3 v -40.47 h 157.46 v -43 H 530.3 V 462.58 H 831.94 Z M 400.02,346.21 502.47,188.01 604.92,346.21 Z"
   id="path7"
   inkscape:connector-curvature="0" />
	</g>
</g>
</svg>