<?xml version="1.0" encoding="UTF-8" standalone="no"?>
<!-- Created with Inkscape (http://www.inkscape.org/) -->

<svg
   xmlns:dc="http://purl.org/dc/elements/1.1/"
   xmlns:cc="http://creativecommons.org/ns#"
   xmlns:rdf="http://www.w3.org/1999/02/22-rdf-syntax-ns#"
   xmlns:svg="http://www.w3.org/2000/svg"
   xmlns="http://www.w3.org/2000/svg"
   xmlns:sodipodi="http://sodipodi.sourceforge.net/DTD/sodipodi-0.dtd"
   xmlns:inkscape="http://www.inkscape.org/namespaces/inkscape"
   width="799.99976"
   height="800"
   viewBox="0 0 211.6666 211.66665"
   version="1.1"
   id="svg8"
   inkscape:version="0.92.3 (2405546, 2018-03-11)"
   sodipodi:docname="Bad Moons 2 [Orkoids, Orks, Clan].svg">
  <defs
     id="defs2" />
  <sodipodi:namedview
     id="base"
     pagecolor="#ffffff"
     bordercolor="#666666"
     borderopacity="1.0"
     inkscape:pageopacity="0.0"
     inkscape:pageshadow="2"
     inkscape:zoom="1"
     inkscape:cx="252.24039"
     inkscape:cy="292.42862"
     inkscape:document-units="px"
     inkscape:current-layer="layer1"
     showgrid="false"
     inkscape:snap-global="false"
     inkscape:window-width="1920"
     inkscape:window-height="1017"
     inkscape:window-x="-8"
     inkscape:window-y="-8"
     inkscape:window-maximized="1"
     fit-margin-top="0"
     fit-margin-left="0"
     fit-margin-right="0"
     fit-margin-bottom="0"
     units="px"
     inkscape:pagecheckerboard="true" />
  <metadata
     id="metadata5">
    <rdf:RDF>
      <cc:Work
         rdf:about="">
        <dc:format>image/svg+xml</dc:format>
        <dc:type
           rdf:resource="http://purl.org/dc/dcmitype/StillImage" />
        <dc:title></dc:title>
      </cc:Work>
    </rdf:RDF>
  </metadata>
  <g
     inkscape:label="Layer 1"
     inkscape:groupmode="layer"
     id="layer1"
     transform="translate(-31.248286,-10.821534)">
    <g
       id="g846"
       transform="matrix(1.3912482,0,0,1.3912482,-12.225837,-87.048118)">
      <path
         inkscape:connector-curvature="0"
         id="path826"
         transform="scale(0.26458333)"
         d="M 422.85742,267.87695 402.5,273.5918 384.64258,300.37695 v 10.71485 l 9.64062,11.78515 v 6.42774 l -8.0664,8.27539 a 216.71664,216.71664 0 0 0 -0.86914,0.12304 216.71664,216.71664 0 0 0 -1.35938,0.0684 216.71664,216.71664 0 0 0 -2.37305,0.35938 216.71664,216.71664 0 0 0 -0.3457,0.0215 216.71664,216.71664 0 0 0 -0.20898,0.0332 216.71664,216.71664 0 0 0 -0.2168,0.0137 216.71664,216.71664 0 0 0 -0.8125,0.13476 216.71664,216.71664 0 0 0 -1.57617,0.16993 l -3.75,-14 -12.98633,-9.82813 -18.23047,-7.31836 -3.88281,-14.48828 8.76562,-19.72656 -18.18359,10.78906 -10.31641,30.49414 2.77344,10.34961 12.36133,8.88867 1.66406,6.20899 -5.65039,10.08007 a 216.71664,216.71664 0 0 0 -0.80859,0.34376 216.71664,216.71664 0 0 0 -1.29102,0.41796 216.71664,216.71664 0 0 0 -2.19726,0.96094 216.71664,216.71664 0 0 0 -0.33008,0.11133 216.71664,216.71664 0 0 0 -0.20117,0.0879 216.71664,216.71664 0 0 0 -0.19922,0.0684 216.71664,216.71664 0 0 0 -0.72852,0.33203 216.71664,216.71664 0 0 0 -1.49805,0.57813 l -7.24609,-12.55079 -15.08789,-6.13281 -19.50195,-2.34961 -7.5,-12.99023 3.36133,-21.32422 -14.77344,15.12891 -2.07227,32.125 5.35742,9.27929 14.24219,5.38672 3.21289,5.56641 -2.84765,11.19922 a 216.71664,216.71664 0 0 0 -0.69532,0.54297 216.71664,216.71664 0 0 0 -1.13867,0.73828 216.71664,216.71664 0 0 0 -1.875,1.49609 216.71664,216.71664 0 0 0 -0.28711,0.19141 216.71664,216.71664 0 0 0 -0.16406,0.13281 216.71664,216.71664 0 0 0 -0.18164,0.12109 216.71664,216.71664 0 0 0 -0.62305,0.51367 216.71664,216.71664 0 0 0 -1.29297,0.94336 l -10.24609,-10.24804 -16.16211,-2.01953 -19.44726,2.77734 -10.60547,-10.60547 -2.27149,-21.4668 -10.35547,18.43555 6.31446,31.56836 7.57617,7.57617 15.15039,1.51563 4.54492,4.54492 0.14844,11.55664 a 216.71664,216.71664 0 0 0 -0.52344,0.69531 216.71664,216.71664 0 0 0 -0.91797,1.01563 216.71664,216.71664 0 0 0 -1.41992,1.92773 216.71664,216.71664 0 0 0 -0.23242,0.26367 216.71664,216.71664 0 0 0 -0.125,0.17188 216.71664,216.71664 0 0 0 -0.14258,0.16211 216.71664,216.71664 0 0 0 -0.47656,0.66601 216.71664,216.71664 0 0 0 -0.9961,1.23633 l -12.55078,-7.24609 -16.13281,2.23242 -18.06445,7.7168 -12.99219,-7.5 -7.75,-20.14649 -5.22852,20.48633 14.26758,28.85742 9.2793,5.35742 15.02734,-2.45507 5.56641,3.21289 3.13281,11.12304 a 216.71664,216.71664 0 0 0 -0.33008,0.81836 216.71664,216.71664 0 0 0 -0.61718,1.20703 216.71664,216.71664 0 0 0 -0.86133,2.19532 216.71664,216.71664 0 0 0 -0.17188,0.34961 216.71664,216.71664 0 0 0 -0.0859,0.22265 216.71664,216.71664 0 0 0 -0.084,0.16992 216.71664,216.71664 0 0 0 -0.30078,0.80079 216.71664,216.71664 0 0 0 -0.62695,1.41796 l -13.99805,-3.75195 -15.00586,6.33203 -15.45312,12.12891 -14.48829,-3.88086 -12.70117,-17.45508 0.25196,21.14258 21.25,24.18164 10.3496,2.77344 13.87891,-6.26172 6.20899,1.66406 5.90429,9.93164 a 216.71664,216.71664 0 0 0 -0.10742,0.87695 216.71664,216.71664 0 0 0 -0.2832,1.32618 216.71664,216.71664 0 0 0 -0.26367,2.35937 216.71664,216.71664 0 0 0 -0.0742,0.36524 216.71664,216.71664 0 0 0 -0.0234,0.21093 216.71664,216.71664 0 0 0 -0.041,0.21094 216.71664,216.71664 0 0 0 -0.084,0.86328 216.71664,216.71664 0 0 0 -0.23828,1.52149 h -14.49219 l -12.85547,10 -11.78711,15.71484 h -15 l -16.78515,-13.57227 5.71484,20.35743 26.78516,17.85742 h 10.71484 l 11.78516,-9.64063 h 6.42773 l 8.27539,8.06641 a 216.71664,216.71664 0 0 0 0.12109,0.86328 216.71664,216.71664 0 0 0 0.0703,1.36523 216.71664,216.71664 0 0 0 0.35547,2.34766 216.71664,216.71664 0 0 0 0.0234,0.3711 216.71664,216.71664 0 0 0 0.0352,0.23046 216.71664,216.71664 0 0 0 0.0137,0.19336 216.71664,216.71664 0 0 0 0.13867,0.83008 216.71664,216.71664 0 0 0 0.16602,1.55664 l -14,3.75196 -9.82813,12.98632 -7.31836,18.22852 -14.48828,3.88281 -19.72656,-8.76562 10.78906,18.18554 30.49414,10.31641 10.34961,-2.77344 8.88867,-12.36328 6.20899,-1.66211 10.08008,5.64844 a 216.71664,216.71664 0 0 0 0.36328,0.85351 216.71664,216.71664 0 0 0 0.4043,1.25196 216.71664,216.71664 0 0 0 0.93945,2.15234 216.71664,216.71664 0 0 0 0.12695,0.37305 216.71664,216.71664 0 0 0 0.0899,0.20312 216.71664,216.71664 0 0 0 0.0664,0.19532 216.71664,216.71664 0 0 0 0.33399,0.73632 216.71664,216.71664 0 0 0 0.57617,1.49024 l -12.55078,7.24609 -6.13282,15.08789 -2.3496,19.50391 -12.99024,7.5 -21.32422,-3.36328 15.12891,14.77344 32.125,2.07226 9.27929,-5.35742 5.38672,-14.24219 5.56641,-3.21289 11.19922,2.84766 a 216.71664,216.71664 0 0 0 0.57617,0.73828 216.71664,216.71664 0 0 0 0.71094,1.0957 216.71664,216.71664 0 0 0 1.44922,1.81641 216.71664,216.71664 0 0 0 0.23242,0.34765 216.71664,216.71664 0 0 0 0.13281,0.16407 216.71664,216.71664 0 0 0 0.12109,0.18164 216.71664,216.71664 0 0 0 0.53907,0.65625 216.71664,216.71664 0 0 0 0.91797,1.25781 l -10.24805,10.24805 -2.01758,16.16015 2.77539,19.44727 -10.60547,10.60742 -21.46679,2.27148 18.4375,10.35352 31.5664,-6.3125 7.57617,-7.57617 1.51563,-15.15039 4.54687,-4.54688 11.55469,-0.14648 a 216.71664,216.71664 0 0 0 0.76172,0.57422 216.71664,216.71664 0 0 0 0.95703,0.86328 216.71664,216.71664 0 0 0 1.86133,1.37304 216.71664,216.71664 0 0 0 0.32227,0.28321 216.71664,216.71664 0 0 0 0.17382,0.12695 216.71664,216.71664 0 0 0 0.16016,0.14063 216.71664,216.71664 0 0 0 0.68164,0.48828 216.71664,216.71664 0 0 0 1.2207,0.98242 l -7.24609,12.55078 2.23242,16.13281 7.7168,18.06641 -7.5,12.99023 -20.14649,7.75 20.48633,5.23047 28.85742,-14.26953 5.35743,-9.2793 -2.45508,-15.02539 3.21289,-5.5664 11.12305,-3.13477 a 216.71664,216.71664 0 0 0 0.8789,0.35547 216.71664,216.71664 0 0 0 1.1543,0.58984 216.71664,216.71664 0 0 0 2.16211,0.84766 216.71664,216.71664 0 0 0 0.375,0.18555 216.71664,216.71664 0 0 0 0.21289,0.082 216.71664,216.71664 0 0 0 0.18164,0.0898 216.71664,216.71664 0 0 0 0.75586,0.28321 216.71664,216.71664 0 0 0 1.46094,0.64648 l -3.75196,13.99805 6.33203,15.00586 12.12891,15.45312 -3.88086,14.48828 -17.45508,12.70117 21.14258,-0.25195 24.18164,-21.25 2.77344,-10.34961 -6.26172,-13.8789 1.66406,-6.20899 9.9336,-5.9043 a 216.71664,216.71664 0 0 0 0.95117,0.11524 216.71664,216.71664 0 0 0 1.25586,0.26953 216.71664,216.71664 0 0 0 2.30664,0.25977 216.71664,216.71664 0 0 0 0.41211,0.082 216.71664,216.71664 0 0 0 0.24219,0.0254 216.71664,216.71664 0 0 0 0.18359,0.0371 216.71664,216.71664 0 0 0 0.77344,0.0762 216.71664,216.71664 0 0 0 1.60742,0.25 v 14.49219 l 10,12.85546 15.71484,11.78711 v 15 l -13.57226,16.78516 20.35742,-5.71484 17.85742,-26.78516 v -10.71484 l -9.64062,-11.78516 v -6.42773 l 8.0664,-8.27539 a 216.71664,216.71664 0 0 0 0.92383,-0.13086 216.71664,216.71664 0 0 0 1.30859,-0.0664 216.71664,216.71664 0 0 0 2.30664,-0.34961 216.71664,216.71664 0 0 0 0.40821,-0.0254 216.71664,216.71664 0 0 0 0.2539,-0.0391 216.71664,216.71664 0 0 0 0.17383,-0.0117 216.71664,216.71664 0 0 0 0.75195,-0.125 216.71664,216.71664 0 0 0 1.63282,-0.17578 l 3.75195,13.99804 12.98633,9.83008 18.23047,7.31836 3.88086,14.48828 -8.76758,19.72461 18.18359,-10.78906 10.31641,-30.49414 L 488.58203,782 l -12.36133,-8.88867 -1.66406,-6.20899 5.65039,-10.08007 a 216.71664,216.71664 0 0 0 0.82227,-0.34961 216.71664,216.71664 0 0 0 1.28515,-0.41602 216.71664,216.71664 0 0 0 2.15039,-0.93945 216.71664,216.71664 0 0 0 0.37305,-0.12696 216.71664,216.71664 0 0 0 0.24023,-0.10546 216.71664,216.71664 0 0 0 0.16016,-0.0547 216.71664,216.71664 0 0 0 0.68555,-0.31055 216.71664,216.71664 0 0 0 1.54297,-0.59765 l 7.24609,12.55078 15.08789,6.13281 19.50195,2.35156 7.5,12.99024 -3.36523,21.32226 14.77148,-15.12891 2.07227,-32.125 -5.35742,-9.27929 -14.24024,-5.38477 -3.21484,-5.56836 2.84766,-11.19922 a 216.71664,216.71664 0 0 0 0.68554,-0.53515 216.71664,216.71664 0 0 0 1.1543,-0.74805 216.71664,216.71664 0 0 0 1.85547,-1.48047 216.71664,216.71664 0 0 0 0.30469,-0.20312 216.71664,216.71664 0 0 0 0.19921,-0.16016 216.71664,216.71664 0 0 0 0.14844,-0.0996 216.71664,216.71664 0 0 0 0.58203,-0.47851 216.71664,216.71664 0 0 0 1.33399,-0.97461 l 10.24609,10.24804 16.16211,2.01758 19.44727,-2.77734 10.60547,10.60742 2.26757,21.4668 10.35352,-18.43555 -6.3125,-31.56641 -7.57617,-7.57617 -15.15039,-1.51758 -4.54493,-4.54492 -0.14843,-11.55469 a 216.71664,216.71664 0 0 0 0.52539,-0.69726 216.71664,216.71664 0 0 0 0.91797,-1.01758 216.71664,216.71664 0 0 0 1.40039,-1.90039 216.71664,216.71664 0 0 0 0.25195,-0.28711 216.71664,216.71664 0 0 0 0.14649,-0.20117 216.71664,216.71664 0 0 0 0.12109,-0.13672 216.71664,216.71664 0 0 0 0.45703,-0.63867 216.71664,216.71664 0 0 0 1.01758,-1.26367 l 12.55078,7.24609 16.13281,-2.23242 18.06641,-7.71485 12.99023,7.5 7.7461,20.14844 5.22851,-20.48828 -14.26758,-28.85742 -9.27929,-5.35742 -15.02735,2.45703 -5.5664,-3.21289 -3.13282,-11.125 a 216.71664,216.71664 0 0 0 0.33204,-0.82031 216.71664,216.71664 0 0 0 0.61718,-1.20899 216.71664,216.71664 0 0 0 0.86914,-2.21484 216.71664,216.71664 0 0 0 0.16016,-0.32617 216.71664,216.71664 0 0 0 0.0703,-0.1836 216.71664,216.71664 0 0 0 0.10352,-0.20898 216.71664,216.71664 0 0 0 0.28711,-0.76368 216.71664,216.71664 0 0 0 0.64453,-1.45703 l 13.99805,3.75 15.00586,-6.33203 15.45117,-12.12695 14.49023,3.88086 12.69727,17.45898 -0.25196,-21.14257 -21.25,-24.18165 -10.34961,-2.77343 -13.8789,6.26172 -6.20899,-1.66407 -5.90625,-9.93359 a 216.71664,216.71664 0 0 0 0.10743,-0.86914 216.71664,216.71664 0 0 0 0.28515,-1.33594 216.71664,216.71664 0 0 0 0.26758,-2.37695 216.71664,216.71664 0 0 0 0.0684,-0.34375 216.71664,216.71664 0 0 0 0.0234,-0.2168 216.71664,216.71664 0 0 0 0.041,-0.20703 216.71664,216.71664 0 0 0 0.0762,-0.7832 216.71664,216.71664 0 0 0 0.25,-1.60352 h 14.49219 l 12.85547,-10 11.78711,-15.71484 h 15 l 16.7832,13.57617 -5.71484,-20.35742 -26.78516,-17.85742 h -10.71484 l -11.78516,9.64062 h -6.42773 l -8.27539,-8.06641 a 216.71664,216.71664 0 0 0 -0.125,-0.88085 216.71664,216.71664 0 0 0 -0.0684,-1.35157 216.71664,216.71664 0 0 0 -0.35547,-2.35156 216.71664,216.71664 0 0 0 -0.0234,-0.36328 216.71664,216.71664 0 0 0 -0.0332,-0.20899 216.71664,216.71664 0 0 0 -0.0137,-0.21679 216.71664,216.71664 0 0 0 -0.12891,-0.77735 216.71664,216.71664 0 0 0 -0.17383,-1.60937 l 13.99805,-3.75 9.83008,-12.98828 7.31836,-18.22852 14.48828,-3.88281 19.72461,8.76562 -10.78906,-18.18359 -30.49415,-10.31641 -10.3496,2.77344 -8.88868,12.36133 -6.20898,1.66406 -10.08203,-5.65039 a 216.71664,216.71664 0 0 0 -0.35352,-0.83203 216.71664,216.71664 0 0 0 -0.41015,-1.26953 216.71664,216.71664 0 0 0 -0.94141,-2.15625 216.71664,216.71664 0 0 0 -0.12695,-0.37305 216.71664,216.71664 0 0 0 -0.082,-0.18554 216.71664,216.71664 0 0 0 -0.0723,-0.2129 216.71664,216.71664 0 0 0 -0.34375,-0.75585 216.71664,216.71664 0 0 0 -0.56836,-1.46875 l 12.55078,-7.2461 6.13281,-15.08789 2.35157,-19.50391 12.99023,-7.5 21.32031,3.36133 -15.12695,-14.77148 -32.125,-2.07422 -9.28125,5.35742 -5.38477,14.24219 -5.5664,3.21484 -11.20117,-2.84765 a 216.71664,216.71664 0 0 0 -0.52344,-0.66993 216.71664,216.71664 0 0 0 -0.75586,-1.16601 216.71664,216.71664 0 0 0 -1.49414,-1.87109 216.71664,216.71664 0 0 0 -0.19531,-0.29297 216.71664,216.71664 0 0 0 -0.13086,-0.16211 216.71664,216.71664 0 0 0 -0.1211,-0.18164 216.71664,216.71664 0 0 0 -0.52734,-0.64063 216.71664,216.71664 0 0 0 -0.92969,-1.27344 l 10.24805,-10.24804 2.01953,-16.16211 -2.77734,-19.44531 10.60547,-10.60743 21.46679,-2.27148 -18.4375,-10.35352 -31.5664,6.3125 -7.57618,7.57618 -1.51757,15.15039 -4.54493,4.54492 -11.55468,0.14844 a 216.71664,216.71664 0 0 0 -0.70508,-0.53125 216.71664,216.71664 0 0 0 -1.00781,-0.91016 216.71664,216.71664 0 0 0 -1.91993,-1.41602 216.71664,216.71664 0 0 0 -0.26953,-0.23632 216.71664,216.71664 0 0 0 -0.17187,-0.125 216.71664,216.71664 0 0 0 -0.16211,-0.14258 216.71664,216.71664 0 0 0 -0.66602,-0.47656 216.71664,216.71664 0 0 0 -1.23632,-0.9961 l 7.24609,-12.55078 -2.23242,-16.13281 -7.71485,-18.06446 7.5,-12.99023 20.14453,-7.75 -20.48632,-5.23047 -28.85743,14.26758 -5.35742,9.2793 2.45508,15.02734 -3.21289,5.56641 -11.12305,3.13281 a 216.71664,216.71664 0 0 0 -0.82617,-0.33203 216.71664,216.71664 0 0 0 -1.20117,-0.61524 216.71664,216.71664 0 0 0 -2.19727,-0.86132 216.71664,216.71664 0 0 0 -0.3457,-0.16993 216.71664,216.71664 0 0 0 -0.21484,-0.084 216.71664,216.71664 0 0 0 -0.17969,-0.0879 216.71664,216.71664 0 0 0 -0.78516,-0.29492 216.71664,216.71664 0 0 0 -1.43164,-0.63282 l 3.75196,-13.99804 -6.33204,-15.00586 -12.1289,-15.45313 3.88281,-14.48828 17.45313,-12.70117 -21.14258,0.25195 -24.18164,21.25 -2.77344,10.34961 6.26172,13.87891 -1.66406,6.20898 -9.9336,5.9043 a 216.71664,216.71664 0 0 0 -0.86914,-0.10547 216.71664,216.71664 0 0 0 -1.33203,-0.28516 216.71664,216.71664 0 0 0 -2.37695,-0.26562 216.71664,216.71664 0 0 0 -0.34766,-0.0703 216.71664,216.71664 0 0 0 -0.19726,-0.0215 216.71664,216.71664 0 0 0 -0.22657,-0.0449 216.71664,216.71664 0 0 0 -0.83203,-0.0801 A 216.71664,216.71664 0 0 0 435,338.79688 v -14.49219 l -10,-12.85547 -15.71484,-11.78711 v -15 z m -17.24219,75.7461 c 7.7037,1e-5 13.94922,6.24355 13.94922,13.94726 0,7.70372 -6.24552,13.94921 -13.94922,13.94922 -7.70373,1e-5 -13.94921,-6.24549 -13.94921,-13.94922 0,-7.70373 6.24548,-13.94727 13.94921,-13.94726 z m 138.46485,57.35351 c 3.56958,2.4e-4 7.13765,1.36226 9.86133,4.08594 5.44732,5.44736 5.44931,14.27725 0.002,19.72461 -5.44732,5.44732 -14.27921,5.44732 -19.72656,0 -5.44736,-5.44736 -5.44736,-14.27921 0,-19.72656 2.72368,-2.72368 6.29369,-4.08422 9.86328,-4.08399 z m -276.72461,0.002 a 13.948819,13.948819 0 0 1 9.66015,4.08398 13.948819,13.948819 0 0 1 0,19.72656 13.948819,13.948819 0 0 1 -19.72656,0 13.948819,13.948819 0 0 1 0,-19.72656 13.948819,13.948819 0 0 1 10.06641,-4.08398 z m -57.55664,138.46093 a 13.948819,13.948819 0 0 1 13.94922,13.94922 13.948819,13.948819 0 0 1 -13.94922,13.94922 13.948819,13.948819 0 0 1 -13.94922,-13.94922 13.948819,13.948819 0 0 1 13.94922,-13.94922 z m 391.63476,0 c 7.70374,0 13.94727,6.24549 13.94727,13.94922 0,7.7037 -6.24353,13.94922 -13.94727,13.94922 -7.70369,0 -13.94922,-6.24552 -13.94921,-13.94922 -4e-5,-7.70373 6.24548,-13.94922 13.94921,-13.94922 z M 267.35547,677.9043 a 13.948819,13.948819 0 0 1 9.66015,4.08398 13.948819,13.948819 0 0 1 0,19.72656 13.948819,13.948819 0 0 1 -19.72656,0 13.948819,13.948819 0 0 1 0,-19.72656 13.948819,13.948819 0 0 1 10.06641,-4.08398 z m 276.72461,0 c 3.56981,0 7.1396,1.36226 9.86328,4.08593 5.44736,5.44736 5.44544,14.27726 -0.002,19.72461 -5.44732,5.44732 -14.27726,5.44931 -19.72461,0.002 -5.44732,-5.44736 -5.44732,-14.27921 0,-19.72657 2.72368,-2.72367 6.29347,-4.08593 9.86328,-4.08593 z m -138.46485,57.35351 a 13.948819,13.948819 0 0 1 13.94922,13.94727 13.948819,13.948819 0 0 1 -13.94922,13.94922 13.948819,13.948819 0 0 1 -13.94921,-13.94922 13.948819,13.948819 0 0 1 13.94921,-13.94727 z"
         style="opacity:1;fill:none;fill-opacity:0.58139535;stroke:#000000;stroke-width:4;stroke-linecap:round;stroke-linejoin:round;stroke-miterlimit:4;stroke-dasharray:none;stroke-opacity:1" />
      <path
         inkscape:connector-curvature="0"
         id="path876"
         transform="scale(0.26458333)"
         d="m 343,378.51953 -85.00195,110 v 119 l 61.00195,96 h 62 l 31,-10 14,12 61,-3 7,-8 -3,-8 19,2 13,-17 v -3 h 12 l 24,-56 -60,32 -43,-13 13,-32 -38,19 -17,-33 -1,-24 21,2 c 0,0 -7.54709,-19.2733 -13,-28 -3.64146,-5.82769 -13,-16 -13,-16 l 25,-5 -5,-20 39,-35 87,32.5 -55,-95 z m -16,128 18,1 41,16 9,-3 -8,8 3,10 -13,16 -2,-18 -11,1 z m 60,73 35,51 -28,12 z m -10,23 3,55 -30,-36 z m -57,7 39,45 -28,13 z"
         style="fill:#000000;fill-opacity:1;stroke:none;stroke-width:0.99999994px;stroke-linecap:butt;stroke-linejoin:miter;stroke-opacity:1" />
      <g
         id="g833">
        <path
           inkscape:connector-curvature="0"
           id="path921-8-0"
           d="m 108.81136,94.607277 a 1.4923332,1.4923332 0 0 1 -1.49233,1.492333 1.4923332,1.4923332 0 0 1 -1.49233,-1.492333 1.4923332,1.4923332 0 0 1 1.49233,-1.492333 1.4923332,1.4923332 0 0 1 1.49233,1.492333 z"
           style="opacity:1;fill:#000000;fill-opacity:1;stroke:none;stroke-width:0.14563681;stroke-linecap:round;stroke-linejoin:round;stroke-miterlimit:4;stroke-dasharray:none;stroke-opacity:1" />
        <circle
           style="opacity:1;fill:#000000;fill-opacity:1;stroke:none;stroke-width:0.14563681;stroke-linecap:round;stroke-linejoin:round;stroke-miterlimit:4;stroke-dasharray:none;stroke-opacity:1"
           id="path921-8-0-1"
           cx="107.31903"
           cy="198.22737"
           r="1.4923332" />
        <path
           inkscape:connector-curvature="0"
           style="opacity:1;fill:#000000;fill-opacity:1;stroke:none;stroke-width:0.14563681;stroke-linecap:round;stroke-linejoin:round;stroke-miterlimit:4;stroke-dasharray:none;stroke-opacity:1"
           d="m 145.00963,110.83738 a 1.4923332,1.4923332 0 0 1 -2.11048,0 1.4923332,1.4923332 0 0 1 0,-2.11047 1.4923332,1.4923332 0 0 1 2.11048,0 1.4923332,1.4923332 0 0 1 0,2.11047 z"
           id="path983" />
        <circle
           r="1.4923332"
           cy="79.456673"
           cx="179.41882"
           id="circle989"
           style="opacity:1;fill:#000000;fill-opacity:1;stroke:none;stroke-width:0.14563681;stroke-linecap:round;stroke-linejoin:round;stroke-miterlimit:4;stroke-dasharray:none;stroke-opacity:1"
           transform="rotate(45)" />
        <path
           id="path995"
           d="m 159.12922,147.90977 a 1.4923332,1.4923332 0 0 1 -1.49233,-1.49233 1.4923332,1.4923332 0 0 1 1.49233,-1.49233 1.4923332,1.4923332 0 0 1 1.49234,1.49233 1.4923332,1.4923332 0 0 1 -1.49234,1.49233 z"
           style="opacity:1;fill:#000000;fill-opacity:1;stroke:none;stroke-width:0.14563681;stroke-linecap:round;stroke-linejoin:round;stroke-miterlimit:4;stroke-dasharray:none;stroke-opacity:1"
           inkscape:connector-curvature="0" />
        <circle
           style="opacity:1;fill:#000000;fill-opacity:1;stroke:none;stroke-width:0.14563681;stroke-linecap:round;stroke-linejoin:round;stroke-miterlimit:4;stroke-dasharray:none;stroke-opacity:1"
           id="circle1001"
           cx="146.41745"
           cy="-55.509125"
           r="1.4923332"
           transform="rotate(90)" />
        <path
           inkscape:connector-curvature="0"
           style="opacity:1;fill:#000000;fill-opacity:1;stroke:none;stroke-width:0.14563681;stroke-linecap:round;stroke-linejoin:round;stroke-miterlimit:4;stroke-dasharray:none;stroke-opacity:1"
           d="m 142.89912,184.10804 a 1.4923332,1.4923332 0 0 1 0,-2.11048 1.4923332,1.4923332 0 0 1 2.11047,0 1.4923332,1.4923332 0 0 1 0,2.11048 1.4923332,1.4923332 0 0 1 -2.11047,0 z"
           id="path1007" />
        <circle
           r="1.4923332"
           cy="-127.60889"
           cx="27.646788"
           id="circle1013"
           style="opacity:1;fill:#000000;fill-opacity:1;stroke:none;stroke-width:0.14563681;stroke-linecap:round;stroke-linejoin:round;stroke-miterlimit:4;stroke-dasharray:none;stroke-opacity:1"
           transform="rotate(135)" />
      </g>
    </g>
  </g>
</svg>
