<?xml version="1.0" encoding="UTF-8" standalone="no"?>
<!-- Created with Inkscape (http://www.inkscape.org/) -->

<svg
   xmlns:dc="http://purl.org/dc/elements/1.1/"
   xmlns:cc="http://creativecommons.org/ns#"
   xmlns:rdf="http://www.w3.org/1999/02/22-rdf-syntax-ns#"
   xmlns:svg="http://www.w3.org/2000/svg"
   xmlns="http://www.w3.org/2000/svg"
   xmlns:sodipodi="http://sodipodi.sourceforge.net/DTD/sodipodi-0.dtd"
   xmlns:inkscape="http://www.inkscape.org/namespaces/inkscape"
   width="800.00012"
   height="800"
   viewBox="0 0 211.6667 211.66665"
   version="1.1"
   id="svg8"
   inkscape:version="0.92.3 (2405546, 2018-03-11)"
   sodipodi:docname="Bad Moons [Orkoids, Orks, Clan].svg">
  <defs
     id="defs2" />
  <sodipodi:namedview
     id="base"
     pagecolor="#ffffff"
     bordercolor="#666666"
     borderopacity="1.0"
     inkscape:pageopacity="0.0"
     inkscape:pageshadow="2"
     inkscape:zoom="1"
     inkscape:cx="432.44198"
     inkscape:cy="410.03256"
     inkscape:document-units="px"
     inkscape:current-layer="layer1"
     showgrid="false"
     inkscape:snap-global="false"
     inkscape:window-width="1920"
     inkscape:window-height="1017"
     inkscape:window-x="-8"
     inkscape:window-y="-8"
     inkscape:window-maximized="1"
     fit-margin-top="0"
     fit-margin-left="0"
     fit-margin-right="0"
     fit-margin-bottom="0"
     units="px"
     inkscape:pagecheckerboard="true" />
  <metadata
     id="metadata5">
    <rdf:RDF>
      <cc:Work
         rdf:about="">
        <dc:format>image/svg+xml</dc:format>
        <dc:type
           rdf:resource="http://purl.org/dc/dcmitype/StillImage" />
        <dc:title></dc:title>
      </cc:Work>
    </rdf:RDF>
  </metadata>
  <g
     inkscape:label="Layer 1"
     inkscape:groupmode="layer"
     id="layer1"
     transform="translate(-31.882205,-10.187568)">
    <g
       id="g1148"
       transform="matrix(1.4009935,0,0,1.4009935,-12.63774,-89.108932)"
       style="stroke:none">
      <path
         id="path826"
         transform="matrix(0.26458333,0,0,0.26458333,31.77741,70.875775)"
         d="M 302.75391,0 282.39648,5.7148438 264.53906,32.5 V 43.214844 L 274.17969,55 v 6.427734 l -8.06641,8.275391 a 216.71664,216.71664 0 0 0 -0.86914,0.123047 216.71664,216.71664 0 0 0 -1.35937,0.06836 216.71664,216.71664 0 0 0 -2.37305,0.359375 216.71664,216.71664 0 0 0 -0.3457,0.02148 216.71664,216.71664 0 0 0 -0.20899,0.0332 216.71664,216.71664 0 0 0 -0.2168,0.01367 216.71664,216.71664 0 0 0 -0.8125,0.134765 216.71664,216.71664 0 0 0 -1.57617,0.169922 l -3.75,-14 -12.98633,-9.828125 -18.23046,-7.318359 -3.88282,-14.488281 8.76563,-19.726563 -18.1836,10.789063 -10.3164,30.49414 2.77344,10.34961 12.36132,8.888671 1.66407,6.208985 -5.65039,10.080078 a 216.71664,216.71664 0 0 0 -0.8086,0.34375 216.71664,216.71664 0 0 0 -1.29101,0.417969 216.71664,216.71664 0 0 0 -2.19727,0.960937 216.71664,216.71664 0 0 0 -0.33008,0.111328 216.71664,216.71664 0 0 0 -0.20117,0.08789 216.71664,216.71664 0 0 0 -0.19922,0.06836 216.71664,216.71664 0 0 0 -0.72851,0.332032 216.71664,216.71664 0 0 0 -1.49805,0.578124 l -7.24609,-12.550781 -15.0879,-6.132812 -19.50195,-2.34961 -7.5,-12.990234 3.36133,-21.324219 -14.77344,15.128906 -2.07226,32.125 5.35742,9.279297 14.24219,5.386719 3.21289,5.566406 -2.84766,11.199215 a 216.71664,216.71664 0 0 0 -0.69531,0.54297 216.71664,216.71664 0 0 0 -1.13867,0.73828 216.71664,216.71664 0 0 0 -1.875,1.4961 216.71664,216.71664 0 0 0 -0.28711,0.1914 216.71664,216.71664 0 0 0 -0.16407,0.13282 216.71664,216.71664 0 0 0 -0.18164,0.12109 216.71664,216.71664 0 0 0 -0.62304,0.51367 216.71664,216.71664 0 0 0 -1.29297,0.94336 l -10.2461,-10.24805 -16.16211,-2.01953 -19.44726,2.77735 -10.605469,-10.605471 -2.271485,-21.466797 -10.355468,18.435547 6.314453,31.568361 7.576171,7.57617 15.150388,1.51562 4.54493,4.54493 0.14843,11.55664 a 216.71664,216.71664 0 0 0 -0.52343,0.69531 216.71664,216.71664 0 0 0 -0.91797,1.01562 216.71664,216.71664 0 0 0 -1.41993,1.92774 216.71664,216.71664 0 0 0 -0.23242,0.26367 216.71664,216.71664 0 0 0 -0.125,0.17187 216.71664,216.71664 0 0 0 -0.14258,0.16211 216.71664,216.71664 0 0 0 -0.47656,0.66602 216.71664,216.71664 0 0 0 -0.99609,1.23633 l -12.55078,-7.2461 -16.132816,2.23243 -18.064453,7.71679 -12.992187,-7.5 -7.75,-20.14648 -5.228516,20.48633 14.267578,28.85742 9.279297,5.35742 15.027344,-2.45508 5.566406,3.21289 3.132813,11.12305 a 216.71664,216.71664 0 0 0 -0.330078,0.81836 216.71664,216.71664 0 0 0 -0.617188,1.20703 216.71664,216.71664 0 0 0 -0.861328,2.19531 216.71664,216.71664 0 0 0 -0.171875,0.34961 216.71664,216.71664 0 0 0 -0.08594,0.22266 216.71664,216.71664 0 0 0 -0.08398,0.16992 216.71664,216.71664 0 0 0 -0.300781,0.80078 216.71664,216.71664 0 0 0 -0.626953,1.41797 l -13.998047,-3.75195 -15.00586,6.33203 -15.453125,12.12891 -14.488281,-3.88086 -12.701172,-17.45508 0.251953,21.14258 21.25,24.18164 10.34961,2.77343 13.878906,-6.26171 6.208984,1.66406 5.904297,9.93164 a 216.71664,216.71664 0 0 0 -0.107422,0.87695 216.71664,216.71664 0 0 0 -0.283203,1.32617 216.71664,216.71664 0 0 0 -0.263672,2.35938 216.71664,216.71664 0 0 0 -0.07422,0.36523 216.71664,216.71664 0 0 0 -0.02344,0.21094 216.71664,216.71664 0 0 0 -0.04102,0.21094 216.71664,216.71664 0 0 0 -0.08398,0.86328 216.71664,216.71664 0 0 0 -0.238281,1.52148 H 56.427734 l -12.855468,10 -11.78711,15.71485 h -15 L 0,268.26953 5.7148438,288.62695 32.5,306.48438 H 43.214844 L 55,296.84375 h 6.427734 l 8.275391,8.06641 a 216.71664,216.71664 0 0 0 0.121094,0.86328 216.71664,216.71664 0 0 0 0.07031,1.36523 216.71664,216.71664 0 0 0 0.355469,2.34766 216.71664,216.71664 0 0 0 0.02344,0.37109 216.71664,216.71664 0 0 0 0.03516,0.23047 216.71664,216.71664 0 0 0 0.01367,0.19336 216.71664,216.71664 0 0 0 0.138672,0.83008 216.71664,216.71664 0 0 0 0.166015,1.55664 l -14,3.75195 -9.828125,12.98633 -7.318359,18.22852 -14.488281,3.88281 -19.726563,-8.76563 10.789063,18.18555 30.49414,10.31641 10.34961,-2.77344 8.888671,-12.36328 6.208985,-1.66211 10.080078,5.64844 a 216.71664,216.71664 0 0 0 0.363281,0.85351 216.71664,216.71664 0 0 0 0.404297,1.25195 216.71664,216.71664 0 0 0 0.939453,2.15235 216.71664,216.71664 0 0 0 0.126953,0.37305 216.71664,216.71664 0 0 0 0.08984,0.20312 216.71664,216.71664 0 0 0 0.06641,0.19531 216.71664,216.71664 0 0 0 0.333985,0.73633 216.71664,216.71664 0 0 0 0.576171,1.49024 l -12.550781,7.24609 -6.132812,15.08789 -2.34961,19.50391 -12.990234,7.5 -21.324219,-3.36329 15.128906,14.77344 32.125,2.07227 9.279297,-5.35742 5.386719,-14.24219 5.566406,-3.21289 11.199214,2.84765 a 216.71664,216.71664 0 0 0 0.57617,0.73828 216.71664,216.71664 0 0 0 0.71094,1.09571 216.71664,216.71664 0 0 0 1.44922,1.8164 216.71664,216.71664 0 0 0 0.23242,0.34766 216.71664,216.71664 0 0 0 0.13282,0.16406 216.71664,216.71664 0 0 0 0.12109,0.18164 216.71664,216.71664 0 0 0 0.53906,0.65625 216.71664,216.71664 0 0 0 0.91797,1.25782 l -10.24805,10.24804 -2.01757,16.16016 2.77539,19.44726 -10.60547,10.60743 -21.466797,2.27148 18.4375,10.35352 31.566407,-6.3125 7.57617,-7.57617 1.51562,-15.1504 4.54688,-4.54687 11.55469,-0.14649 a 216.71664,216.71664 0 0 0 0.76171,0.57422 216.71664,216.71664 0 0 0 0.95704,0.86328 216.71664,216.71664 0 0 0 1.86132,1.37305 216.71664,216.71664 0 0 0 0.32227,0.28321 216.71664,216.71664 0 0 0 0.17383,0.12695 216.71664,216.71664 0 0 0 0.16015,0.14062 216.71664,216.71664 0 0 0 0.68165,0.48828 216.71664,216.71664 0 0 0 1.2207,0.98243 l -7.2461,12.55078 2.23243,16.13281 7.71679,18.06641 -7.5,12.99023 -20.14648,7.75 20.48633,5.23047 28.85742,-14.26953 5.35742,-9.2793 -2.45508,-15.02539 3.21289,-5.56641 11.12305,-3.13476 a 216.71664,216.71664 0 0 0 0.87891,0.35547 216.71664,216.71664 0 0 0 1.15429,0.58984 216.71664,216.71664 0 0 0 2.16211,0.84766 216.71664,216.71664 0 0 0 0.375,0.18554 216.71664,216.71664 0 0 0 0.21289,0.082 216.71664,216.71664 0 0 0 0.18164,0.0898 216.71664,216.71664 0 0 0 0.75586,0.2832 216.71664,216.71664 0 0 0 1.46094,0.64649 l -3.75195,13.99804 6.33203,15.00586 12.12891,15.45313 -3.88086,14.48828 -17.45508,12.70117 21.14258,-0.25195 24.18164,-21.25 2.77343,-10.34961 -6.26171,-13.87891 1.66406,-6.20898 9.93359,-5.9043 a 216.71664,216.71664 0 0 0 0.95117,0.11524 216.71664,216.71664 0 0 0 1.25586,0.26953 216.71664,216.71664 0 0 0 2.30664,0.25976 216.71664,216.71664 0 0 0 0.41211,0.082 216.71664,216.71664 0 0 0 0.24219,0.0254 216.71664,216.71664 0 0 0 0.18359,0.0371 216.71664,216.71664 0 0 0 0.77344,0.0762 216.71664,216.71664 0 0 0 1.60742,0.25 v 14.49218 l 10,12.85547 15.71485,11.78711 v 15 l -13.57227,16.78516 20.35742,-5.71485 17.85743,-26.78515 V 527.8085 l -9.64063,-11.78515 v -6.42774 l 8.06641,-8.27539 a 216.71664,216.71664 0 0 0 0.92382,-0.13086 216.71664,216.71664 0 0 0 1.3086,-0.0664 216.71664,216.71664 0 0 0 2.30664,-0.34961 216.71664,216.71664 0 0 0 0.4082,-0.0254 216.71664,216.71664 0 0 0 0.25391,-0.0391 216.71664,216.71664 0 0 0 0.17383,-0.0117 216.71664,216.71664 0 0 0 0.75195,-0.125 216.71664,216.71664 0 0 0 1.63281,-0.17579 l 3.75196,13.99805 12.98632,9.83008 18.23047,7.31836 3.88086,14.48828 -8.76758,19.72461 18.1836,-10.78906 10.3164,-30.49414 -2.77343,-10.34961 -12.36133,-8.88867 -1.66407,-6.20899 5.6504,-10.08008 a 216.71664,216.71664 0 0 0 0.82226,-0.34961 216.71664,216.71664 0 0 0 1.28516,-0.41601 216.71664,216.71664 0 0 0 2.15039,-0.93946 216.71664,216.71664 0 0 0 0.37305,-0.12695 216.71664,216.71664 0 0 0 0.24023,-0.10547 216.71664,216.71664 0 0 0 0.16016,-0.0547 216.71664,216.71664 0 0 0 0.68554,-0.31054 216.71664,216.71664 0 0 0 1.54297,-0.59766 l 7.2461,12.55078 15.08789,6.13282 19.50195,2.35156 7.5,12.99023 -3.36524,21.32227 14.77149,-15.12891 2.07226,-32.125 -5.35742,-9.27929 -14.24023,-5.38477 -3.21485,-5.56836 2.84766,-11.19922 a 216.71664,216.71664 0 0 0 0.68555,-0.53515 216.71664,216.71664 0 0 0 1.15429,-0.74805 216.71664,216.71664 0 0 0 1.85547,-1.48047 216.71664,216.71664 0 0 0 0.30469,-0.20313 216.71664,216.71664 0 0 0 0.19922,-0.16015 216.71664,216.71664 0 0 0 0.14844,-0.0996 216.71664,216.71664 0 0 0 0.58203,-0.47852 216.71664,216.71664 0 0 0 1.33398,-0.97461 l 10.2461,10.24805 16.16211,2.01758 19.44726,-2.77735 10.60547,10.60743 2.26758,21.46679 10.35351,-18.43554 -6.3125,-31.56641 -7.57617,-7.57617 -15.15039,-1.51758 -4.54492,-4.54492 -0.14844,-11.55469 a 216.71664,216.71664 0 0 0 0.52539,-0.69726 216.71664,216.71664 0 0 0 0.91797,-1.01758 216.71664,216.71664 0 0 0 1.40039,-1.90039 216.71664,216.71664 0 0 0 0.25196,-0.28711 216.71664,216.71664 0 0 0 0.14648,-0.20117 216.71664,216.71664 0 0 0 0.12109,-0.13672 216.71664,216.71664 0 0 0 0.45703,-0.63868 216.71664,216.71664 0 0 0 1.01758,-1.26367 l 12.55078,7.2461 16.13282,-2.23243 18.0664,-7.71484 12.99024,7.5 7.74609,20.14844 5.22852,-20.48828 -14.26758,-28.85742 -9.2793,-5.35743 -15.02734,2.45703 -5.56641,-3.21289 -3.13281,-11.125 a 216.71664,216.71664 0 0 0 0.33203,-0.82031 216.71664,216.71664 0 0 0 0.61719,-1.20898 216.71664,216.71664 0 0 0 0.86914,-2.21485 216.71664,216.71664 0 0 0 0.16015,-0.32617 216.71664,216.71664 0 0 0 0.0703,-0.18359 216.71664,216.71664 0 0 0 0.10351,-0.20899 216.71664,216.71664 0 0 0 0.28711,-0.76367 216.71664,216.71664 0 0 0 0.64453,-1.45703 l 13.99805,3.75 15.00586,-6.33203 15.45117,-12.12695 14.49024,3.88086 12.69726,17.45898 -0.25195,-21.14258 -21.25,-24.18164 -10.34961,-2.77344 -13.87891,6.26172 -6.20898,-1.66406 -5.90625,-9.93359 a 216.71664,216.71664 0 0 0 0.10742,-0.86914 216.71664,216.71664 0 0 0 0.28516,-1.33594 216.71664,216.71664 0 0 0 0.26757,-2.37695 216.71664,216.71664 0 0 0 0.0684,-0.34376 216.71664,216.71664 0 0 0 0.0234,-0.21679 216.71664,216.71664 0 0 0 0.041,-0.20703 216.71664,216.71664 0 0 0 0.0762,-0.78321 216.71664,216.71664 0 0 0 0.25,-1.60351 h 14.49219 l 12.85546,-10 11.78711,-15.71485 h 15 l 16.78321,13.57618 -5.71485,-20.35743 -26.78515,-17.85742 h -10.71485 l -11.78515,9.64063 h -6.42774 l -8.27539,-8.06641 a 216.71664,216.71664 0 0 0 -0.125,-0.88086 216.71664,216.71664 0 0 0 -0.0684,-1.35156 216.71664,216.71664 0 0 0 -0.35547,-2.35156 216.71664,216.71664 0 0 0 -0.0234,-0.36328 216.71664,216.71664 0 0 0 -0.0332,-0.20899 216.71664,216.71664 0 0 0 -0.0137,-0.2168 216.71664,216.71664 0 0 0 -0.1289,-0.77734 216.71664,216.71664 0 0 0 -0.17383,-1.60937 l 13.99804,-3.75 9.83008,-12.98829 7.31836,-18.22851 14.48828,-3.88281 19.72461,8.76562 -10.78906,-18.18359 -30.49414,-10.31641 -10.34961,2.77344 -8.88867,12.36133 -6.20899,1.66406 -10.08203,-5.65039 a 216.71664,216.71664 0 0 0 -0.35351,-0.83203 216.71664,216.71664 0 0 0 -0.41016,-1.26953 216.71664,216.71664 0 0 0 -0.94141,-2.15625 216.71664,216.71664 0 0 0 -0.12695,-0.37305 216.71664,216.71664 0 0 0 -0.082,-0.18555 216.71664,216.71664 0 0 0 -0.0723,-0.21289 216.71664,216.71664 0 0 0 -0.34375,-0.75586 216.71664,216.71664 0 0 0 -0.56835,-1.46875 l 12.55078,-7.24609 6.13281,-15.08789 2.35156,-19.50391 12.99024,-7.5 21.32031,3.36133 -15.12696,-14.77148 -32.125,-2.07422 -9.28124,5.35742 -5.38477,14.24219 -5.56641,3.21484 -11.20117,-2.84766 a 216.71664,216.71664 0 0 0 -0.52344,-0.66992 216.71664,216.71664 0 0 0 -0.75586,-1.16601 216.71664,216.71664 0 0 0 -1.49414,-1.8711 216.71664,216.71664 0 0 0 -0.19531,-0.29297 216.71664,216.71664 0 0 0 -0.13086,-0.16211 216.71664,216.71664 0 0 0 -0.12109,-0.18164 216.71664,216.71664 0 0 0 -0.52735,-0.64062 216.71664,216.71664 0 0 0 -0.92968,-1.27344 l 10.24804,-10.24805 2.01954,-16.16211 -2.77735,-19.44531 10.60547,-10.607419 21.4668,-2.271485 -18.4375,-10.353515 -31.56641,6.3125 -7.57617,7.576171 -1.51758,15.150388 -4.54492,4.54493 -11.55469,0.14843 a 216.71664,216.71664 0 0 0 -0.70508,-0.53125 216.71664,216.71664 0 0 0 -1.00781,-0.91015 216.71664,216.71664 0 0 0 -1.91992,-1.41602 216.71664,216.71664 0 0 0 -0.26953,-0.23633 216.71664,216.71664 0 0 0 -0.17188,-0.125 216.71664,216.71664 0 0 0 -0.16211,-0.14258 216.71664,216.71664 0 0 0 -0.66601,-0.47656 216.71664,216.71664 0 0 0 -1.23633,-0.99609 l 7.24609,-12.55078 -2.23242,-16.132816 -7.71484,-18.064453 7.5,-12.990234 20.14453,-7.75 -20.48633,-5.230469 -28.85742,14.267578 -5.35742,9.279297 2.45507,15.027344 -3.21289,5.566406 -11.12304,3.132813 a 216.71664,216.71664 0 0 0 -0.82617,-0.332032 216.71664,216.71664 0 0 0 -1.20118,-0.615234 216.71664,216.71664 0 0 0 -2.19726,-0.861328 216.71664,216.71664 0 0 0 -0.3457,-0.169922 216.71664,216.71664 0 0 0 -0.21485,-0.08398 216.71664,216.71664 0 0 0 -0.17969,-0.08789 216.71664,216.71664 0 0 0 -0.78515,-0.294922 216.71664,216.71664 0 0 0 -1.43164,-0.632812 l 3.75195,-13.998047 -6.33203,-15.00586 -12.12891,-15.453125 3.88282,-14.488281 17.45312,-12.701172 -21.14258,0.251953 -24.18164,21.25 -2.77344,10.34961 6.26172,13.878906 -1.66406,6.208984 -9.93359,5.904297 a 216.71664,216.71664 0 0 0 -0.86914,-0.105468 216.71664,216.71664 0 0 0 -1.33204,-0.285157 216.71664,216.71664 0 0 0 -2.37695,-0.265625 216.71664,216.71664 0 0 0 -0.34766,-0.07031 216.71664,216.71664 0 0 0 -0.19726,-0.02148 216.71664,216.71664 0 0 0 -0.22656,-0.04492 216.71664,216.71664 0 0 0 -0.83203,-0.08008 216.71664,216.71664 0 0 0 -1.55079,-0.242187 v -14.49208 l -10,-12.855468 -15.71484,-11.78711 v -15 z m -17.24219,75.746094 c 7.7037,1e-5 13.94922,6.243555 13.94922,13.947265 0,7.703721 -6.24552,13.949211 -13.94922,13.949221 -7.70373,1e-5 -13.94922,-6.24549 -13.94922,-13.949221 0,-7.70373 6.24549,-13.947275 13.94922,-13.947265 z m -62.61524,34.896486 156,18.5 55,95 -87,-32.5 -39,35 5,20 -25,5 c 0,0 9.35854,10.17231 13,16 5.45291,8.7267 13,28 13,28 l -21,-2 1,24 17,33 38,-19 -13,32 43,13 60,-32 -24,56 h -12 v 3 l -13,17 -19,-2 3,8 -7,8 -61,3 -14,-12 -31,10 h -62 l -61.00195,-96 v -119 z m 201.08008,22.45703 c 3.56958,2.4e-4 7.13765,1.36226 9.86133,4.08594 5.44732,5.44736 5.44926,14.27725 0.002,19.72461 -5.44732,5.44732 -14.27921,5.44732 -19.72656,0 -5.44736,-5.44736 -5.44736,-14.27922 0,-19.72657 2.72368,-2.72368 6.29369,-4.08421 9.86328,-4.08398 z m -276.72461,0.002 a 13.948819,13.948819 0 0 1 9.66016,4.08399 13.948819,13.948819 0 0 1 0,19.72656 13.948819,13.948819 0 0 1 -19.72656,0 13.948819,13.948819 0 0 1 0,-19.72656 13.948819,13.948819 0 0 1 10.0664,-4.08399 z m 59.64453,105.54102 37,31 11,-1 2,18 13,-16 -3,-10 8,-8 -9,3 -41,-16 z M 89.695312,271.5625 A 13.948819,13.948819 0 0 1 103.64453,285.51172 13.948819,13.948819 0 0 1 89.695312,299.46094 13.948819,13.948819 0 0 1 75.746094,285.51172 13.948819,13.948819 0 0 1 89.695312,271.5625 Z m 391.634768,0 c 7.70374,0 13.94726,6.24549 13.94726,13.94922 0,7.7037 -6.24352,13.94922 -13.94726,13.94922 -7.70369,0 -13.94923,-6.24552 -13.94922,-13.94922 -4e-5,-7.70373 6.24549,-13.94922 13.94922,-13.94922 z m -214.4336,40.08008 7,63 28,-12 z m -10,23 -27,19 30,36 z m -57,7 11,58 28,-13 z m -52.64453,68.38476 a 13.948819,13.948819 0 0 1 9.66016,4.08399 13.948819,13.948819 0 0 1 0,19.72656 13.948819,13.948819 0 0 1 -19.72656,0 13.948819,13.948819 0 0 1 0,-19.72656 13.948819,13.948819 0 0 1 10.0664,-4.08399 z m 276.72461,0 c 3.56981,0 7.1396,1.36227 9.86328,4.08594 5.44736,5.44736 5.44549,14.27726 -0.002,19.72461 -5.44732,5.44732 -14.27726,5.44926 -19.72461,0.002 -5.44732,-5.44736 -5.44732,-14.2792 0,-19.72656 2.72368,-2.72367 6.29347,-4.08594 9.86328,-4.08594 z m -138.46484,57.35352 a 13.948819,13.948819 0 0 1 13.94922,13.94726 13.948819,13.948819 0 0 1 -13.94922,13.94922 13.948819,13.948819 0 0 1 -13.94922,-13.94922 13.948819,13.948819 0 0 1 13.94922,-13.94726 z"
         style="opacity:1;fill:#000000;fill-opacity:1;stroke:none;stroke-width:2;stroke-linecap:round;stroke-linejoin:round;stroke-miterlimit:4;stroke-dasharray:none;stroke-opacity:1"
         inkscape:connector-curvature="0" />
      <g
         id="g1136"
         style="stroke:none">
        <path
           inkscape:connector-curvature="0"
           id="path921-8-0"
           d="m 108.81136,94.607277 a 1.4923332,1.4923332 0 0 1 -1.49233,1.492333 1.4923332,1.4923332 0 0 1 -1.49233,-1.492333 1.4923332,1.4923332 0 0 1 1.49233,-1.492333 1.4923332,1.4923332 0 0 1 1.49233,1.492333 z"
           style="opacity:1;fill:#000000;fill-opacity:1;stroke:none;stroke-width:0.14563681;stroke-linecap:round;stroke-linejoin:round;stroke-miterlimit:4;stroke-dasharray:none;stroke-opacity:1" />
        <circle
           style="opacity:1;fill:#000000;fill-opacity:1;stroke:none;stroke-width:0.14563681;stroke-linecap:round;stroke-linejoin:round;stroke-miterlimit:4;stroke-dasharray:none;stroke-opacity:1"
           id="path921-8-0-1"
           cx="107.31903"
           cy="198.22737"
           r="1.4923332" />
        <path
           inkscape:connector-curvature="0"
           style="opacity:1;fill:#000000;fill-opacity:1;stroke:none;stroke-width:0.14563681;stroke-linecap:round;stroke-linejoin:round;stroke-miterlimit:4;stroke-dasharray:none;stroke-opacity:1"
           d="m 145.00963,110.83738 a 1.4923332,1.4923332 0 0 1 -2.11048,0 1.4923332,1.4923332 0 0 1 0,-2.11047 1.4923332,1.4923332 0 0 1 2.11048,0 1.4923332,1.4923332 0 0 1 0,2.11047 z"
           id="path983" />
        <circle
           r="1.4923332"
           cy="79.456673"
           cx="179.41882"
           id="circle989"
           style="opacity:1;fill:#000000;fill-opacity:1;stroke:none;stroke-width:0.14563681;stroke-linecap:round;stroke-linejoin:round;stroke-miterlimit:4;stroke-dasharray:none;stroke-opacity:1"
           transform="rotate(45)" />
        <path
           id="path995"
           d="m 159.12922,147.90977 a 1.4923332,1.4923332 0 0 1 -1.49233,-1.49233 1.4923332,1.4923332 0 0 1 1.49233,-1.49233 1.4923332,1.4923332 0 0 1 1.49234,1.49233 1.4923332,1.4923332 0 0 1 -1.49234,1.49233 z"
           style="opacity:1;fill:#000000;fill-opacity:1;stroke:none;stroke-width:0.14563681;stroke-linecap:round;stroke-linejoin:round;stroke-miterlimit:4;stroke-dasharray:none;stroke-opacity:1"
           inkscape:connector-curvature="0" />
        <circle
           style="opacity:1;fill:#000000;fill-opacity:1;stroke:none;stroke-width:0.14563681;stroke-linecap:round;stroke-linejoin:round;stroke-miterlimit:4;stroke-dasharray:none;stroke-opacity:1"
           id="circle1001"
           cx="146.41745"
           cy="-55.509125"
           r="1.4923332"
           transform="rotate(90)" />
        <path
           inkscape:connector-curvature="0"
           style="opacity:1;fill:#000000;fill-opacity:1;stroke:none;stroke-width:0.14563681;stroke-linecap:round;stroke-linejoin:round;stroke-miterlimit:4;stroke-dasharray:none;stroke-opacity:1"
           d="m 142.89912,184.10804 a 1.4923332,1.4923332 0 0 1 0,-2.11048 1.4923332,1.4923332 0 0 1 2.11047,0 1.4923332,1.4923332 0 0 1 0,2.11048 1.4923332,1.4923332 0 0 1 -2.11047,0 z"
           id="path1007" />
        <circle
           r="1.4923332"
           cy="-127.60889"
           cx="27.646788"
           id="circle1013"
           style="opacity:1;fill:#000000;fill-opacity:1;stroke:none;stroke-width:0.14563681;stroke-linecap:round;stroke-linejoin:round;stroke-miterlimit:4;stroke-dasharray:none;stroke-opacity:1"
           transform="rotate(135)" />
      </g>
    </g>
  </g>
</svg>
