<?xml version="1.0" encoding="UTF-8" standalone="no"?>
<!-- Created with Inkscape (http://www.inkscape.org/) -->

<svg
   xmlns:dc="http://purl.org/dc/elements/1.1/"
   xmlns:cc="http://creativecommons.org/ns#"
   xmlns:rdf="http://www.w3.org/1999/02/22-rdf-syntax-ns#"
   xmlns:svg="http://www.w3.org/2000/svg"
   xmlns="http://www.w3.org/2000/svg"
   xmlns:sodipodi="http://sodipodi.sourceforge.net/DTD/sodipodi-0.dtd"
   xmlns:inkscape="http://www.inkscape.org/namespaces/inkscape"
   width="870.65802"
   height="800"
   viewBox="0 0 230.3616 211.66667"
   version="1.1"
   id="svg8"
   inkscape:version="0.92.3 (2405546, 2018-03-11)"
   sodipodi:docname="Blood Axes [Orkoids, Orks, Clan] - Copy.svg">
  <defs
     id="defs2" />
  <sodipodi:namedview
     id="base"
     pagecolor="#ffffff"
     bordercolor="#666666"
     borderopacity="1.0"
     inkscape:pageopacity="0.0"
     inkscape:pageshadow="2"
     inkscape:zoom="0.49497475"
     inkscape:cx="784.57189"
     inkscape:cy="402.81383"
     inkscape:document-units="px"
     inkscape:current-layer="layer1"
     showgrid="false"
     units="px"
     inkscape:window-width="1920"
     inkscape:window-height="1017"
     inkscape:window-x="-8"
     inkscape:window-y="-8"
     inkscape:window-maximized="1"
     inkscape:snap-global="true"
     fit-margin-top="0"
     fit-margin-left="0"
     fit-margin-right="0"
     fit-margin-bottom="0"
     inkscape:pagecheckerboard="true" />
  <metadata
     id="metadata5">
    <rdf:RDF>
      <cc:Work
         rdf:about="">
        <dc:format>image/svg+xml</dc:format>
        <dc:type
           rdf:resource="http://purl.org/dc/dcmitype/StillImage" />
        <dc:title></dc:title>
      </cc:Work>
    </rdf:RDF>
  </metadata>
  <g
     inkscape:label="Layer 1"
     inkscape:groupmode="layer"
     id="layer1"
     transform="translate(10.751764,-40.212378)">
    <g
       id="g1045"
       transform="matrix(0.99078449,0,0,0.99078449,-74.244904,57.93056)">
      <circle
         r="105.4948"
         cy="88.934731"
         cx="180.33583"
         id="path826"
         style="opacity:1;fill:none;fill-opacity:0.30697674;stroke:#000000;stroke-width:2.64583325;stroke-linecap:square;stroke-linejoin:miter;stroke-miterlimit:4;stroke-dasharray:none;stroke-opacity:1;paint-order:normal" />
      <g
         transform="matrix(2.6480331,0,0,2.6480331,-112.77709,-322.25595)"
         style="fill:none;stroke:#000000;stroke-opacity:1"
         id="g874" />
      <g
         transform="matrix(-2.6480331,0,0,2.6480331,473.44874,-322.25595)"
         id="g984"
         style="fill:none;stroke:#000000;stroke-opacity:1">
        <path
           style="fill:none;fill-opacity:0.30697674;stroke:#010000;stroke-width:1.9538548;stroke-linecap:butt;stroke-linejoin:miter;stroke-miterlimit:4;stroke-dasharray:none;stroke-opacity:1"
           d="m 456.07227,497.79883 -50.16993,75.49414 c 0.1474,0.11 0.2589,0.1854 0.41016,0.29883 2.46992,1.85215 -2.7193,5.81038 -5.17773,7.67773 -0.28444,0.21605 -0.59203,0.40133 -0.91016,0.56836 l -55.58008,83.63477 c -1.35755,2.0159 -3.24397,3.50104 -5.33008,4.78906 4.24073,3.68619 6.76066,9.85273 11.11328,13.61719 6.11423,5.288 13.57569,8.74531 19.96289,13.76562 0.41805,-1.10734 0.84019,-2.15269 1.23243,-2.97656 10.24293,-21.51428 26.55714,-49.25116 43.55859,-76.43945 l -1.2793,-1.06641 -10.71484,9.64258 3.21484,-21.42774 3.92969,-7.85742 3.57031,-6.78515 3.57032,6.78515 3.92968,7.85742 0.36914,2.37696 c 5.59423,-8.81311 11.12552,-17.33934 16.53516,-25.60743 -2.21702,0.61992 -4.54535,0.91593 -6.81445,0.73047 -1.68843,-0.13795 -3.47324,-0.58271 -4.82227,-1.60742 -2.45843,-1.86735 -7.64765,-5.82558 -5.17773,-7.67773 5.19405,-3.895 8.05473,-5.74013 12.47851,-7.58594 5.89247,-2.45861 8.93727,-2.9907 18.21485,-4.87109 17.25678,-25.83865 30.25413,-44.38962 30.80078,-45.16797 -0.57028,0.0197 -1.15983,-0.09 -1.69531,-0.25977 -1.74261,-0.55293 -4.6211,-2.95703 -4.6211,-2.95703 l -7.85351,-5.26367 -7.72266,-4.35156 c 0,0 -3.49413,-2.12255 -4.45313,-3.83008 -0.27528,-0.49018 -0.45566,-0.99292 -0.56835,-1.50586 z"
           transform="matrix(-0.2556918,0,0,0.2556918,216.52224,7.025593)"
           id="path840"
           inkscape:connector-curvature="0" />
        <path
           style="fill:none;fill-opacity:0.30697674;stroke:#010000;stroke-width:1.9538548;stroke-linecap:butt;stroke-linejoin:miter;stroke-miterlimit:4;stroke-dasharray:none;stroke-opacity:1"
           d="m 371.73242,497.79883 c -0.1127,0.51294 -0.29305,1.01568 -0.56836,1.50586 -0.959,1.70753 -4.45312,3.83008 -4.45312,3.83008 l -7.72266,4.35156 -7.85351,5.26367 c 0,0 -2.8785,2.4041 -4.6211,2.95703 -0.53548,0.16976 -1.12504,0.27943 -1.69531,0.25977 0.54683,0.77859 13.55061,19.32714 30.81445,45.16992 9.26558,1.87788 12.31191,2.41186 18.20117,4.86914 4.42379,1.84581 7.28447,3.69094 12.47852,7.58594 2.46992,1.85215 -2.7193,5.81038 -5.17773,7.67773 -1.34903,1.02471 -3.13384,1.46947 -4.82227,1.60742 -2.25507,0.18431 -4.56876,-0.10668 -6.77344,-0.71875 5.37905,8.22137 10.94406,16.85659 16.50391,25.61524 l 0.35937,-2.39649 3.92969,-7.85742 3.57031,-6.78515 3.57032,6.78515 3.92968,7.85742 3.21485,20.71485 -10.71485,-8.92969 -1.24804,1.12305 c 16.9896,27.1697 33.28979,54.87982 43.52734,76.38281 0.39224,0.82387 0.81437,1.86922 1.23242,2.97656 6.38724,-5.02031 13.84867,-8.47762 19.96289,-13.76562 4.35263,-3.76446 6.87256,-9.931 11.11328,-13.61719 -2.0861,-1.28802 -3.97252,-2.77316 -5.33007,-4.78906 l -55.58008,-83.63477 c -0.31814,-0.16703 -0.62572,-0.35231 -0.91016,-0.56836 -2.45843,-1.86735 -7.64765,-5.82558 -5.17773,-7.67773 0.15125,-0.11343 0.26276,-0.18883 0.41015,-0.29883 z"
           transform="matrix(-0.2556918,0,0,0.2556918,216.52224,7.0255897)"
           id="path878"
           inkscape:connector-curvature="0" />
      </g>
      <g
         style="fill:#000000;fill-opacity:1"
         id="g1028">
        <path
           style="fill:#000000;fill-opacity:1;stroke:#000000;stroke-width:0.70172876;stroke-linecap:round;stroke-linejoin:round;stroke-miterlimit:4;stroke-dasharray:none;stroke-opacity:1"
           d="m 109.08298,164.89273 30.52725,24.77211 c 0.71537,0.5805 1.83129,1.00694 2.75246,1.02103 1.55774,0.0238 3.31316,0.0185 4.2538,-1.02103 3.25305,-4.00703 7.25769,-8.67485 8.00713,-13.01162 0.22111,-1.48334 0.23171,-2.72784 -0.34048,-4.00356 -0.59713,-1.33124 -2.02363,-2.84152 -3.16263,-3.75335 -4.37721,-3.50419 -9.54492,-5.86102 -13.76229,-9.5085 -3.70495,-3.20431 -5.44276,-8.98639 -10.00893,-10.75959 -0.8974,-0.34849 -1.65285,-0.4551 -2.50224,-0.50046 -0.91996,-0.0493 -1.8297,-0.14061 -2.75245,0.25024 -4.99629,2.11626 -8.41965,7.05052 -11.51028,11.51029 -0.57405,0.82836 -1.33403,1.78077 -1.60153,2.75244 -0.26371,0.82449 -0.32875,1.43876 0.10021,2.252 z"
           id="path830"
           inkscape:connector-curvature="0"
           sodipodi:nodetypes="cssccsssssssccc" />
        <path
           inkscape:connector-curvature="0"
           style="fill:#000000;fill-opacity:1;stroke:none;stroke-width:0.70062536px;stroke-linecap:butt;stroke-linejoin:miter;stroke-opacity:1"
           d="M 253.82653,7.9493669 C 247.51246,16.70495 242.47967,26.600443 236.24248,35.45576 c 0.52081,0.93399 3.6766,6.680043 4.29543,10.130329 0.58972,3.288014 0.14395,6.730621 -0.49947,10.008546 -2.23057,11.363612 -11.51106,32.780239 -11.51106,32.780239 l 28.77627,30.776886 c 0,0 9.3289,-31.395721 16.0145,-46.291907 6.49838,-14.479104 23.2698,-41.53669 23.2698,-41.53669 z"
           id="path845" />
        <path
           style="fill:#000000;fill-opacity:1;stroke:none;stroke-width:0.70062536px;stroke-linecap:butt;stroke-linejoin:miter;stroke-opacity:1"
           d="m 225.9628,45.523605 c -1.17988,-0.374379 -3.1278,-2.001781 -3.1278,-2.001781 l -5.31725,-3.565683 -5.22878,-2.946413 c 0,0 -2.3678,-1.436399 -3.01712,-2.59253 -0.70575,-1.256598 -0.51732,-2.635376 -0.23038,-4.047757 3.05901,-6.641241 7.43727,-12.73749 11.35389,-18.938759 l 15.38876,-21.3940954 c 0,0 7.22778,4.0146565 10.50938,6.5057936 3.43214,2.60542626 9.50848,8.7578399 9.50848,8.7578399 -9.52681,12.2597839 -15.83808,27.3744659 -26.44549,38.7533289 -0.52057,0.550976 -0.95398,1.287023 -1.66553,1.548252 -0.54131,0.198867 -1.17853,0.09612 -1.72816,-0.07812 z"
           id="path847"
           inkscape:connector-curvature="0"
           sodipodi:nodetypes="ccccscccsccssc" />
        <path
           inkscape:connector-curvature="0"
           style="fill:#000000;fill-opacity:1;stroke:none;stroke-width:0.70062536px;stroke-linecap:butt;stroke-linejoin:miter;stroke-opacity:1"
           d="m 193.74653,-9.8385806 25.52219,17.6415308 0.87579,2.5014498 -0.19568,1.83367 0.4461,-0.707471 13.19831,-18.3476277 z"
           id="path849" />
        <path
           sodipodi:nodetypes="cssccsssssssccc"
           inkscape:connector-curvature="0"
           id="path876"
           d="m 251.58867,164.89272 -30.52725,24.77211 c -0.71537,0.5805 -1.83129,1.00694 -2.75246,1.02103 -1.55774,0.0238 -3.31316,0.0185 -4.2538,-1.02103 -3.25305,-4.00703 -7.25769,-8.67485 -8.00713,-13.01162 -0.22111,-1.48334 -0.23171,-2.72784 0.34048,-4.00356 0.59713,-1.33124 2.02363,-2.84152 3.16263,-3.75335 4.37721,-3.50419 9.54492,-5.86102 13.76229,-9.5085 3.70495,-3.20431 5.44276,-8.98639 10.00893,-10.75959 0.8974,-0.34849 1.65285,-0.4551 2.50224,-0.50046 0.91996,-0.0493 1.8297,-0.14061 2.75245,0.25024 4.99629,2.11626 8.41965,7.05052 11.51028,11.51029 0.57405,0.82836 1.33403,1.78077 1.60153,2.75244 0.26371,0.82449 0.32875,1.43876 -0.10021,2.252 z"
           style="fill:#000000;fill-opacity:1;stroke:#000000;stroke-width:0.70172876;stroke-linecap:round;stroke-linejoin:round;stroke-miterlimit:4;stroke-dasharray:none;stroke-opacity:1" />
        <path
           inkscape:connector-curvature="0"
           id="path880"
           d="m 106.84512,7.9493569 c 6.31407,8.7555831 11.34686,18.6510761 17.58405,27.5063931 -0.52081,0.93399 -3.6766,6.680043 -4.29543,10.130329 -0.58972,3.288014 -0.14395,6.730621 0.49947,10.008546 2.23057,11.363612 11.51106,32.780239 11.51106,32.780239 L 103.368,119.15175 c 0,0 -9.328902,-31.395721 -16.014501,-46.291907 C 80.855122,58.380739 64.083704,31.323153 64.083704,31.323153 Z"
           style="fill:#000000;fill-opacity:1;stroke:none;stroke-width:0.70062536px;stroke-linecap:butt;stroke-linejoin:miter;stroke-opacity:1" />
        <path
           sodipodi:nodetypes="ccccscccsccssc"
           inkscape:connector-curvature="0"
           id="path882"
           d="m 134.70885,45.523595 c 1.17988,-0.374379 3.1278,-2.001781 3.1278,-2.001781 l 5.31725,-3.565683 5.22878,-2.946413 c 0,0 2.3678,-1.436399 3.01712,-2.59253 0.70575,-1.256598 0.51732,-2.635376 0.23038,-4.047757 -3.05901,-6.641241 -7.43727,-12.73749 -11.35389,-18.938759 L 124.88753,-9.9634234 c 0,0 -7.22778,4.0146565 -10.50938,6.5057936 -3.43214,2.60542626 -9.50848,8.7578399 -9.50848,8.7578399 9.52681,12.2597839 15.83808,27.3744659 26.44549,38.7533289 0.52057,0.550976 0.95398,1.287023 1.66553,1.548252 0.54131,0.198867 1.17853,0.09612 1.72816,-0.07812 z"
           style="fill:#000000;fill-opacity:1;stroke:none;stroke-width:0.70062536px;stroke-linecap:butt;stroke-linejoin:miter;stroke-opacity:1" />
        <path
           inkscape:connector-curvature="0"
           id="path884"
           d="m 166.92512,-9.8385906 -25.52219,17.6415308 -0.87579,2.5014498 0.19568,1.83367 -0.4461,-0.707471 -13.19831,-18.3476277 z"
           style="fill:#000000;fill-opacity:1;stroke:none;stroke-width:0.70062536px;stroke-linecap:butt;stroke-linejoin:miter;stroke-opacity:1" />
      </g>
      <path
         style="fill:#000000;fill-opacity:1;stroke:none;stroke-width:0.67708033;stroke-linecap:butt;stroke-linejoin:miter;stroke-miterlimit:4;stroke-dasharray:none;stroke-opacity:1"
         d="m 180.33583,43.1137 -22.00511,2.185961 -16.44433,19.344402 -6.7708,16.927009 -0.48268,15.476311 5.31878,0.968015 2.91727,-1.990251 12.80105,3.440943 5.0781,5.32011 -2.17671,4.8361 h -4.35209 l -3.1434,-2.17671 1.2087,38.20743 5.0781,23.45582 8.4635,-19.58773 7.73882,20.55441 6.7708,-21.2791 6.76948,21.2791 7.73882,-20.55441 8.46351,19.58773 5.0781,-23.45582 1.20869,-38.20743 -3.14339,2.17671 h -4.35342 l -2.17539,-4.8361 5.07811,-5.32011 12.79973,-3.440943 2.91726,1.990251 5.3201,-0.968015 -0.48268,-15.476311 -6.7708,-16.927009 -16.44433,-19.344402 z M 153.3756,76.112112 c 0.091,-0.0095 0.19059,-0.0041 0.30019,0.01848 6.96733,1.419371 8.90736,1.711131 13.07215,3.448878 2.99526,1.249762 4.93217,2.499063 8.44896,5.136291 1.67233,1.254055 -1.84119,3.934095 -3.50574,5.198441 -0.9134,0.693811 -2.12186,0.994949 -3.26506,1.088352 -2.03398,0.166237 -4.13908,-0.238021 -6.0448,-0.968008 -2.77689,-1.063693 -5.498,-2.634452 -7.49681,-4.836101 -0.94505,-1.04097 -1.6962,-2.36215 -1.9347,-3.747748 -0.28464,-1.653532 -0.93846,-5.196598 0.42581,-5.338616 z m 53.92046,0 c 1.36427,0.142018 0.70913,3.685084 0.4245,5.338616 -0.23851,1.385598 -0.98833,2.706778 -1.93338,3.747748 -1.99882,2.201649 -4.71992,3.772408 -7.49682,4.836101 -1.90571,0.729987 -4.01081,1.134245 -6.04479,0.968008 -1.1432,-0.0934 -2.35166,-0.394541 -3.26506,-1.088352 -1.66456,-1.264346 -5.17808,-3.944386 -3.50574,-5.198441 3.51679,-2.637228 5.4537,-3.886529 8.44895,-5.136291 4.1648,-1.737747 6.10482,-2.029507 13.07215,-3.448878 0.10961,-0.02234 0.20924,-0.02796 0.30019,-0.01848 z m -26.96023,20.210585 2.41739,4.594093 2.66071,5.3201 2.17671,14.02562 -7.25481,-6.04612 -7.25481,6.52881 2.17671,-14.50831 2.66071,-5.3201 z"
         id="path904"
         inkscape:connector-curvature="0" />
    </g>
  </g>
</svg>
