<?xml version="1.0" encoding="UTF-8" standalone="no"?>
<!-- Generator: Adobe Illustrator 22.1.0, SVG Export Plug-In . SVG Version: 6.00 Build 0)  -->

<svg
   xmlns:dc="http://purl.org/dc/elements/1.1/"
   xmlns:cc="http://creativecommons.org/ns#"
   xmlns:rdf="http://www.w3.org/1999/02/22-rdf-syntax-ns#"
   xmlns:svg="http://www.w3.org/2000/svg"
   xmlns="http://www.w3.org/2000/svg"
   xmlns:sodipodi="http://sodipodi.sourceforge.net/DTD/sodipodi-0.dtd"
   xmlns:inkscape="http://www.inkscape.org/namespaces/inkscape"
   version="1.1"
   id="Layer_2"
   x="0px"
   y="0px"
   viewBox="0 0 1555.8551 800"
   xml:space="preserve"
   sodipodi:docname="Blood Ravens [Imperium, Adeptus Astartes, Space Marines, Chapter].svg"
   width="1555.8551"
   height="800"
   inkscape:version="0.92.3 (2405546, 2018-03-11)"><metadata
   id="metadata9"><rdf:RDF><cc:Work
       rdf:about=""><dc:format>image/svg+xml</dc:format><dc:type
         rdf:resource="http://purl.org/dc/dcmitype/StillImage" /><dc:title></dc:title></cc:Work></rdf:RDF></metadata><defs
   id="defs7" /><sodipodi:namedview
   pagecolor="#ffffff"
   bordercolor="#666666"
   borderopacity="1"
   objecttolerance="10"
   gridtolerance="10"
   guidetolerance="10"
   inkscape:pageopacity="0"
   inkscape:pageshadow="2"
   inkscape:window-width="1920"
   inkscape:window-height="1017"
   id="namedview5"
   showgrid="false"
   inkscape:pagecheckerboard="true"
   fit-margin-top="0"
   fit-margin-left="0"
   fit-margin-right="0"
   fit-margin-bottom="0"
   inkscape:zoom="0.236"
   inkscape:cx="-33.409565"
   inkscape:cy="374.60902"
   inkscape:window-x="-8"
   inkscape:window-y="-8"
   inkscape:window-maximized="1"
   inkscape:current-layer="Layer_2" />
<path
   d="m 1191.4154,135.56536 c 0,0 288.1672,29.25715 349.1982,-29.25716 29.2572,-48.761907 7.393,-85.411998 7.393,-85.411998 -56.1549,100.040578 -385.8484,75.659621 -568.94151,17.145321 -33.03227,5.97727 -22.02152,19.50477 -29.25715,43.88573 -7.23564,24.380947 -31.7739,63.547787 -75.65963,73.300167 -1.57296,0.1573 -3.14593,0.31459 -4.71889,0.62918 0.1573,-0.15729 0.31459,-0.31459 0.47189,-0.62918 l -0.62919,0.62918 c -1.25837,0.1573 -2.51674,0.47189 -3.77511,0.78649 -4.5616,-6.92105 -4.24701,-47.81814 4.4043,-109.006477 0,-61.03105 -93.59143,-47.3462534 -102.55733,-43.8857304 C 712.76209,22.469167 642.76515,69.658123 647.64134,77.051053 c 4.87619,7.39294 94.8498,-27.68418 102.55732,19.50477 -2.51674,41.526277 -29.25715,61.031047 -68.42398,58.671597 -43.88572,-9.75238 -68.42398,-48.76192 -75.65962,-73.300167 -7.39294,-24.38096 3.77512,-37.90846 -29.25715,-43.88573 C 393.76477,96.713123 64.071285,121.09408 7.9164308,20.896202 c 0,0 -22.0215108,36.650091 7.3929362,85.411998 61.031046,58.6716 349.198253,29.25716 349.198253,29.25716 19.03288,13.05561 -4.87619,32.71767 -9.75238,29.25715 H 7.7591348 L 78.542564,252.75126 381.33835,228.3703 c 15.57235,5.03348 14.47128,16.04424 9.75238,29.25715 -107.43351,19.50476 -207.78869,39.48142 -288.1672,19.50476 0,0 56.15485,78.17637 78.17636,80.53582 87.92875,2.51674 200.23846,-53.79541 200.23846,-53.79541 12.26913,0 12.42642,19.03288 2.51674,29.25715 -38.38035,31.14471 -103.3438,59.30079 -185.60988,85.41201 73.77206,33.97604 170.98131,31.77389 222.25997,-34.13335 26.8977,-4.247 31.77389,13.99939 31.77389,17.14532 -13.84209,43.57114 -53.16622,82.89526 -117.1859,114.82646 29.72904,16.83072 70.31154,17.45991 114.82646,12.26912 51.27866,-22.02151 70.78343,-100.04058 83.05255,-95.16438 12.26913,4.87619 9.90968,48.60462 -12.26912,90.28819 32.40308,2.51675 70.62613,-14.15668 85.412,-41.52628 0,0 31.7739,-85.412 39.00954,-31.77389 18.87558,138.73552 -122.0621,195.36226 -122.0621,195.36226 65.90724,41.99817 176.32939,-52.85162 141.56686,-2.51674 -48.76192,95.16439 -200.23845,43.88573 -87.92875,83.05256 112.30971,39.16683 136.69067,-58.6716 136.69067,-58.6716 0,0 14.62858,-26.8977 24.38096,0 -6.44916,79.12014 27.68419,124.42154 38.53764,131.34258 v 0.62919 c 0.3146,0.31459 0.78649,0.47189 1.57297,0.1573 0.78648,0.15729 1.25837,0.15729 1.57296,-0.1573 v -0.62919 c 10.85346,-6.76375 44.82951,-52.22244 38.53765,-131.34258 9.75238,-26.8977 24.38096,0 24.38096,0 0,0 24.38096,97.68113 136.69067,58.6716 112.30971,-39.00954 -39.00954,12.26912 -87.92875,-83.05256 -34.76253,-50.49218 75.65962,44.35762 141.56686,2.51674 0,0 -140.93768,-56.62674 -122.0621,-195.36226 7.39294,-53.79541 39.00954,31.77389 39.00954,31.77389 14.78587,27.3696 53.00896,44.04303 85.41196,41.52628 -22.1788,-41.84087 -24.3809,-85.412 -12.2691,-90.28819 12.2691,-4.8762 31.7739,73.30017 83.0526,95.16438 44.5149,5.19079 85.0974,4.7189 114.8264,-12.26912 -64.0197,-31.7739 -103.3438,-71.09803 -117.1859,-114.82646 0,-3.14593 4.8762,-21.23503 31.7739,-17.14532 51.2787,65.90724 148.3306,68.26669 222.26,34.13335 -82.2661,-26.11122 -147.2296,-54.2673 -185.6099,-85.41201 -10.067,-10.22427 -9.7524,-29.25715 2.5167,-29.25715 0,0 112.3097,56.15485 200.2385,53.79541 22.0215,-2.51675 78.1764,-80.53582 78.1764,-80.53582 -80.3786,19.81936 -180.7337,0 -288.1672,-19.50476 -4.7189,-13.37021 -5.6627,-24.22367 9.7523,-29.25715 l 302.7958,24.38096 70.7835,-87.92875 h -346.8389 c -4.7188,3.46052 -28.7852,-16.20154 -9.7523,-29.25715 z M 796.44384,33.008033 c 9.75238,4.87619 0,14.62858 0,14.62858 0,0 -31.7739,9.75238 -39.00954,4.87619 -7.39293,-4.87619 29.25715,-24.38096 39.00954,-19.50477 z m 54.11,417.622227 c -0.1573,36.4928 -29.72904,65.90724 -66.06454,65.90724 -36.49279,0 -66.06453,-29.41444 -66.06453,-65.90724 0,-0.15729 0,-0.31459 0,-0.31459 2.35945,-28.94256 37.75116,-175.22831 64.17698,-288.95369 0.47188,-1.88756 3.30322,-1.88756 3.77511,0 25.79663,109.63567 64.33427,271.96567 64.33427,288.95369 -0.15729,0 -0.15729,0.1573 -0.15729,0.31459 z"
   id="path2"
   inkscape:connector-curvature="0"
   style="stroke-width:1.57296515" />
</svg>