<?xml version="1.0" encoding="UTF-8" standalone="no"?>
<!-- Generator: Adobe Illustrator 22.1.0, SVG Export Plug-In . SVG Version: 6.00 Build 0)  -->

<svg
   xmlns:dc="http://purl.org/dc/elements/1.1/"
   xmlns:cc="http://creativecommons.org/ns#"
   xmlns:rdf="http://www.w3.org/1999/02/22-rdf-syntax-ns#"
   xmlns:svg="http://www.w3.org/2000/svg"
   xmlns="http://www.w3.org/2000/svg"
   xmlns:sodipodi="http://sodipodi.sourceforge.net/DTD/sodipodi-0.dtd"
   xmlns:inkscape="http://www.inkscape.org/namespaces/inkscape"
   version="1.1"
   id="Layer_2"
   x="0px"
   y="0px"
   viewBox="0 0 398.05069 800"
   xml:space="preserve"
   sodipodi:docname="Blood Drinkers [Imperium, Adeptus Astartes, Space Marines, Blood Angels, Chapter].svg"
   width="398.05069"
   height="800"
   inkscape:version="0.92.3 (2405546, 2018-03-11)"><metadata
   id="metadata13"><rdf:RDF><cc:Work
       rdf:about=""><dc:format>image/svg+xml</dc:format><dc:type
         rdf:resource="http://purl.org/dc/dcmitype/StillImage" /><dc:title></dc:title></cc:Work></rdf:RDF></metadata><defs
   id="defs11" /><sodipodi:namedview
   pagecolor="#ffffff"
   bordercolor="#666666"
   borderopacity="1"
   objecttolerance="10"
   gridtolerance="10"
   guidetolerance="10"
   inkscape:pageopacity="0"
   inkscape:pageshadow="2"
   inkscape:window-width="1920"
   inkscape:window-height="1017"
   id="namedview9"
   showgrid="false"
   inkscape:pagecheckerboard="true"
   fit-margin-top="0"
   fit-margin-left="0"
   fit-margin-right="0"
   fit-margin-bottom="0"
   inkscape:zoom="0.236"
   inkscape:cx="-274.64237"
   inkscape:cy="458.99999"
   inkscape:window-x="-8"
   inkscape:window-y="-8"
   inkscape:window-maximized="1"
   inkscape:current-layer="Layer_2" />
<g
   id="g6"
   transform="matrix(0.87119871,0,0,0.87119871,-215.2732,-35.479567)">
	<path
   d="m 247.1,434.3 v 44.9 c 0,3.6 2.9,6.4 6.4,6.4 h 14.3 c 0,124.7 71,228.7 165.5,253 L 418,885.1 c -0.3,2.9 -2.8,5.2 -5.7,5.2 H 285.1 c -3.6,0 -6.4,2.9 -6.4,6.4 V 959 h 393.8 v -62.2 c 0,-3.6 -2.9,-6.4 -6.4,-6.4 H 538.8 c -3,0 -5.4,-2.2 -5.7,-5.2 L 517.8,738.7 c 94.5,-24.3 165.5,-128.3 165.5,-253 h 14.3 c 3.6,0 6.4,-2.9 6.4,-6.4 v -44.9 c 0,-3.6 -2.9,-6.4 -6.4,-6.4 H 253.5 c -3.5,-0.1 -6.4,2.8 -6.4,6.3 z"
   id="path2"
   inkscape:connector-curvature="0" />
	<path
   d="m 481.9,370.8 c 33.7,0 61.1,-27.3 61.2,-61 0,-0.1 0,-0.2 0,-0.3 -0.1,-15.7 -35.7,-166 -59.6,-267.5 -0.5,-1.7 -3,-1.7 -3.5,0 -24.4,105.3 -57.2,240.7 -59.4,267.5 0,0.1 0,0.2 0,0.3 0.2,33.7 27.6,61 61.3,61 z"
   id="path4"
   inkscape:connector-curvature="0" />
</g>
</svg>