<?xml version="1.0" encoding="UTF-8" standalone="no"?>
<svg
   xmlns:dc="http://purl.org/dc/elements/1.1/"
   xmlns:cc="http://creativecommons.org/ns#"
   xmlns:rdf="http://www.w3.org/1999/02/22-rdf-syntax-ns#"
   xmlns:svg="http://www.w3.org/2000/svg"
   xmlns="http://www.w3.org/2000/svg"
   xmlns:sodipodi="http://sodipodi.sourceforge.net/DTD/sodipodi-0.dtd"
   xmlns:inkscape="http://www.inkscape.org/namespaces/inkscape"
   version="1.2"
   id="图层_1"
   x="0px"
   y="0px"
   viewBox="0 0 800 800"
   sodipodi:docname="Bork’an [T'au'va, Greater Good, T'au Empire, Sept].svg"
   width="800"
   height="800"
   inkscape:version="0.92.3 (2405546, 2018-03-11)">
  <metadata
     id="metadata19">
    <rdf:RDF>
      <cc:Work
         rdf:about="">
        <dc:format>image/svg+xml</dc:format>
        <dc:type
           rdf:resource="http://purl.org/dc/dcmitype/StillImage" />
        <dc:title></dc:title>
      </cc:Work>
    </rdf:RDF>
  </metadata>
  <defs
     id="defs17" />
  <sodipodi:namedview
     pagecolor="#ffffff"
     bordercolor="#666666"
     borderopacity="1"
     objecttolerance="10"
     gridtolerance="10"
     guidetolerance="10"
     inkscape:pageopacity="0"
     inkscape:pageshadow="2"
     inkscape:window-width="1920"
     inkscape:window-height="1017"
     id="namedview15"
     showgrid="false"
     fit-margin-top="0"
     fit-margin-left="0"
     fit-margin-right="0"
     fit-margin-bottom="0"
     inkscape:pagecheckerboard="true"
     inkscape:zoom="0.472"
     inkscape:cx="-13.771186"
     inkscape:cy="250"
     inkscape:window-x="-8"
     inkscape:window-y="-8"
     inkscape:window-maximized="1"
     inkscape:current-layer="图层_1" />
  <g
     id="g12"
     transform="scale(1.6)">
    <path
       d="M 250,0 C 111.9,0 0,111.9 0,250 0,388.1 111.9,500 250,500 388.1,500 500,388.1 500,250 500,111.9 388.1,0 250,0 Z m 0,485 C 120.2,485 15,379.8 15,250 15,120.2 120.2,15 250,15 379.8,15 485,120.2 485,250 485,379.8 379.8,485 250,485 Z"
       id="path2"
       inkscape:connector-curvature="0" />
    <circle
       cx="315"
       cy="137.39999"
       r="70"
       id="circle4" />
    <path
       d="M 265,224 C 199.7,186.3 125.6,177.9 57.8,194.7 32.9,281 68.7,376.3 150,423.2 231.3,470.1 331.7,453.5 394,388.8 374.6,321.7 330.3,261.7 265,224 Z"
       id="path6"
       inkscape:connector-curvature="0" />
    <path
       d="M 242.2,190.3 C 222,162.4 218.8,124.1 237.1,92.4 248.1,73.3 265,59.9 284.2,52.8 203.8,38.9 119.9,75.3 76.8,150 c -4.2,7.3 -8,14.8 -11.2,22.5 57.9,-11.8 119.4,-6.5 176.6,17.8 z"
       id="path8"
       inkscape:connector-curvature="0" />
    <path
       d="m 403.7,121.9 c 3.5,20.1 0.3,41.5 -10.7,60.6 -18.3,31.7 -53.1,48.1 -87.3,44.5 49.7,37.3 84.9,88 103.7,144 5,-6.6 9.6,-13.6 13.9,-20.9 43,-74.8 32.6,-165.7 -19.6,-228.2 z"
       id="path10"
       inkscape:connector-curvature="0" />
  </g>
</svg>
