<?xml version="1.0" encoding="UTF-8" standalone="no"?>
<!-- Created with Inkscape (http://www.inkscape.org/) -->

<svg
   xmlns:dc="http://purl.org/dc/elements/1.1/"
   xmlns:cc="http://creativecommons.org/ns#"
   xmlns:rdf="http://www.w3.org/1999/02/22-rdf-syntax-ns#"
   xmlns:svg="http://www.w3.org/2000/svg"
   xmlns="http://www.w3.org/2000/svg"
   xmlns:sodipodi="http://sodipodi.sourceforge.net/DTD/sodipodi-0.dtd"
   xmlns:inkscape="http://www.inkscape.org/namespaces/inkscape"
   width="1070.4819"
   height="800"
   viewBox="0 0 283.23165 211.66666"
   version="1.1"
   id="svg8"
   inkscape:version="0.92.3 (2405546, 2018-03-11)"
   sodipodi:docname="C'tan [Yngir, Star Gods].svg">
  <defs
     id="defs2" />
  <sodipodi:namedview
     id="base"
     pagecolor="#ffffff"
     bordercolor="#666666"
     borderopacity="1.0"
     inkscape:pageopacity="0.0"
     inkscape:pageshadow="2"
     inkscape:zoom="0.35"
     inkscape:cx="173.68083"
     inkscape:cy="351.74847"
     inkscape:document-units="px"
     inkscape:current-layer="layer1"
     showgrid="false"
     units="px"
     inkscape:window-width="1920"
     inkscape:window-height="1017"
     inkscape:window-x="-8"
     inkscape:window-y="-8"
     inkscape:window-maximized="1"
     inkscape:snap-global="true"
     inkscape:pagecheckerboard="true"
     fit-margin-top="0"
     fit-margin-left="0"
     fit-margin-right="0"
     fit-margin-bottom="0" />
  <metadata
     id="metadata5">
    <rdf:RDF>
      <cc:Work
         rdf:about="">
        <dc:format>image/svg+xml</dc:format>
        <dc:type
           rdf:resource="http://purl.org/dc/dcmitype/StillImage" />
        <dc:title></dc:title>
      </cc:Work>
    </rdf:RDF>
  </metadata>
  <g
     inkscape:label="Layer 1"
     inkscape:groupmode="layer"
     id="layer1"
     transform="translate(-24.121607,-13.100595)">
    <path
       style="opacity:1;fill:#000000;fill-opacity:1;stroke:none;stroke-width:0.67880332;stroke-linecap:round;stroke-linejoin:round;stroke-miterlimit:4;stroke-dasharray:none;stroke-opacity:1;paint-order:normal"
       d="m 153.52303,110.07393 c -9.72131,-23.35666 -21.06633,-50.42858 -20.3622,-73.70566 12.24854,9.9474 19.37401,23.04518 24.16509,36.00556 -4.01943,1.41564 -7.86497,3.2836 -11.46258,5.56796 5.04955,12.74588 9.9022,25.5638 13.63931,38.75906 -12.08182,-4.81778 -20.77242,-13.52892 -29.88222,-22.9374 -6.31013,9.2955 -9.6924,20.26808 -9.71093,31.50368 0.0126,9.151 2.25713,18.16076 6.53906,26.24774 18.55451,-5.83094 30.66951,-15.14978 47.1132,-24.95454 -2.54773,18.76276 -13.96276,37.33302 -25.83277,47.17772 13.73278,6.72716 25.76753,9.37924 39.48356,6.67198 18.51372,22.91822 31.13754,39.36392 37.73988,42.64664 2.69536,1.12684 6.54074,2.74656 8.7264,0.80792 3.86222,-4.5286 1.49838,-19.64388 -1.16658,-29.55282 -2.8213,-8.50244 -8.74782,-29.29732 -19.0339,-22.33188 0,0 2.57226,-0.7495 3.8789,-0.64704 5.08528,0.72884 5.2239,16.03128 5.41312,22.9038 -6.22304,-7.66134 -12.28974,-13.55288 -15.7683,-21.99336 10.13264,-6.68 17.83302,-16.45908 21.9512,-27.87684 37.02562,3.23608 85.49062,-23.87688 77.53278,-47.48798 -12.66042,-32.01218 -50.5875,-38.68242 -80.67548,-30.85928 52.03254,3.92344 71.54964,42.11072 4.00704,42.4831 -6.9534,-22.2522 -26.91054,-37.90784 -50.1746,-39.36014 C 106.0696,-53.019328 81.70639,54.45913 153.52303,110.07393 Z m -32.96749,-8.40538 c -28.616024,11.36522 -99.710474,28.26086 -96.316532,64.6541 1.539542,11.22212 15.33031,18.4119 26.180092,21.65922 20.767374,6.21566 44.398496,0.64194 64.64201,-7.1122 13.98814,-5.35804 26.28278,-15.25106 36.52291,-26.18498 3.9036,-4.16808 9.04987,-14.54704 9.04987,-14.54704 0,0 -18.20538,11.38016 -27.79652,16.16376 -72.276886,39.32092 -99.491022,-10.39824 -32.32056,-35.56006 4.5772,-1.6378 14.22083,-3.2326 14.22083,-3.2326 0.94195,-6.32574 1.99497,-10.83556 5.8179,-15.8402 z"
       id="path826"
       inkscape:connector-curvature="0"
       sodipodi:nodetypes="cccccccccccccccccccccccccccssscccc" />
  </g>
</svg>
