<?xml version="1.0" encoding="UTF-8" standalone="no"?>
<!-- Generator: Adobe Illustrator 22.1.0, SVG Export Plug-In . SVG Version: 6.00 Build 0)  -->

<svg
   xmlns:dc="http://purl.org/dc/elements/1.1/"
   xmlns:cc="http://creativecommons.org/ns#"
   xmlns:rdf="http://www.w3.org/1999/02/22-rdf-syntax-ns#"
   xmlns:svg="http://www.w3.org/2000/svg"
   xmlns="http://www.w3.org/2000/svg"
   xmlns:sodipodi="http://sodipodi.sourceforge.net/DTD/sodipodi-0.dtd"
   xmlns:inkscape="http://www.inkscape.org/namespaces/inkscape"
   version="1.1"
   id="Layer_2"
   x="0px"
   y="0px"
   viewBox="0 0 970.133 800"
   xml:space="preserve"
   sodipodi:docname="Carcharodons [Imperium, Adeptus Astartes, Space Marines, Chapter].svg"
   width="970.133"
   height="800"
   inkscape:version="0.92.3 (2405546, 2018-03-11)"><metadata
   id="metadata9"><rdf:RDF><cc:Work
       rdf:about=""><dc:format>image/svg+xml</dc:format><dc:type
         rdf:resource="http://purl.org/dc/dcmitype/StillImage" /><dc:title></dc:title></cc:Work></rdf:RDF></metadata><defs
   id="defs7" /><sodipodi:namedview
   pagecolor="#ffffff"
   bordercolor="#666666"
   borderopacity="1"
   objecttolerance="10"
   gridtolerance="10"
   guidetolerance="10"
   inkscape:pageopacity="0"
   inkscape:pageshadow="2"
   inkscape:window-width="1920"
   inkscape:window-height="1017"
   id="namedview5"
   showgrid="false"
   fit-margin-top="0"
   fit-margin-left="0"
   fit-margin-right="0"
   fit-margin-bottom="0"
   inkscape:pagecheckerboard="true"
   inkscape:zoom="0.236"
   inkscape:cx="-33.942373"
   inkscape:cy="410.49997"
   inkscape:window-x="-8"
   inkscape:window-y="-8"
   inkscape:window-maximized="1"
   inkscape:current-layer="Layer_2" />
<path
   d="m 782.3797,113.7798 c 0,0 0,0 0,0 -9.95093,-28.670507 -3.2513,-72.119617 29.26165,-110.5440071 0.29557,-0.29558 0.0985,-0.88672 -0.3941,-0.98525 C 713.60989,-10.459057 624.15003,32.103343 537.35032,93.582363 c -0.0985,0.0985 -0.19705,0.0985 -0.29557,0.0985 C 360.69665,98.114473 181.38283,134.46986 0.3940963,190.92415 0,191.02268 -0.0985241,191.5153 0.0985241,191.81087 26.108881,226.2943 87.883477,259.49691 163.05735,292.10838 c 0.19705,0.0985 0.29557,0.19705 0.29557,0.3941 1.67491,6.10849 4.63063,11.72436 9.35979,16.65057 0.29557,0.29557 0.78819,0.19704 0.98524,-0.19705 3.74391,-8.47307 8.67012,-15.9609 13.99042,-20.88711 0.29557,-0.29557 0.88671,-0.0985 0.98524,0.29558 0.88672,5.02472 2.26605,9.26126 4.53211,12.31551 0.19704,0.29557 0.59114,0.29557 0.78819,0.0985 8.57159,-6.40407 17.53728,-11.0347 27.19264,-13.20223 0.3941,-0.0985 0.7882,0.3941 0.68967,0.7882 -1.67491,4.03948 -1.08376,8.57159 0.29557,13.20222 0.0985,0.3941 0.59115,0.49262 0.88672,0.29557 7.48783,-5.02472 14.87714,-9.16273 22.06939,-10.6406 0.49263,-0.0985 0.7882,0.3941 0.59115,0.7882 -1.37934,3.64539 -1.37934,6.69963 -0.98524,9.65536 0.0985,0.39409 0.39409,0.59114 0.78819,0.39409 7.68488,-2.66015 15.66533,-4.53211 23.94135,-4.72915 0.19705,0 0.49262,0.0985 0.59115,0.39409 l 2.26605,5.61588 c 0.0985,0.19704 0.19705,0.29557 0.3941,0.29557 27.29117,-8.07898 41.67568,-2.06901 46.70041,14.38451 0.49262,0.19705 0.49262,0.88672 0,1.08377 -8.67012,2.75867 -18.22696,7.98045 -28.27641,14.48304 h -7.48783 c -1.18229,3.05424 -1.67491,3.74391 -0.59115,5.41882 -0.39409,0.29557 -0.88671,0.59115 -1.28081,0.98524 -4.23653,0.3941 -7.29078,1.28082 -10.6406,0.29557 -0.49262,-0.19704 -1.08376,0.29558 -0.88672,0.7882 0.29558,1.47786 0.88672,4.13801 1.37934,6.30554 -1.77343,1.28081 -3.54687,2.66015 -5.3203,3.94096 -3.84244,-0.68967 -8.47307,-2.069 -10.44355,-3.15277 -0.49262,-0.29557 -1.08377,0.0985 -1.08377,0.59115 -0.29557,4.43358 0.29558,8.27602 1.77344,9.8524 0,0 0,0 0,0 -4.13801,0.49262 -8.86717,-1.28081 -12.01994,-4.23653 -0.49262,-0.49262 -1.28081,-0.19705 -1.37934,0.49262 -0.49262,2.8572 -0.29557,9.26126 0.29558,13.69484 -1.47787,1.08377 -2.95573,2.26606 -4.43359,3.34982 -0.19705,0.19705 -0.29557,0.49262 -0.19705,0.68967 l 4.72916,9.35979 c 0.0985,0.0985 0.19705,0.19705 0.29557,0.29557 7.7834,3.54687 36.45391,-3.74391 95.96245,-22.56201 0.0985,0 0.19705,0 0.29558,0 42.5624,8.1775 88.47462,13.39927 144.33777,13.69484 0.29557,0 0.59114,0.19705 0.59114,0.49262 3.94097,59.50855 37.2421,120.88905 97.14474,164.04259 2.8572,2.06901 6.79817,-0.39409 6.30554,-3.84244 -8.86716,-58.1292 -7.19225,-115.17464 43.7447,-129.36211 0.0985,0 0.29557,0 0.39409,0.0985 21.77382,17.43876 31.72475,25.32068 39.50816,34.58195 13.59632,16.25647 18.71957,25.71478 21.57677,34.08933 4.72916,13.4978 4.82768,25.22216 5.02473,33.79376 0.0985,4.9262 0.19705,19.50776 -3.74392,33.79375 -4.82768,17.34024 -14.87713,28.47346 -34.3849,50.24728 -14.77861,16.45352 -23.54726,26.20741 -38.12882,37.34063 -22.66054,17.24171 -43.05502,25.51774 -57.53806,31.23213 -38.32587,15.17271 -69.558,17.83286 -76.75026,18.22696 -15.86237,1.08376 -29.16312,-0.59115 -50.24728,-1.57639 -67.29194,-3.34982 -114.48497,-31.72475 -131.82521,-79.01631 0,-0.0985 0,-0.19705 0,-0.29557 13.69485,-64.53327 22.66054,-117.93332 18.424,-150.24922 -0.29557,-2.26605 -3.25129,-3.15277 -4.72915,-1.28081 -35.76424,44.33583 -74.68126,91.72591 -102.56357,94.18902 0,0 -0.0985,0 -0.0985,0 -52.21776,0 -118.03185,-81.18384 -196.35849,-152.6138 -3.054246,-2.75867 -7.586354,0.59114 -6.009968,4.33506 C 63.54803,507.18644 130.05178,609.35591 227.098,653.69174 c 0.0985,0 0.0985,0.0985 0.19705,0.0985 115.96284,115.66727 233.89616,143.6481 352.51915,146.20973 0,0 0.0985,0 0.0985,0 206.90056,-20.78858 365.03171,-136.2588 390.05682,-335.08039 0,0 0,0 0,-0.0985 C 976.17656,275.06372 803.6609,157.62301 782.3797,113.7798 Z m -561.39019,46.20779 c -0.88672,2.75868 -24.33545,8.96569 -54.97644,16.25648 -1.57638,-1.77344 31.23213,-16.25648 38.71996,-18.71958 7.48783,-2.4631 19.01515,1.57639 16.25648,2.4631 z m 192.51604,152.6138 c 16.55205,-40.78897 29.8528,-79.60746 37.53768,-115.07612 0,0 5.02472,21.2812 -6.20702,53.79414 -10.04946,29.95132 -31.33066,61.28198 -31.33066,61.28198 z m 32.51295,-1.28081 c 16.05942,-39.60668 28.96608,-77.34141 36.45391,-111.72631 0,0 4.82768,20.69006 -6.1085,52.21776 -9.65536,29.16313 -30.34541,59.50855 -30.34541,59.50855 z m 59.60707,-51.82367 c -9.06422,27.88231 -28.37494,56.84839 -28.37494,56.84839 14.97566,-37.83324 26.9956,-73.89305 33.99081,-106.70157 0,-0.0985 4.53211,19.70481 -5.61587,49.85318 z"
   id="path2"
   inkscape:connector-curvature="0"
   style="stroke-width:0.98524076" />
</svg>