<?xml version="1.0" encoding="UTF-8" standalone="no"?>
<!-- Generator: Adobe Illustrator 23.0.1, SVG Export Plug-In . SVG Version: 6.00 Build 0)  -->

<svg
   xmlns:dc="http://purl.org/dc/elements/1.1/"
   xmlns:cc="http://creativecommons.org/ns#"
   xmlns:rdf="http://www.w3.org/1999/02/22-rdf-syntax-ns#"
   xmlns:svg="http://www.w3.org/2000/svg"
   xmlns="http://www.w3.org/2000/svg"
   xmlns:sodipodi="http://sodipodi.sourceforge.net/DTD/sodipodi-0.dtd"
   xmlns:inkscape="http://www.inkscape.org/namespaces/inkscape"
   version="1.1"
   id="Layer_2"
   x="0px"
   y="0px"
   viewBox="0 0 770.38654 800"
   xml:space="preserve"
   sodipodi:docname="Centurio Ordinatus [Imperium, Adeptus Mechanicus].svg"
   width="770.38654"
   height="800"
   inkscape:version="0.92.3 (2405546, 2018-03-11)"><metadata
   id="metadata19"><rdf:RDF><cc:Work
       rdf:about=""><dc:format>image/svg+xml</dc:format><dc:type
         rdf:resource="http://purl.org/dc/dcmitype/StillImage" /><dc:title /></cc:Work></rdf:RDF></metadata><defs
   id="defs17">
	
	
	
	
	
</defs><sodipodi:namedview
   pagecolor="#ffffff"
   bordercolor="#666666"
   borderopacity="1"
   objecttolerance="10"
   gridtolerance="10"
   guidetolerance="10"
   inkscape:pageopacity="0"
   inkscape:pageshadow="2"
   inkscape:window-width="1920"
   inkscape:window-height="1017"
   id="namedview15"
   showgrid="false"
   fit-margin-top="0"
   fit-margin-left="0"
   fit-margin-right="0"
   fit-margin-bottom="0"
   inkscape:pagecheckerboard="true"
   inkscape:zoom="0.236"
   inkscape:cx="-841.3361"
   inkscape:cy="488"
   inkscape:window-x="-8"
   inkscape:window-y="-8"
   inkscape:window-maximized="1"
   inkscape:current-layer="Layer_2" />
<g
   id="g824"><path
     style="stroke-width:0.82282519"
     d="m 590.27009,451.96964 c 0,91.53107 -59.92635,169.05766 -142.68611,195.50326 -18.37369,21.50042 -40.12918,38.27783 -60.94666,38.27783 -19.66552,0 -40.17033,-15.85585 -57.86929,-36.37711 -85.97701,-24.46259 -148.93959,-103.58546 -148.93959,-197.40398 0,-13.0171 1.22601,-25.73797 3.53815,-38.08035 H 37.018904 v 77.49367 H 89.66326 c 3.7274,25.47467 10.67204,49.90435 20.40606,72.86117 l -46.55545,26.87347 39.8412,69.00212 47.36182,-27.34248 c 15.48557,19.59147 33.38201,37.1917 53.22856,52.36459 l -27.77035,48.10236 68.99389,39.83297 27.96783,-48.43972 c 22.63592,9.15805 46.65418,15.62545 71.65984,18.99081 V 800 h 79.66593 v -56.25656 c 25.01389,-3.29953 49.04861,-9.69288 71.70922,-18.7851 l 28.02542,48.54669 68.99389,-39.83297 -27.72098,-48.01185 c 19.89591,-15.11529 37.8335,-32.66615 53.37667,-52.20825 l 47.46878,27.4083 39.83297,-68.99389 -46.46494,-26.8241 c 9.79985,-22.93213 16.81855,-47.33713 20.62,-72.79534 H 733.0714 V 413.91397 H 586.73194 c 2.31214,12.3177 3.53815,25.0468 3.53815,38.05567 z"
     id="path2"
     inkscape:connector-curvature="0" /><path
     style="stroke-width:0.82282519"
     d="m 102.6063,272.1412 25.26073,20.34846 c -16.5717,27.02158 -29.00459,56.84899 -36.41824,88.61005 h 97.95734 c 12.74556,-36.27837 35.2992,-67.93245 64.47658,-91.79438 v -53.12159 h 264.45601 v 54.87421 c 28.14885,23.65622 49.9208,54.65205 62.36192,90.04998 h 97.9491 c -7.39719,-31.70345 -19.8054,-61.47326 -36.3195,-88.4537 l 25.44998,-20.5048 16.92552,41.25645 85.68078,-96.26232 -70.87816,35.96569 -9.52009,-35.96569 -76.67907,35.78467 c -21.35232,-24.7259 -46.65419,-45.94656 -74.92646,-62.68282 l 9.50363,-33.18454 37.59488,23.97712 14.60515,-128.03982 -37.22461,70.2199 -28.49444,-23.93598 -39.88234,69.58632 c -25.09616,-9.78339 -51.82152,-16.29194 -79.66593,-19.02372 l -7.83329,-33.53012 44.51484,2.64126 L 401.91718,0 l 1.67034,79.46023 -36.53344,-7.0187 -0.91334,76.52274 c -31.67054,1.95832 -62.01633,8.81246 -90.29683,19.8054 l -39.82474,-69.49581 -28.49443,23.91952 -37.22461,-70.2199 14.60514,128.03983 37.59488,-23.97713 9.46249,33.04466 c -28.3381,16.73627 -53.68934,37.98161 -75.08279,62.74042 L 80.39825,217.12711 70.87816,253.09279 0,217.12711 85.68078,313.39765 Z"
     id="path4"
     inkscape:connector-curvature="0" /><path
     style="stroke-width:0.82282519"
     d="m 294.60432,555.63738 c 0,17.98696 48.13528,112.13462 91.50639,112.13462 43.37112,0 91.50639,-88.85689 91.50639,-112.13462 V 328.2085 H 294.60432 Z"
     id="path6"
     inkscape:connector-curvature="0" /><rect
     style="stroke-width:0.82282519"
     x="294.60434"
     y="291.18137"
     width="183.00455"
     height="27.507046"
     id="rect8" /><rect
     style="stroke-width:0.82282519"
     x="268.68533"
     y="248.86346"
     width="234.84253"
     height="32.789581"
     id="rect10" /></g>
</svg>