<?xml version="1.0" encoding="UTF-8" standalone="no"?>
<!-- Generator: Adobe Illustrator 22.1.0, SVG Export Plug-In . SVG Version: 6.00 Build 0)  -->

<svg
   xmlns:dc="http://purl.org/dc/elements/1.1/"
   xmlns:cc="http://creativecommons.org/ns#"
   xmlns:rdf="http://www.w3.org/1999/02/22-rdf-syntax-ns#"
   xmlns:svg="http://www.w3.org/2000/svg"
   xmlns="http://www.w3.org/2000/svg"
   xmlns:sodipodi="http://sodipodi.sourceforge.net/DTD/sodipodi-0.dtd"
   xmlns:inkscape="http://www.inkscape.org/namespaces/inkscape"
   version="1.1"
   id="Layer_4"
   x="0px"
   y="0px"
   viewBox="0 0 648.97046 800"
   xml:space="preserve"
   sodipodi:docname="Charnel Guard [Imperium, Adeptus Astartes, Space Marines, Blood Angels, Chapter].svg"
   width="648.97046"
   height="800"
   inkscape:version="0.92.3 (2405546, 2018-03-11)"><metadata
   id="metadata13"><rdf:RDF><cc:Work
       rdf:about=""><dc:format>image/svg+xml</dc:format><dc:type
         rdf:resource="http://purl.org/dc/dcmitype/StillImage" /><dc:title></dc:title></cc:Work></rdf:RDF></metadata><defs
   id="defs11">
	
	
</defs><sodipodi:namedview
   pagecolor="#ffffff"
   bordercolor="#666666"
   borderopacity="1"
   objecttolerance="10"
   gridtolerance="10"
   guidetolerance="10"
   inkscape:pageopacity="0"
   inkscape:pageshadow="2"
   inkscape:window-width="1920"
   inkscape:window-height="1017"
   id="namedview9"
   showgrid="false"
   fit-margin-top="0"
   fit-margin-left="0"
   fit-margin-right="0"
   fit-margin-bottom="0"
   inkscape:pagecheckerboard="true"
   inkscape:zoom="0.236"
   inkscape:cx="-105.04237"
   inkscape:cy="494"
   inkscape:window-x="-8"
   inkscape:window-y="-8"
   inkscape:window-maximized="1"
   inkscape:current-layer="Layer_4" />
<path
   inkscape:connector-curvature="0"
   id="path2"
   d="m 324.24057,222.71152 c -0.0815,0 -0.0815,0 0,0 -2.28338,0 -3.58817,0.0815 -3.58817,0.0815 -15.24975,0.73394 -50.47911,6.11621 -62.30378,40.93782 -10.19368,29.68399 9.05199,63.20081 5.21917,67.68603 -15.65749,18.10398 5.62691,46.89093 8.56269,49.25586 5.21916,4.24057 21.85525,-4.40367 19.24567,0.0815 -1.95719,3.42508 -4.48522,16.22834 -3.83283,20.71356 0.6524,4.48522 5.95311,21.69215 5.95311,21.69215 l 2.44649,-22.263 3.58817,-0.0815 0.8155,8.97044 h 7.33944 l 0.8155,-8.56269 4.64832,-0.40775 0.40774,8.97044 h 7.33945 l 0.3262,-9.21508 h 5.95311 l 0.3262,9.21508 h 7.33945 l 0.40775,-8.97044 4.64831,0.40775 0.8155,8.56269 h 7.33945 l 0.81549,-8.97044 3.58818,0.0815 2.44648,22.263 c 0,0 5.54536,-15.33129 5.95311,-21.69215 0,0 -1.87564,-17.37003 -3.83282,-20.71356 -2.60959,-4.48522 14.0265,4.15902 19.24566,-0.0815 2.93578,-2.36493 24.22019,-31.07033 8.56269,-49.25586 -3.91437,-4.56677 15.3313,-38.08359 5.21917,-67.68603 -11.90622,-34.82161 -47.13558,-40.20388 -62.38532,-40.93782 0.0815,0 -1.22324,-0.0815 -3.42508,-0.0815 0,0 0,0 0,0 z m -9.70438,127.46177 c -2.03874,2.28339 -4.97452,4.97452 -8.97044,7.2579 -9.62283,5.38227 -19.08257,4.64832 -22.99694,4.07747 -0.24465,0 -0.4893,-0.0815 -0.73395,-0.24464 -8.39959,-5.30072 -11.58002,-13.61876 -9.13353,-18.83792 0.40774,-0.8155 1.79408,-3.42508 6.19775,-4.97452 0.24465,-0.0815 0.4893,-0.0815 0.73395,-0.0815 5.30071,0.4893 11.90622,1.54944 19.24567,3.83282 5.9531,1.87564 10.92762,4.07748 15.08664,6.19776 1.06014,0.57085 1.30479,1.87564 0.57085,2.77268 z m 20.14271,-2.77268 c 4.15902,-2.12028 9.21509,-4.40367 15.08665,-6.19776 7.33944,-2.28338 13.94495,-3.34352 19.24566,-3.83282 0.24465,0 0.4893,0 0.73395,0.0815 4.40367,1.63099 5.79001,4.24057 6.19776,4.97452 2.44648,5.21916 -0.73395,13.5372 -9.13354,18.83792 -0.24465,0.1631 -0.4893,0.24464 -0.73395,0.24464 -3.83282,0.57085 -13.3741,1.3048 -22.99694,-4.07747 -3.99592,-2.20183 -6.9317,-4.97451 -8.97044,-7.2579 -0.73394,-0.89704 -0.48929,-2.20183 0.57085,-2.77268 z m -6.60551,14.27115 c 6.60551,6.52396 6.76861,15.4944 6.52396,19.89807 0,0.57084 -0.73395,0.81549 -1.14169,0.40774 -0.89705,-1.14169 -2.12029,-2.52803 -3.83283,-3.75127 -1.79408,-1.30479 -3.50662,-2.12029 -4.81141,-2.60958 -1.30479,0.48929 -3.01733,1.30479 -4.81142,2.60958 -1.63099,1.22324 -2.93578,2.52803 -3.83282,3.75127 -0.40775,0.4893 -1.1417,0.24465 -1.1417,-0.40774 -0.24464,-4.40367 -0.0815,-13.37411 6.52396,-19.89807 0.81549,-0.81549 1.95719,-1.54944 3.26198,-2.28338 1.30479,0.73394 2.44648,1.46789 3.26197,2.28338 z"
   style="stroke-width:0.81549442" /><path
   inkscape:connector-curvature="0"
   id="path4"
   d="m 648.97044,323.50663 h -1.06014 c -21.61061,-17.45158 -53.33334,-28.62386 -91.58002,-35.88176 -25.36188,-1.71254 -41.75332,19.16412 -50.72376,18.34863 -14.43425,-1.22325 -6.7686,-13.12946 -1.71253,-14.842 18.34862,-2.60958 37.59429,-22.7523 36.69724,-42.81346 -8.56269,-30.90723 -30.33639,-39.55148 -56.83996,-40.20387 0,0 20.14272,15.73904 14.842,36.69725 -4.64832,18.67482 -29.3578,37.26809 -59.28644,36.2895 -3.50663,-0.0815 -6.27931,-2.93578 -6.27931,-6.44241 v -59.20489 c 0,-1.71254 -1.38634,-3.09888 -3.09888,-3.09888 h -56.59531 c -3.58817,0 -6.52395,-2.93578 -6.4424,-6.6055 0.65239,-28.21611 18.43017,-51.04995 36.2895,-55.53517 20.9582,-5.21917 36.69725,14.842 36.69725,14.842 -0.6524,-26.50357 -9.29664,-48.27727 -40.20388,-56.83996 -20.14271,-0.89705 -40.20387,18.34862 -42.81345,36.69724 -0.6524,5.21917 -10.51988,9.05199 -14.842,-1.71253 -3.34353,-8.31805 20.14271,-25.36188 18.34862,-50.72376 C 353.19062,54.23038 341.9368,22.50765 324.48522,0.89704 V 0 c -0.1631,0.1631 -0.3262,0.3262 -0.40775,0.57085 -0.1631,-0.1631 -0.3262,-0.3262 -0.40775,-0.57085 v 1.06014 c -17.45158,21.6106 -28.62385,53.33334 -35.88175,91.58002 -1.71254,25.36188 18.43017,41.67177 18.34863,50.72375 -0.0815,13.86341 -13.94496,6.44241 -14.842,1.71254 -2.60958,-18.34862 -22.7523,-37.59429 -42.81346,-36.69725 -30.90724,8.5627 -39.55148,30.3364 -40.20387,56.83996 0,0 15.73904,-20.14271 36.69725,-14.84199 17.85932,4.48522 35.71865,27.23751 36.2895,55.53516 0.0815,3.58818 -2.77268,6.60551 -6.44241,6.60551 H 218.2263 c -1.71254,0 -3.09888,1.38634 -3.09888,3.09888 v 59.20489 c 0,3.50663 -2.85423,6.36086 -6.36086,6.44241 -29.52089,0.57084 -53.74108,-17.85933 -58.38939,-36.2895 -5.21917,-20.95821 14.84199,-36.69725 14.84199,-36.69725 -26.50356,0.65239 -48.27726,9.29663 -56.83996,40.20387 -0.89704,20.14271 18.34863,40.20388 36.69725,42.81346 4.56677,0.89704 8.97044,10.51988 -1.71254,14.842 -8.31804,3.34352 -25.36187,-20.14272 -50.72375,-18.34863 -38.24668,7.17635 -69.96942,18.43017 -91.580017,35.88175 H 0 c 0.163099,0.1631 0.326198,0.3262 0.570846,0.40775 -0.163099,0.1631 -0.326198,0.3262 -0.570846,0.40775 h 1.060143 c 21.610597,17.45158 53.333337,28.62385 91.580017,35.88175 25.36188,1.71254 41.75332,-19.16412 50.72375,-18.34862 14.43426,1.22324 7.17636,14.0265 1.71254,14.842 -18.34862,2.60958 -37.59429,22.75229 -36.69725,42.81345 8.5627,30.90724 30.3364,39.55148 56.83996,40.20388 0,0 -20.14271,-15.73905 -14.84199,-36.69725 4.64831,-18.43018 28.78695,-36.86035 58.38939,-36.2895 3.50663,0.0815 6.36086,2.93578 6.36086,6.4424 v 53.98573 c 0,1.71254 1.38634,3.09888 3.09888,3.09888 h 57.81855 c 3.58818,0 6.44241,2.85423 6.44241,6.44241 l -0.73395,133.17023 c -1.71254,34.98471 -6.11621,72.579 -36.69724,79.59225 -21.12131,4.81142 -36.69725,-14.84199 -36.69725,-14.84199 0.65239,26.50356 9.29663,48.27726 40.20387,56.83996 20.14271,0.89704 40.20387,-18.34863 42.81346,-36.69725 0.24465,-5.21917 13.7003,-10.03058 14.84199,1.71254 0.89705,8.97043 -20.14271,25.36187 -18.34862,50.72375 7.17635,38.24668 18.43017,69.96942 35.88175,91.58002 V 800 c 0.1631,-0.1631 0.3262,-0.3262 0.40775,-0.57085 0.1631,0.1631 0.3262,0.3262 0.40775,0.57085 v -1.06014 c 17.45158,-21.6106 28.62385,-53.33334 35.88175,-91.58002 1.71254,-25.36188 -18.51172,-41.67177 -18.34862,-50.72375 0.1631,-13.94496 15.08664,-7.82875 14.842,-1.71254 2.60958,18.34862 22.75229,37.59429 42.81345,36.69725 30.90724,-8.5627 39.55148,-30.3364 40.20388,-56.83996 0,0 -15.73905,19.97961 -36.69725,14.84199 -28.8685,-7.01325 -34.08767,-45.50458 -34.98471,-79.59225 V 436.53415 c 0,-3.50663 2.85423,-6.44241 6.4424,-6.44241 h 55.20897 c 1.71254,0 3.09888,-1.38634 3.09888,-3.09888 v -53.90417 c 0,-3.50663 2.77268,-6.27931 6.27931,-6.44241 29.92864,-0.97859 54.63812,17.61468 59.28644,36.2895 5.21917,20.95821 -14.842,36.69725 -14.842,36.69725 26.50357,-0.6524 48.27727,-9.29664 56.83996,-40.20388 0.89705,-20.14271 -18.34862,-40.20387 -36.69724,-42.81345 -5.05607,0 -9.54129,-14.02651 1.71253,-14.842 8.97044,-0.6524 25.36188,20.14271 50.72376,18.34862 38.24668,-7.17635 69.96941,-18.43017 91.58002,-35.88175 h 1.06014 c -0.1631,-0.1631 -0.3262,-0.3262 -0.57085,-0.40775 0.1631,-0.0815 0.40775,-0.1631 0.57085,-0.32619 z M 324.56677,464.9949 181.7737,322.20183 324.56677,179.40877 467.35984,322.20183 Z"
   style="stroke-width:0.81549442" />
</svg>