<?xml version="1.0" encoding="UTF-8" standalone="no"?>
<!-- Generator: Adobe Illustrator 23.0.2, SVG Export Plug-In . SVG Version: 6.00 Build 0)  -->

<svg
   xmlns:dc="http://purl.org/dc/elements/1.1/"
   xmlns:cc="http://creativecommons.org/ns#"
   xmlns:rdf="http://www.w3.org/1999/02/22-rdf-syntax-ns#"
   xmlns:svg="http://www.w3.org/2000/svg"
   xmlns="http://www.w3.org/2000/svg"
   xmlns:sodipodi="http://sodipodi.sourceforge.net/DTD/sodipodi-0.dtd"
   xmlns:inkscape="http://www.inkscape.org/namespaces/inkscape"
   version="1.1"
   id="Layer_4"
   x="0px"
   y="0px"
   viewBox="0 0 651.44629 800"
   xml:space="preserve"
   sodipodi:docname="Collegia Titanica [Imperium, Adeptus Mechanicus, Adeptus Titanicus].svg"
   width="651.44629"
   height="800"
   inkscape:version="0.92.3 (2405546, 2018-03-11)"><metadata
   id="metadata17"><rdf:RDF><cc:Work
       rdf:about=""><dc:format>image/svg+xml</dc:format><dc:type
         rdf:resource="http://purl.org/dc/dcmitype/StillImage" /><dc:title></dc:title></cc:Work></rdf:RDF></metadata><defs
   id="defs15">
	
	
	
	
</defs><sodipodi:namedview
   pagecolor="#ffffff"
   bordercolor="#666666"
   borderopacity="1"
   objecttolerance="10"
   gridtolerance="10"
   guidetolerance="10"
   inkscape:pageopacity="0"
   inkscape:pageshadow="2"
   inkscape:window-width="1920"
   inkscape:window-height="1017"
   id="namedview13"
   showgrid="false"
   fit-margin-top="0"
   fit-margin-left="0"
   fit-margin-right="0"
   fit-margin-bottom="0"
   inkscape:pagecheckerboard="true"
   inkscape:zoom="0.236"
   inkscape:cx="-132.96237"
   inkscape:cy="484"
   inkscape:window-x="-8"
   inkscape:window-y="-8"
   inkscape:window-maximized="1"
   inkscape:current-layer="Layer_4" />
<g
   id="g831"
   transform="matrix(0.82644628,0,0,0.82644628,-87.123967,-13.22314)"><path
     d="m 499.55,157.5 c 29.96,0 58.7,5.23 85.37,14.8 h 159.54 c -11.2,-11.77 -23.24,-22.74 -36.03,-32.8 L 736.09,91.59 657.96,46.48 630.72,93.67 C 603.79,82.33 575.09,74.37 545.14,70.34 V 16 h -90.22 v 54.21 c -29.96,3.95 -58.69,11.83 -85.64,23.09 l -27.3,-47.29 -78.13,45.11 27.6,47.8 c -13.07,10.22 -25.37,21.39 -36.79,33.39 H 414.2 c 26.65,-9.58 55.39,-14.81 85.35,-14.81 z"
     id="path2"
     inkscape:connector-curvature="0" /><path
     d="m 246.93,410.12 c 0,-63.02 23.08,-120.65 61.25,-164.9 l -59.17,-66.84 c -6.78,7.47 -13.23,15.24 -19.32,23.3 l -48.67,-28.1 -45.11,78.13 49.45,28.55 c -10.6,26.59 -17.92,54.85 -21.46,84.27 h -58.48 v 90.22 h 59.62 c 4.22,28.85 12.08,56.51 23.11,82.51 l -52.72,30.44 45.11,78.13 53.63,-30.96 c 17.54,22.19 37.8,42.12 60.28,59.3 l -31.45,54.47 78.13,45.11 31.67,-54.86 c 16.64,6.73 33.95,12.17 51.79,16.21 l 5.09,-82.16 C 324.16,622.64 246.93,525.41 246.93,410.12 Z"
     id="path4"
     inkscape:connector-curvature="0" /><path
     d="M 893.67,455.71 V 365.49 H 835.3 c -3.46,-29.43 -10.7,-57.71 -21.22,-84.33 l 49.57,-28.62 -45.11,-78.13 -48.57,28.04 c -6.94,-9.23 -14.34,-18.09 -22.17,-26.55 l -59.13,66.79 c 39.49,44.58 63.48,103.2 63.48,167.43 0,116.87 -79.38,215.19 -187.16,244.03 l 5.08,81.93 c 19.08,-4.05 37.56,-9.71 55.3,-16.82 l 31.74,54.97 78.13,-45.11 -31.39,-54.37 c 22.53,-17.12 42.85,-36.99 60.45,-59.13 l 53.76,31.04 45.11,-78.13 -52.62,-30.38 c 11.1,-25.97 19.04,-53.61 23.35,-82.44 z"
     id="path6"
     inkscape:connector-curvature="0" /></g><path
   inkscape:connector-curvature="0"
   id="path8"
   d="m 354.33058,633.90909 c 0,-12.71074 9.18182,-23.27273 21.28099,-25.42975 L 356.1405,294.34711 h 72.93388 v 14.76033 h 17.52893 v -56.28926 h -17.52893 v 14.76033 h -74.59504 l -5.00827,-80.80165 c -0.35537,-5.55372 4.23141,-10.16529 9.78513,-9.83471 46.76033,2.79339 104.80992,2.31405 103.95868,17.75206 l 49.82644,-56.28925 H 323.8843 134.72727 l 49.82645,56.28925 c -0.85951,-15.42975 57.19835,-14.95041 103.95868,-17.75206 5.55372,-0.33058 10.14049,4.28099 9.78512,9.83471 l -5.00826,80.80992 h -74.59505 v -14.76033 h -17.52892 v 56.28925 h 17.52892 V 294.35537 H 291.6281 L 272.15702,608.4876 c 12.09091,2.15703 21.281,12.71075 21.281,25.42976 0,13.80165 -10.82645,25.08264 -24.45455,25.80165 L 268.52066,667.1405 323.8843,800 l 55.36363,-132.87603 -0.46281,-7.42149 c -13.6281,-0.71074 -24.45454,-11.98347 -24.45454,-25.79339 z"
   style="stroke-width:0.82644629" />
</svg>