<?xml version="1.0" encoding="UTF-8" standalone="no"?>
<!-- Generator: Adobe Illustrator 22.1.0, SVG Export Plug-In . SVG Version: 6.00 Build 0)  -->

<svg
   xmlns:dc="http://purl.org/dc/elements/1.1/"
   xmlns:cc="http://creativecommons.org/ns#"
   xmlns:rdf="http://www.w3.org/1999/02/22-rdf-syntax-ns#"
   xmlns:svg="http://www.w3.org/2000/svg"
   xmlns="http://www.w3.org/2000/svg"
   xmlns:sodipodi="http://sodipodi.sourceforge.net/DTD/sodipodi-0.dtd"
   xmlns:inkscape="http://www.inkscape.org/namespaces/inkscape"
   version="1.1"
   id="Layer_3"
   x="0px"
   y="0px"
   viewBox="0 0 750.1261 799.99999"
   xml:space="preserve"
   sodipodi:docname="Consecrators [Imperium, Adeptus Astartes, Space Marines, Dark Angels, Chapter].svg"
   width="750.1261"
   height="800"
   inkscape:version="0.92.3 (2405546, 2018-03-11)"><metadata
   id="metadata17"><rdf:RDF><cc:Work
       rdf:about=""><dc:format>image/svg+xml</dc:format><dc:type
         rdf:resource="http://purl.org/dc/dcmitype/StillImage" /><dc:title></dc:title></cc:Work></rdf:RDF></metadata><defs
   id="defs15">
	
	
	
	
</defs><sodipodi:namedview
   pagecolor="#ffffff"
   bordercolor="#666666"
   borderopacity="1"
   objecttolerance="10"
   gridtolerance="10"
   guidetolerance="10"
   inkscape:pageopacity="0"
   inkscape:pageshadow="2"
   inkscape:window-width="1920"
   inkscape:window-height="1017"
   id="namedview13"
   showgrid="false"
   fit-margin-top="0"
   fit-margin-left="0"
   fit-margin-right="0"
   fit-margin-bottom="0"
   inkscape:pagecheckerboard="true"
   inkscape:zoom="0.23809524"
   inkscape:cx="-58.150006"
   inkscape:cy="495.69999"
   inkscape:window-x="-8"
   inkscape:window-y="-8"
   inkscape:window-maximized="1"
   inkscape:current-layer="Layer_3" />
<path
   inkscape:connector-curvature="0"
   id="path2"
   d="m 455.96691,473.64067 c 0,-39.14052 -23.72642,-78.92666 -57.94411,-116.77595 -17.43166,-19.2878 -14.68779,-118.5514 -14.68779,-118.5514 0,0 -63.43185,67.06346 -62.54413,113.06366 0.88772,46.0002 44.14405,99.26359 44.14405,99.26359 0,0 4.60002,37.68789 -23.88782,35.83174 -39.54403,0 -20.25623,-76.2635 -20.25623,-76.2635 0,0 -56.08797,33.97559 -49.6318,92.80743 6.45617,58.83184 89.17583,108.46363 98.37587,108.46363 68.9196,-3.63159 86.43196,-101.03904 86.43196,-137.8392 z"
   style="stroke-width:0.80702108" /><g
   id="g830"
   transform="translate(0,-191.3)"><path
     style="stroke-width:0.80702108"
     d="m 211.43952,587.70875 c -78.44245,0 -140.340963,0 -200.383331,0 -0.403511,8.07022 -1.2912339,31.87734 2.501765,64.40029 l 115.484716,0.72632 c 2.09826,12.34742 5.89125,29.05275 12.67023,48.17915 L 25.25976,713.03913 c 5.649147,20.98255 13.39655,43.33703 23.968526,66.01432 L 159.87088,741.93048 c 7.26319,13.39655 16.05972,27.19661 26.7931,40.83527 L 80.217895,832.96246 c 11.217593,16.14042 24.129935,31.95804 39.140525,47.29144 l 90.06355,-71.74418 c 10.32987,10.32987 20.74044,19.2071 31.07031,26.8738 l -71.34066,87.15828 c 17.91587,12.67023 35.99314,23.0001 53.5862,31.39312 l 48.42126,-98.53727 c 14.60708,8.31231 27.84223,14.20357 38.3335,18.23867 l -18.80359,105.39696 c 31.79663,8.47372 57.54061,11.21759 71.42137,12.26672 l 2.74387,-171.00777 c -30.26329,-1.53334 -51.56865,-10.57198 -65.28801,-18.40008 -61.73711,-35.50893 -91.83899,-113.95138 -88.1267,-214.1834 z"
     id="path4"
     inkscape:connector-curvature="0" /><path
     style="stroke-width:0.80702108"
     d="m 539.17078,587.70875 c 3.7123,100.23202 -26.38959,178.67447 -88.2074,214.1834 -13.63866,7.8281 -35.02472,16.86674 -65.28801,18.40008 L 388.41925,991.3 c 13.88076,-1.04913 39.62473,-3.793 71.42136,-12.26672 L 441.03702,873.63632 c 10.49127,-4.0351 23.72642,-9.92636 38.3335,-18.23867 l 48.42127,98.53727 c 17.59306,-8.39302 35.58963,-18.72289 53.5862,-31.39312 l -71.34067,-87.15828 c 10.24917,-7.6667 20.74044,-16.62463 31.07031,-26.8738 l 90.06356,71.74418 c 15.01059,-15.2527 28.00363,-31.15102 39.14052,-47.29144 L 563.86563,782.76575 c 10.73338,-13.71936 19.52991,-27.43872 26.7931,-40.83527 l 110.64259,37.12297 C 711.954,756.37616 719.6207,734.10238 725.26984,713.03913 L 608.8167,701.09522 c 6.77898,-19.1264 10.57198,-35.91244 12.67023,-48.17916 l 115.48472,-0.72632 c 3.8737,-32.52295 2.90528,-56.33007 2.50177,-64.40028 -59.96167,-0.0807 -121.86019,-0.0807 -200.30264,-0.0807 z"
     id="path6"
     inkscape:connector-curvature="0" /></g><path
   inkscape:connector-curvature="0"
   id="path8"
   d="m 0,382.36659 h 173.75164 7.34389 29.29487 c 0,-90.70917 73.51962,-164.22879 164.22879,-164.22879 90.70916,0 164.22879,73.51962 164.22879,164.22879 h 30.18258 6.45617 174.63936 L 568.54635,329.91022 c -2.74387,-10.08777 -6.21406,-19.85272 -10.41057,-29.21417 l 76.10209,-81.99334 -105.07415,35.50893 c -6.45617,-7.8281 -13.55795,-15.09129 -21.14395,-21.87027 l 26.8738,-103.70221 -81.75123,68.8389 c -8.47372,-3.6316 -17.18955,-6.61757 -26.22819,-9.03864 L 375.0227,0 323.05054,188.19732 c -9.11934,2.42106 -17.99657,5.40704 -26.551,9.03863 l -81.42842,-68.59679 26.7124,102.97589 c -7.74741,6.85968 -15.0106,14.28427 -21.62817,22.27378 l -104.34783,-35.18612 75.53718,81.26703 c -4.35792,9.68425 -7.98951,19.77201 -10.73338,30.18258 z"
   style="stroke-width:0.80702108" />
</svg>