<?xml version="1.0" encoding="UTF-8" standalone="no"?>
<!-- Generator: Adobe Illustrator 23.0.3, SVG Export Plug-In . SVG Version: 6.00 Build 0)  -->

<svg
   xmlns:dc="http://purl.org/dc/elements/1.1/"
   xmlns:cc="http://creativecommons.org/ns#"
   xmlns:rdf="http://www.w3.org/1999/02/22-rdf-syntax-ns#"
   xmlns:svg="http://www.w3.org/2000/svg"
   xmlns="http://www.w3.org/2000/svg"
   xmlns:sodipodi="http://sodipodi.sourceforge.net/DTD/sodipodi-0.dtd"
   xmlns:inkscape="http://www.inkscape.org/namespaces/inkscape"
   version="1.1"
   id="Layer_2"
   x="0px"
   y="0px"
   viewBox="0 0 852.03284 800"
   xml:space="preserve"
   sodipodi:docname="Crimson Talons [Imperium, Adeptus Astartes, Space Marines, Chapter].svg"
   width="852.03284"
   height="800"
   inkscape:version="0.92.3 (2405546, 2018-03-11)"><metadata
   id="metadata21"><rdf:RDF><cc:Work
       rdf:about=""><dc:format>image/svg+xml</dc:format><dc:type
         rdf:resource="http://purl.org/dc/dcmitype/StillImage" /><dc:title></dc:title></cc:Work></rdf:RDF></metadata><defs
   id="defs19">
	
	
	
	
	
	
</defs><sodipodi:namedview
   pagecolor="#ffffff"
   bordercolor="#666666"
   borderopacity="1"
   objecttolerance="10"
   gridtolerance="10"
   guidetolerance="10"
   inkscape:pageopacity="0"
   inkscape:pageshadow="2"
   inkscape:window-width="1920"
   inkscape:window-height="1017"
   id="namedview17"
   showgrid="false"
   inkscape:pagecheckerboard="true"
   fit-margin-top="0"
   fit-margin-left="0"
   fit-margin-right="0"
   fit-margin-bottom="0"
   inkscape:zoom="0.236"
   inkscape:cx="-55.614952"
   inkscape:cy="422.98904"
   inkscape:window-x="-8"
   inkscape:window-y="-8"
   inkscape:window-maximized="1"
   inkscape:current-layer="Layer_2" />
<path
   inkscape:connector-curvature="0"
   id="path2"
   d="m 608.29244,0 c 0,0 -48.37595,120.93987 -48.37595,126.52171 l 202.80687,156.29154 89.30945,-74.42454 z"
   style="stroke-width:0.8988471" /><path
   inkscape:connector-curvature="0"
   id="path4"
   d="m 466.88582,184.20972 c 13.02429,33.49104 37.21227,53.95779 -14.88491,119.07926 -63.26086,59.53963 -244.47742,-64.29453 -236.3069,-85.58822 l -46.51533,126.52172 c 0,0 40.93349,24.18797 40.93349,33.49104 0,9.30307 -40.93349,18.60613 -40.93349,18.60613 l 44.65472,128.38233 c 0,0 48.37595,-16.74552 53.95779,-7.44245 5.58184,9.30307 -7.44245,39.07288 -7.44245,39.07288 l 102.33374,91.17006 c 5.58184,-63.26086 80.00638,-111.63681 152.5703,-102.33374 29.76982,16.74552 7.44245,65.12147 7.44245,76.28515 l 139.54601,48.37595 c -7.28066,-67.34162 -7.73008,-131.43841 0,-191.64318 0,0 -50.23656,-35.35166 -26.04858,-74.42454 14.8849,-5.58184 81.86699,5.58184 81.86699,5.58184 -1.99544,-2.35498 -29.31141,-35.6303 -16.74552,-74.42454 6.74135,-20.8173 21.56334,-32.70006 27.9092,-37.21227 -60.15984,-45.89513 -120.31967,-91.79026 -180.47951,-137.68539 -11.15469,20.46674 -50.22757,31.63042 -81.858,24.18797 z"
   style="stroke-width:0.8988471" /><g
   id="g841"
   transform="translate(-28.072579,-122.98904)"><path
     style="stroke-width:0.8988471"
     d="M 158.17838,443.02354 202.8331,331.38674 C 100.49936,283.01079 -29.743583,437.4417 55.844636,510.00563 63.28709,452.32661 89.335678,437.4417 158.17838,443.02354 Z"
     id="path6"
     inkscape:connector-curvature="0" /><path
     style="stroke-width:0.8988471"
     d="m 156.31776,763.05805 c -27.9092,-63.26086 3.72123,-107.91558 53.05895,-108.75151 L 162.1333,543.73936 C 39.099115,586.29977 27.935434,763.05805 156.31776,763.05805 Z"
     id="path8"
     inkscape:connector-curvature="0" /><path
     style="stroke-width:0.8988471"
     d="m 347.96994,787.24602 -75.71888,-58.92841 c -93.59695,94.28007 -9.86934,246.85037 85.02194,163.12276 -61.40024,0 -37.21227,-80.00637 -9.30306,-104.19435 z"
     id="path10"
     inkscape:connector-curvature="0" /><path
     style="stroke-width:0.8988471"
     d="M 454.0249,831.90074 C 467.0492,971.44675 622.85535,935.394 653.11054,826.3189 L 552.79921,790.383 c -15.0467,56.40265 -44.81652,88.03308 -98.77431,41.51774 z"
     id="path12"
     inkscape:connector-curvature="0" /></g>
</svg>