<?xml version="1.0" encoding="UTF-8" standalone="no"?>
<!-- Generator: Adobe Illustrator 24.0.1, SVG Export Plug-In . SVG Version: 6.00 Build 0)  -->

<svg
   xmlns:dc="http://purl.org/dc/elements/1.1/"
   xmlns:cc="http://creativecommons.org/ns#"
   xmlns:rdf="http://www.w3.org/1999/02/22-rdf-syntax-ns#"
   xmlns:svg="http://www.w3.org/2000/svg"
   xmlns="http://www.w3.org/2000/svg"
   xmlns:sodipodi="http://sodipodi.sourceforge.net/DTD/sodipodi-0.dtd"
   xmlns:inkscape="http://www.inkscape.org/namespaces/inkscape"
   version="1.1"
   id="Layer_3"
   x="0px"
   y="0px"
   viewBox="0 0 800 800"
   xml:space="preserve"
   sodipodi:docname="Temple Culexus.svg"
   inkscape:version="0.92.3 (2405546, 2018-03-11)"
   width="800"
   height="800"><metadata
   id="metadata27"><rdf:RDF><cc:Work
       rdf:about=""><dc:format>image/svg+xml</dc:format><dc:type
         rdf:resource="http://purl.org/dc/dcmitype/StillImage" /><dc:title></dc:title></cc:Work></rdf:RDF></metadata><defs
   id="defs25">
	
	
	
	
	
	
	
	
	
</defs><sodipodi:namedview
   pagecolor="#ffffff"
   bordercolor="#666666"
   borderopacity="1"
   objecttolerance="10"
   gridtolerance="10"
   guidetolerance="10"
   inkscape:pageopacity="0"
   inkscape:pageshadow="2"
   inkscape:window-width="1920"
   inkscape:window-height="1017"
   id="namedview23"
   showgrid="false"
   inkscape:zoom="0.35355339"
   inkscape:cx="698.38895"
   inkscape:cy="581.59385"
   inkscape:window-x="-8"
   inkscape:window-y="-8"
   inkscape:window-maximized="1"
   inkscape:current-layer="Layer_3"
   inkscape:pagecheckerboard="true"
   fit-margin-top="0"
   fit-margin-left="0"
   fit-margin-right="0"
   fit-margin-bottom="0" />

<g
   id="g904"
   transform="matrix(1.0413819,0,0,1.0413819,-116.2807,-87.017872)"><path
     id="path6"
     d="m 499.41016,253.39062 c -5.53,0 -8.68946,0.20899 -8.68946,0.20899 -37.61,1.75 -124.72086,15.18969 -154.13086,101.17969 -25.14,73.39 22.48032,156.30164 12.82032,167.43164 -38.72,44.81 13.93007,115.88922 21.08007,121.69922 12.96,10.57 54.12938,-10.86102 47.60938,0.20898 -4.9,8.4 -9.45897,71.91992 -9.45899,71.91992 h 12.75 l 6.08985,-22.1289 10.91992,-0.14063 2.09961,22.25977 h 22.25977 l 2.09961,-21.21875 7.41992,-1.05078 1.05078,22.25976 h 18.06054 l 0.83985,-22.83008 h 14.62891 l 0.83984,22.83008 h 18.06055 l 1.05078,-22.25976 7.41992,1.05078 2.09961,21.21875 h 22.25976 l 2.09961,-22.25977 10.91993,0.14063 6.08984,22.1289 h 12.75 c 0,0 -4.54899,-63.51992 -9.45899,-71.91992 -6.51,-11.06 34.65938,10.29102 47.60938,-0.20898 7.22,-5.89 59.80008,-76.88922 21.08008,-121.69922 -9.58,-11.2 37.97039,-94.11164 12.90039,-167.43164 -29.48,-85.99 -116.51922,-99.43969 -154.19922,-101.17969 0,0 -3.22141,-0.20898 -8.69141,-0.20899 h -0.13867 z m 23.49218,119.66993 c 44.97361,9.95947 77.87696,40.66797 77.87696,40.66797 0,0 -34.8737,46.67541 -105,47.07031 -61.9509,0.3489 -105,-47.07031 -105,-47.07031 0,0 31.75247,-29.74052 75.50195,-40.17383 a 39.020992,39.020992 0 0 0 -10.50586,26.56445 39.020992,39.020992 0 0 0 39.02149,39.01953 39.020992,39.020992 0 0 0 39.02148,-39.01953 39.020992,39.020992 0 0 0 -10.91602,-27.05859 z m 87.83008,163.74414 c 0.4725,0.003 0.94547,0.0947 1.41797,0.30469 10.86,3.99 14.36008,10.50062 15.33008,12.39062 6.11,12.83 -1.79961,33.41977 -22.59961,46.50977 -0.56,0.35 -1.12,0.56087 -1.75,0.63085 -9.52,1.33002 -32.98102,3.21985 -56.79102,-10.16015 -9.87,-5.53 -17.15922,-12.25969 -22.19922,-17.92969 -1.88999,-2.17 -1.33023,-5.53133 1.25977,-6.86133 10.22,-5.32 22.69031,-10.86039 37.32031,-15.40039 18.13,-5.67 34.44907,-8.25898 47.53907,-9.45898 0.1575,-0.0175 0.31515,-0.0265 0.47265,-0.0254 z m -221.19336,0.0449 c 13.16,1.19 29.48102,3.79094 47.54102,9.46094 14.63,4.55 27.10031,10.09039 37.32031,15.40039 2.54,1.32 3.09898,4.68961 1.20899,6.84961 -5.04001,5.67 -12.31922,12.38968 -22.19922,17.92968 -23.74,13.37 -47.27102,11.49016 -56.79102,10.16016 -0.63,-0.07 -1.26,-0.28086 -1.75,-0.63086 -20.79,-13.16 -28.70883,-33.68 -22.54883,-46.5 0.91,-1.96 4.41008,-8.39867 15.33008,-12.38867 0.63,-0.21 1.25867,-0.28125 1.88867,-0.28125 z m 111.63086,54.55078 c 3.15,1.75 5.95055,3.56992 8.06055,5.66992 16.31,16.1 16.79961,38.37016 16.09961,49.16016 -0.07,1.47 -1.89078,2.03017 -2.80078,0.91015 -2.24,-2.87 -5.31899,-6.15992 -9.45899,-9.16992 -4.41,-3.22 -8.62039,-5.2514 -11.90039,-6.4414 -3.22,1.19 -7.49039,3.2214 -11.90039,6.4414 -4.13,3.01 -7.21898,6.29993 -9.45898,9.16992 -0.91,1.12001 -2.73078,0.55985 -2.80078,-0.91015 -0.7,-10.86 -0.21041,-33.05016 16.09961,-49.16016 2.1,-2.1 4.83054,-3.91992 8.06054,-5.66992 z"
     inkscape:connector-curvature="0" /><g
     id="g891"><path
       inkscape:connector-curvature="0"
       id="path8"
       d="m 694.87,185.42 c -6.26,17.21 -18.27,30.25 -23.96,35.94 0,0 -19.92,19.95 -51.11,51.18 23.3,16.79 43.97,41.17 56.08,76.5 l 0.01,0.02 c 0.8,2.33 1.53,4.68 2.2,7.02 l 63.98,-63.56 c 5.69,-5.69 18.73,-17.69 35.94,-23.96 35.04,-12.75 79.45,36.31 80.47,37.69 7.15,-7.15 14.24,-14.24 21.39,-21.39 L 779.23,184.22 779.19,184.18 678.57,83.56 c -7.15,7.15 -14.24,14.24 -21.39,21.39 1.38,1.01 50.44,45.43 37.69,80.47 z" /><path
       inkscape:connector-curvature="0"
       id="path10"
       d="m 213.52,268.55 c 17.21,6.26 30.25,18.27 35.94,23.96 0,0 25.72,25.69 64.49,64.41 0.73,-2.63 1.55,-5.25 2.45,-7.87 10.83,-31.67 29.44,-57.15 55.47,-76.08 l -51.26,-51.6 c -5.69,-5.69 -17.69,-18.73 -23.96,-35.94 -12.75,-35.04 36.31,-79.45 37.69,-80.47 -7.15,-7.15 -14.24,-14.24 -21.39,-21.39 l -100.63,100.62 -0.04,0.04 -100.62,100.62 c 7.15,7.15 14.24,14.24 21.39,21.39 1.01,-1.38 45.43,-50.44 80.47,-37.69 z" /><path
       inkscape:connector-curvature="0"
       id="path12"
       d="m 295.41,753.54 c 6.33,-21.91 23.45,-38.15 27.65,-42.02 13.92,-14.08 30.04,-30.36 47.07,-47.54 -5.15,-0.92 -10.03,-2.85 -14.28,-6.33 -8.2,-6.67 -34.42,-42.44 -40.41,-80.58 -30.6,30.55 -53.7,53.59 -63.53,63.31 -3.87,4.19 -20.12,21.31 -42.02,27.65 -21.14,6.12 -65.42,-26.07 -73.78,-42 l -24.44,24.44 100.63,100.63 0.04,0.04 100.63,100.63 24.44,-24.44 c -15.95,-8.37 -48.12,-52.66 -42,-73.79 z" /><path
       inkscape:connector-curvature="0"
       id="path14"
       d="m 781.64,668.01 c -21.91,-6.33 -38.15,-23.45 -42.02,-27.65 -18.23,-18.01 -40.11,-39.71 -62.91,-62.3 -6.29,37.71 -32.12,72.93 -40.28,79.58 -4.5,3.66 -9.71,5.6 -15.19,6.44 22.51,22.55 39.31,39.41 47.23,47.42 4.19,3.87 21.31,20.12 27.65,42.02 6.12,21.14 -26.07,65.42 -42,73.78 l 24.44,24.44 100.64,-100.62 0.04,-0.04 100.63,-100.63 -24.44,-24.44 c -8.37,15.94 -52.66,48.12 -73.79,42 z" /></g><g
     transform="matrix(1.0250492,0,0,1.0250492,-12.418752,-11.714362)"
     id="g880"><path
       style="fill:#010101;stroke-width:1.59936035"
       inkscape:connector-curvature="0"
       id="path2"
       d="m 662.33838,763.78227 c 0,-14.07437 -5.43783,-27.34906 -15.35386,-37.2651 l -25.7497,-25.7497 c -27.66893,14.23431 -57.89684,23.99041 -90.04399,28.14874 v 32.94682 c 0,19.67214 -15.83366,35.5058 -35.50579,35.5058 -19.67214,0 -35.5058,-15.83366 -35.5058,-35.5058 v -32.94682 c -32.14715,-4.15833 -62.53499,-13.91443 -90.04399,-28.14874 l -25.7497,25.7497 c -17.43303,17.43303 -19.992,44.14235 -7.67693,64.45422 48.14075,23.03079 102.03919,35.98561 158.97642,35.98561 56.93722,0 110.83566,-12.95482 159.13634,-35.98561 4.79809,-8.15674 7.517,-17.43303 7.517,-27.18912 z" /><path
       style="fill:#010101;stroke-width:1.59936035"
       inkscape:connector-curvature="0"
       id="path4"
       d="m 236.83283,618.96427 25.7497,-25.7497 c -14.23431,-27.66893 -23.99041,-57.89684 -28.14874,-90.04399 h -33.10676 c -19.67213,0 -35.5058,-15.83366 -35.5058,-35.50579 0,-19.67214 15.83367,-35.5058 35.5058,-35.5058 h 32.94682 c 4.31827,-32.14715 13.91444,-62.53499 28.30868,-90.04399 l -25.7497,-25.7497 c -9.91604,-9.91603 -23.03079,-15.35386 -37.10516,-15.35386 -9.7561,0 -19.19233,2.71891 -27.34906,7.67693 -23.03079,48.14075 -35.98561,102.03919 -35.98561,159.13635 0,57.09716 12.95482,110.83567 35.98561,159.13635 8.15673,4.95802 17.59296,7.67693 27.34906,7.67693 13.91443,-0.31987 27.18912,-5.7577 37.10516,-15.67373 z" /><path
       style="fill:#010101;stroke-width:1.59936035"
       inkscape:connector-curvature="0"
       id="path6-9"
       d="m 790.0435,503.1708 h -32.94682 c -4.15834,32.14715 -13.91444,62.53499 -28.14874,90.04399 l 25.7497,25.7497 c 9.91603,9.91603 23.03079,15.35386 37.10516,15.35386 9.75609,0 19.19232,-2.71891 27.34906,-7.67693 23.03079,-48.14075 35.9856,-102.03919 35.9856,-159.13635 0,-56.93723 -12.95481,-110.83567 -35.9856,-159.13635 -8.15674,-4.95802 -17.59297,-7.67693 -27.34906,-7.67693 -14.07437,0 -27.18913,5.43782 -37.10516,15.35386 L 728.788,342.11522 c 14.23431,27.66893 23.99041,57.89684 28.14874,90.04399 h 32.94682 c 19.67214,0 35.5058,15.83366 35.5058,35.5058 0.15994,19.67213 -15.83366,35.50579 -35.34586,35.50579 z" /><path
       style="fill:#010101;stroke-width:1.59936035"
       inkscape:connector-curvature="0"
       id="path8-4"
       d="m 329.03169,171.54721 c 0,14.07436 5.43783,27.34905 15.35386,37.26509 l 25.7497,25.7497 c 27.66893,-14.23431 57.89684,-23.99041 90.04399,-28.14874 V 173.3065 c 0,-19.67213 15.83366,-35.5058 35.5058,-35.5058 19.67213,0 35.50579,15.83367 35.50579,35.5058 v 32.94682 c 32.14715,4.31827 62.37506,13.91444 90.04399,28.30868 l 25.7497,-25.7497 c 17.43303,-17.43303 19.992,-44.14234 7.67693,-64.45422 -48.14075,-23.03079 -102.03919,-35.98561 -158.97641,-35.98561 -56.93723,0 -110.83567,12.95482 -159.13635,35.98561 -4.95802,8.15674 -7.517,17.43303 -7.517,27.18913 z" /></g></g></svg>