<?xml version="1.0" encoding="UTF-8" standalone="no"?>
<!-- Created with Inkscape (http://www.inkscape.org/) -->

<svg
   xmlns:dc="http://purl.org/dc/elements/1.1/"
   xmlns:cc="http://creativecommons.org/ns#"
   xmlns:rdf="http://www.w3.org/1999/02/22-rdf-syntax-ns#"
   xmlns:svg="http://www.w3.org/2000/svg"
   xmlns="http://www.w3.org/2000/svg"
   xmlns:sodipodi="http://sodipodi.sourceforge.net/DTD/sodipodi-0.dtd"
   xmlns:inkscape="http://www.inkscape.org/namespaces/inkscape"
   width="565.52448"
   height="800"
   viewBox="0 0 149.62835 211.66668"
   version="1.1"
   id="svg8"
   inkscape:version="0.92.3 (2405546, 2018-03-11)"
   sodipodi:docname="Cult of Strife [Aeldari, Drukhari, Dark Eldar, Wych Cult, Hekatarii].svg">
  <defs
     id="defs2" />
  <sodipodi:namedview
     id="base"
     pagecolor="#ffffff"
     bordercolor="#666666"
     borderopacity="1.0"
     inkscape:pageopacity="0.0"
     inkscape:pageshadow="2"
     inkscape:zoom="0.7"
     inkscape:cx="-168.58875"
     inkscape:cy="310.13918"
     inkscape:document-units="px"
     inkscape:current-layer="layer1"
     showgrid="false"
     units="px"
     inkscape:window-width="1920"
     inkscape:window-height="1017"
     inkscape:window-x="-8"
     inkscape:window-y="-8"
     inkscape:window-maximized="1"
     inkscape:snap-global="true"
     fit-margin-top="0"
     fit-margin-left="0"
     fit-margin-right="0"
     fit-margin-bottom="0"
     inkscape:pagecheckerboard="true" />
  <metadata
     id="metadata5">
    <rdf:RDF>
      <cc:Work
         rdf:about="">
        <dc:format>image/svg+xml</dc:format>
        <dc:type
           rdf:resource="http://purl.org/dc/dcmitype/StillImage" />
        <dc:title></dc:title>
      </cc:Work>
    </rdf:RDF>
  </metadata>
  <g
     inkscape:label="Layer 1"
     inkscape:groupmode="layer"
     id="layer1"
     transform="translate(-32.883779,3.787956)">
    <g
       id="g875"
       transform="matrix(1.1351384,0,0,1.1351384,-4.4438622,-28.092402)">
      <path
         inkscape:connector-curvature="0"
         id="path826"
         d="M 121.57661,21.410998 C 108.92947,24.590589 98.241433,26.955067 86.693865,34.726637 94.8223,31.115054 100.1314,40.94283 103.62396,55.75129 c -1.48225,0.610028 -2.96707,1.226022 -4.455706,1.85437 -1.201682,-5.902059 -2.490663,-11.618448 -3.847256,-17.065715 0,0 -23.575384,19.113243 -27.756079,14.628275 -4.180696,-4.484965 15.191038,-18.191246 15.191038,-18.191246 0,0 -13.326161,7.764407 -18.754009,13.127808 -4.269728,4.219025 -10.876535,10.25839 -9.706978,15.025687 1.169557,4.767316 27.7554,-9.149045 33.899359,-11.462717 1.774271,-0.668148 3.623947,2.11168 5.164245,6.427565 C 68.005002,71.130508 43.33886,84.077656 32.88378,93.912004 40.678754,88.932797 69.551901,75.04792 94.843082,65.11089 97.5355,76.025762 98.229941,90.876604 93.24254,91.825562 85.068693,93.380824 83.940296,77.697912 92.132964,72.421762 78.53343,75.690147 63.877667,81.084938 57.43877,94.570494 c 0,0 9.580826,-10.41203 17.721306,-8.552436 8.140481,1.859594 2.558732,15.337372 3.555719,18.426212 -0.12825,-4.08456 7.143608,-9.920969 15.3194,-4.35128 8.175795,5.5697 4.452605,17.23779 -7.278237,10.66064 10.545115,15.94411 17.367362,44.88973 7.651722,96.50918 17.40446,-40.52597 14.65669,-97.73725 5.82709,-144.231106 1.55374,-0.586383 3.07638,-1.144794 4.58117,-1.689022 4.55891,23.632677 5.36502,56.020168 5.69437,69.403618 2.08231,-11.34024 4.71616,-22.33092 9.56484,-32.819517 0,0 -4.97413,-10.744007 -7.31378,-30.193523 -0.35754,-2.972303 -0.86131,-5.861262 -1.3837,-8.677898 1.05215,-0.35056 2.08939,-0.690033 3.09811,-1.008773 2.13591,12.296221 4.57221,24.580418 6.85834,36.793688 22.82008,-31.724531 21.11718,-17.19326 19.48357,-5.632734 -2.41596,-0.932958 -5.00476,-1.769781 -7.81417,-2.589008 -0.49195,3.28942 -1.21023,6.411086 -2.6521,9.415441 3.61281,-1.06233 6.79835,-1.377063 9.73091,-1.105952 -10e-4,0.01437 -0.003,0.03067 -0.004,0.04497 -0.17726,1.998122 -0.53114,4.303469 -1.05808,6.769136 -2.41755,-0.99281 -5.12453,-1.873299 -8.27033,-2.790619 -0.49196,3.289419 -2.13851,5.880229 -3.58038,8.884589 4.22313,-1.2418 7.59493,-1.54913 10.59174,-1.08928 -0.82139,2.83895 -1.85129,5.75711 -3.08941,8.5742 -1.83684,-1.14004 -4.00362,-2.11863 -6.70677,-3.10826 -0.49195,3.28941 -2.13851,5.88023 -3.58038,8.88458 2.92712,-1.47955 5.39128,-1.58295 7.77211,-0.74769 -2.49972,4.38339 -5.58506,8.16798 -9.26677,10.49673 -10.59391,6.70085 0.30095,-28.71191 0.30095,-28.71191 -8.73342,15.65008 -9.84975,33.74901 -12.73039,52.91155 10.40785,-9.66056 19.0223,-20.43105 25.88358,-32.33581 2.85908,2.12979 5.91107,5.23045 9.78821,8.59813 -2.77719,-6.04294 -4.8476,-9.92007 -7.49001,-12.74707 1.71022,-3.22196 3.29454,-6.52618 4.75958,-9.90859 4.41843,2.32539 8.66521,6.43479 14.79797,11.6491 -4.71945,-7.85271 -8.51353,-12.34719 -13.20976,-15.45646 1.00901,-2.52776 1.95142,-5.099823 2.82906,-7.71482 5.00149,2.400098 9.65129,6.45729 15.15478,11.10373 -4.33108,-7.13552 -8.73658,-11.686121 -13.91829,-14.969113 0.86629,-2.829713 1.66335,-5.706498 2.3816,-8.635837 2.62648,-11.206539 -0.51934,-16.233734 1.4584,-20.422 1.97775,-4.18827 5.30421,-5.038784 5.30421,-5.038784 0,0 -9.35991,-0.926108 -14.85236,1.193704 -5.49246,2.119807 -11.04165,14.035658 -16.17806,12.464961 -2.8197,-0.862258 -5.64766,-8.455246 -6.75608,-16.530506 12.27459,-3.321193 19.30024,-3.052351 14.57968,4.197534 11.46074,-11.649708 19.32701,-15.9522 29.70473,-23.074106 -5.96976,-1.00611 -23.83455,4.065063 -44.77103,11.910174 0.0173,-4.172278 0.66104,-7.97253 2.2032,-10.451044 5.27404,-8.476341 29.83744,-12.465689 29.83744,-12.465689 -16.20605,0.764885 -40.16913,7.581159 -40.97672,9.017301 0.70913,5.460267 1.53567,10.925662 2.43382,16.390537 -1.04839,0.409064 -2.10277,0.825012 -3.15975,1.244469 C 107.90926,40.0916 107.11089,29.184462 121.57696,21.411002 Z M 80.62383,106.5104 c 0.311057,17.27474 -1.993113,22.28526 -6.896049,30.10215 4.379788,4.36901 5.627999,6.59631 11.139273,17.50519 -0.323589,-19.98933 -1.106408,-41.54265 -4.243224,-47.60734 z"
         style="opacity:1;fill:#000000;fill-opacity:1;stroke:none;stroke-width:0.37130907px;stroke-linecap:butt;stroke-linejoin:miter;stroke-opacity:1" />
      <path
         inkscape:connector-curvature="0"
         id="path842"
         d="m 133.93352,147.51105 c -3.76264,29.52688 -4.80651,33.23873 -7.95704,45.59415 3.47999,4.5314 5.08557,7.04112 7.95704,13.41716 2.87147,-6.37604 4.47632,-8.88576 7.95631,-13.41716 -3.15053,-12.35542 -4.19367,-16.06727 -7.95631,-45.59415 z"
         style="fill:#000000;fill-opacity:0.50232562;stroke:#000000;stroke-width:1.11392725;stroke-linecap:butt;stroke-linejoin:miter;stroke-miterlimit:4;stroke-dasharray:none;stroke-opacity:1" />
    </g>
  </g>
</svg>
