<?xml version="1.0" encoding="UTF-8" standalone="no"?>
<!-- Generator: Adobe Illustrator 21.0.2, SVG Export Plug-In . SVG Version: 6.00 Build 0)  -->

<svg
   xmlns:dc="http://purl.org/dc/elements/1.1/"
   xmlns:cc="http://creativecommons.org/ns#"
   xmlns:rdf="http://www.w3.org/1999/02/22-rdf-syntax-ns#"
   xmlns:svg="http://www.w3.org/2000/svg"
   xmlns="http://www.w3.org/2000/svg"
   xmlns:sodipodi="http://sodipodi.sourceforge.net/DTD/sodipodi-0.dtd"
   xmlns:inkscape="http://www.inkscape.org/namespaces/inkscape"
   version="1.1"
   id="skull_copy"
   x="0px"
   y="0px"
   viewBox="0 0 723.97616 799.99998"
   xml:space="preserve"
   sodipodi:docname="Dark Mechanicum [Chaos].svg"
   width="723.97614"
   height="800"
   inkscape:version="0.92.3 (2405546, 2018-03-11)"><metadata
   id="metadata15"><rdf:RDF><cc:Work
       rdf:about=""><dc:format>image/svg+xml</dc:format><dc:type
         rdf:resource="http://purl.org/dc/dcmitype/StillImage" /><dc:title /></cc:Work></rdf:RDF></metadata><defs
   id="defs13" /><sodipodi:namedview
   pagecolor="#ffffff"
   bordercolor="#666666"
   borderopacity="1"
   objecttolerance="10"
   gridtolerance="10"
   guidetolerance="10"
   inkscape:pageopacity="0"
   inkscape:pageshadow="2"
   inkscape:window-width="1920"
   inkscape:window-height="1017"
   id="namedview11"
   showgrid="false"
   fit-margin-top="0"
   fit-margin-left="0"
   fit-margin-right="0"
   fit-margin-bottom="0"
   inkscape:zoom="0.70710678"
   inkscape:cx="-55.032305"
   inkscape:cy="228.82947"
   inkscape:window-x="-8"
   inkscape:window-y="-8"
   inkscape:window-maximized="1"
   inkscape:current-layer="skull_copy"
   inkscape:pagecheckerboard="true"
   showguides="false" />
<path
   style="fill:#000000;fill-opacity:1;stroke:none;stroke-width:5.45299673;stroke-linecap:round;stroke-linejoin:round;stroke-miterlimit:4;stroke-dasharray:none;stroke-opacity:1"
   d="m 269.75633,0 c 0,0 3.93104,43.53882 4.94004,65.30728 0.87067,18.7817 0.61837,37.59733 0.742,56.39876 0.0714,10.88412 -4.19803,32.65364 -4.19803,32.65364 0,0 11.46483,-9.81019 18.55509,-11.13053 5.67721,-1.05726 13.06491,-1.19548 17.06668,2.96815 2.59418,2.69894 1.70567,7.39368 1.48422,11.13052 -0.25671,4.32892 -1.70272,10.34036 -3.24697,15.78773 -4.92366,1.67636 -9.76063,3.55632 -14.5168,5.60009 -4.36154,-0.19689 -8.93929,-0.61289 -12.12265,-1.48816 -8.1465,-2.2399 -22.56443,-11.54459 -22.56443,-11.54459 0,0 10.27259,9.3809 11.01984,15.74262 0.35809,3.04933 -0.69163,6.93356 -2.21803,10.73695 -18.80971,11.57383 -35.68118,26.20796 -49.83107,43.43161 -3.05449,0.0569 -5.96289,0.0397 -8.29762,-0.11881 -9.20986,-0.62575 -18.30237,-2.60559 -27.28721,-4.72278 -8.88766,-2.09428 -17.82506,-4.32163 -26.23771,-7.87131 -3.31854,-1.40022 -9.44557,-5.24754 -9.44557,-5.24754 0,0 5.86213,-6.18138 9.44557,-8.39607 4.0064,-2.4761 8.50942,-4.27996 13.11886,-5.24754 5.13839,-1.07866 15.74262,-0.52475 15.74262,-0.52475 0,0 -11.06812,-7.15589 -17.31689,-8.92082 -6.75232,-1.90715 -14.17801,-3.25482 -20.99016,-1.57427 -4.80654,1.18574 -12.5941,7.87132 -12.5941,7.87132 0,0 -10.06373,-0.35392 -14.69311,-2.09902 -10.1689,-3.83327 -17.1964,-13.80704 -27.28721,-17.84164 -8.0915,-3.23526 -17.04695,-3.80675 -25.71295,-4.72279 -12.00763,-1.26925 -36.20803,-1.0495 -36.20803,-1.0495 0,0 11.27318,8.64736 16.79213,13.11885 8.87464,7.19037 17.81855,14.32083 26.2377,22.03967 7.29345,6.68679 14.19712,13.79551 20.99016,20.99016 7.39967,7.8371 14.1776,16.24313 21.51492,24.13869 5.30505,5.70878 16.26738,16.79213 16.26738,16.79213 0,0 -4.10799,-13.46095 -6.82181,-19.94066 -1.81313,-4.32915 -6.29704,-12.59409 -6.29704,-12.59409 0,0 8.3694,-1.79995 12.59409,-1.57427 9.15129,0.48887 18.07358,3.38311 26.76246,6.29705 7.79617,2.6146 15.72205,5.40963 22.56442,9.97033 4.71922,3.14554 10.88445,9.25335 15.37782,13.94288 -7.64546,14.47184 -13.4887,29.826 -17.39896,45.7192 -4.59831,2.49443 -9.80555,5.00775 -13.72148,5.93218 -4.76665,1.12526 -14.69311,0 -14.69311,0 0,0 11.03789,6.35072 16.26738,9.97033 2.19389,1.51853 5.2129,3.85759 7.92462,6.00188 -1.27347,8.79026 -1.96111,17.65548 -2.05808,26.53696 0.063,11.66996 1.14522,23.31214 3.23458,34.79365 -2.39225,1.01181 -4.86321,1.9711 -6.77667,2.36551 -7.02709,1.44847 -21.52311,0.37306 -21.52311,0.37306 0,0 -5.80944,-7.83307 -7.79343,-12.24562 -1.10766,-2.46379 -2.22601,-7.79342 -2.22601,-7.79342 0,0 -6.26808,5.85237 -9.27765,8.90441 -3.5635,3.61421 -6.2853,8.14695 -10.38845,11.13463 -5.41232,3.9409 -11.87939,6.27257 -18.18189,8.53136 -12.73599,4.56457 -26.25429,6.5528 -39.332,10.01951 -12.15309,3.22161 -24.46634,5.95403 -36.36378,10.01953 C 13.69146,430.9937 0,437.10792 0,437.10792 c 0,0 21.82158,0.70055 32.65356,-0.37308 8.64207,-0.85656 17.00749,-3.58088 25.60233,-4.82528 7.25945,-1.05104 14.572,-2.69726 21.89211,-2.22609 5.95785,0.38349 12.78741,0.3417 17.43988,4.08324 2.45732,1.9762 4.07902,8.53546 4.07902,8.53546 0,0 1.40865,-4.13393 2.59921,-5.93629 1.59148,-2.4093 3.30218,-5.12635 5.93623,-6.30935 3.95056,-1.77432 8.66873,-0.69356 12.98767,-0.37306 3.50829,0.26034 7.58794,-0.27189 10.38845,1.85713 2.73061,2.07571 3.07254,6.13739 4.45222,9.27748 1.07197,2.43918 2.96822,7.42036 2.96822,7.42036 0,0 3.10822,-6.54784 4.08322,-10.01953 1.25374,-4.46343 2.16072,-9.09401 2.22621,-13.72969 0.0525,-3.74303 -1.48421,-11.13053 -1.48421,-11.13053 0,0 11.7654,-3.25606 17.81309,-3.71016 3.9346,-0.29548 7.87089,0.47794 11.81515,0.66824 5.16673,20.68864 13.60352,40.41985 24.99131,58.44858 -0.80078,3.04781 -1.72791,5.97812 -2.79589,8.09678 -1.73421,3.43979 -7.34656,8.92082 -7.34656,8.92082 0,0 8.01552,-1.41012 12.06935,-1.57426 2.43506,-0.0986 5.66713,0.0147 8.91263,0.17632 6.93767,9.07516 14.63896,17.54034 23.01949,25.30299 -4.38841,6.86042 -10.89368,17.52431 -13.56573,24.89712 -3.33177,9.19307 -0.44688,20.34291 -5.24754,28.86148 -2.98124,5.28975 -10.01462,7.20126 -13.64361,12.06934 -6.45489,8.65846 -11.31496,18.8406 -13.6436,29.38623 -1.88597,8.54016 0,26.2377 0,26.2377 0,0 -10.14455,4.04533 -14.69312,2.09902 -8.30035,-3.55168 -15.74262,-22.03967 -15.74262,-22.03967 0,0 -1.11143,14.02825 -2.09902,20.99016 -1.89856,13.38345 -4.08069,26.76435 -7.34655,39.88131 -3.36829,13.52784 -8.16749,26.66193 -12.5941,39.88131 -5.65664,16.89223 -10.77845,34.02232 -17.84164,50.37639 -5.45912,12.64009 -18.89115,36.73278 -18.89115,36.73278 0,0 27.98367,-26.62451 40.93082,-40.93081 16.68151,-18.43289 28.15096,-41.78197 47.22787,-57.72295 11.05552,-9.23809 24.41869,-15.60703 37.78229,-20.99016 11.41298,-4.59735 35.68328,-9.44558 35.68328,-9.44558 0,0 -21.62932,-1.74583 -30.43574,-7.34655 -5.67049,-3.6063 -12.5941,-15.74263 -12.5941,-15.74263 0,0 7.24581,-12.21149 11.54459,-17.84163 5.41253,-7.08899 12.45578,-12.83121 17.84164,-19.94066 2.75433,-3.63583 2.81247,-11.04687 7.34656,-11.54459 2.9508,-0.3239 6.29705,6.29705 6.29705,6.29705 0,0 -2.90441,-15.61148 -1.04951,-23.08918 1.66116,-6.69689 4.31537,-14.77239 10.49508,-17.84164 5.3632,-2.66373 17.84164,2.09902 17.84164,2.09902 0,0 -7.80792,-14.5982 -6.06343,-22.85959 16.7216,8.18226 34.50195,13.9941 52.82804,17.26768 1.52389,3.30784 2.89916,6.62494 3.61178,9.26519 6.04181,22.3833 6.29705,69.26753 6.29705,69.26753 0,0 -0.21809,-46.47662 6.8218,-68.21802 0.72878,-2.25097 2.04801,-4.94694 3.55846,-7.67863 4.91947,0.43366 9.85342,0.68527 14.79156,0.75433 10.1838,-0.05 20.34891,-0.87645 30.40698,-2.47208 4.25974,1.31006 12.28176,4.19497 15.05393,8.11318 6.91123,9.76851 8.50249,23.65627 8.65026,35.6218 0.0609,4.97173 -5.68225,14.8407 -5.68225,14.8407 0,0 10.58345,-1.07753 14.84488,1.48406 4.58656,2.75704 7.78147,8.12842 8.90444,13.36073 0.94729,4.41358 0.65972,9.88546 -2.22621,13.35662 -3.70204,4.4529 -10.54084,5.75473 -16.32888,5.93629 -4.38128,0.13749 -12.61446,-3.71017 -12.61446,-3.71017 0,0 9.62378,7.15126 14.09867,11.13053 3.65985,3.25459 7.13267,6.7373 10.39265,10.39259 7.1482,8.01555 13.97399,16.36269 20.0349,25.22919 7.75734,11.34841 14.56655,23.36035 20.7811,35.62177 C 487.28579,753.85997 505.7481,800 505.7481,800 c 0,0 -5.33129,-32.05981 -6.67823,-48.23638 -0.7187,-8.63166 -0.776,-17.31386 -0.74221,-25.97533 0.0525,-13.6143 0.99808,-27.2103 1.48422,-40.81604 0.50376,-14.09987 1.484,-42.30009 1.484,-42.30009 0,0 -5.15749,7.38514 -8.90445,9.64645 -3.2879,1.98424 -7.31759,3.42547 -11.13045,2.96816 -3.07758,-0.36912 -6.48281,-1.8472 -8.16244,-4.45223 -3.6292,-5.62872 -1.132,-13.34687 -1.48401,-20.03494 -0.41644,-7.9088 -0.742,-23.74921 -0.742,-23.74921 0,0 -4.13317,7.17164 -7.42464,6.67831 -2.85277,-0.42763 -3.6821,-4.64021 -4.45202,-7.42036 -1.05664,-3.81433 -0.26216,-7.9233 0,-11.87256 0.2479,-3.7352 1.48401,-11.13463 1.48401,-11.13463 l 5.19422,-5.19423 c 0,0 -5.63334,0.29219 -8.16244,-0.74204 -3.2541,-1.3308 -6.65682,-3.50118 -8.16244,-6.67831 -0.95338,-2.01189 0,-6.67832 0,-6.67832 0,0 -5.28428,3.67792 -7.42024,2.22609 -3.77067,-2.56258 -4.17683,-9.55459 -3.73079,-15.65242 11.71482,-4.26607 22.95547,-9.61279 33.60084,-15.92299 3.75598,2.18551 7.25987,4.66657 9.21595,7.27275 5.19506,6.92176 6.29704,25.1882 6.29704,25.1882 0,0 2.9953,-17.46262 4.19804,-26.23771 0.78839,-5.75206 1.75729,-14.18563 2.57045,-21.55181 9.65191,-7.65008 18.62205,-16.19316 26.76246,-25.55717 5.00279,-0.17694 10.36935,0.0728 13.84868,1.59066 3.44784,1.50418 4.40248,6.53409 7.79344,8.16238 5.14825,2.47227 12.62117,-2.10109 17.06668,1.48409 4.23287,3.41378 4.93625,10.14589 4.82522,15.58272 -0.16583,8.13528 -8.16224,23.00719 -8.16224,23.00719 0,0 7.76909,-3.08377 11.87246,-3.34121 2.49636,-0.15659 7.42044,1.11489 7.42044,1.11512 0,0 -2.32361,-4.08171 -2.22622,-6.30935 0.0651,-1.49307 0.62068,-3.24378 1.85721,-4.08326 50.75002,-8.48563 88.55582,31.97176 132.83667,43.78827 -41.44634,-37.32046 -58.07873,-55.43806 -71.88732,-69.84967 -2.66218,-2.77854 -38.09421,-55.30008 -40.17244,-58.53878 -2.49406,-3.8866 -4.82103,-12.98766 -4.82103,-12.98766 0,0 -1.86182,8.1174 -1.8572,12.24562 0,4.88049 0.23236,10.01697 2.226,14.47173 1.11269,2.48628 3.89158,3.91693 5.19444,6.30935 1.36205,2.50801 2.38301,5.31507 2.599,8.16238 0.18051,2.37233 -1.115,7.05139 -1.115,7.05139 0,0 -18.33784,-5.58304 -27.82834,-5.93629 -1.79528,-0.14189 -4.15815,-0.0147 -5.19422,-1.48816 -1.06966,-1.5209 -0.52958,-3.93525 0.3688,-5.56321 0.81294,-1.47288 4.08342,-2.96822 4.08342,-2.96813 0,0 -11.50764,1.97769 -17.06689,0.74202 -3.13236,-0.69622 -5.81008,-2.75872 -8.53544,-4.4522 -0.0945,-0.0588 -0.22921,-0.15848 -0.32808,-0.22139 10.33913,-18.06703 17.73207,-37.56468 22.03569,-57.75984 5.53825,-2.78846 13.00718,-6.35748 18.19007,-7.93691 16.61456,-5.06312 51.4259,-8.39606 51.4259,-8.39606 0,0 -33.55739,-1.19063 -49.32688,-6.29705 -4.69739,-1.52114 -11.20224,-5.21268 -16.18531,-8.24437 0.19311,-3.53991 0.31549,-7.08643 0.31968,-10.64269 -0.0231,-13.85846 -1.48316,-27.67716 -4.35797,-41.23418 2.22768,0.16162 4.35986,0.28049 6.05524,0.29927 5.95722,0.0659 17.84164,-1.0495 17.84164,-1.0495 0,0 3.31833,-6.56155 6.29705,-8.39607 4.23623,-2.60895 9.88384,-3.89806 14.69311,-2.62377 2.64119,0.69981 5.44905,2.65013 6.29705,5.24754 1.11898,3.42799 -2.62377,10.49508 -2.62377,10.49508 0,0 12.05591,-3.53361 17.31688,-6.8218 4.82921,-3.01834 7.98634,-8.19775 12.5941,-11.54459 3.73898,-2.71588 7.60012,-5.64617 12.06934,-6.8218 2.87587,-0.75649 8.92082,0 8.92082,0 0,0 -1.06042,-10.85154 1.57426,-15.21787 3.91005,-6.47977 12.15541,-9.14378 18.89115,-12.5941 5.32059,-2.72538 10.95288,-5.01637 16.79213,-6.29705 7.02394,-1.54051 21.51492,-1.57426 21.51492,-1.57426 0,0 -19.1806,-3.5771 -28.86148,-4.72279 -11.84391,-1.40168 -25.11473,2.90307 -35.68327,-2.62377 -22.56443,0.52476 -5.79308,-3.69819 -22.56443,0.52476 -3.81202,2.46785 -8.61184,3.11783 -13.11885,3.67328 -6.25213,0.7705 -12.64258,0.2749 -18.89115,-0.52476 -4.62959,-0.59249 -13.6436,-3.14852 -13.6436,-3.14852 0,0 3.46547,6.87073 4.72279,10.49508 1.18195,3.40685 2.18318,6.91607 2.62377,10.49508 0.42736,3.47215 0,10.49508 0,10.49508 0,0 -9.42375,-1.31149 -14.16836,-1.57426 -7.85935,-0.43529 -16.34189,3.01221 -23.61394,0 -4.77337,-1.97723 -7.18514,-7.45499 -10.59751,-11.4749 -4.84117,-10.04936 -10.49865,-19.63072 -16.88659,-28.66879 0.30667,-3.19615 0.68344,-6.31369 1.2464,-8.65844 0.87949,-3.66377 4.19803,-10.49508 4.19803,-10.49508 0,0 -9.05557,1.74816 -13.6436,2.09902 -1.43846,0.10998 -3.2688,0.15448 -5.13273,0.1845 -11.90772,-13.50614 -25.63381,-25.41372 -40.85714,-35.33891 0.66497,-3.53462 1.77997,-8.33866 3.48479,-11.02393 2.59312,-4.08437 6.43012,-7.91567 11.01983,-9.44558 7.64945,-2.54984 24.13869,1.57427 24.13869,1.57427 0,0 1.11248,-18.53493 1.04951,-27.81197 -0.0462,-6.83062 -1.99953,-13.70103 -1.04951,-20.46541 0.90006,-6.40907 4.22427,-12.23535 6.29705,-18.36639 3.54314,-10.48003 10.49508,-31.48524 10.49508,-31.48524 0,0 -6.9299,13.20451 -11.3519,19.16991 -5.8911,7.94715 -13.73302,14.26651 -20.0349,21.89209 -4.61721,5.5871 -7.62195,12.56723 -12.98766,17.43987 -4.60105,4.17824 -10.00685,7.84757 -15.95589,9.64647 -5.45114,1.64833 -17.06689,0.74202 -17.06689,0.74202 0,0 6.43559,15.55988 6.30524,23.74924 -0.0714,4.54244 -0.59507,9.78859 -3.24277,13.43452 -14.40492,-7.37317 -29.60201,-12.93452 -45.24367,-16.62815 -5.31093,-4.47242 -10.72597,-9.53462 -13.70909,-13.88139 -3.38278,-4.92891 -6.29705,-16.79213 -6.29705,-16.79213 0,0 -3.79838,13.75834 -8.39607,18.89115 -2.03646,2.2734 -5.30547,4.54288 -8.79383,6.62093 -2.66806,-0.11797 -5.33821,-0.20214 -8.01467,-0.2132 -10.14413,0.0917 -20.26642,0.95377 -30.27999,2.57868 -4.56137,-4.36102 -9.83515,-9.80146 -12.56954,-14.04947 -5.46961,-8.4978 -14.56192,-18.69436 -11.13465,-28.20144 1.91493,-5.31175 9.27346,-7.24572 14.84487,-8.16238 6.9425,-1.14226 20.77691,3.71018 20.77691,3.71018 0,0 -11.96545,-10.84432 -17.06668,-17.06681 C 326.97048,91.96244 321.67823,81.4815 315.02456,71.98574 305.68373,58.65487 294.57972,46.5393 286.08521,32.65379 279.73485,22.2731 269.75633,1.5e-4 269.75633,1.5e-4 Z m 99.99441,185.42676 c 97.77952,-0.002 177.04657,79.26343 177.04699,177.043 -4.2e-4,97.77956 -79.26747,177.04486 -177.04699,177.04301 -97.77805,-3.5e-4 -177.04258,-79.265 -177.043,-177.04301 4.2e-4,-97.778 79.26495,-177.04264 177.043,-177.043 z"
   id="path854-1"
   inkscape:connector-curvature="0"
   sodipodi:nodetypes="ccccccccccccccccccccccccccsccccccscscsccsccccccccccccsccsccccscscccccccccccccccccccsccccccccccccccccccccccccccccccscccccccccccccccccccccccccccccccsccccccccccccscccscccccccccccccccccccccccccccccccsccscccccccccccccccccccccccsccccccccccccccccccccccccc" />
<g
   id="g827"
   transform="translate(1.748235,-1.7497761)"><path
     inkscape:connector-curvature="0"
     id="path821-7"
     d="m 368.00223,189.37112 v 59.03435 c 2.16007,0.0189 3.57172,0.0933 3.57172,0.0933 18.82829,0.87476 62.33021,7.59566 77.06424,50.57242 v 0 c 12.52903,36.64198 -11.23468,78.07908 -6.40495,83.6785 19.35421,22.398 -6.92821,57.88389 -10.53275,60.82366 -6.47427,5.25006 -27.05388,-5.42284 -23.79913,0.10641 2.45014,4.19971 4.72531,35.94259 4.72531,35.94259 h -6.37042 l -3.04266,-11.06165 -5.46029,-0.0725 -1.05109,11.13042 h -11.13027 l -1.04752,-10.6049 -3.71238,-0.52552 -0.52211,11.13042 h -9.03189 l -0.41908,-11.40858 h -2.83316 v 70.43262 h 20.24496 v -31.80092 a 144.36652,144.36391 0 0 0 33.15059,-9.06647 l 15.99304,27.70058 35.431,-20.45767 -16.00344,-27.72122 a 144.36652,144.36391 0 0 0 24.36575,-24.20099 l 27.6147,15.94516 20.46113,-35.43446 -27.57336,-15.9176 a 144.36652,144.36391 0 0 0 8.79155,-33.2262 h 31.94532 V 343.5474 h -31.73918 a 144.36652,144.36391 0 0 0 -9.12131,-33.15404 l 27.69698,-15.98976 -20.46113,-35.43096 -27.73478,16.0104 a 144.36652,144.36391 0 0 0 -24.21825,-24.31775 l 15.97254,-27.66963 -35.43109,-20.45771 -15.98968,27.69366 a 144.36652,144.36391 0 0 0 -33.15394,-9.05607 v -31.80436 z m 54.49444,200.68946 c -6.54439,0.59479 -14.70047,1.89071 -23.76467,4.72553 -7.31467,2.27472 -13.54254,5.0395 -18.65156,7.6996 -1.29477,0.66492 -1.57639,2.34578 -0.63183,3.43071 2.52051,2.83518 6.16111,6.1952 11.096,8.95991 11.8993,6.68451 23.62069,5.73748 28.38039,5.07236 0.31507,-0.0355 0.59606,-0.13588 0.87585,-0.31248 10.39408,-6.54457 14.35022,-16.83153 11.30549,-23.23597 -0.4905,-0.945 -2.24056,-4.20055 -7.6653,-6.19541 -0.31466,-0.14258 -0.6291,-0.182 -0.94437,-0.14425 z m -54.49444,27.28499 v 20.04561 c 1.64023,0.59622 3.72507,1.60757 5.9171,3.20758 2.06486,1.50469 3.6058,3.14951 4.72564,4.58474 0.45492,0.55984 1.36417,0.27805 1.40115,-0.45676 0.34981,-5.38967 0.106,-16.51889 -8.04964,-24.56856 -1.04238,-1.04222 -2.43338,-1.94355 -3.99425,-2.81261 z"
     style="fill:#000000;fill-opacity:1;stroke:#000000;stroke-width:3.46557021;stroke-linecap:round;stroke-linejoin:round;stroke-miterlimit:4;stroke-dasharray:none;stroke-opacity:1" /><path
     inkscape:connector-curvature="0"
     style="fill:none;fill-opacity:0.51162792;stroke:#000000;stroke-width:3.46557021;stroke-linecap:round;stroke-linejoin:round;stroke-miterlimit:4;stroke-dasharray:none;stroke-opacity:1"
     d="m 367.99887,189.37116 v 349.27145 h -20.24493 v -31.80089 a 144.36652,144.36391 0 0 1 -33.15058,-9.06647 l -15.99303,27.7006 -35.43104,-20.45769 16.00343,-27.7212 a 144.36652,144.36391 0 0 1 -24.36571,-24.20099 l -27.61476,15.94516 -20.4611,-35.43447 27.5734,-15.91762 a 144.36652,144.36391 0 0 1 -8.79159,-33.22618 h -31.9453 v -40.9154 h 31.73917 a 144.36652,144.36391 0 0 1 9.1213,-33.15407 l -27.69698,-15.98973 20.4611,-35.43101 27.73481,16.01042 a 144.36652,144.36391 0 0 1 24.21473,-24.31779 l -15.9725,-27.66962 35.43104,-20.4577 15.98973,27.69365 a 144.36652,144.36391 0 0 1 33.15388,-9.05609 v -31.80436 z"
     id="path967" /></g><g
   id="g823"><path
     inkscape:connector-curvature="0"
     id="path2-6-6"
     d="m 369.75226,245.50494 v 170.61841 c 1.57636,0.87772 2.98124,1.78792 4.03389,2.84058 8.2357,8.12959 8.48297,19.36932 8.1297,24.81255 -0.0378,0.74215 -0.95568,1.02674 -1.41515,0.4613 -1.13095,-1.44947 -2.68716,-3.11059 -4.77254,-4.63024 -2.21383,-1.61586 -4.31935,-2.63726 -5.9759,-3.23943 v 31.12493 h 2.86138 l 0.42316,11.52186 h 9.1217 l 0.52727,-11.24091 3.74926,0.53065 1.05791,10.71026 h 11.24086 l 1.06147,-11.24091 5.51454,0.0728 3.07296,11.17155 h 6.43369 c 0,0 -2.29779,-32.05823 -4.77232,-36.29974 -3.28706,-5.58424 17.49698,5.19469 24.03563,-0.10747 3.64032,-2.96893 30.18385,-38.80737 10.63739,-61.42788 -4.87769,-5.65506 19.12204,-47.50378 6.46854,-84.50975 v 0 c -14.88035,-43.40378 -58.81444,-50.19141 -77.82985,-51.0749 0,0 -1.42565,-0.0739 -3.60716,-0.0936 z m 55.03579,143.0624 c 0.31842,-0.0382 0.636,0.002 0.95379,0.14567 5.47865,2.01459 7.24602,5.30256 7.74139,6.25689 3.07505,6.46804 -0.92042,16.8572 -11.41781,23.46684 -0.28253,0.17842 -0.56632,0.28026 -0.88453,0.31563 -4.80696,0.67168 -16.64478,1.62816 -28.66228,-5.12276 -4.9839,-2.79225 -8.66075,-6.18563 -11.20622,-9.04892 -0.95401,-1.09571 -0.66959,-2.79333 0.6381,-3.46487 5.1598,-2.68648 11.4495,-5.47878 18.83678,-7.77603 9.15423,-2.86304 17.3914,-4.17182 24.00078,-4.77245 z"
     style="fill:none;fill-opacity:0.52093021;stroke:#000000;stroke-width:1.075315;stroke-miterlimit:4;stroke-dasharray:none;stroke-opacity:1" /><path
     inkscape:connector-curvature="0"
     style="fill:#000000;fill-opacity:0.90232556;stroke:#000000;stroke-width:1.075315;stroke-miterlimit:4;stroke-dasharray:none;stroke-opacity:1"
     d="m 369.7489,245.505 v 170.61841 c -1.57636,0.87773 -2.98123,1.7879 -4.03388,2.84058 -8.23571,8.12958 -8.48297,19.3693 -8.1297,24.81256 0.0378,0.74212 0.95568,1.02671 1.41515,0.46128 1.13095,-1.44948 2.68716,-3.11058 4.77254,-4.63024 2.21383,-1.61587 4.31935,-2.63727 5.97589,-3.23944 v 31.12495 h -2.86137 l -0.42317,11.52184 h -9.12169 l -0.52727,-11.24089 -3.74927,0.53064 -1.0579,10.71025 h -11.24086 l -1.06148,-11.24089 -5.51453,0.0728 -3.07296,11.17155 h -6.4337 c 0,0 2.2978,-32.05821 4.77233,-36.29971 3.28706,-5.58427 -17.49698,5.19468 -24.03563,-0.10768 -3.64032,-2.96894 -30.18385,-38.80739 -10.63739,-61.42788 4.87769,-5.65509 -19.12204,-47.50379 -6.46854,-84.50978 v 0 c 14.88034,-43.40375 58.81444,-50.19138 77.82984,-51.07488 0,0 1.42566,-0.0739 3.60695,-0.0936 z m -55.03578,143.06238 c -0.31842,-0.0382 -0.636,0.002 -0.9538,0.14567 -5.47864,2.0146 -7.24601,5.30256 -7.74138,6.2569 -3.07506,6.46803 0.92042,16.8572 11.41781,23.46683 0.28253,0.17842 0.56632,0.28026 0.88453,0.31563 4.80695,0.67169 16.64478,1.62817 28.66227,-5.12275 4.98391,-2.79226 8.66076,-6.18564 11.20623,-9.04893 0.95401,-1.0957 0.66959,-2.79333 -0.6381,-3.46486 -5.1598,-2.68649 -11.4495,-5.47879 -18.83678,-7.77604 -9.15423,-2.86304 -17.3914,-4.17182 -24.00078,-4.77245 z"
     id="path969" /></g></svg>