<?xml version="1.0" encoding="UTF-8" standalone="no"?>
<!-- Created with Inkscape (http://www.inkscape.org/) -->

<svg
   xmlns:dc="http://purl.org/dc/elements/1.1/"
   xmlns:cc="http://creativecommons.org/ns#"
   xmlns:rdf="http://www.w3.org/1999/02/22-rdf-syntax-ns#"
   xmlns:svg="http://www.w3.org/2000/svg"
   xmlns="http://www.w3.org/2000/svg"
   xmlns:sodipodi="http://sodipodi.sourceforge.net/DTD/sodipodi-0.dtd"
   xmlns:inkscape="http://www.inkscape.org/namespaces/inkscape"
   width="607.7843"
   height="400"
   viewBox="0 0 160.80959 105.83334"
   version="1.1"
   id="svg8"
   inkscape:version="0.92.3 (2405546, 2018-03-11)"
   sodipodi:docname="Deathskulls [Orkoids, Orks, Clan].svg">
  <defs
     id="defs2" />
  <sodipodi:namedview
     id="base"
     pagecolor="#ffffff"
     bordercolor="#666666"
     borderopacity="1.0"
     inkscape:pageopacity="0.0"
     inkscape:pageshadow="2"
     inkscape:zoom="1.0923326"
     inkscape:cx="377.07761"
     inkscape:cy="274.47372"
     inkscape:document-units="px"
     inkscape:current-layer="layer1"
     showgrid="false"
     units="px"
     inkscape:window-width="1920"
     inkscape:window-height="1017"
     inkscape:window-x="-8"
     inkscape:window-y="-8"
     inkscape:window-maximized="1"
     inkscape:snap-global="false"
     fit-margin-top="0"
     fit-margin-left="0"
     fit-margin-right="0"
     fit-margin-bottom="0"
     inkscape:pagecheckerboard="true" />
  <metadata
     id="metadata5">
    <rdf:RDF>
      <cc:Work
         rdf:about="">
        <dc:format>image/svg+xml</dc:format>
        <dc:type
           rdf:resource="http://purl.org/dc/dcmitype/StillImage" />
        <dc:title></dc:title>
      </cc:Work>
    </rdf:RDF>
  </metadata>
  <g
     inkscape:label="Layer 1"
     inkscape:groupmode="layer"
     id="layer1"
     transform="translate(-24.078441,-53.029763)">
    <g
       id="g882"
       transform="matrix(1.5966944,0,0,1.5966944,-49.174894,-109.87593)">
      <rect
         y="111.37948"
         x="46.272049"
         height="51.45306"
         width="99.926216"
         id="rect826"
         style="opacity:1;fill:none;fill-opacity:0.43255819;stroke:#000000;stroke-width:0.78786069;stroke-linecap:round;stroke-linejoin:round;stroke-miterlimit:4;stroke-dasharray:none;stroke-opacity:1;paint-order:normal" />
      <path
         id="path847"
         transform="scale(0.26458333)"
         d="m 450.67969,428.25977 c -0.55095,-0.002 -1.10591,0.10418 -1.66797,0.3457 -3.71887,1.59802 -3.34769,7.57392 -3.53516,11.61719 -1.12165,24.2095 12.83296,47.04733 14.64649,71.21484 1.59348,20.65754 0.025,46.81368 -7.59571,66.14453 2.1823,13.72694 1.98329,13.42597 3.47461,16.20313 2.72213,5.06921 0.0399,5.35677 8.16211,8.0625 5.42608,1.80756 12.48229,-6.97354 11.61719,-12.62696 -3.16252,-20.66732 -4.04563,-44.73846 -4.54687,-67.17578 -0.49267,-22.05528 1.57798,-44.10533 1.51562,-66.16601 -0.0167,-5.89493 3.08023,-12.99703 -0.50586,-17.67579 -2.13853,-2.79008 -6.83374,-1.73528 -10.10156,-3.03124 -3.98071,-1.57864 -7.60628,-6.90058 -11.46289,-6.91211 z m 56,0 c -0.55095,-0.002 -1.10591,0.10418 -1.66797,0.3457 -3.71887,1.59802 -3.34769,7.57392 -3.53516,11.61719 -1.12165,24.2095 12.83296,47.04733 14.64649,71.21484 1.59348,20.65754 0.025,46.81368 -7.59571,66.14453 -3.37353,12.71679 -2.01671,13.42597 -0.52539,16.20313 2.72213,5.06921 6.56524,9.39739 12.16211,8.0625 5.5632,-1.32688 12.48229,-6.97354 11.61719,-12.62696 -3.16252,-20.66732 -4.04563,-44.73846 -4.54687,-67.17578 -0.49267,-22.05528 1.57798,-44.10533 1.51562,-66.16601 -0.0167,-5.89493 3.08219,-12.99703 -0.50391,-17.67579 -2.13853,-2.79008 -6.83374,-1.73528 -10.10156,-3.03124 -3.98071,-1.57864 -7.60823,-6.90058 -11.46484,-6.91211 z m -284.09375,6 c -3.85659,0.0115 -7.4842,5.33347 -11.46485,6.91211 -3.26784,1.29596 -7.96303,0.24116 -10.10156,3.03124 -3.58607,4.67876 -0.4872,11.78281 -0.50391,17.67774 -0.0625,22.06069 2.00831,44.10878 1.51563,66.16406 -0.50121,22.43732 -1.38437,46.50846 -4.54687,67.17578 -0.86509,5.65342 6.05399,11.30008 11.61718,12.62696 5.59684,1.33489 9.43999,-2.99329 12.16211,-8.0625 1.49132,-2.77716 2.8481,-3.48634 -0.52539,-16.20313 -7.62061,-19.33085 -9.18917,-45.48699 -7.5957,-66.14453 1.81351,-24.16751 15.76813,-47.00534 14.64648,-71.21484 -0.18731,-4.04327 0.18364,-10.01917 -3.53515,-11.61719 -0.56206,-0.24152 -1.11703,-0.34735 -1.66797,-0.3457 z m 202.99218,0.59179 c -2.46987,-0.0813 -4.08786,3.74463 -5.43554,11.43164 -1.12165,24.2095 -3.83306,40.98679 -2.01953,65.1543 1.59348,20.65754 0.023,46.81368 -7.59766,66.14453 -3.37353,12.71679 -2.01672,13.42597 -0.52539,16.20313 2.72213,5.06921 6.56719,9.39739 12.16406,8.0625 5.5632,-1.32688 12.48033,-6.97354 11.61524,-12.62696 -3.16252,-20.66732 -4.04368,-44.73846 -4.54492,-67.17578 -0.49267,-22.05528 1.57798,-44.10533 1.51562,-66.16601 -0.0167,-5.89493 3.08023,-12.99703 -0.50586,-17.67579 -1.84556,-2.1931 -3.37227,-3.30899 -4.66602,-3.35156 z m -132.63281,3.08594 c -3.25944,0.0271 -6.41223,1.88126 -9.82422,3.23438 -9.56805,17.98359 -3.26306,10.29026 -2.60547,20.70898 -0.0625,22.06069 -1.99169,44.10878 -2.48437,66.16406 3.51946,23.67606 -11.25658,55.34565 3.07031,71.80274 12.38841,-6.21827 7.2936,-3.84988 7.63672,-16.26563 -4.08508,-21.85621 -1.18917,-45.48699 0.4043,-66.14453 1.81351,-24.16751 11.76813,-47.00534 10.64648,-71.21484 -0.18731,-4.04327 0.18364,-6.01917 -3.53515,-7.61719 -1.12411,-0.48304 -2.22212,-0.67701 -3.3086,-0.66797 z m -36.37695,1.17383 c -2.93876,-0.015 -5.54377,2.913 -11.54883,5.09179 -3.58607,4.67876 -0.4872,11.78281 -0.50391,17.67774 -0.0625,22.06069 4.00831,44.10878 3.51563,66.16406 -0.50121,22.43732 0.61563,46.50846 -2.54687,67.17578 -0.86509,5.65342 2.05399,11.30008 7.61718,12.62696 5.59684,1.33489 9.43999,-2.99329 12.16211,-8.0625 1.49132,-2.77716 2.8481,-3.48634 -0.52539,-16.20313 -7.62061,-19.33085 -9.18917,-45.48699 -7.5957,-66.14453 1.81351,-24.16751 9.76813,-47.00534 8.64648,-71.21484 -4.44707,-5.30839 -6.935,-7.0997 -9.2207,-7.11133 z"
         style="fill:none;fill-opacity:0.43255819;stroke:#000000;stroke-width:2;stroke-linecap:butt;stroke-linejoin:miter;stroke-miterlimit:4;stroke-dasharray:none;stroke-opacity:1"
         inkscape:connector-curvature="0" />
      <path
         id="path828"
         transform="scale(0.26458333)"
         d="m 310.62109,385.61328 -29.33007,23.5293 -18.14649,-2.31641 c -14.0822,15.68092 -34.69745,32.35501 -44.4668,50.50781 -10.93546,32.4776 -14.47602,68.86503 10.62696,91.41993 28.65088,20.62979 39.93136,6.51664 56.56836,-19.69922 -13.66338,10.10487 -29.56897,14.29393 -35.35547,-5.05078 -3.9113,-21.11651 15.88443,-31.05362 35.23633,-39.45508 l 7.69531,2.08008 12.12109,-4.04102 9.59766,6.56641 -0.50586,67.67968 9.0918,30.30469 8.58593,-33.83984 10.10157,31.82031 12.66797,-34.3457 12.66796,34.3457 16.10157,-29.82031 10.58593,35.83984 9.0918,-34.30469 -0.50586,-67.67968 9.59766,-6.56641 12.12109,4.04102 7.69531,-2.08008 c 19.3519,8.40147 37.63164,18.84325 44.83204,42.99023 1.28453,28.94116 -35.32845,24.75174 -52.52735,13.63672 16.63699,26.21586 38.01828,43.36103 68.68945,18.18555 31.66897,-20.02952 29.64444,-72.07514 18.70899,-104.55274 -9.76936,-18.1528 -32.91046,-42.40383 -63.66016,-53.53906 l -11.58008,7.87305 -29.33007,-23.5293 -48.48828,6.06055 z m -5.55468,58.56836 25.2539,6.06055 16.16211,2.02148 -2.01953,7.57617 -12.62695,8.58594 -22.72852,-5.05078 -7.07226,-15.6582 z m 108.08593,0 3.03125,3.53516 -7.07226,15.6582 -22.72852,5.05078 -12.62695,-8.58594 -2.01953,-7.57617 16.16211,-2.02148 z m -54.04296,15.67774 12.62695,38.89062 -12.62695,-9.0918 -12.62696,9.0918 z m 61.11328,88.38867 c 0.32806,28.1701 3.78959,47.53877 -21.21289,64.65039 -11.78801,-6.83471 -14.083,-7.14667 -16.16211,-21.71875 l -11.11133,21.21289 -19.69727,-31.31446 -2.02148,30.8086 C 344.07339,605.56323 339.72341,598.4315 335.875,590.67383 l -7.57617,11.61719 c -19.17085,-14.15297 -24.30189,-26.41667 -31.31445,-49.49805 0,0 -7.91455,22.21931 -9.0918,33.83984 -0.56102,5.53769 -0.51423,11.31522 1.01172,16.66797 3.30428,11.59087 17.17187,31.82031 17.17187,31.82031 44.30619,-12.32606 71.18494,-10.39756 116.16797,1.00977 32.36345,-26.72738 20.97078,-54.3104 -2.02148,-87.88281 z"
         style="fill:#000000;fill-opacity:1;stroke:none;stroke-width:0.99999994px;stroke-linecap:butt;stroke-linejoin:miter;stroke-opacity:1"
         inkscape:connector-curvature="0" />
    </g>
  </g>
</svg>
