<?xml version="1.0" encoding="UTF-8" standalone="no"?>
<svg
   xmlns:dc="http://purl.org/dc/elements/1.1/"
   xmlns:cc="http://creativecommons.org/ns#"
   xmlns:rdf="http://www.w3.org/1999/02/22-rdf-syntax-ns#"
   xmlns:svg="http://www.w3.org/2000/svg"
   xmlns="http://www.w3.org/2000/svg"
   xmlns:sodipodi="http://sodipodi.sourceforge.net/DTD/sodipodi-0.dtd"
   xmlns:inkscape="http://www.inkscape.org/namespaces/inkscape"
   version="1.1"
   id="图层_1"
   x="0px"
   y="0px"
   viewBox="0 0 400 400"
   sodipodi:docname="Dedicated Transport [Battlefield Role].svg"
   width="400"
   height="400"
   inkscape:version="0.92.3 (2405546, 2018-03-11)">
  <metadata
     id="metadata19">
    <rdf:RDF>
      <cc:Work
         rdf:about="">
        <dc:format>image/svg+xml</dc:format>
        <dc:type
           rdf:resource="http://purl.org/dc/dcmitype/StillImage" />
        <dc:title></dc:title>
      </cc:Work>
    </rdf:RDF>
  </metadata>
  <defs
     id="defs17" />
  <sodipodi:namedview
     pagecolor="#ffffff"
     bordercolor="#666666"
     borderopacity="1"
     objecttolerance="10"
     gridtolerance="10"
     guidetolerance="10"
     inkscape:pageopacity="0"
     inkscape:pageshadow="2"
     inkscape:window-width="1920"
     inkscape:window-height="1017"
     id="namedview15"
     showgrid="false"
     fit-margin-top="0"
     fit-margin-left="0"
     fit-margin-right="0"
     fit-margin-bottom="0"
     inkscape:pagecheckerboard="true"
     inkscape:zoom="0.472"
     inkscape:cx="-13.771186"
     inkscape:cy="250"
     inkscape:window-x="-8"
     inkscape:window-y="-8"
     inkscape:window-maximized="1"
     inkscape:current-layer="图层_1" />
  <style
     type="text/css"
     id="style2">
	.st0{fill:none;}
	.st1{fill:#FFFFFF;}
</style>
  <g
     id="g12"
     transform="scale(0.8)">
    <path
       d="m 249.5,180 c -12.2,0.6 -40.5,5.1 -50,33.8 -8.2,24.5 7.3,52.3 4.2,56 -12.6,15 4.5,38.8 6.8,40.7 4.2,3.5 17.6,-3.6 15.5,0.1 -1.6,2.8 -3.1,24 -3.1,24 h 4.1 l 2,-7.4 h 3.5 l 0.7,7.4 h 7.2 l 0.7,-7.1 2.4,-0.4 0.3,7.4 h 5.9 l 0.3,-7.6 h 4.8 l 0.3,7.6 h 5.9 l 0.3,-7.4 2.4,0.4 0.7,7.1 h 7.2 l 0.7,-7.4 h 3.5 l 2,7.4 h 4.1 c 0,0 -1.5,-21.2 -3.1,-24 -2.1,-3.7 11.3,3.4 15.5,-0.1 2.3,-2 19.4,-25.7 6.8,-40.7 -3.2,-3.8 12.2,-31.5 4.1,-56 -9.6,-28.8 -37.8,-33.2 -50.1,-33.8 0,0 -1,-0.1 -2.8,-0.1 -1.8,0 -2.8,0.1 -2.8,0.1 z m -12.3,111.3 c -7.7,4.5 -15.3,3.8 -18.4,3.4 -0.2,0 -0.4,-0.1 -0.6,-0.2 -6.8,-4.4 -9.3,-11.3 -7.3,-15.5 0.3,-0.7 1.4,-2.8 5,-4.1 0.2,-0.1 0.4,-0.1 0.6,-0.1 4.3,0.4 9.6,1.3 15.4,3.2 4.8,1.5 8.8,3.4 12.1,5.2 0.9,0.2 1.1,1.4 0.4,2.1 -1.6,1.9 -4,4.1 -7.2,6 z m 23.4,-8.3 c 3.3,-1.8 7.4,-3.6 12.1,-5.2 5.9,-1.9 11.2,-2.8 15.4,-3.2 0.2,0 0.4,0 0.6,0.1 3.5,1.3 4.7,3.5 5,4.1 2,4.4 -0.5,11.3 -7.3,15.7 -0.2,0.1 -0.4,0.2 -0.6,0.2 -3.1,0.4 -10.7,1.1 -18.4,-3.4 -3.2,-1.8 -5.6,-4.1 -7.2,-6 -0.6,-0.7 -0.4,-1.8 0.4,-2.3 z m -5.4,11.9 c 5.5,5.3 5.6,12.7 5.4,16.4 0,0.5 -0.6,0.7 -0.9,0.3 -0.7,-1 -1.7,-2.1 -3.1,-3.1 -1.4,-1.1 -2.8,-1.8 -3.9,-2.2 -1,0.4 -2.4,1.1 -3.9,2.2 -1.3,1 -2.3,2.1 -3.1,3.1 -0.3,0.4 -0.9,0.2 -0.9,-0.3 -0.2,-3.6 -0.1,-11.1 5.2,-16.4 0.7,-0.7 1.6,-1.3 2.6,-1.9 1,0.6 1.9,1.2 2.6,1.9 z"
       id="path8"
       inkscape:connector-curvature="0" />
    <path
       d="m 353.5,0 h -207 L 0,146.5 V 353.6 L 146.5,500 H 353.6 L 500,353.5 v -207 z M 324.1,263.7 V 430 h -147 V 262.1 l -95.6,-1 171.5,-229.4 166.7,233 z"
       id="path10"
       inkscape:connector-curvature="0" />
  </g>
</svg>
