<?xml version="1.0" encoding="UTF-8" standalone="no"?>
<!-- Created with Inkscape (http://www.inkscape.org/) -->

<svg
   xmlns:dc="http://purl.org/dc/elements/1.1/"
   xmlns:cc="http://creativecommons.org/ns#"
   xmlns:rdf="http://www.w3.org/1999/02/22-rdf-syntax-ns#"
   xmlns:svg="http://www.w3.org/2000/svg"
   xmlns="http://www.w3.org/2000/svg"
   xmlns:sodipodi="http://sodipodi.sourceforge.net/DTD/sodipodi-0.dtd"
   xmlns:inkscape="http://www.inkscape.org/namespaces/inkscape"
   width="647.82574"
   height="800.00006"
   viewBox="0 0 171.40389 211.66669"
   version="1.1"
   id="svg8"
   inkscape:version="0.92.3 (2405546, 2018-03-11)"
   sodipodi:docname="Drukhari 1 [Aeldari, Dark Eldar].svg">
  <defs
     id="defs2" />
  <sodipodi:namedview
     id="base"
     pagecolor="#ffffff"
     bordercolor="#666666"
     borderopacity="1.0"
     inkscape:pageopacity="0.0"
     inkscape:pageshadow="2"
     inkscape:zoom="0.70710678"
     inkscape:cx="272.65561"
     inkscape:cy="293.69194"
     inkscape:document-units="px"
     inkscape:current-layer="layer1"
     showgrid="false"
     inkscape:window-width="1920"
     inkscape:window-height="1017"
     inkscape:window-x="-8"
     inkscape:window-y="-8"
     inkscape:window-maximized="1"
     fit-margin-top="0"
     fit-margin-left="0"
     fit-margin-right="0"
     fit-margin-bottom="0"
     inkscape:pagecheckerboard="true"
     units="px" />
  <metadata
     id="metadata5">
    <rdf:RDF>
      <cc:Work
         rdf:about="">
        <dc:format>image/svg+xml</dc:format>
        <dc:type
           rdf:resource="http://purl.org/dc/dcmitype/StillImage" />
        <dc:title></dc:title>
      </cc:Work>
    </rdf:RDF>
  </metadata>
  <g
     inkscape:label="Layer 1"
     inkscape:groupmode="layer"
     id="layer1"
     transform="translate(-51.8485,3.667465)">
    <path
       style="fill:#000000;fill-opacity:1;stroke:none;stroke-width:5.91428709;stroke-linejoin:round;stroke-miterlimit:4;stroke-dasharray:none;stroke-opacity:1"
       d="m 139.72293,-3.667465 -27.4733,26.696828 -27.454081,26.702327 47.685471,0.05311 -0.11721,22.765009 c -20.73788,-0.0013 -41.475364,-0.0013 -62.213245,-0.0028 0.515837,-10.348825 1.608474,-18.019721 9.257274,-35.423091 -22.077598,24.386912 -21.813825,32.960211 -22.414317,35.422106 -0.680537,2.790087 -1.109774,14.34465 -1.109774,14.34465 l 14.34465,0.01373 -0.0019,-0.01281 62.063992,0.0019 -0.12271,23.922396 c -38.520916,-0.11105 -39.327527,1.05942 -60.596188,-7.66586 7.396229,10.85543 13.688732,21.24806 37.510718,22.0517 8.93171,0.003 18.07892,-0.0123 23.01132,-0.0211 v 0.0485 l 14.34465,-0.0138 v -0.0504 l 42.2767,-0.0348 v 11.31566 3.52619 c -15.1142,-6.22969 -34.54281,-9.65665 -54.64725,-9.63905 -2.75529,0.007 -5.50815,0.0782 -8.24822,0.21426 -44.267097,2.19476 -76.881206,20.47136 -73.765154,41.33724 3.116476,20.86625 40.844497,36.82326 85.330794,36.09053 26.38757,-0.43827 50.74089,-6.7755 65.53342,-17.05316 -2.55502,1.42048 -25.81341,6.54977 -62.14184,6.9773 -37.0542,0.43608 -69.308519,-14.69567 -71.904542,-27.11345 -2.596017,-12.41776 24.529701,-23.29667 61.401992,-24.60274 32.93328,-1.16653 63.03743,5.6769 72.78449,15.93515 V 147.57759 125.1184 h 0.0312 l -0.0311,-5.54247 v -8.8021 h -0.0495 -14.29428 v 0.0119 l -42.20253,0.0366 0.12269,-23.927889 62.2746,0.0019 c -3e-5,1.9e-4 -0.002,0.01556 -0.002,0.01556 l 14.34465,-0.01463 c 0,0 -0.42924,-11.554563 -1.10978,-14.344653 -0.60049,-2.461892 -0.33673,-11.035194 -22.41432,-35.422104 7.64858,17.402847 8.74142,25.073819 9.25728,35.422104 -20.75913,-0.0011 -41.51821,-0.0019 -62.27735,-0.0029 l 0.1172,-22.75036 47.48952,0.0421 -27.28559,-26.75818 z m 8e-4,1.61e-5 14.08185,22.2477529 14.07271,22.249501 -28.24155,-0.04027 -28.24063,-0.05037 14.15876,-22.20463 z"
       id="path826"
       inkscape:connector-curvature="0"
       sodipodi:nodetypes="cccccccccccccccccccccccccccsssccccccccccccccscccccccccccccc" />
  </g>
</svg>
