<?xml version="1.0" encoding="UTF-8" standalone="no"?>
<!-- Created with Inkscape (http://www.inkscape.org/) -->

<svg
   xmlns:dc="http://purl.org/dc/elements/1.1/"
   xmlns:cc="http://creativecommons.org/ns#"
   xmlns:rdf="http://www.w3.org/1999/02/22-rdf-syntax-ns#"
   xmlns:svg="http://www.w3.org/2000/svg"
   xmlns="http://www.w3.org/2000/svg"
   xmlns:sodipodi="http://sodipodi.sourceforge.net/DTD/sodipodi-0.dtd"
   xmlns:inkscape="http://www.inkscape.org/namespaces/inkscape"
   width="519.9549"
   height="800"
   viewBox="0 0 137.5714 211.66667"
   version="1.1"
   id="svg8"
   inkscape:version="0.92.3 (2405546, 2018-03-11)"
   sodipodi:docname="Drukhari 4 [Aeldari, Dark Eldar, Soul Drinkers].svg">
  <defs
     id="defs2" />
  <sodipodi:namedview
     id="base"
     pagecolor="#ffffff"
     bordercolor="#666666"
     borderopacity="1.0"
     inkscape:pageopacity="0.0"
     inkscape:pageshadow="2"
     inkscape:zoom="0.49497475"
     inkscape:cx="219.84554"
     inkscape:cy="157.26366"
     inkscape:document-units="px"
     inkscape:current-layer="layer1"
     showgrid="false"
     inkscape:snap-global="false"
     units="px"
     inkscape:pagecheckerboard="true"
     fit-margin-top="0"
     fit-margin-left="0"
     fit-margin-right="0"
     fit-margin-bottom="0"
     inkscape:window-width="1920"
     inkscape:window-height="1017"
     inkscape:window-x="-8"
     inkscape:window-y="-8"
     inkscape:window-maximized="1" />
  <metadata
     id="metadata5">
    <rdf:RDF>
      <cc:Work
         rdf:about="">
        <dc:format>image/svg+xml</dc:format>
        <dc:type
           rdf:resource="http://purl.org/dc/dcmitype/StillImage" />
        <dc:title></dc:title>
      </cc:Work>
    </rdf:RDF>
  </metadata>
  <g
     inkscape:label="Layer 1"
     inkscape:groupmode="layer"
     id="layer1"
     transform="translate(-27.158939,-54.239762)">
    <path
       style="fill:#000000;fill-opacity:1;stroke:none;stroke-width:2.53214478px;stroke-linecap:butt;stroke-linejoin:miter;stroke-opacity:1"
       d="m 140.43237,54.239762 c -8.56255,28.879466 -27.79314,44.536113 -42.146402,63.031598 -4.62266,-3.4367 -12.75445,-5.67452 -27.23539,-6.11772 4.61538,-16.874472 8.28464,-43.69814 -14.39164,-46.677282 13.16865,17.485915 11.53931,34.694483 2.87827,54.352862 11.77043,-0.82401 25.97785,-1.93617 31.39962,7.60638 -19.24408,23.25002 -39.67219,41.86801 -63.05141,55.05925 -3.53011,10.26703 6.48666,15.89476 15.34618,15.98424 -9.81234,-5.84488 -6.45441,-17.6733 3.83779,-16.6222 4.27516,4.42311 8.67032,8.04395 13.10588,11.00892 -6.664,5.63969 -6.46619,13.49175 -5.75176,21.92377 2.21265,-7.70994 2.8576,-14.96261 8.49154,-20.16312 5.14539,3.09705 10.32446,5.27698 15.43031,6.61223 -2.3498,9.99896 -1.00306,19.4239 0.37612,29.53513 0.9197,-9.98959 1.85137,-19.35768 4.70323,-28.49656 4.69242,0.73021 9.28378,0.77902 13.68449,0.17322 11.324742,13.07017 12.114772,18.1768 15.183012,29.60432 13.13985,-33.45082 30.28621,21.34189 33.25415,34.85163 -3.74515,-22.05325 -1.53613,-48.02918 -24.29768,-65.86547 -4.1382,12.21967 -8.5525,5.46035 -9.40656,-3.34817 3.6773,-1.94737 7.0738,-4.40722 10.10883,-7.31947 6.37048,5.26329 12.74402,10.52428 19.11967,15.78135 -4.01437,-7.59309 -9.24119,-13.67483 -15.39567,-19.84165 3.76563,-4.586 6.75961,-9.99169 8.75378,-16.06826 10.48054,-0.88717 19.84069,0.9197 30.30161,3.93665 -4.7352,-3.99522 -8.95111,-7.24836 -15.0297,-8.31354 -3.4812,-0.42396 -7.74525,1.71462 -10.87034,-1.91885 -0.95511,-1.14375 -1.58254,-3.12107 -2.01292,-4.7775 0.22777,-1.98746 0.38664,-4.01149 0.41535,-6.09294 1.2071,-2.63595 4.43948,-3.81721 7.03265,-5.1138 5.18625,-2.59298 16.62707,-5.11868 16.62707,-5.11868 l -17.90308,0.64313 -21.67159,9.47576 c 0,0 2.45584,-0.19524 3.13055,0.62781 10.70037,35.4268 -41.079892,54.43047 -62.670522,22.50746 1.92679,-2.72592 3.87426,-5.38216 5.81598,-8.05639 5.79798,24.19538 53.374012,22.22437 45.657752,-18.80317 l 41.24622,-19.18398 c -0.64982,-10.50705 3.04958,-18.78374 7.67558,-28.45206 -16.68267,19.27078 -34.72281,32.03509 -54.32242,43.2246 -1.62054,-0.98287 -3.51747,-2.40176 -3.55087,-3.89712 -0.13303,-6.30052 0.45841,-12.17296 -1.50848,-16.96338 12.03295,-13.46447 24.67667,-25.972676 38.27895,-37.393694 z M 94.403668,132.69172 c 2.14844,1.35448 4.76956,2.91272 5.42034,5.32147 -6.4814,15.09727 -16.14358,18.57981 -29.88617,25.78137 7.9559,-10.83139 16.08607,-21.18857 24.46583,-31.10284 z m 14.055442,19.38677 c 12.41633,24.47052 -30.055942,39.00782 -35.811052,14.70813 l 19.01085,-7.80899 c 2.813,7.08347 0.46225,11.26215 -10.69731,13.56573 17.2858,1.82362 23.815532,-4.01379 23.550912,-18.8427 z"
       id="path826"
       inkscape:connector-curvature="0"
       sodipodi:nodetypes="cccccccccccccccccccccccccccccccccccccccccccccccccccccc" />
  </g>
</svg>
