<?xml version="1.0" encoding="UTF-8" standalone="no"?>
<!-- Created with Inkscape (http://www.inkscape.org/) -->

<svg
   xmlns:dc="http://purl.org/dc/elements/1.1/"
   xmlns:cc="http://creativecommons.org/ns#"
   xmlns:rdf="http://www.w3.org/1999/02/22-rdf-syntax-ns#"
   xmlns:svg="http://www.w3.org/2000/svg"
   xmlns="http://www.w3.org/2000/svg"
   xmlns:sodipodi="http://sodipodi.sourceforge.net/DTD/sodipodi-0.dtd"
   xmlns:inkscape="http://www.inkscape.org/namespaces/inkscape"
   width="675.94696"
   height="800"
   viewBox="0 0 178.8443 211.66668"
   version="1.1"
   id="svg8"
   inkscape:version="0.92.3 (2405546, 2018-03-11)"
   sodipodi:docname="Drukhari 3 [Aeldari, Dark Eldar, Soul Drinkers].svg">
  <defs
     id="defs2" />
  <sodipodi:namedview
     id="base"
     pagecolor="#ffffff"
     bordercolor="#666666"
     borderopacity="1.0"
     inkscape:pageopacity="0.0"
     inkscape:pageshadow="2"
     inkscape:zoom="0.49497475"
     inkscape:cx="392.10695"
     inkscape:cy="90.366818"
     inkscape:document-units="px"
     inkscape:current-layer="layer1"
     showgrid="false"
     inkscape:pagecheckerboard="true"
     units="px"
     fit-margin-top="0"
     fit-margin-left="0"
     fit-margin-right="0"
     fit-margin-bottom="0"
     inkscape:window-width="1920"
     inkscape:window-height="1017"
     inkscape:window-x="-8"
     inkscape:window-y="-8"
     inkscape:window-maximized="1" />
  <metadata
     id="metadata5">
    <rdf:RDF>
      <cc:Work
         rdf:about="">
        <dc:format>image/svg+xml</dc:format>
        <dc:type
           rdf:resource="http://purl.org/dc/dcmitype/StillImage" />
        <dc:title></dc:title>
      </cc:Work>
    </rdf:RDF>
  </metadata>
  <g
     inkscape:label="Layer 1"
     inkscape:groupmode="layer"
     id="layer1"
     transform="translate(-61.799329,1.223191)">
    <path
       style="fill:#000000;fill-opacity:1;stroke:none;stroke-width:0.5082891px;stroke-linecap:butt;stroke-linejoin:miter;stroke-opacity:1"
       d="M 151.22148,-1.223191 99.121847,46.338571 H 144.6862 v 7.942021 H 78.567904 C 82.564032,39.373271 88.747334,33.615031 99.012645,22.37651 79.09381,32.276851 68.163169,42.906791 61.799329,64.035372 H 78.567904 144.6862 v 8.472141 H 109.11886 97.016217 c 1.609884,13.433081 2.739552,17.826381 12.525553,27.746437 -1.61352,-7.565296 -3.43028,-10.565536 -0.42291,-17.990657 h 35.56734 v 53.389227 l 0.25414,20.69392 c 15.88944,-8.53214 29.78022,-18.74156 43.20458,-30.49734 -8.18494,32.8283 -23.80282,58.93916 -45.74602,84.59438 35.2393,-29.7969 59.24222,-59.91404 59.5423,-103.47357 -17.84516,8.80755 -27.96726,16.36681 -44.18442,28.68261 V 82.263293 h 35.56732 c 3.00738,7.425121 1.19062,10.425361 -0.4229,17.990657 9.786,-9.920056 10.91566,-14.313356 12.52554,-27.746437 H 193.3241 157.75678 v -8.472141 h 66.11828 16.76858 c -6.3639,-21.128581 -17.29438,-31.758521 -37.21332,-41.658862 10.26536,11.238521 16.4486,16.996761 20.44474,31.904082 h -66.11828 v -7.942021 h 45.56434 z m 0,13.252241 28.23686,25.777801 h -56.47371 z"
       id="path826"
       inkscape:connector-curvature="0" />
  </g>
</svg>
