<?xml version="1.0" encoding="UTF-8" standalone="no"?>
<svg
   xmlns:dc="http://purl.org/dc/elements/1.1/"
   xmlns:cc="http://creativecommons.org/ns#"
   xmlns:rdf="http://www.w3.org/1999/02/22-rdf-syntax-ns#"
   xmlns:svg="http://www.w3.org/2000/svg"
   xmlns="http://www.w3.org/2000/svg"
   xmlns:sodipodi="http://sodipodi.sourceforge.net/DTD/sodipodi-0.dtd"
   xmlns:inkscape="http://www.inkscape.org/namespaces/inkscape"
   version="1.1"
   id="图层_1"
   x="0px"
   y="0px"
   viewBox="0 0 800 800"
   sodipodi:docname="D’yanoi [T'au'va, Greater Good, T'au Empire, Sept].svg"
   width="800"
   height="800"
   inkscape:version="0.92.3 (2405546, 2018-03-11)">
  <metadata
     id="metadata15">
    <rdf:RDF>
      <cc:Work
         rdf:about="">
        <dc:format>image/svg+xml</dc:format>
        <dc:type
           rdf:resource="http://purl.org/dc/dcmitype/StillImage" />
        <dc:title></dc:title>
      </cc:Work>
    </rdf:RDF>
  </metadata>
  <defs
     id="defs13" />
  <sodipodi:namedview
     pagecolor="#ffffff"
     bordercolor="#666666"
     borderopacity="1"
     objecttolerance="10"
     gridtolerance="10"
     guidetolerance="10"
     inkscape:pageopacity="0"
     inkscape:pageshadow="2"
     inkscape:window-width="1920"
     inkscape:window-height="1017"
     id="namedview11"
     showgrid="false"
     fit-margin-top="0"
     fit-margin-left="0"
     fit-margin-right="0"
     fit-margin-bottom="0"
     inkscape:pagecheckerboard="true"
     inkscape:zoom="0.472"
     inkscape:cx="-13.771186"
     inkscape:cy="250"
     inkscape:window-x="-8"
     inkscape:window-y="-8"
     inkscape:window-maximized="1"
     inkscape:current-layer="图层_1" />
  <g
     id="g8"
     transform="scale(1.6)">
    <path
       d="M 250,0 C 111.9,0 0,111.9 0,250 0,388.1 111.9,500 250,500 388.1,500 500,388.1 500,250 500,111.9 388.1,0 250,0 Z m 0,485 C 120.2,485 15,379.8 15,250 15,120.2 120.2,15 250,15 379.8,15 485,120.2 485,250 485,379.8 379.8,485 250,485 Z"
       id="path2"
       inkscape:connector-curvature="0" />
    <circle
       cx="250"
       cy="120"
       r="70"
       id="circle4" />
    <path
       d="m 319,62.2 c 13.1,15.6 21,35.8 21,57.8 0,49.7 -40.3,90 -90,90 -49.7,0 -90,-40.3 -90,-90 0,-22 7.9,-42.1 21,-57.8 C 104.5,90.3 50,163.8 50,250 c 0,22.2 3.6,43.5 10.3,63.5 C 63.6,272.4 98,240 140,240 c 44.2,0 80,35.8 80,80 0,44.2 -35.8,80 -80,80 -9.7,0 -19.1,-1.7 -27.7,-4.9 35.9,34 84.3,54.9 137.7,54.9 53.4,0 101.9,-20.9 137.7,-54.9 -8.6,3.2 -18,4.9 -27.7,4.9 -44.2,0 -80,-35.8 -80,-80 0,-44.2 35.8,-80 80,-80 42,0 76.4,32.4 79.7,73.5 C 446.4,293.6 450,272.2 450,250 450,163.8 395.5,90.3 319,62.2 Z"
       id="path6"
       inkscape:connector-curvature="0" />
  </g>
</svg>
