<?xml version="1.0" encoding="UTF-8" standalone="no"?>
<svg
   xmlns:dc="http://purl.org/dc/elements/1.1/"
   xmlns:cc="http://creativecommons.org/ns#"
   xmlns:rdf="http://www.w3.org/1999/02/22-rdf-syntax-ns#"
   xmlns:svg="http://www.w3.org/2000/svg"
   xmlns="http://www.w3.org/2000/svg"
   xmlns:sodipodi="http://sodipodi.sourceforge.net/DTD/sodipodi-0.dtd"
   xmlns:inkscape="http://www.inkscape.org/namespaces/inkscape"
   version="1.1"
   id="图层_1"
   x="0px"
   y="0px"
   viewBox="0 0 400 400"
   sodipodi:docname="Elites [Battlefield Role].svg"
   width="400"
   height="400"
   inkscape:version="0.92.3 (2405546, 2018-03-11)">
  <metadata
     id="metadata31">
    <rdf:RDF>
      <cc:Work
         rdf:about="">
        <dc:format>image/svg+xml</dc:format>
        <dc:type
           rdf:resource="http://purl.org/dc/dcmitype/StillImage" />
        <dc:title></dc:title>
      </cc:Work>
    </rdf:RDF>
  </metadata>
  <defs
     id="defs29" />
  <sodipodi:namedview
     pagecolor="#ffffff"
     bordercolor="#666666"
     borderopacity="1"
     objecttolerance="10"
     gridtolerance="10"
     guidetolerance="10"
     inkscape:pageopacity="0"
     inkscape:pageshadow="2"
     inkscape:window-width="1920"
     inkscape:window-height="1017"
     id="namedview27"
     showgrid="false"
     fit-margin-top="0"
     fit-margin-left="0"
     fit-margin-right="0"
     fit-margin-bottom="0"
     inkscape:pagecheckerboard="true"
     inkscape:zoom="0.472"
     inkscape:cx="-13.771186"
     inkscape:cy="250"
     inkscape:window-x="-8"
     inkscape:window-y="-8"
     inkscape:window-maximized="1"
     inkscape:current-layer="图层_1" />
  <style
     type="text/css"
     id="style2">
	.st0{fill:none;}
</style>
  <g
     id="g24"
     transform="scale(0.8)">
    <path
       d="m 285.4,262.2 c -0.2,-0.1 -0.4,-0.1 -0.6,-0.1 -4.1,0.4 -9.2,1.2 -14.9,3 -4.7,1.4 -8.6,3.1 -11.8,4.8 -0.8,0.4 -1,1.5 -0.4,2.2 1.6,1.8 3.9,3.8 7,5.6 7.5,4.2 14.9,3.6 17.9,3.2 0.1,0 0.3,-0.1 0.5,-0.2 6.5,-4.1 9,-10.6 7.1,-14.6 -0.3,-0.6 -1.4,-2.7 -4.8,-3.9 z"
       id="path6"
       inkscape:connector-curvature="0" />
    <path
       d="m 242,269.9 c -3.3,-1.6 -7.2,-3.4 -11.8,-4.8 -5.6,-1.8 -10.8,-2.6 -14.9,-3 -0.2,0 -0.4,0 -0.6,0.1 -3.4,1.3 -4.5,3.3 -4.8,3.9 -1.9,4 0.5,10.5 7.1,14.6 0.1,0.1 0.3,0.2 0.5,0.2 3,0.4 10.4,1 17.9,-3.2 3.1,-1.7 5.4,-3.8 7,-5.6 0.6,-0.7 0.4,-1.8 -0.4,-2.2 z"
       id="path8"
       inkscape:connector-curvature="0" />
    <path
       d="m 293.9,347.6 c -9.3,3.9 -24.5,9 -43.9,9.6 -20.5,0.7 -36.8,-3.9 -46.5,-7.5 -0.7,5.4 -1.9,12 -4.4,19.2 -3.7,10.6 -8.7,18.8 -12.8,24.4 41.1,-0.5 82.1,-1.1 123.3,-1.8 -3.9,-4.6 -9.7,-12.8 -13.1,-24.4 -2.2,-7.7 -2.7,-14.5 -2.6,-19.5 z"
       id="path10"
       inkscape:connector-curvature="0" />
    <path
       d="m 151.4,203.4 c -5,0.1 -11.8,-0.4 -19.5,-2.6 -11.6,-3.4 -19.7,-9.2 -24.4,-13.1 -0.6,41.1 -1.2,82.1 -1.8,123.2 5.6,-4.1 13.7,-9.1 24.4,-12.8 7.2,-2.5 13.8,-3.8 19.2,-4.4 -3.5,-9.6 -8.2,-25.9 -7.5,-46.4 0.6,-19.4 5.7,-34.6 9.6,-43.9 z"
       id="path12"
       inkscape:connector-curvature="0" />
    <path
       d="m 203.4,148.7 c 9.7,-3.5 26,-8.2 46.5,-7.5 19.4,0.6 34.6,5.7 43.9,9.6 -0.1,-5 0.4,-11.8 2.6,-19.5 3.4,-11.6 9.2,-19.8 13.1,-24.4 -41.1,-0.6 -82.1,-1.1 -123.3,-1.8 4.1,5.6 9.1,13.7 12.8,24.4 2.5,7.2 3.8,13.8 4.4,19.2 z"
       id="path14"
       inkscape:connector-curvature="0" />
    <path
       d="m 250.4,279.1 c -1,0.6 -1.8,1.1 -2.5,1.8 -5.2,5.1 -5.3,12.1 -5.1,15.5 0.1,0.5 0.6,0.7 0.9,0.3 0.7,-0.9 1.7,-1.9 3,-2.9 1.4,-1 2.7,-1.6 3.7,-2 1,0.4 2.3,1 3.7,2 1.3,1 2.3,2 3,2.9 0.3,0.3 0.9,0.2 0.9,-0.3 0.3,-3.3 0.1,-10.3 -5.1,-15.5 -0.6,-0.7 -1.5,-1.3 -2.5,-1.8 z"
       id="path16"
       inkscape:connector-curvature="0" />
    <path
       d="m 367.7,200.7 c -7.7,2.2 -14.5,2.7 -19.5,2.6 3.9,9.3 9,24.5 9.6,43.9 0.7,20.5 -3.9,36.8 -7.5,46.5 5.4,0.7 12,1.9 19.2,4.4 10.7,3.6 18.8,8.7 24.4,12.7 -0.6,-41.1 -1.2,-82.1 -1.8,-123.2 -4.5,3.9 -12.7,9.7 -24.4,13.1 z"
       id="path18"
       inkscape:connector-curvature="0" />
    <path
       d="m 249.4,156.9 c -50.5,0 -91.4,40.9 -91.4,91.4 0,50.5 40.9,91.4 91.4,91.4 50.5,0 91.4,-40.9 91.4,-91.4 0,-50.5 -40.9,-91.4 -91.4,-91.4 z m 47.9,100.5 c 12.2,14.1 -4.3,36.4 -6.6,38.3 -4.1,3.3 -17.1,-3.4 -15,0.1 1.6,2.6 3,22.6 3,22.6 h -4.1 l -1.9,-7 h -3.4 l -0.7,7 h -7 l -0.7,-6.7 -2.3,-0.3 -0.3,7 h -5.7 l -0.3,-7.2 h -4.6 l -0.3,7.2 h -5.7 l -0.3,-7 -2.3,0.3 -0.7,6.7 h -7 l -0.7,-7 h -3.4 l -1.9,7 h -4 c 0,0 1.5,-20 3,-22.6 2,-3.5 -10.9,3.2 -15,-0.1 -2.2,-1.9 -18.8,-24.2 -6.6,-38.3 3.1,-3.5 -11.9,-29.5 -4,-52.6 9.3,-27 36.7,-31.3 48.5,-31.8 0,0 0.9,-0.1 2.7,-0.1 1.7,0 2.7,0.1 2.7,0.1 11.8,0.5 39.2,4.8 48.5,31.8 7.9,23.1 -7.1,49.1 -3.9,52.6 z"
       id="path20"
       inkscape:connector-curvature="0" />
    <path
       d="m 353.5,0 h -207 L 0,146.5 V 353.6 L 146.5,500 H 353.6 L 500,353.5 v -207 z m 63.3,359.5 h -6.7 c -4.3,-9.4 -18.4,-27.7 -36.6,-38.1 -2.9,-1.6 -7.1,-3.2 -11.6,-4.6 -11.4,18.6 -27.3,34.1 -46.2,45.1 1.7,4.9 4,10.1 7.3,15.4 12.4,20.2 30.3,28.7 36.9,31.4 0,2.4 0,4.8 0,7.2 H 137.5 v -6.7 c 9.4,-4.3 27.7,-18.4 38.1,-36.6 1.9,-3.1 3.5,-7.8 5,-12.7 -17.5,-10.9 -32.3,-25.8 -43,-43.4 -4.8,1.5 -9.4,3.1 -12.5,4.9 -18.2,10.4 -32.3,28.8 -36.6,38.1 H 81.8 V 137.2 c 2.5,0 4.9,0 7.3,0 2.8,6.5 11.2,24.5 31.4,36.9 5.6,3.5 11.1,5.9 16.3,7.6 10.8,-18.3 25.9,-33.7 43.9,-44.9 -1.5,-4.9 -3.1,-9.5 -4.9,-12.6 C 165.4,106 147,91.9 137.7,87.6 V 80.9 H 360 c 0,2.4 0,4.8 0,7.2 -6.5,2.8 -24.5,11.2 -36.9,31.4 -3.2,5.2 -5.5,10.4 -7.2,15.2 19.4,11.3 35.6,27.3 47,46.6 4.9,-1.7 10.1,-4 15.4,-7.3 20.2,-12.4 28.7,-30.3 31.4,-36.9 2.4,0 4.8,0 7,0 v 222.4 z"
       id="path22"
       inkscape:connector-curvature="0" />
  </g>
</svg>
