<?xml version="1.0" encoding="UTF-8" standalone="no"?>
<svg
   xmlns:dc="http://purl.org/dc/elements/1.1/"
   xmlns:cc="http://creativecommons.org/ns#"
   xmlns:rdf="http://www.w3.org/1999/02/22-rdf-syntax-ns#"
   xmlns:svg="http://www.w3.org/2000/svg"
   xmlns="http://www.w3.org/2000/svg"
   xmlns:sodipodi="http://sodipodi.sourceforge.net/DTD/sodipodi-0.dtd"
   xmlns:inkscape="http://www.inkscape.org/namespaces/inkscape"
   inkscape:version="1.0 (4035a4fb49, 2020-05-01)"
   height="800"
   width="888.38544"
   sodipodi:docname="Extinction-Angels.svg"
   xml:space="preserve"
   viewBox="0 0 888.38544 800"
   y="0px"
   x="0px"
   id="Layer_1"
   version="1.1"><metadata
   id="metadata17"><rdf:RDF><cc:Work
       rdf:about=""><dc:format>image/svg+xml</dc:format><dc:type
         rdf:resource="http://purl.org/dc/dcmitype/StillImage" /><dc:title></dc:title></cc:Work></rdf:RDF></metadata><defs
   id="defs15" /><sodipodi:namedview
   inkscape:current-layer="Layer_1"
   inkscape:window-maximized="1"
   inkscape:window-y="-9"
   inkscape:window-x="-9"
   inkscape:cy="404.00121"
   inkscape:cx="486.47"
   inkscape:zoom="0.83"
   fit-margin-bottom="0"
   fit-margin-right="0"
   fit-margin-left="0"
   fit-margin-top="0"
   inkscape:pagecheckerboard="true"
   showgrid="false"
   id="namedview13"
   inkscape:window-height="1001"
   inkscape:window-width="1920"
   inkscape:pageshadow="2"
   inkscape:pageopacity="0"
   guidetolerance="10"
   gridtolerance="10"
   objecttolerance="10"
   borderopacity="1"
   bordercolor="#666666"
   pagecolor="#ffffff" />
<g
   transform="matrix(0.90807244,0,0,0.90807244,-12.28622,-87.173853)"
   id="g10">
	<path
   id="path2"
   d="m 904.64,230.04 1.28,-22.66 -116.64,-61.11 -13.91,11.9 C 563.51,48.79 278.47,76.66 129.59,298.48 297.15,196.05 634.72,126.67 697.15,230.41 c 19.7,-49.26 78.82,5.47 33.55,36.31 5.31,10.6 -18.24,55.29 -25.88,84.68 l 31.37,61.43 75.99,-88.8 c 7.52,-4.99 19.47,0.73 19.47,0.73 0,0 3.13,-23.88 16.99,-27.59 13.86,-3.71 43.85,25.18 43.85,25.18 0,0 7.57,-29.49 26.46,-33.88 21.98,-3.76 42,26.41 42,26.41 2.61,-15.69 13.8,-28.61 30.9,-39.49 z" />
	<path
   id="path4"
   d="m 327.05,808.89 c 0,0 -41.95,-22.94 -43.14,-28.76 l -63.08,45.93 -8.8,-10.6 c 0,0 -27.65,55.65 -63.95,74.38 -36.29,18.73 -108.69,-1.81 -134.55,21.25 13.37,18.37 94.85,64.21 151.62,65.89 39.92,1.13 177.98,-164.19 161.9,-168.09 z" />
	<path
   id="path6"
   d="m 690.5,357.86 c -17.78,-32.55 -35.68,-64.05 -53.85,-94.64 -11.5,0 -40.39,0 -66.14,0 -13.86,0 -27.71,0 -41.44,0 -5.49,0 -10.98,0 -16.34,0 -18.17,30.59 -36.08,62.22 -53.85,94.64 -69.15,126.66 -124.57,249.79 -169.53,366.78 -1.7,10.06 -3.4,20.13 -5.23,30.19 5.75,4.44 11.89,8.76 18.43,13.2 20.78,14.12 41.17,25.88 60.52,35.55 h 25.49 c 10.85,0 27.45,-3.4 21.83,-12.68 -10.06,-14.12 -20.13,-28.23 -30.33,-42.48 33.99,-76.99 75.42,-159.34 126.14,-244.43 19.21,-32.02 38.56,-62.74 57.77,-91.89 4.97,-7.71 16.34,-7.71 21.31,0 19.35,29.28 38.82,59.87 57.77,91.89 50.85,85.22 92.28,167.44 126.14,244.43 -10.06,14.12 -20.13,28.23 -30.33,42.48 -5.49,9.28 11.11,12.68 21.83,12.68 h 25.49 c 19.35,-9.54 39.61,-21.31 60.52,-35.55 6.4,-4.44 12.55,-8.76 18.43,-13.2 -1.7,-10.06 -3.4,-20.13 -5.23,-30.19 C 815.2,607.65 759.65,484.52 690.5,357.86 Z" />
	<path
   id="path8"
   d="m 713.11,659.15 c -3.92,0.52 -7.97,0.78 -12.16,0.92 -25.1,1.44 -46.53,-1.44 -62.48,-4.84 -4.71,-1.83 -11.63,-5.49 -18.17,-12.16 -3.01,-3.01 -5.36,-6.27 -7.19,-9.28 -5.62,-9.41 -0.91,-21.18 9.93,-24.97 6.54,-2.22 13.72,-4.97 20.91,-8.63 12.16,-5.75 22.35,-12.42 30.98,-18.95 -18.95,-36.73 -40.26,-75.55 -60.39,-110.45 -11.5,-20 -20.26,-27.97 -31.63,-40 -4.44,-4.71 -15.69,-3.4 -20,1.31 -11.37,12.29 -16.21,18.95 -27.71,38.69 -20.26,35.16 -41.7,74.38 -60.78,111.24 8.37,6.27 18.17,12.55 29.8,18.04 7.19,3.4 14.25,6.27 20.91,8.63 10.85,3.79 15.55,15.55 9.93,24.97 -1.83,3.14 -4.18,6.27 -7.19,9.28 -6.4,6.54 -13.46,10.2 -18.17,12.16 -16.21,3.4 -37.51,6.27 -62.48,4.84 -3.66,-0.13 -7.19,-0.52 -10.72,-0.78 -0.26,0.65 -0.65,1.44 -0.91,2.09 l -11.76,22.35 v 28.76 c 0,11.5 8.37,21.18 19.61,23.27 l 11.89,2.09 53.85,-49.93 5.23,5.23 -53.85,55.29 v 43.4 l 8.5,11.76 h 24.84 v -38.82 h 18.3 v 38.82 h 27.19 v -38.82 h 18.43 v 38.82 H 574.94 585 v -38.82 h 18.43 v 38.82 h 27.19 v -38.82 h 18.43 v 38.82 h 31.76 l 8.5,-11.76 v -43.4 L 635.47,693 l 5.23,-5.23 53.85,49.93 11.89,-2.09 c 11.37,-1.83 19.61,-11.63 19.61,-23.27 v -28.76 l -11.76,-22.35 c -0.52,-0.51 -0.78,-1.3 -1.18,-2.08 z m -108.36,60.91 c -6.27,-1.57 -16.47,-7.97 -31.76,-8.23 -14.64,-0.13 -27.32,6.4 -35.16,8.23 -2.88,0.65 -6.8,-7.32 -5.23,-9.93 l 25.75,-41.31 c 6.8,-11.63 23.79,-10.98 29.67,0.92 l 21.96,40.65 c 1.44,2.61 -2.61,10.19 -5.23,9.67 z" />
</g>
</svg>
