<?xml version="1.0" encoding="UTF-8" standalone="no"?>
<svg
   xmlns:dc="http://purl.org/dc/elements/1.1/"
   xmlns:cc="http://creativecommons.org/ns#"
   xmlns:rdf="http://www.w3.org/1999/02/22-rdf-syntax-ns#"
   xmlns:svg="http://www.w3.org/2000/svg"
   xmlns="http://www.w3.org/2000/svg"
   xmlns:sodipodi="http://sodipodi.sourceforge.net/DTD/sodipodi-0.dtd"
   xmlns:inkscape="http://www.inkscape.org/namespaces/inkscape"
   version="1.1"
   id="图层_1"
   x="0px"
   y="0px"
   viewBox="0 0 800 800"
   sodipodi:docname="Fe’saan [T'au'va, Greater Good, T'au Empire, Sept].svg"
   width="800"
   height="800"
   inkscape:version="0.92.3 (2405546, 2018-03-11)">
  <metadata
     id="metadata13">
    <rdf:RDF>
      <cc:Work
         rdf:about="">
        <dc:format>image/svg+xml</dc:format>
        <dc:type
           rdf:resource="http://purl.org/dc/dcmitype/StillImage" />
        <dc:title></dc:title>
      </cc:Work>
    </rdf:RDF>
  </metadata>
  <defs
     id="defs11" />
  <sodipodi:namedview
     pagecolor="#ffffff"
     bordercolor="#666666"
     borderopacity="1"
     objecttolerance="10"
     gridtolerance="10"
     guidetolerance="10"
     inkscape:pageopacity="0"
     inkscape:pageshadow="2"
     inkscape:window-width="1920"
     inkscape:window-height="1017"
     id="namedview9"
     showgrid="false"
     fit-margin-top="0"
     fit-margin-left="0"
     fit-margin-right="0"
     fit-margin-bottom="0"
     inkscape:pagecheckerboard="true"
     inkscape:zoom="0.472"
     inkscape:cx="-13.771186"
     inkscape:cy="250"
     inkscape:window-x="-8"
     inkscape:window-y="-8"
     inkscape:window-maximized="1"
     inkscape:current-layer="图层_1" />
  <path
     d="M 400,0 C 179.04,0 0,179.04 0,400 0,620.96 179.04,800 400,800 620.96,800 800,620.96 800,400 800,179.04 620.96,0 400,0 Z m 0,776 C 192.32,776 24,607.68 24,400 24,192.32 192.32,24 400,24 607.68,24 776,192.32 776,400 776,607.68 607.68,776 400,776 Z"
     id="path2"
     inkscape:connector-curvature="0"
     style="stroke-width:1.60000002" />
  <circle
     cx="400"
     cy="192"
     r="112"
     id="circle4"
     style="stroke-width:1.60000002" />
  <path
     d="m 208,512 c 44.16,0 80,35.84 80,80 0,37.44 -25.76,68.96 -60.48,77.6 31.2,20 66.24,34.72 103.52,42.88 C 324,700.64 320,686.72 320,672 c 0,-44.16 35.84,-80 80,-80 44.16,0 80,35.84 80,80 0,14.72 -4,28.64 -11.04,40.48 C 506.4,704.32 541.28,689.6 572.48,669.6 537.76,660.96 512,629.44 512,592 c 0,-44.16 35.84,-80 80,-80 37.44,0 68.96,25.76 77.6,60.48 C 701.44,522.72 720,463.52 720,400 720,262.08 632.8,144.48 510.4,99.52 531.36,124.48 544,156.8 544,192 544,271.52 479.52,336 400,336 320.48,336 256,271.52 256,192 256,156.8 268.64,124.64 289.6,99.52 167.2,144.48 80,262.08 80,400 80,463.52 98.56,522.72 130.4,572.48 139.04,537.76 170.56,512 208,512 Z"
     id="path6"
     inkscape:connector-curvature="0"
     style="stroke-width:1.60000002" />
</svg>
