<?xml version="1.0" encoding="UTF-8" standalone="no"?>
<!-- Created with Inkscape (http://www.inkscape.org/) -->

<svg
   xmlns:dc="http://purl.org/dc/elements/1.1/"
   xmlns:cc="http://creativecommons.org/ns#"
   xmlns:rdf="http://www.w3.org/1999/02/22-rdf-syntax-ns#"
   xmlns:svg="http://www.w3.org/2000/svg"
   xmlns="http://www.w3.org/2000/svg"
   xmlns:sodipodi="http://sodipodi.sourceforge.net/DTD/sodipodi-0.dtd"
   xmlns:inkscape="http://www.inkscape.org/namespaces/inkscape"
   width="615.44598"
   height="800"
   viewBox="0 0 162.83675 211.66667"
   version="1.1"
   id="svg8"
   inkscape:version="0.92.3 (2405546, 2018-03-11)"
   sodipodi:docname="Fire Dragons [Aeldari, Eldar, Asuryani, Craftworlds, Aspect Warriors].svg">
  <defs
     id="defs2" />
  <sodipodi:namedview
     id="base"
     pagecolor="#ffffff"
     bordercolor="#666666"
     borderopacity="1.0"
     inkscape:pageopacity="0.0"
     inkscape:pageshadow="2"
     inkscape:zoom="0.5"
     inkscape:cx="299.10739"
     inkscape:cy="714.44637"
     inkscape:document-units="px"
     inkscape:current-layer="layer1"
     showgrid="false"
     inkscape:pagecheckerboard="true"
     units="px"
     inkscape:window-width="1920"
     inkscape:window-height="1017"
     inkscape:window-x="-8"
     inkscape:window-y="-8"
     inkscape:window-maximized="1"
     fit-margin-top="0"
     fit-margin-left="0"
     fit-margin-right="0"
     fit-margin-bottom="0" />
  <metadata
     id="metadata5">
    <rdf:RDF>
      <cc:Work
         rdf:about="">
        <dc:format>image/svg+xml</dc:format>
        <dc:type
           rdf:resource="http://purl.org/dc/dcmitype/StillImage" />
        <dc:title></dc:title>
      </cc:Work>
    </rdf:RDF>
  </metadata>
  <g
     inkscape:label="Layer 1"
     inkscape:groupmode="layer"
     id="layer1"
     transform="translate(-74.924005,-7.060149)">
    <path
       style="fill:#000000;fill-opacity:1;stroke:none;stroke-width:0.68558282px;stroke-linecap:butt;stroke-linejoin:miter;stroke-opacity:1"
       d="M 74.924005,7.060149 A 81.79323,81.79323 0 0 0 118.56663,72.489146 L 87.784134,125.80629 h 60.220546 v 14.29762 16.67589 h 16.67589 43.54417 v 14.29763 H 104.46002 87.784134 v 16.67588 14.29763 16.67588 H 224.90063 V 202.05094 H 104.46002 v -14.29763 h 120.44061 v -16.67588 -30.97352 h -60.22006 v -14.29762 h 60.22006 L 194.10877,72.473392 A 81.79323,81.79323 0 0 0 237.76076,7.060149 H 216.30522 A 60.299147,57.13544 0 0 1 185.16138,56.976546 L 156.34213,7.060149 127.35847,57.261091 A 60.299147,57.13544 0 0 1 95.855254,11.060018 60.299147,57.13544 0 0 1 95.770564,7.060149 Z m 81.418125,38.203795 10.39129,17.998181 9.33386,16.166363 15.87739,27.500392 h -71.20408 l 15.91481,-27.565865 3.24912,-5.627879 5.98183,-10.360767 z"
       id="path826"
       inkscape:connector-curvature="0" />
  </g>
</svg>
