<?xml version="1.0" encoding="UTF-8" standalone="no"?>
<svg
   xmlns:dc="http://purl.org/dc/elements/1.1/"
   xmlns:cc="http://creativecommons.org/ns#"
   xmlns:rdf="http://www.w3.org/1999/02/22-rdf-syntax-ns#"
   xmlns:svg="http://www.w3.org/2000/svg"
   xmlns="http://www.w3.org/2000/svg"
   xmlns:sodipodi="http://sodipodi.sourceforge.net/DTD/sodipodi-0.dtd"
   xmlns:inkscape="http://www.inkscape.org/namespaces/inkscape"
   version="1.1"
   id="图层_1"
   x="0px"
   y="0px"
   viewBox="0 0 800 800"
   sodipodi:docname="Fi’rios [T'au'va, Greater Good, T'au Empire, Sept].svg"
   width="800"
   height="800"
   inkscape:version="0.92.3 (2405546, 2018-03-11)">
  <metadata
     id="metadata19">
    <rdf:RDF>
      <cc:Work
         rdf:about="">
        <dc:format>image/svg+xml</dc:format>
        <dc:type
           rdf:resource="http://purl.org/dc/dcmitype/StillImage" />
        <dc:title></dc:title>
      </cc:Work>
    </rdf:RDF>
  </metadata>
  <defs
     id="defs17" />
  <sodipodi:namedview
     pagecolor="#ffffff"
     bordercolor="#666666"
     borderopacity="1"
     objecttolerance="10"
     gridtolerance="10"
     guidetolerance="10"
     inkscape:pageopacity="0"
     inkscape:pageshadow="2"
     inkscape:window-width="1920"
     inkscape:window-height="1017"
     id="namedview15"
     showgrid="false"
     fit-margin-top="0"
     fit-margin-left="0"
     fit-margin-right="0"
     fit-margin-bottom="0"
     inkscape:pagecheckerboard="true"
     inkscape:zoom="0.472"
     inkscape:cx="-13.771186"
     inkscape:cy="250"
     inkscape:window-x="-8"
     inkscape:window-y="-8"
     inkscape:window-maximized="1"
     inkscape:current-layer="图层_1" />
  <g
     id="g12"
     transform="scale(1.6)">
    <path
       d="M 250,0 C 111.9,0 0,111.9 0,250 0,388.1 111.9,500 250,500 388.1,500 500,388.1 500,250 500,111.9 388.1,0 250,0 Z m 0,485 C 120.2,485 15,379.8 15,250 15,120.2 120.2,15 250,15 379.8,15 485,120.2 485,250 485,379.8 379.8,485 250,485 Z"
       id="path2"
       inkscape:connector-curvature="0" />
    <circle
       transform="matrix(0.7071,-0.7071,0.7071,0.7071,-42.983,171.0632)"
       cx="185"
       cy="137.39999"
       id="ellipse4"
       r="70" />
    <path
       d="m 448.8,227.6 -33.2,19.2 -25,-43.3 -251.1,145 25,43.3 -33.3,19.2 c 12.5,9.2 26,16.9 40.2,23 L 448.6,274 c 1.8,-15.4 1.9,-30.9 0.2,-46.4 z"
       id="path6"
       inkscape:connector-curvature="0" />
    <path
       d="m 215.9,52.9 c 19.1,7 36.1,20.5 47.1,39.6 24.9,43 10.1,98.1 -32.9,122.9 -43,24.8 -98.1,10.1 -122.9,-32.9 C 96.2,163.4 93,142.1 96.5,121.9 44.1,184.4 33.7,275.3 76.8,350 L 423.2,150 C 380.1,75.3 296.2,38.9 215.9,52.9 Z"
       id="path8"
       inkscape:connector-curvature="0" />
    <path
       d="m 350,423.2 c 39,-22.5 67.6,-56.2 84,-94.7 L 226,448.6 c 41.5,5 85,-2.9 124,-25.4 z"
       id="path10"
       inkscape:connector-curvature="0" />
  </g>
</svg>
