<?xml version="1.0" encoding="UTF-8" standalone="no"?>
<svg
   xmlns:dc="http://purl.org/dc/elements/1.1/"
   xmlns:cc="http://creativecommons.org/ns#"
   xmlns:rdf="http://www.w3.org/1999/02/22-rdf-syntax-ns#"
   xmlns:svg="http://www.w3.org/2000/svg"
   xmlns="http://www.w3.org/2000/svg"
   xmlns:sodipodi="http://sodipodi.sourceforge.net/DTD/sodipodi-0.dtd"
   xmlns:inkscape="http://www.inkscape.org/namespaces/inkscape"
   version="1.1"
   id="图层_1"
   x="0px"
   y="0px"
   viewBox="0 0 400 400"
   sodipodi:docname="Flyer [Battlefield Role].svg"
   width="400"
   height="400"
   inkscape:version="0.92.3 (2405546, 2018-03-11)">
  <metadata
     id="metadata15">
    <rdf:RDF>
      <cc:Work
         rdf:about="">
        <dc:format>image/svg+xml</dc:format>
        <dc:type
           rdf:resource="http://purl.org/dc/dcmitype/StillImage" />
        <dc:title></dc:title>
      </cc:Work>
    </rdf:RDF>
  </metadata>
  <defs
     id="defs13" />
  <sodipodi:namedview
     pagecolor="#ffffff"
     bordercolor="#666666"
     borderopacity="1"
     objecttolerance="10"
     gridtolerance="10"
     guidetolerance="10"
     inkscape:pageopacity="0"
     inkscape:pageshadow="2"
     inkscape:window-width="1920"
     inkscape:window-height="1017"
     id="namedview11"
     showgrid="false"
     fit-margin-top="0"
     fit-margin-left="0"
     fit-margin-right="0"
     fit-margin-bottom="0"
     inkscape:pagecheckerboard="true"
     inkscape:zoom="0.472"
     inkscape:cx="-13.771186"
     inkscape:cy="250"
     inkscape:window-x="-8"
     inkscape:window-y="-8"
     inkscape:window-maximized="1"
     inkscape:current-layer="图层_1" />
  <style
     type="text/css"
     id="style2">
	.st0{fill:none;}
	.st1{fill:#FFFFFF;}
</style>
  <path
     d="M 282.8,0 H 117.2 L 0,117.2 V 282.88 L 117.2,400 H 282.88 L 400,282.8 V 117.2 Z M 156.88,305.76 c -0.56,-0.64 -0.96,-1.12 -1.36,-1.6 -5.84,-6.88 -13.44,-7.84 -20.24,-2.56 -2.16,1.68 -4.16,3.76 -6.08,5.84 -2.32,2.48 -4.56,5.12 -6.8,7.6 -6.8,7.44 -14.56,11.12 -23.76,10.56 -8.24,-0.48 -16.16,-1.92 -23.36,-7.2 -1.36,-0.96 -2.64,-2.16 -4.24,-3.52 2.56,-0.88 4.8,-1.44 6.96,-2.4 5.52,-2.56 11.12,-5.12 16.64,-7.92 2.08,-1.04 4.08,-2.8 5.92,-4.4 1.2,-1.04 2.32,-2.32 3.12,-3.76 0.64,-1.2 1.04,-2.96 0.88,-4.32 -0.08,-0.64 -1.84,-1.28 -2.88,-1.36 -4.88,-0.48 -9.84,-0.56 -14.64,-1.36 -13.6,-2.32 -23.92,-10.72 -30.08,-26.16 -0.16,-0.48 -0.32,-0.96 -0.48,-1.44 -0.08,-0.16 -0.08,-0.32 0.32,-0.56 0.48,0 1.04,0 1.52,0 10.8,0.8 21.52,0.72 32.16,-1.52 2.16,-0.48 4.32,-1.36 6.48,-2.16 0.56,-0.24 1.2,-0.64 1.52,-1.12 0.4,-0.56 0.72,-1.52 0.64,-2.16 0,-0.4 -0.96,-0.8 -1.52,-0.8 -3.76,-0.32 -7.52,0 -11.2,-0.72 -8,-1.6 -14.56,-6.88 -20.56,-13.36 -6.56,-7.2 -11.84,-15.68 -16.56,-24.72 0,-0.16 -0.08,-0.32 -0.16,-0.72 0.72,0.4 1.28,0.64 1.84,0.88 8.96,4.48 18.16,8.16 27.84,9.44 3.36,0.4 6.8,0 10.24,0 0.16,0 0.32,0 0.48,-0.08 1.12,-0.88 2.16,-1.76 3.28,-2.56 -0.8,-1.04 -1.52,-2.4 -2.48,-3.12 -5.52,-4.32 -11.2,-8.24 -16.48,-12.88 -8.08,-7.12 -14.4,-16.16 -17.68,-28 -1.76,-6.08 -2.4,-12.4 -2.08,-19.28 0.64,0.64 1.12,1.04 1.52,1.44 7.76,8.32 15.92,16.08 24.88,22.48 2.96,2.08 6.16,3.76 9.28,5.44 1.12,0.64 2.64,1.36 3.52,-0.32 0.8,-1.52 -0.32,-2.88 -1.12,-4 -12.48,-18.24 -17.44,-40 -19.44,-63.12 -0.72,-8.32 -0.88,-16.72 -1.2,-25.12 -0.08,-0.72 0,-1.44 0.32,-2.24 0.16,0.56 0.4,1.2 0.64,1.76 6.32,17.44 13.76,34.08 23.12,49.28 13.6,21.92 30.96,37.68 52,47.28 3.2,1.44 6.4,3.28 9.6,4.96 0.96,0.48 1.84,1.2 2.8,1.84 7.2,5.44 8.96,16.24 3.68,24.4 -1.68,2.56 -3.84,4.64 -6,6.8 -2.16,2.16 -4.56,4 -6.72,6.16 -6.96,6.8 -8.72,15.84 -6.72,26 1.92,9.92 7.68,14.88 15.36,17.04 1.68,0.48 3.44,0.72 5.28,1.04 -2.64,8.64 -5.28,17.36 -8,26.32 z m 62.16,9.36 -16.96,39.28 -16.88,-39.36 11.84,-14.88 -1.76,-32.48 h -6.88 l -10.48,9.6 -15.6,-14.4 15.68,-14.32 10.4,9.6 h 6.4 l -9.12,-170.8 17.12,-60.24 16.8,60.32 -9.84,170.8 h 6.32 l 10.48,-9.6 15.6,14.4 -15.6,14.32 -10.48,-9.68 h -6.88 l -1.84,32.56 z M 355.36,214.56 c -4.72,9.04 -10,17.52 -16.56,24.72 -6,6.48 -12.56,11.76 -20.56,13.36 -3.68,0.72 -7.44,0.48 -11.2,0.72 -0.56,0 -1.52,0.4 -1.52,0.8 -0.08,0.64 0.24,1.6 0.64,2.16 0.32,0.56 0.96,0.96 1.52,1.12 2.16,0.8 4.32,1.68 6.48,2.16 10.72,2.16 21.36,2.24 32.16,1.52 0.48,0 1.04,0 1.52,0 0,0.24 0,0.4 0.32,0.56 -0.16,0.48 -0.32,0.96 -0.48,1.44 -6.16,15.44 -16.48,23.84 -30.08,26.16 -4.88,0.8 -9.76,0.88 -14.64,1.36 -1.04,0.16 -2.8,0.72 -2.88,1.36 -0.24,1.36 0.24,3.12 0.88,4.32 0.8,1.52 1.92,2.72 3.12,3.76 1.92,1.6 3.84,3.36 5.92,4.4 5.52,2.88 11.04,5.44 16.64,7.92 2.08,0.96 4.32,1.52 6.96,2.4 -1.6,1.36 -2.88,2.56 -4.24,3.52 -7.2,5.28 -15.2,6.72 -23.36,7.2 -9.2,0.56 -17.04,-3.12 -23.76,-10.56 -2.32,-2.48 -4.48,-5.12 -6.8,-7.6 -1.92,-2 -3.92,-4.16 -6.08,-5.84 -6.8,-5.28 -14.4,-4.24 -20.24,2.56 -0.4,0.48 -0.8,0.96 -1.36,1.6 -2.72,-8.88 -5.36,-17.6 -8,-26.32 1.92,-0.4 3.6,-0.56 5.28,-1.04 7.68,-2.24 13.44,-7.2 15.36,-17.04 2,-10.24 0.24,-19.2 -6.72,-26 -2.16,-2.16 -4.56,-4 -6.72,-6.16 -2.08,-2.16 -4.32,-4.16 -6,-6.8 -5.2,-8.16 -3.52,-18.96 3.68,-24.4 0.88,-0.64 1.84,-1.36 2.8,-1.84 3.12,-1.68 6.32,-3.44 9.6,-4.96 21.04,-9.6 38.4,-25.36 52,-47.28 9.36,-15.2 16.8,-31.84 23.12,-49.28 0.16,-0.56 0.4,-1.2 0.64,-1.76 0.32,0.8 0.32,1.52 0.32,2.24 -0.4,8.4 -0.48,16.8 -1.2,25.12 -2,23.12 -6.96,44.88 -19.44,63.12 -0.8,1.12 -1.92,2.48 -1.12,4 0.88,1.6 2.4,0.88 3.52,0.32 3.12,-1.68 6.32,-3.36 9.28,-5.44 8.96,-6.4 17.04,-14.16 24.88,-22.48 0.48,-0.4 0.88,-0.8 1.52,-1.44 0.32,6.88 -0.4,13.2 -2.08,19.28 -3.28,11.76 -9.52,20.88 -17.68,28 -5.36,4.64 -11.04,8.56 -16.48,12.88 -0.96,0.8 -1.68,2.08 -2.48,3.12 1.12,0.88 2.16,1.76 3.28,2.56 0.16,0.08 0.32,0.08 0.48,0.08 3.44,0 6.88,0.4 10.24,0 9.68,-1.28 18.88,-4.96 27.84,-9.44 0.48,-0.32 1.12,-0.56 1.84,-0.88 -0.08,0.4 -0.08,0.56 -0.16,0.72 z"
     id="path8"
     inkscape:connector-curvature="0"
     style="stroke-width:0.80000001" />
</svg>
