<?xml version="1.0" encoding="UTF-8" standalone="no"?>
<svg
   xmlns:dc="http://purl.org/dc/elements/1.1/"
   xmlns:cc="http://creativecommons.org/ns#"
   xmlns:rdf="http://www.w3.org/1999/02/22-rdf-syntax-ns#"
   xmlns:svg="http://www.w3.org/2000/svg"
   xmlns="http://www.w3.org/2000/svg"
   xmlns:sodipodi="http://sodipodi.sourceforge.net/DTD/sodipodi-0.dtd"
   xmlns:inkscape="http://www.inkscape.org/namespaces/inkscape"
   version="1.1"
   id="图层_1"
   x="0px"
   y="0px"
   viewBox="0 0 400 400"
   sodipodi:docname="Fortification [Battlefield Role].svg"
   width="400"
   height="400"
   inkscape:version="0.92.3 (2405546, 2018-03-11)">
  <metadata
     id="metadata17">
    <rdf:RDF>
      <cc:Work
         rdf:about="">
        <dc:format>image/svg+xml</dc:format>
        <dc:type
           rdf:resource="http://purl.org/dc/dcmitype/StillImage" />
        <dc:title></dc:title>
      </cc:Work>
    </rdf:RDF>
  </metadata>
  <defs
     id="defs15" />
  <sodipodi:namedview
     pagecolor="#ffffff"
     bordercolor="#666666"
     borderopacity="1"
     objecttolerance="10"
     gridtolerance="10"
     guidetolerance="10"
     inkscape:pageopacity="0"
     inkscape:pageshadow="2"
     inkscape:window-width="1920"
     inkscape:window-height="1017"
     id="namedview13"
     showgrid="false"
     fit-margin-top="0"
     fit-margin-left="0"
     fit-margin-right="0"
     fit-margin-bottom="0"
     inkscape:pagecheckerboard="true"
     inkscape:zoom="0.472"
     inkscape:cx="-13.771186"
     inkscape:cy="250"
     inkscape:window-x="-8"
     inkscape:window-y="-8"
     inkscape:window-maximized="1"
     inkscape:current-layer="图层_1" />
  <style
     type="text/css"
     id="style2">
	.st0{fill:none;}
	.st1{fill:#FFFFFF;}
</style>
  <path
     d="M 282.8,0 H 117.2 L 0,117.2 V 282.88 L 117.2,400 H 282.88 L 400,282.8 V 117.2 Z m 48.4,291.44 c -0.16,3.92 -0.24,11.2 -0.24,16.16 v 8.96 l -38.08,0.16 c -20.96,0.08 -44.24,0.24 -51.68,0.32 -7.44,0.08 -13.68,0.08 -13.84,0 -0.08,0 -3.12,-0.08 -8.16,-0.16 v -44.64 l -12.56,-18.16 h -16.88 l -12.56,18.16 v 44.4 c -22.16,-0.08 -24.08,-0.08 -24.4,0.24 -0.4,0.32 -0.48,0.32 -0.56,-0.08 l -0.16,-0.4 H 108.8 65.28 v -19.68 -19.68 h 7.6 7.52 l 2.08,-1.2 c 10.8,-6.48 19.28,-14.16 21.76,-19.68 0.48,-1.04 0.48,-1.2 0.24,-11.84 -0.4,-19.28 -0.72,-31.92 -0.96,-45.76 -0.32,-16 -0.4,-17.76 -0.88,-17.76 -0.24,0 -0.32,-0.08 -0.32,-0.24 0,-0.16 -1.28,-0.24 -3.28,-0.24 -1.84,0 -3.28,-0.08 -3.28,-0.16 0,-0.08 0.32,-0.8 0.72,-1.68 0.64,-1.2 0.72,-1.6 0.48,-2 -0.32,-0.56 -2.08,-1.36 -4.32,-1.84 l -1.6,-0.32 v -2.24 -2.24 h -4.4 -4.4 V 159.52 149.2 h 2.24 2.24 l 0.16,-10.56 c 0.08,-5.76 0.16,-13.12 0.16,-16.4 v -5.92 l 4.8,-0.16 c 2.64,-0.08 6.48,-0.16 8.64,-0.16 h 3.84 v 4.88 c 0,4.72 0,4.88 0.48,4.88 0.48,0 0.48,-0.16 0.48,-11.52 v -11.6 L 102,99.2 C 99.84,96.96 98.56,95.76 98.24,95.76 L 97.68,95.68 V 85.36 c 0,-5.68 0.08,-10.32 0.16,-10.32 0.08,0 0.64,0.64 1.28,1.36 l 1.12,1.36 h 4.96 4.96 v 3.92 3.92 l 1.12,0.16 c 0.64,0.08 1.92,0.16 2.96,0.16 h 1.84 v -4.08 -4.08 l 2.64,-0.16 c 1.44,-0.08 5.04,-0.08 7.92,-0.08 l 5.28,0.08 0.08,4 0.08,4 h 2.48 2.48 v -3.92 -3.92 h 6.32 6.4 v 7.84 7.84 l 1.12,0.08 1.12,0.08 -1.52,1.6 c -0.88,0.88 -2.72,2.88 -4.08,4.32 l -2.56,2.72 0.08,11.76 c 0.08,9.68 0.16,11.76 0.4,11.76 0.48,0 0.64,-1.36 0.64,-5.68 v -3.84 h 5.36 c 2.96,0 6.88,-0.08 8.64,-0.16 l 3.28,-0.16 v 2.64 c 0,1.44 0.08,3.6 0.16,4.88 l 0.16,2.24 4.56,0.08 h 4.56 V 103.28 80.8 L 167.52,78 c -2.32,-1.6 -4.4,-2.88 -4.64,-2.96 -0.4,-0.08 -0.4,-0.64 -0.4,-8.8 v 0 -8.72 l 0.96,0.4 c 0.88,0.4 1.36,0.4 8.48,0.4 h 7.52 v 2.4 c 0,1.36 0.08,3.04 0.16,3.76 l 0.16,1.36 h 4.08 4.08 v -3.76 -3.76 l 10,0.08 10,0.08 0.16,3.12 c 0.08,1.76 0.16,3.44 0.16,3.84 v 0.64 h 4 4.08 l 0.16,-2.64 c 0.08,-1.44 0.16,-3.12 0.16,-3.76 v -1.2 h 2.88 c 1.6,0 5.36,-0.08 8.24,-0.16 l 5.36,-0.16 v 7.04 7.04 l 1.44,0.08 1.52,0.08 -1.52,0.96 c -0.8,0.56 -1.44,1.12 -1.44,1.28 0,0.16 -0.16,0.32 -0.4,0.32 -0.24,0 -2.4,1.36 -4.72,2.96 l -4.32,2.96 v 22.16 22.16 h 3.44 c 1.84,0 3.84,-0.08 4.48,-0.16 l 1.12,-0.16 0.08,-4.72 0.08,-4.72 8.8,-0.08 8.8,-0.08 v 4.88 c 0,4.72 0,4.88 0.48,4.88 0.48,0 0.48,-0.16 0.48,-11.68 v -11.68 l -3.2,-3.36 c -1.76,-1.84 -3.36,-3.36 -3.52,-3.36 -0.32,0 -0.32,-1.28 -0.32,-8.8 v -8.72 l 0.8,-0.32 c 0.64,-0.32 1.44,-0.32 6.16,-0.32 l 5.44,0.08 0.08,4 0.08,4 H 258 c 0.56,0 1.84,0.08 2.8,0.16 l 1.84,0.16 v -2.96 c 0,-1.6 0.08,-3.52 0.16,-4.24 l 0.16,-1.2 h 7.84 7.92 v 1.44 c 0,0.8 0.08,2.64 0.16,4.08 l 0.16,2.64 h 2.48 2.4 V 80.8 76.72 l 6.32,0.08 6.32,0.08 0.08,7.68 0.08,7.68 0.88,0.08 0.88,0.08 -0.88,0.88 c -0.48,0.48 -0.88,1.12 -0.88,1.36 0,0.32 -0.16,0.48 -0.48,0.48 -0.32,0 -1.44,1.04 -3.28,2.96 l -2.8,3.04 v 11.92 11.92 h 0.72 0.72 l -0.16,-4.64 -0.16,-4.64 6.08,0.08 c 3.36,0.08 7.6,0.16 9.44,0.24 l 3.36,0.16 v 9.6 c 0,6.24 0.08,9.6 0.24,9.6 0.16,0 0.24,2.48 0.24,7.04 v 7.04 h 1.68 1.68 l -0.08,10.32 -0.08,10.32 -4.16,0.08 -4.16,0.08 -0.08,2.08 -0.08,2.08 -1.28,0.4 c -2.88,0.88 -3.84,1.28 -4,1.6 -0.32,0.56 -0.32,1.84 0.16,2.96 0.24,0.56 0.4,1.04 0.4,1.12 0,0.08 -1.84,0.16 -4,0.16 h -4 v 3.04 c 0,1.68 0.08,7.6 0.24,13.28 0.24,10.24 0.48,21.2 0.96,45.84 l 0.24,12.96 1.44,2 c 4.88,6.96 11.28,13.2 18.8,18.24 l 2,1.36 h 7.68 7.6 v 3.44 c 0,2.16 0.08,3.52 0.24,3.6 -0.48,-0.24 -0.48,2 -0.64,7.04 z"
     id="path10"
     inkscape:connector-curvature="0"
     style="stroke-width:0.80000001" />
</svg>
