<?xml version="1.0" encoding="UTF-8" standalone="no"?>
<!-- Generator: Adobe Illustrator 24.0.1, SVG Export Plug-In . SVG Version: 6.00 Build 0)  -->

<svg
   xmlns:dc="http://purl.org/dc/elements/1.1/"
   xmlns:cc="http://creativecommons.org/ns#"
   xmlns:rdf="http://www.w3.org/1999/02/22-rdf-syntax-ns#"
   xmlns:svg="http://www.w3.org/2000/svg"
   xmlns="http://www.w3.org/2000/svg"
   xmlns:sodipodi="http://sodipodi.sourceforge.net/DTD/sodipodi-0.dtd"
   xmlns:inkscape="http://www.inkscape.org/namespaces/inkscape"
   version="1.1"
   id="Layer_1"
   x="0px"
   y="0px"
   viewBox="0 0 1350.2068 800"
   xml:space="preserve"
   sodipodi:docname="Graia [Imperium, Adeptus Mechanicus, Forge World].svg"
   width="1350.2068"
   height="800"
   inkscape:version="0.92.3 (2405546, 2018-03-11)"><metadata
   id="metadata17"><rdf:RDF><cc:Work
       rdf:about=""><dc:format>image/svg+xml</dc:format><dc:type
         rdf:resource="http://purl.org/dc/dcmitype/StillImage" /><dc:title></dc:title></cc:Work></rdf:RDF></metadata><defs
   id="defs15" /><sodipodi:namedview
   pagecolor="#ffffff"
   bordercolor="#666666"
   borderopacity="1"
   objecttolerance="10"
   gridtolerance="10"
   guidetolerance="10"
   inkscape:pageopacity="0"
   inkscape:pageshadow="2"
   inkscape:window-width="1920"
   inkscape:window-height="1017"
   id="namedview13"
   showgrid="false"
   fit-margin-top="0"
   fit-margin-left="0"
   fit-margin-right="0"
   fit-margin-bottom="0"
   inkscape:pagecheckerboard="true"
   inkscape:zoom="0.236"
   inkscape:cx="-39.892373"
   inkscape:cy="290.48999"
   inkscape:window-x="-8"
   inkscape:window-y="-8"
   inkscape:window-maximized="1"
   inkscape:current-layer="Layer_1" />
<style
   type="text/css"
   id="style2">
	.st0{stroke:#000000;stroke-width:0.5;stroke-miterlimit:10;}
</style>
<g
   id="g10"
   transform="matrix(1.3849695,0,0,1.3849695,-17.104374,-294.80461)">
	<rect
   x="12.6"
   y="729.53003"
   class="st0"
   width="974.40002"
   height="60.709999"
   id="rect4"
   style="stroke:#000000;stroke-width:0.5;stroke-miterlimit:10" />
	<path
   class="st0"
   d="M 493.76,490.19 C 385.88,492.57 296.27,583.95 292.51,694.41 H 704.92 C 700.95,580.49 605.06,487.51 493.76,490.19 Z"
   id="path6"
   inkscape:connector-curvature="0"
   style="stroke:#000000;stroke-width:0.5;stroke-miterlimit:10" />
	<path
   class="st0"
   d="M 492.42,428.37 C 637.6,424.41 763.41,545.22 768.76,694.41 H 987 v -53.05 l -96.44,-15.31 c -4.47,-21.72 -10.63,-42.72 -18.3,-62.91 L 949.3,499 l -56.07,-90.59 -88.55,38.9 c -15.94,-19.17 -33.57,-36.78 -52.61,-52.6 l 35.71,-88.93 -92.33,-53.15 -58.66,75.2 c -22.94,-8.54 -46.8,-14.96 -71.32,-19.06 L 551.95,213.11 H 445.41 l -13.62,96.38 c -23.81,4.2 -46.95,10.53 -69.19,18.81 l -63.16,-76.46 -90.84,55.72 38.2,87.86 c -18.39,15.31 -35.4,32.27 -50.79,50.69 l -89.2,-37.5 -54.63,91.49 76.59,61.77 c -7.51,20.17 -13.47,41.15 -17.7,62.85 l -97.43,16 v 52.95 h 217.2 c 5.1,-143.6 121.75,-261.53 261.58,-265.3 z"
   id="path8"
   inkscape:connector-curvature="0"
   style="stroke:#000000;stroke-width:0.5;stroke-miterlimit:10" />
</g>
</svg>