<?xml version="1.0" encoding="UTF-8" standalone="no"?>
<!-- Created with Inkscape (http://www.inkscape.org/) -->

<svg
   xmlns:dc="http://purl.org/dc/elements/1.1/"
   xmlns:cc="http://creativecommons.org/ns#"
   xmlns:rdf="http://www.w3.org/1999/02/22-rdf-syntax-ns#"
   xmlns:svg="http://www.w3.org/2000/svg"
   xmlns="http://www.w3.org/2000/svg"
   xmlns:sodipodi="http://sodipodi.sourceforge.net/DTD/sodipodi-0.dtd"
   xmlns:inkscape="http://www.inkscape.org/namespaces/inkscape"
   width="770.48486"
   height="800"
   viewBox="0 0 203.85745 211.66667"
   version="1.1"
   id="svg8"
   inkscape:version="0.92.3 (2405546, 2018-03-11)"
   sodipodi:docname="Gretchin [Orkoids, Grotz].svg">
  <defs
     id="defs2" />
  <sodipodi:namedview
     id="base"
     pagecolor="#ffffff"
     bordercolor="#666666"
     borderopacity="1.0"
     inkscape:pageopacity="0.0"
     inkscape:pageshadow="2"
     inkscape:zoom="0.7"
     inkscape:cx="791.21437"
     inkscape:cy="298.86279"
     inkscape:document-units="px"
     inkscape:current-layer="layer1"
     showgrid="false"
     units="px"
     inkscape:window-width="1920"
     inkscape:window-height="1017"
     inkscape:window-x="-8"
     inkscape:window-y="-8"
     inkscape:window-maximized="1"
     fit-margin-top="0"
     fit-margin-left="0"
     fit-margin-right="0"
     fit-margin-bottom="0"
     inkscape:pagecheckerboard="true" />
  <metadata
     id="metadata5">
    <rdf:RDF>
      <cc:Work
         rdf:about="">
        <dc:format>image/svg+xml</dc:format>
        <dc:type
           rdf:resource="http://purl.org/dc/dcmitype/StillImage" />
        <dc:title></dc:title>
      </cc:Work>
    </rdf:RDF>
  </metadata>
  <g
     inkscape:label="Layer 1"
     inkscape:groupmode="layer"
     id="layer1"
     transform="translate(3.0239164,-35.062681)">
    <g
       id="g867"
       transform="matrix(1.0873766,0,0,1.0873766,0.26421944,-21.558367)">
      <path
         id="path826"
         transform="scale(0.26458333)"
         d="M 412.85742,196.80469 400,302.51953 l -107.14258,5.71485 -31.42969,-91.42969 -54.28515,247.14453 62.85742,-10 1.42773,45.71289 17.14454,27.14258 c -1.47995,-26.88522 3.05832,-43.17862 25.71289,-57.14258 2.17697,39.45649 8.10481,77.58648 18.57226,115.71484 6.88726,-30.36253 14.04916,-53.78933 32.85742,-78.57226 l 21.42774,124.28711 88.57226,-242.85742 z m 5.71485,147.14453 12.85546,47.14258 -54.28515,8.57031 z m -150,12.85547 64.28515,25.71484 v 32.85742 l -61.42969,-22.85742 z"
         style="fill:#000000;fill-opacity:1;stroke:none;stroke-width:0.99999994px;stroke-linecap:butt;stroke-linejoin:miter;stroke-opacity:1"
         inkscape:connector-curvature="0" />
      <path
         id="path826-1"
         d="m 167.82147,131.82422 -3.40186,27.97039 -28.34814,1.51205 -8.31578,-24.19077 -14.36294,65.39032 16.63102,-2.64583 0.37776,12.09487 4.53616,7.18147 c -0.39157,-7.11338 0.80918,-11.42434 6.8032,-15.11897 0.57599,10.43953 2.1444,20.52809 4.91391,30.61621 1.82225,-8.03341 3.71717,-14.23175 8.69352,-20.7889 l 5.66943,32.88429 23.43474,-64.25602 z m 1.51205,38.93199 3.40134,12.47315 -14.36295,2.26756 z m -39.6875,3.40135 17.00878,6.80372 v 8.69352 l -16.25327,-6.04769 z"
         style="fill:#000000;fill-opacity:1;stroke:none;stroke-width:0.26458332px;stroke-linecap:butt;stroke-linejoin:miter;stroke-opacity:1"
         inkscape:connector-curvature="0" />
      <path
         id="path826-1-0"
         d="m 51.404804,131.44624 -3.40186,27.97039 -28.34814,1.51205 -8.31578,-24.19077 -14.3629403,65.39032 16.6310203,-2.64583 0.37776,12.09487 4.53616,7.18147 c -0.39157,-7.11338 0.80918,-11.42434 6.8032,-15.11897 0.57599,10.43953 2.1444,20.52809 4.91391,30.61621 1.82225,-8.03341 3.71717,-14.23175 8.69352,-20.7889 l 5.66943,32.88429 23.43474,-64.25602 z m 1.51205,38.93199 3.40134,12.47315 -14.36295,2.26756 z m -39.6875,3.40135 17.00878,6.80372 v 8.69352 l -16.25327,-6.04769 z"
         style="fill:#000000;fill-opacity:1;stroke:none;stroke-width:0.26458332px;stroke-linecap:butt;stroke-linejoin:miter;stroke-opacity:1"
         inkscape:connector-curvature="0" />
    </g>
  </g>
</svg>
