<?xml version="1.0" encoding="UTF-8" standalone="no"?>
<svg
   xmlns:dc="http://purl.org/dc/elements/1.1/"
   xmlns:cc="http://creativecommons.org/ns#"
   xmlns:rdf="http://www.w3.org/1999/02/22-rdf-syntax-ns#"
   xmlns:svg="http://www.w3.org/2000/svg"
   xmlns="http://www.w3.org/2000/svg"
   xmlns:sodipodi="http://sodipodi.sourceforge.net/DTD/sodipodi-0.dtd"
   xmlns:inkscape="http://www.inkscape.org/namespaces/inkscape"
   id="Layer_2"
   data-name="Layer 2"
   viewBox="0 0 694.94952 800"
   version="1.1"
   sodipodi:docname="Guardians of the Covenant [Imperium, Adeptus Astartes, Space Marines, Dark Angels, Chapter].svg"
   width="694.94952"
   height="800"
   inkscape:version="0.92.3 (2405546, 2018-03-11)">
  <metadata
     id="metadata11">
    <rdf:RDF>
      <cc:Work
         rdf:about="">
        <dc:format>image/svg+xml</dc:format>
        <dc:type
           rdf:resource="http://purl.org/dc/dcmitype/StillImage" />
        <dc:title>Artboard 1</dc:title>
      </cc:Work>
    </rdf:RDF>
  </metadata>
  <defs
     id="defs9" />
  <sodipodi:namedview
     pagecolor="#ffffff"
     bordercolor="#666666"
     borderopacity="1"
     objecttolerance="10"
     gridtolerance="10"
     guidetolerance="10"
     inkscape:pageopacity="0"
     inkscape:pageshadow="2"
     inkscape:window-width="1920"
     inkscape:window-height="1017"
     id="namedview7"
     showgrid="false"
     fit-margin-top="0"
     fit-margin-left="0"
     fit-margin-right="0"
     fit-margin-bottom="0"
     inkscape:pagecheckerboard="true"
     inkscape:zoom="0.23838384"
     inkscape:cx="-92.266949"
     inkscape:cy="495"
     inkscape:window-x="-8"
     inkscape:window-y="-8"
     inkscape:window-maximized="1"
     inkscape:current-layer="Layer_2" />
  <title
     id="title2">Artboard 1</title>
  <polygon
     points="715.12,152.55 631.79,246.95 612.64,231.71 606.7,179.38 528.61,188.25 537.48,266.34 589.8,260.4 607.48,274.48 430,475.52 252.52,274.48 270.2,260.4 322.52,266.34 331.39,188.25 253.3,179.38 247.36,231.71 228.21,246.95 144.88,152.55 141.78,81.35 0,0 47.49,156.41 116.18,175.4 189.49,277.77 170.34,293.01 118.02,287.07 109.15,365.17 187.25,374.03 193.19,321.71 210.87,307.63 375.39,537.39 169.99,770.05 71.92,990 264.27,845.11 430,613.66 595.73,845.11 788.09,990 690.01,770.05 484.62,537.39 649.13,307.63 666.82,321.71 672.76,374.03 750.85,365.17 741.98,287.07 689.66,293.01 670.51,277.77 743.82,175.4 812.51,156.41 860,0 718.22,81.35 "
     id="polygon4"
     transform="scale(0.80808081)" />
</svg>
