<?xml version="1.0" encoding="UTF-8" standalone="no"?>
<svg
   xmlns:dc="http://purl.org/dc/elements/1.1/"
   xmlns:cc="http://creativecommons.org/ns#"
   xmlns:rdf="http://www.w3.org/1999/02/22-rdf-syntax-ns#"
   xmlns:svg="http://www.w3.org/2000/svg"
   xmlns="http://www.w3.org/2000/svg"
   xmlns:sodipodi="http://sodipodi.sourceforge.net/DTD/sodipodi-0.dtd"
   xmlns:inkscape="http://www.inkscape.org/namespaces/inkscape"
   version="1.1"
   id="图层_1"
   x="0px"
   y="0px"
   viewBox="0 0 400 400"
   sodipodi:docname="Heavy Support [Battlefield Role].svg"
   width="400"
   height="400"
   inkscape:version="0.92.3 (2405546, 2018-03-11)">
  <metadata
     id="metadata15">
    <rdf:RDF>
      <cc:Work
         rdf:about="">
        <dc:format>image/svg+xml</dc:format>
        <dc:type
           rdf:resource="http://purl.org/dc/dcmitype/StillImage" />
        <dc:title></dc:title>
      </cc:Work>
    </rdf:RDF>
  </metadata>
  <defs
     id="defs13" />
  <sodipodi:namedview
     pagecolor="#ffffff"
     bordercolor="#666666"
     borderopacity="1"
     objecttolerance="10"
     gridtolerance="10"
     guidetolerance="10"
     inkscape:pageopacity="0"
     inkscape:pageshadow="2"
     inkscape:window-width="1920"
     inkscape:window-height="1017"
     id="namedview11"
     showgrid="false"
     fit-margin-top="0"
     fit-margin-left="0"
     fit-margin-right="0"
     fit-margin-bottom="0"
     inkscape:pagecheckerboard="true"
     inkscape:zoom="0.472"
     inkscape:cx="-13.771186"
     inkscape:cy="250"
     inkscape:window-x="-8"
     inkscape:window-y="-8"
     inkscape:window-maximized="1"
     inkscape:current-layer="图层_1" />
  <style
     type="text/css"
     id="style2">
	.st0{fill:none;}
	.st1{fill:#FFFFFF;}
</style>
  <polygon
     class="st0"
     points="-100,250 252.5,-104 605,250 252.5,604 "
     id="polygon4"
     style="fill:none"
     transform="translate(0,-100)" />
  <path
     class="st1"
     d="m 696.4,-21 c 0,0.5 0.4,1 1,1 0.6,0 1,-0.4 1,-1 0,-0.5 -0.4,-1 -1,-1 -0.6,0 -1,0.4 -1,1 z"
     id="path6"
     inkscape:connector-curvature="0"
     style="fill:#ffffff" />
  <path
     d="M 282.8,0 H 117.2 L 0,117.2 V 282.88 L 117.2,400 H 282.88 L 400,282.8 V 117.2 Z m 36.32,245.44 -30.4,35.12 21.36,3.92 -53.6,19.44 0.24,-0.32 -0.24,0.08 v 0.24 h -99.6 -13.44 -7.92 l -57.04,-89.68 47.84,33.12 -35.52,-94.24 49.12,51.36 -7.68,-109.28 57.52,87.76 3.2,-51.36 16.8,45.52 L 237.6,69.84 V 190.8 l 25.84,-35.12 -3.84,44.88 65.12,-68.16 -47.04,130.64 z"
     id="path8"
     inkscape:connector-curvature="0"
     style="stroke-width:0.80000001" />
</svg>
