<?xml version="1.0" encoding="UTF-8" standalone="no"?>
<svg
   xmlns:dc="http://purl.org/dc/elements/1.1/"
   xmlns:cc="http://creativecommons.org/ns#"
   xmlns:rdf="http://www.w3.org/1999/02/22-rdf-syntax-ns#"
   xmlns:svg="http://www.w3.org/2000/svg"
   xmlns="http://www.w3.org/2000/svg"
   xmlns:sodipodi="http://sodipodi.sourceforge.net/DTD/sodipodi-0.dtd"
   xmlns:inkscape="http://www.inkscape.org/namespaces/inkscape"
   version="1.1"
   id="图层_1"
   x="0px"
   y="0px"
   viewBox="0 0 400 400"
   sodipodi:docname="HQ [Battlefield Role].svg"
   width="400"
   height="400"
   inkscape:version="0.92.3 (2405546, 2018-03-11)">
  <metadata
     id="metadata21">
    <rdf:RDF>
      <cc:Work
         rdf:about="">
        <dc:format>image/svg+xml</dc:format>
        <dc:type
           rdf:resource="http://purl.org/dc/dcmitype/StillImage" />
        <dc:title></dc:title>
      </cc:Work>
    </rdf:RDF>
  </metadata>
  <defs
     id="defs19" />
  <sodipodi:namedview
     pagecolor="#ffffff"
     bordercolor="#666666"
     borderopacity="1"
     objecttolerance="10"
     gridtolerance="10"
     guidetolerance="10"
     inkscape:pageopacity="0"
     inkscape:pageshadow="2"
     inkscape:window-width="1920"
     inkscape:window-height="1017"
     id="namedview17"
     showgrid="false"
     inkscape:pagecheckerboard="true"
     fit-margin-top="0"
     fit-margin-left="0"
     fit-margin-right="0"
     fit-margin-bottom="0"
     inkscape:zoom="0.472"
     inkscape:cx="-362.21752"
     inkscape:cy="32.53107"
     inkscape:window-x="-8"
     inkscape:window-y="-8"
     inkscape:window-maximized="1"
     inkscape:current-layer="图层_1" />
  <style
     type="text/css"
     id="style2">
	.st0{fill:none;}
</style>
  <g
     id="g14"
     transform="scale(0.8)">
    <path
       d="m 233.6,298.5 c -6.5,-3.3 -14.6,-6.8 -24.1,-9.7 -11.7,-3.6 -22.3,-5.2 -30.8,-6 -0.4,0 -0.8,0.1 -1.2,0.2 -7.1,2.5 -9.3,6.6 -9.9,7.8 -3.9,8.1 1.2,21.1 14.6,29.4 0.3,0.2 0.7,0.3 1.1,0.4 6.1,0.8 21.3,2.1 36.7,-6.4 6.4,-3.5 11.1,-7.7 14.4,-11.3 1.2,-1.4 0.8,-3.5 -0.8,-4.4 z"
       id="path6"
       inkscape:connector-curvature="0" />
    <path
       d="m 322.7,283.1 c -0.4,-0.2 -0.8,-0.3 -1.2,-0.2 -8.5,0.8 -19.1,2.4 -30.8,6 -9.5,2.8 -17.5,6.3 -24.1,9.7 -1.6,0.8 -2,2.9 -0.8,4.3 3.3,3.5 8,7.8 14.4,11.3 15.3,8.5 30.5,7.2 36.7,6.4 0.4,-0.1 0.7,-0.2 1.1,-0.4 13.5,-8.2 18.6,-21.2 14.6,-29.3 -0.6,-1.2 -2.9,-5.3 -9.9,-7.8 z"
       id="path8"
       inkscape:connector-curvature="0" />
    <path
       d="m 256.1,320.9 c -1.4,-1.3 -3.1,-2.5 -5.2,-3.6 -2.1,1.1 -3.9,2.3 -5.2,3.6 -10.5,10.2 -10.8,24.1 -10.4,31 0,0.9 1.2,1.3 1.8,0.6 1.4,-1.8 3.4,-3.9 6.1,-5.8 2.8,-2 5.6,-3.3 7.7,-4.1 2.1,0.8 4.9,2 7.7,4.1 2.6,1.9 4.7,4 6.1,5.8 0.6,0.7 1.7,0.4 1.8,-0.6 0.4,-6.8 0.2,-20.9 -10.4,-31 z"
       id="path10"
       inkscape:connector-curvature="0" />
    <path
       d="m 353.5,0 h -207 L 0,146.5 V 353.6 L 146.5,500 H 353.6 L 500,353.5 v -207 z m -6.3,273.6 c 25,28.2 -9,73.1 -13.7,76.8 -8.4,6.6 -35,-6.9 -30.8,0.1 3.1,5.3 6.1,45.4 6.1,45.4 h -8.3 l -4,-14 -7.1,-0.1 -1.3,14 h -14.4 l -1.3,-13.4 -4.8,-0.7 -0.7,14 h -11.5 l -0.6,-14.4 h -9.5 l -0.6,14.4 H 233 l -0.7,-14 -4.8,0.7 -1.3,13.4 h -14.4 l -1.3,-14 -7.1,0.1 -4,14 h -8.3 c 0,0 2.9,-40.1 6.1,-45.4 4.2,-7 -22.4,6.6 -30.8,-0.1 -4.7,-3.6 -38.8,-48.5 -13.7,-76.8 6.3,-7 -24.6,-59.3 -8.3,-105.7 19,-54.3 75.4,-62.8 99.7,-63.9 0,0 2,-0.1 5.6,-0.1 h 0.1 c 0,0 0,0 0.1,0 3.5,0 5.6,0.1 5.6,0.1 24.4,1.1 80.7,9.6 99.8,63.9 16.2,46.3 -14.5,98.6 -8.1,105.7 z"
       id="path12"
       inkscape:connector-curvature="0" />
  </g>
</svg>
