<?xml version="1.0" encoding="UTF-8" standalone="no"?>
<!-- Generator: Adobe Illustrator 22.1.0, SVG Export Plug-In . SVG Version: 6.00 Build 0)  -->

<svg
   xmlns:dc="http://purl.org/dc/elements/1.1/"
   xmlns:cc="http://creativecommons.org/ns#"
   xmlns:rdf="http://www.w3.org/1999/02/22-rdf-syntax-ns#"
   xmlns:svg="http://www.w3.org/2000/svg"
   xmlns="http://www.w3.org/2000/svg"
   xmlns:sodipodi="http://sodipodi.sourceforge.net/DTD/sodipodi-0.dtd"
   xmlns:inkscape="http://www.inkscape.org/namespaces/inkscape"
   version="1.1"
   x="0px"
   y="0px"
   viewBox="0 0 762.09662 800"
   xml:space="preserve"
   id="svg10"
   sodipodi:docname="lyanden [Aeldari, Eldar, Asuryani, Craftworlds].svg"
   width="762.09662"
   height="800"
   inkscape:version="0.92.3 (2405546, 2018-03-11)"><metadata
   id="metadata16"><rdf:RDF><cc:Work
       rdf:about=""><dc:format>image/svg+xml</dc:format><dc:type
         rdf:resource="http://purl.org/dc/dcmitype/StillImage" /><dc:title></dc:title></cc:Work></rdf:RDF></metadata><defs
   id="defs14" /><sodipodi:namedview
   pagecolor="#ffffff"
   bordercolor="#666666"
   borderopacity="1"
   objecttolerance="10"
   gridtolerance="10"
   guidetolerance="10"
   inkscape:pageopacity="0"
   inkscape:pageshadow="2"
   inkscape:window-width="1920"
   inkscape:window-height="1017"
   id="namedview12"
   showgrid="false"
   fit-margin-top="0"
   fit-margin-left="0"
   fit-margin-right="0"
   fit-margin-bottom="0"
   inkscape:pagecheckerboard="true"
   inkscape:zoom="0.236"
   inkscape:cx="-70.542373"
   inkscape:cy="494.99999"
   inkscape:window-x="-8"
   inkscape:window-y="-8"
   inkscape:window-maximized="1"
   inkscape:current-layer="svg10" />
<g
   id="Layer_2"
   transform="matrix(0.82219938,0,0,0.82219938,-35.354573,-18.088386)">
</g>
<g
   id="Layer_3"
   transform="matrix(0.82219938,0,0,0.82219938,-35.354573,-18.088386)">
	<g
   id="g7">
		<path
   d="m 525.3,483.3 c -4.2,-54.5 25.2,-88.1 25.2,-88.1 0,0 -180.3,79.7 -180.3,197.1 0,125.8 92.3,125.8 92.3,243.2 0,71.3 -117.4,125.8 -117.4,125.8 0,0 71.1,33.7 129.9,33.7 58.8,0 213.9,-58.7 201.3,-201.3 -12.6,-142.6 -151,-268.4 -151,-310.4 z"
   id="path3"
   inkscape:connector-curvature="0" />
		<path
   d="M 969.8,22 H 43 v 138.4 c 105.9,-8.7 212.3,-14.3 319.1,-17 l -0.4,0.2 c -10.5,36.6 -21.5,73.9 -33.1,111.7 -56,-3.5 -112,-8.6 -168.2,-15.3 V 344.8 H 300.6 C 236.7,544.7 158,761.1 64,995 H 231.8 L 410.4,345 h 188 L 777,995 H 944.8 C 850.7,761.1 772.1,544.7 708.1,345 H 852.5 V 240.1 c -57.3,7.1 -114.7,12.3 -172.2,15.8 -11.6,-38 -22.7,-75.5 -33.3,-112.3 l -0.4,-0.3 c 107.3,2.7 215.1,8.3 323.3,17 V 22 Z M 433.7,260 466.2,141.7 c 25.4,-0.2 50.8,-0.2 76.3,0 L 575,260.2 c -47,1.1 -94.1,1 -141.3,-0.2 z"
   id="path5"
   inkscape:connector-curvature="0" />
	</g>
</g>
</svg>