<?xml version="1.0" encoding="UTF-8" standalone="no"?>
<!-- Created with Inkscape (http://www.inkscape.org/) -->

<svg
   xmlns:dc="http://purl.org/dc/elements/1.1/"
   xmlns:cc="http://creativecommons.org/ns#"
   xmlns:rdf="http://www.w3.org/1999/02/22-rdf-syntax-ns#"
   xmlns:svg="http://www.w3.org/2000/svg"
   xmlns="http://www.w3.org/2000/svg"
   xmlns:sodipodi="http://sodipodi.sourceforge.net/DTD/sodipodi-0.dtd"
   xmlns:inkscape="http://www.inkscape.org/namespaces/inkscape"
   width="863.0296"
   height="799.99982"
   viewBox="0 0 228.34325 211.66663"
   version="1.1"
   id="svg8"
   sodipodi:docname="Kabal of the Black Heart [Aeldari, Drukhari, Dark Eldar, Kabal].svg"
   inkscape:version="0.92.3 (2405546, 2018-03-11)">
  <defs
     id="defs2" />
  <sodipodi:namedview
     id="base"
     pagecolor="#ffffff"
     bordercolor="#666666"
     borderopacity="1.0"
     inkscape:pageopacity="0.0"
     inkscape:pageshadow="2"
     inkscape:zoom="0.98994949"
     inkscape:cx="675.72838"
     inkscape:cy="658.99802"
     inkscape:document-units="px"
     inkscape:current-layer="layer1"
     showgrid="false"
     inkscape:window-width="1920"
     inkscape:window-height="1017"
     inkscape:window-x="-8"
     inkscape:window-y="-8"
     inkscape:window-maximized="1"
     fit-margin-top="0"
     fit-margin-left="0"
     fit-margin-right="0"
     fit-margin-bottom="0"
     inkscape:pagecheckerboard="true"
     units="px" />
  <metadata
     id="metadata5">
    <rdf:RDF>
      <cc:Work
         rdf:about="">
        <dc:format>image/svg+xml</dc:format>
        <dc:type
           rdf:resource="http://purl.org/dc/dcmitype/StillImage" />
        <dc:title></dc:title>
      </cc:Work>
    </rdf:RDF>
  </metadata>
  <g
     inkscape:label="Layer 1"
     inkscape:groupmode="layer"
     id="layer1"
     transform="translate(15.650017,-40.376854)">
    <path
       style="fill:#000000;fill-opacity:1;stroke:#000000;stroke-width:0.45531839px;stroke-linecap:butt;stroke-linejoin:miter;stroke-opacity:1"
       d="m 138.12037,48.575158 c -8.92136,-0.0369 -14.14949,6.323642 -22.70811,13.915668 -9.47032,8.400745 -16.969507,17.142917 -16.969507,17.142917 0,0 -1.721924,-1.882904 -4.551418,-4.843094 C 91.061841,71.830453 87.125196,67.793555 82.695126,63.486836 78.403478,59.31468 74.256222,55.833917 70.081401,52.849105 65.992485,49.925713 63.542716,48.646177 59.253349,48.672091 c -3.304714,0.01995 -5.052208,1.327544 -7.221955,3.801729 -2.16975,2.474182 -4.762154,5.2041 -6.536312,7.627472 -3.548316,4.846751 -6.267429,10.157386 -8.783553,15.120667 -5.03225,9.926558 -9.784426,19.151561 -10.306923,39.374371 -0.08378,3.24319 1.334736,5.88994 2.819958,8.65372 1.485215,2.76377 3.037293,5.64407 4.846651,8.37715 1.809359,2.73306 3.432072,5.5177 5.108991,8.27932 1.676921,2.76161 3.407894,5.50019 5.43448,8.14237 4.313238,5.62346 8.429356,11.07289 12.240239,16.66359 0.119724,-0.23575 0.234421,-0.47434 0.354825,-0.70966 1.00388,-1.96206 2.03867,-3.91018 3.162329,-5.80619 1.138312,-1.92072 2.527594,-3.68855 3.622096,-5.63456 0.815112,-1.44928 2.174983,-2.82198 2.184101,-4.48472 0.0028,-0.4029 -0.264443,-0.77859 -0.517573,-1.09206 -0.652597,-0.80816 -1.608452,-1.31986 -2.472235,-1.89686 -1.43501,-0.95859 -3.00691,-1.69513 -4.483809,-2.58784 -0.950976,-0.57481 -1.942253,-1.09725 -2.817283,-1.78214 -0.501656,-0.39266 -0.998466,-0.81237 -1.380189,-1.32238 -0.349255,-0.46664 -0.727167,-0.97416 -0.804814,-1.55183 -0.109673,-0.81584 0.299098,-1.62166 0.517572,-2.41531 0.365117,-1.32636 0.790763,-2.64053 1.322382,-3.90934 0.887611,-2.11847 1.998803,-4.13799 3.104518,-6.15125 0.955635,-1.73998 2.02661,-3.41454 3.047616,-5.11699 1.162992,-1.93921 3.506484,-5.80709 3.506484,-5.80709 l -1.264574,-1.32238 c 0,0 -2.065784,-2.41522 -3.162329,-3.5643 -1.440857,-1.50987 -3.057895,-2.84594 -4.484714,-4.36909 -0.947856,-1.01185 -1.929252,-2.01097 -2.701668,-3.16233 -0.864291,-1.28829 -1.560036,-2.695701 -2.127197,-4.139662 -0.647698,-1.648986 -1.138272,-3.370754 -1.437095,-5.116996 -0.149006,-0.87077 -0.172519,-2.644762 -0.172519,-2.644762 0,0 1.267235,1.602949 1.954659,2.357519 1.460172,1.602791 2.978206,3.159761 4.599432,4.599427 1.71431,1.522331 3.525989,2.939654 5.404242,4.254384 1.816717,1.27166 3.508055,2.95125 5.655908,3.50293 1.524548,0.39158 3.164663,0.0231 4.715918,-0.24367 2.062056,-0.35466 4.082023,-0.99096 6.016072,-1.78926 1.109665,-0.45802 3.171227,-1.70744 3.171227,-1.70744 0,0 -1.89937,2.17859 -2.764819,3.33396 -2.469597,3.2969 -4.85484,6.67508 -6.9107,10.24467 -2.510573,4.35909 -5.424374,8.68334 -6.586114,13.57773 -0.431917,1.81969 -0.714124,3.85075 -0.08088,5.61056 0.891763,2.47839 3.019838,4.43038 5.122329,6.01696 2.400966,1.8118 5.274894,3.08973 8.21174,3.73948 6.536412,1.44614 13.469782,1.20309 20.082923,0.16275 5.359214,-0.84309 10.639234,-2.61066 15.447914,-5.12234 4.89103,-2.5547 9.58086,-5.80059 13.25315,-9.91919 3.50807,-3.93439 6.63701,-8.55913 7.96807,-13.65955 0.39014,-1.495 1.12006,-3.66208 -0.081,-4.63411 -2.80361,-2.26912 -5.38059,-2.67708 -8.21174,-3.65944 -3.22302,-1.11836 -6.53865,-2.06774 -9.92005,-2.52026 -1.55829,-0.20854 -3.19125,-0.46791 -4.71503,-0.0809 -5.06982,1.28753 -13.65956,7.72351 -13.65956,7.72351 l 0.324594,-7.56077 c 0,0 32.959966,-21.233218 50.004086,-30.896738 2.58241,-1.464149 5.508,-3.13145 8.64928,-4.91335 -2.54339,-4.272243 -5.48601,-8.365366 -8.07034,-11.821382 -1.98081,-2.648929 -3.30276,-3.867097 -5.04497,-5.23883 -1.74218,-1.371732 -3.90499,-2.896441 -6.26684,-2.906212 z m 24.32486,30.053682 c -0.3525,0.153951 -0.70771,0.301805 -1.05916,0.457989 -2.13081,0.946938 -4.24307,1.937292 -6.32377,2.989802 -3.1677,1.602385 -6.25458,3.359896 -9.37138,5.059193 -1.70945,0.932019 -3.41457,1.872456 -5.11699,2.817283 -2.74567,1.523828 -5.46019,3.104185 -8.22152,4.599427 -1.99754,1.081649 -6.03652,3.16144 -6.03652,3.16144 0,0 0.99724,0.85816 1.55181,1.207664 1.6314,1.028147 3.40551,1.819972 5.1748,2.586952 4.76215,2.06439 14.6031,5.40424 14.6031,5.40424 0,0 -0.003,2.55849 -0.28724,3.79462 -0.22196,0.96411 -0.67237,1.864 -1.09294,2.75947 -0.67816,1.44392 -1.42047,2.86642 -2.29973,4.19747 -1.94829,2.94941 -4.31759,5.59894 -6.55409,8.33624 -1.36781,1.6741 -2.77887,3.31242 -4.19658,4.94448 -2.11869,2.43902 -6.43938,7.24418 -6.43938,7.24418 0,0 4.43427,5.14594 6.66882,7.70395 2.26892,2.59737 4.59663,5.14331 6.84222,7.76087 1.62473,1.89383 3.23718,3.79911 4.80485,5.7404 3.70658,-5.35409 7.4524,-10.75709 11.16064,-16.34078 2.8409,-4.27768 5.91498,-8.46473 8.56125,-12.8832 2.64626,-4.41847 4.86495,-9.06913 5.99294,-14.27405 1.3219,-6.09961 -0.29694,-12.72415 -2.32283,-19.648065 -1.70787,-5.836949 -3.70941,-11.882522 -6.0383,-17.619575 z m -41.30416,63.12474 c 0,0 -0.79163,0.66786 -1.20676,0.97734 -1.00576,0.74979 -2.02592,1.48658 -3.10452,2.12719 -0.98008,0.58209 -1.9939,1.11788 -3.04761,1.5527 -1.09806,0.45311 -2.24888,0.7683 -3.39177,1.09206 -2.01244,0.57008 -6.09432,1.49491 -6.09432,1.49491 0,0 -1.37426,5.3628 -1.66744,8.1059 -0.20169,1.88661 -0.30258,3.81086 -0.0578,5.69237 0.25133,1.93178 0.91506,3.79293 1.55272,5.63367 0.72813,2.102 2.58695,6.15214 2.58695,6.15214 l -12.303376,12.4181 c 0,0 -0.289232,-4.14066 -0.459774,-6.20906 -0.295818,-3.58629 -0.793616,-7.15688 -0.977324,-10.75066 -0.08518,-1.66522 -0.05777,-5.00228 -0.05777,-5.00228 0,0 -0.05351,-3.94779 -0.05689,-5.92181 -0.0044,-2.7597 0.05689,-8.27844 0.05689,-8.27844 0,0 -0.727797,-0.0406 -1.092047,-0.0578 -2.548062,-0.11492 -5.099873,-0.13821 -7.646156,-0.28724 -1.688899,-0.0989 -3.376452,-0.23695 -5.06008,-0.40286 -1.63227,-0.16087 -4.886669,-0.57447 -4.886669,-0.57447 0,0 -1.257223,1.34772 -1.896861,2.01158 -1.212946,1.25888 -2.541448,2.41108 -3.679905,3.7377 -1.837132,2.14077 -3.501123,4.43185 -5.059188,6.78354 -1.433425,2.16356 -2.837465,4.35861 -4.108542,6.62345 2.222206,3.44504 4.323786,6.9688 6.274861,10.64484 6.194539,11.67122 16.748948,27.62042 22.305259,43.18145 5.556363,15.56113 10.714217,28.89404 10.714217,28.89404 0,0 13.124105,-36.55235 22.106065,-53.7 6.06195,-11.57301 13.15565,-22.24669 20.54446,-32.98658 -0.58904,-0.67675 -1.17868,-1.35303 -1.77325,-2.02492 -1.86157,-2.10363 -3.77739,-4.15845 -5.63457,-6.26597 -1.84153,-2.08979 -3.62599,-4.23004 -5.46204,-6.32466 -2.45166,-2.79691 -7.41671,-8.33623 -7.41671,-8.33623 z"
       id="path838"
       inkscape:connector-curvature="0" />
    <g
       id="g817"
       transform="matrix(0.73503854,0,0,0.73503854,-4.1466512,66.781817)">
      <path
         sodipodi:nodetypes="cssccssssssaaaaaasscsssssscsssssccssssssssssssssssssssccssssscssscscssccssscsssscssssssscsssssscssssscsscssssssssscsssssc"
         inkscape:connector-curvature="0"
         id="path842"
         d="m 294.34712,-35.586957 c 0,0 -14.51121,5.937287 -32.5412,15.108517 -18.02995,9.17123 -39.57874,21.5764061 -53.65388,29.5566026 -23.18807,13.1469574 -68.0287,42.0339944 -68.0287,42.0339944 l -0.44247,10.287274 c 0,0 11.68611,-8.756848 18.58346,-10.508504 2.07308,-0.526482 4.29572,-0.173086 6.41572,0.110628 4.6003,0.615645 9.11027,1.907607 13.49513,3.429085 3.85168,1.336484 7.35795,1.890626 11.17219,4.977708 1.63391,1.322423 0.64128,4.271202 0.11057,6.305105 -1.81088,6.938973 -6.06772,13.230801 -10.84037,18.583446 -4.99603,5.603247 -11.37624,10.019528 -18.03034,13.495124 -6.54208,3.417087 -13.72591,5.821797 -21.017,6.968787 -8.99702,1.41537 -18.42949,1.7462 -27.3221,-0.22125 -3.99551,-0.88397 -7.90576,-2.62342 -11.17221,-5.088336 -2.860376,-2.158486 -5.755564,-4.81379 -6.968783,-8.185573 -0.861454,-2.394154 -0.476986,-5.156821 0.110627,-7.632464 1.580505,-6.658697 5.54432,-12.542402 8.959886,-18.472832 2.79694,-4.856323 6.04251,-9.452252 9.40232,-13.937587 1.17742,-1.571846 3.76094,-4.53525 3.76094,-4.53525 0,0 -2.80434,1.699797 -4.31401,2.322933 -2.63123,1.086064 -5.38019,1.951042 -8.18557,2.433545 -2.11044,0.362982 -4.341599,0.864579 -6.415712,0.331846 -2.922089,-0.750538 -5.223032,-3.035423 -7.69464,-4.765478 -2.555313,-1.788647 -5.020149,-3.716986 -7.35241,-5.788072 -2.205638,-1.95863 -4.270858,-4.076821 -6.257369,-6.257375 -0.935227,-1.026576 -2.659385,-3.206903 -2.659385,-3.206903 0,0 0.03197,2.413333 0.234653,3.59799 0.40654,2.375719 1.074253,4.717932 1.955426,6.961333 0.771609,1.964469 1.718193,3.878943 2.894038,5.631633 1.050854,1.566398 2.386666,2.92535 3.676199,4.301944 1.941145,2.072193 4.140697,3.890364 6.100942,5.944502 1.49181,1.563274 4.30194,4.849469 4.30194,4.849469 l 1.720781,1.798993 c 0,0 -3.189023,5.261691 -4.771243,7.899933 -1.389051,2.316124 -2.845397,4.594128 -4.145504,6.961323 -1.504305,2.738973 -3.016161,5.48711 -4.22373,8.369243 -0.723257,1.726186 -1.30227,3.514278 -1.798999,5.318741 -0.297231,1.079759 -0.853164,2.17521 -0.703958,3.285138 0.10564,0.78588 0.619889,1.477007 1.095038,2.111855 0.519324,0.693868 1.194723,1.264799 1.877214,1.798989 1.190454,0.93178 2.538871,1.64273 3.832636,2.42473 2.009294,1.21453 4.148637,2.21564 6.100944,3.51978 1.175135,0.78499 2.475492,1.48169 3.363342,2.58117 0.344358,0.42646 0.706963,0.93799 0.703951,1.48612 -0.01227,2.26211 -1.863314,4.12926 -2.972253,6.10093 -1.489033,2.64751 -3.379037,5.05222 -4.927678,7.66531 -1.528707,2.57947 -2.936194,5.23059 -4.301945,7.89992 -1.290744,2.52272 -2.561443,5.06 -3.676211,7.66527 -0.899134,2.10134 -1.698752,4.24658 -2.424731,6.41384 -1.354823,4.04455 -2.451329,8.17165 -3.597986,12.28007 -0.71064,2.54618 -1.37412,5.10539 -2.03365,7.66529 -0.643675,2.49838 -1.248997,5.00652 -1.877213,7.50886 -0.779107,3.10339 -1.631124,6.18914 -2.346507,9.30784 -0.517889,2.2577 -1.407907,6.8049 -1.407907,6.8049 l -0.07819,2.03363 c 0,0 5.056517,-13.0692 7.508849,-19.63252 3.594181,-9.6193 6.188463,-19.64814 10.559313,-28.94034 2.263045,-4.81111 5.119855,-9.33392 8.05637,-13.76622 2.11971,-3.19939 4.383731,-6.31717 6.88311,-9.22963 1.548835,-1.80483 3.355715,-3.37143 5.005905,-5.0841 0.87021,-0.90317 2.58114,-2.73762 2.58114,-2.73762 0,0 4.4278,0.56331 6.64847,0.78218 2.29053,0.2257 4.58542,0.41301 6.88312,0.54752 3.46414,0.20275 6.93632,0.23473 10.40288,0.39107 0.49555,0.0234 1.48613,0.0782 1.48613,0.0782 0,0 -0.0834,7.50877 -0.0782,11.26327 0.005,2.68558 0.0782,8.05637 0.0782,8.05637 0,0 -0.0377,4.53943 0.0782,6.80491 0.24993,4.88924 0.92721,9.74754 1.32967,14.62659 0.23201,2.81399 0.62577,8.44746 0.62577,8.44746 l 16.73847,-16.89492 c 0,0 -2.52918,-5.50952 -3.5198,-8.36923 -0.86752,-2.50428 -1.76993,-5.03714 -2.11185,-7.66527 -0.333,-2.55973 -0.19619,-5.17683 0.0782,-7.74351 0.39885,-3.73191 2.26829,-11.02861 2.26829,-11.02861 0,0 5.55314,-1.25808 8.29103,-2.03366 1.55487,-0.44045 3.12091,-0.86969 4.61481,-1.48613 1.43356,-0.59155 2.81213,-1.31994 4.14551,-2.11185 1.4674,-0.87152 2.85541,-1.87397 4.22373,-2.89403 0.56477,-0.42104 1.64257,-1.32969 1.64257,-1.32969 0,0 6.75459,7.53634 10.09001,11.34148 2.4979,2.84966 4.92526,5.76078 7.43062,8.60389 2.52663,2.86723 5.13266,5.66373 7.66529,8.52567 3.55152,4.01334 7.0093,8.10898 10.55932,12.12367 2.04244,2.30975 4.1242,4.58446 6.17914,6.88308 1.90772,2.134 3.8351,4.25084 5.70986,6.41384 1.42992,1.64978 2.8233,3.33096 4.22374,5.00588 0.76016,0.90914 2.26829,2.73761 2.26829,2.73761 0,0 -0.96617,-3.59089 -1.64256,-5.31876 -1.25399,-3.20347 -2.85756,-6.26284 -4.45838,-9.30785 -2.07068,-3.9387 -4.18155,-7.87272 -6.64846,-11.57614 -2.49495,-3.74544 -5.40132,-7.20169 -8.21281,-10.71575 -2.31278,-2.89075 -4.70723,-5.71588 -7.11775,-8.52567 -3.05509,-3.56112 -6.22105,-7.02566 -9.30786,-10.55931 -3.04003,-3.48011 -9.07317,-10.481125 -9.07317,-10.481125 0,0 5.87789,-6.537117 8.76032,-9.855349 1.92875,-2.220366 3.84899,-4.449114 5.70985,-6.726674 3.04271,-3.724032 6.26618,-7.328898 8.91677,-11.341482 1.1962,-1.810873 2.20606,-3.745454 3.12866,-5.709866 0.57219,-1.218271 1.18419,-2.44277 1.48615,-3.754423 0.38714,-1.681721 0.39106,-5.16233 0.39106,-5.16233 0,0 -13.38836,-4.543858 -19.86714,-7.352406 -2.40705,-1.043457 -4.82008,-2.121001 -7.03956,-3.519774 -0.75448,-0.47549 -2.11185,-1.64256 -2.11185,-1.64256 0,0 5.49519,-2.830392 8.21279,-4.301946 3.75673,-2.034239 7.44964,-4.184251 11.18506,-6.257376 2.31609,-1.285414 4.63567,-2.564657 6.96135,-3.832639 4.2403,-2.311849 8.43979,-4.703115 12.74937,-6.883111 2.83072,-1.431913 5.705,-2.779004 8.60389,-4.067291 2.78761,-1.238823 5.59802,-2.430745 8.44746,-3.519774 3.40438,-1.301117 6.7618,-2.83077 10.32469,-3.5979929 2.58448,-0.5565414 5.25701,-0.6368134 7.8999,-0.7039522 2.73873,-0.069583 5.48592,0.049361 8.21282,0.3128701 2.02238,0.1954438 6.0227,0.938606 6.0227,0.938606 0,0 2.18671,-6.3507772 3.44158,-9.46427724 1.32209,-3.28031706 2.54928,-6.62701306 4.30193,-9.69892796 1.93602,-3.3933298 4.43443,-6.4370548 6.8049,-9.5424958 1.77645,-2.327255 3.71501,-4.526274 5.55342,-6.804893 1.75908,-2.180272 3.50067,-4.374626 5.24055,-6.570243 0.96861,-1.222319 2.89417,-3.676169 2.89417,-3.676169 z"
         style="fill:none;fill-opacity:1;stroke:#000000;stroke-width:0.61944836px;stroke-linecap:butt;stroke-linejoin:miter;stroke-opacity:1" />
      <path
         sodipodi:nodetypes="csssscsssssscc"
         inkscape:connector-curvature="0"
         id="path844"
         d="m 59.617403,100.74557 c 0,0 -19.211346,14.72771 -28.392835,22.60476 -6.357453,5.45423 -12.444018,11.22187 -18.459252,17.05136 -3.2039491,3.10498 -6.3028072,6.3176 -9.3860637,9.54248 -4.8700576,5.09378 -9.9294277,10.03266 -14.3919583,15.487 -1.585284,1.93762 -4.380158,6.10094 -4.380158,6.10094 0,0 6.3204682,-5.05917 9.5424923,-7.50885 3.2960407,-2.50598 6.72586554,-4.8332 10.0117968,-7.35242 4.7695789,-3.65668 9.4135339,-7.47476 14.0790939,-11.26328 4.773537,-3.87619 9.430796,-7.8951 14.235525,-11.73257 4.327547,-3.45634 8.660855,-6.91139 13.140486,-10.16822 5.46308,-3.97184 11.243855,-7.85521 16.517237,-11.69625 1.244653,-0.90657 3.458903,-2.24538 3.458903,-2.24538 z"
         style="fill:none;fill-opacity:1;stroke:#000000;stroke-width:0.61944836px;stroke-linecap:butt;stroke-linejoin:miter;stroke-opacity:1" />
    </g>
  </g>
</svg>
