<?xml version="1.0" encoding="UTF-8" standalone="no"?>
<!-- Created with Inkscape (http://www.inkscape.org/) -->

<svg
   xmlns:dc="http://purl.org/dc/elements/1.1/"
   xmlns:cc="http://creativecommons.org/ns#"
   xmlns:rdf="http://www.w3.org/1999/02/22-rdf-syntax-ns#"
   xmlns:svg="http://www.w3.org/2000/svg"
   xmlns="http://www.w3.org/2000/svg"
   xmlns:sodipodi="http://sodipodi.sourceforge.net/DTD/sodipodi-0.dtd"
   xmlns:inkscape="http://www.inkscape.org/namespaces/inkscape"
   width="273.08746"
   height="800"
   viewBox="0 0 72.25439 211.66667"
   version="1.1"
   id="svg8"
   inkscape:version="0.92.3 (2405546, 2018-03-11)"
   sodipodi:docname="Kabal of the Flayed Skull [Aeldari, Drukhari, Dark Eldar, Kabal].svg">
  <defs
     id="defs2" />
  <sodipodi:namedview
     id="base"
     pagecolor="#ffffff"
     bordercolor="#666666"
     borderopacity="1.0"
     inkscape:pageopacity="0.0"
     inkscape:pageshadow="2"
     inkscape:zoom="1.979899"
     inkscape:cx="54.417033"
     inkscape:cy="349.81038"
     inkscape:document-units="px"
     inkscape:current-layer="layer1"
     showgrid="false"
     units="px"
     inkscape:window-width="1920"
     inkscape:window-height="1017"
     inkscape:window-x="-8"
     inkscape:window-y="-8"
     inkscape:window-maximized="1"
     inkscape:snap-global="true"
     fit-margin-top="0"
     fit-margin-left="0"
     fit-margin-right="0"
     fit-margin-bottom="0"
     inkscape:pagecheckerboard="true" />
  <metadata
     id="metadata5">
    <rdf:RDF>
      <cc:Work
         rdf:about="">
        <dc:format>image/svg+xml</dc:format>
        <dc:type
           rdf:resource="http://purl.org/dc/dcmitype/StillImage" />
        <dc:title />
      </cc:Work>
    </rdf:RDF>
  </metadata>
  <g
     inkscape:label="Layer 1"
     inkscape:groupmode="layer"
     id="layer1"
     transform="translate(-62.348068,11.618902)">
    <g
       id="g929"
       transform="translate(-1.5219192e-6)" />
    <g
       style="fill:#2c00fd;fill-opacity:0.4"
       id="g858"
       transform="translate(0.34153797)" />
    <g
       id="g901">
      <g
         id="g882">
        <path
           style="fill:#000000;fill-opacity:1;stroke:none;stroke-width:2.26330543px;stroke-linecap:butt;stroke-linejoin:miter;stroke-opacity:1"
           d="M 186.81641 540.07031 C 186.61572 561.3393 194.62383 588.16895 204.64258 581.57227 C 198.81607 567.84565 192.91048 554.0359 186.81641 540.07031 z M 215.28125 606.70312 L 197.43945 625.77539 C 217.70607 663.69335 242.17227 699.75594 268.39062 728.55469 C 249.44659 687.79488 232.52087 647.55577 215.28125 606.70312 z "
           transform="matrix(0.26458333,0,0,0.26458333,62.348068,-11.618902)"
           id="path840" />
        <path
           style="fill:#000000;fill-opacity:1;stroke:none;stroke-width:2.26330543px;stroke-linecap:butt;stroke-linejoin:miter;stroke-opacity:1"
           d="M 35.351562 137.94336 C 24.313793 137.97549 12.339132 142.62376 0 154.12695 L 58.607422 285.52148 C 63.643636 276.84962 69.193549 268.49967 75.253906 260.90625 C 47.325953 202.87871 8.550115 127.5981 92.023438 190.70703 C 85.644211 167.91897 63.559196 137.86124 35.351562 137.94336 z "
           transform="matrix(0.26458333,0,0,0.26458333,62.348068,-11.618902)"
           id="path852" />
      </g>
      <g
         id="g890">
        <path
           style="fill:#000000;fill-opacity:1;stroke:none;stroke-width:2.26330543px;stroke-linecap:butt;stroke-linejoin:miter;stroke-opacity:1"
           d="M 86.267578 540.07812 C 80.175078 554.0402 74.270389 567.84708 68.445312 581.57031 C 78.462922 588.16844 86.467193 561.34653 86.267578 540.07812 z M 57.804688 606.70703 C 40.56562 647.55837 23.640721 687.79614 4.6972656 728.55469 C 30.915275 699.75632 55.381977 663.69475 75.648438 625.77734 L 57.804688 606.70703 z "
           transform="matrix(0.26458333,0,0,0.26458333,62.348068,-11.618902)"
           id="path838" />
        <path
           style="fill:#000000;fill-opacity:1;stroke:none;stroke-width:2.26330543px;stroke-linecap:butt;stroke-linejoin:miter;stroke-opacity:1"
           d="M 237.73438 137.94336 C 209.52674 137.86124 187.44369 167.91897 181.06445 190.70703 C 264.53889 127.59727 225.76006 202.88035 197.83203 260.9082 C 203.89282 268.50215 209.44195 276.85299 214.47852 285.52539 L 273.08789 154.12695 C 260.74875 142.62376 248.77215 137.97549 237.73438 137.94336 z "
           transform="matrix(0.26458333,0,0,0.26458333,62.348068,-11.618902)"
           id="path854" />
      </g>
      <g
         id="g886">
        <path
           style="fill:#000000;fill-opacity:1;stroke:none;stroke-width:2.26330543px;stroke-linecap:butt;stroke-linejoin:miter;stroke-opacity:1"
           d="M 148.41797 689.4375 C 144.31895 696.50425 140.31053 704.35477 136.54102 712.50391 C 132.77176 704.35533 128.76474 696.50583 124.66602 689.43945 L 125.67969 764.56445 C 131.1547 775.9646 134.53505 787.49449 136.54102 800 C 138.54698 787.49449 141.92735 775.9646 147.40234 764.56445 L 148.41797 689.4375 z "
           transform="matrix(0.26458333,0,0,0.26458333,62.348068,-11.618902)"
           id="path833" />
        <path
           style="fill:#000000;fill-opacity:1;stroke:none;stroke-width:2.42872334px;stroke-linecap:butt;stroke-linejoin:miter;stroke-opacity:1"
           d="M 127.92188 0 C 64.672264 0.33573543 11.13813 97.876737 122.11719 137.99609 L 121.33008 226.7207 C 126.23118 225.32787 131.29738 224.51807 136.54102 224.42969 C 141.10272 224.50657 145.53515 225.11813 149.83789 226.19141 C 149.60132 182.07553 151.23689 141.60057 159.39648 97.580078 C 42.814235 136.63953 105.47173 -63.053805 209.51172 87.072266 C 192.01836 22.857582 158.81119 -0.16393323 127.92188 0 z "
           transform="matrix(0.26458333,0,0,0.26458333,62.348068,-11.618902)"
           id="path876" />
      </g>
    </g>
    <path
       inkscape:connector-curvature="0"
       style="fill:#ffffff;fill-opacity:0;stroke:#000000;stroke-width:1.19766569;stroke-linecap:round;stroke-linejoin:miter;stroke-miterlimit:0;stroke-dasharray:none;stroke-opacity:1;paint-order:markers fill stroke"
       d="m 98.47468,47.761696 c -20.327868,0.342616 -30.998292,40.375519 -29.942813,42.64579 2.208861,4.03208 2.050631,6.146199 2.104101,13.018774 -4.234383,0 -5.41942,-0.44161 -5.4316,1.19766 -0.01222,1.63925 5.99e-4,-6e-4 -0.301758,12.09713 0,0 4.706036,-3.19272 7.364944,-2.82574 3.219332,0.44431 5.639791,4.94388 5.639791,4.94388 0,0 -5.07375,4.25659 -5.443302,7.2585 -0.253941,2.06288 2.418734,5.74623 2.418722,5.74623 15.985719,-23.73071 10.200622,22.75077 3.630425,7.56143 -1.786624,2.50343 -3.32478,5.30876 -2.118132,8.16729 l 8.771962,9.37548 c -3.640659,4.8509 -3.766545,9.13097 -2.722816,15.12287 2.798083,-17.10491 10.408441,-7.32708 16.030476,4.82692 5.62203,-12.154 13.23239,-21.93183 16.03048,-4.82692 1.04373,-5.9919 0.91901,-10.27197 -2.72165,-15.12287 l 8.77079,-9.37548 c 1.20664,-2.85853 -0.33033,-5.66386 -2.11696,-8.16729 -6.5702,15.18934 -12.35646,-31.29214 3.62925,-7.56143 0,0 2.67384,-3.68335 2.41989,-5.74623 -0.36955,-3.00191 -5.44446,-7.2585 -5.44446,-7.2585 0,0 2.42045,-4.49957 5.63979,-4.94388 2.6589,-0.36698 7.36611,2.82574 7.36611,2.82574 -0.30246,-12.098 -0.29071,-10.45788 -0.30293,-12.09713 -0.0122,-1.63927 -1.19721,-1.19766 -5.4316,-1.19766 0.0535,-6.872575 -0.10359,-8.986694 2.10528,-13.018774 1.05548,-2.270271 -9.61612,-42.303174 -29.94399,-42.64579 z M 82.88046,105.49761 a 4.7660962,2.7885435 36.326595 0 1 4.005869,1.53685 4.7660962,2.7885435 36.326595 0 1 1.845621,5.02458 4.7660962,2.7885435 36.326595 0 1 -5.615232,-0.88772 4.7660962,2.7885435 36.326595 0 1 -1.845621,-5.02458 4.7660962,2.7885435 36.326595 0 1 1.609363,-0.64913 z m 31.18961,0 a 2.7885435,4.7660962 53.673405 0 1 1.60936,0.64913 2.7885435,4.7660962 53.673405 0 1 -1.84562,5.02458 2.7885435,4.7660962 53.673405 0 1 -5.61523,0.88772 2.7885435,4.7660962 53.673405 0 1 1.84562,-5.02458 2.7885435,4.7660962 53.673405 0 1 4.00587,-1.53685 z"
       id="path826" />
    <g
       id="g914">
      <g
         transform="matrix(2.2633055,0,0,2.2633055,-78.07882,-252.72143)"
         id="g937">
        <path
           style="fill:none;stroke:#000000;stroke-width:0.26458332px;stroke-linecap:butt;stroke-linejoin:miter;stroke-opacity:1"
           d="m 74.234111,179.06731 0.21567,-2.67269 0.586139,-2.6727"
           id="path878"
           inkscape:connector-curvature="0"
           sodipodi:nodetypes="ccc" />
        <path
           style="fill:none;stroke:#000000;stroke-width:0.28625256px;stroke-linecap:butt;stroke-linejoin:miter;stroke-opacity:1"
           d="m 73.160537,175.59232 c 0,0 3.082917,2.07062 4.845448,2.05037 1.762531,-0.0203 4.845446,-2.18297 4.845446,-2.18297"
           id="path880"
           inkscape:connector-curvature="0"
           sodipodi:nodetypes="czc" />
        <path
           style="fill:none;stroke:#000000;stroke-width:0.26458332px;stroke-linecap:butt;stroke-linejoin:miter;stroke-opacity:1"
           d="m 76.105015,180.27002 0.168275,-3.14042 0.433081,-3.14041"
           id="path884"
           inkscape:connector-curvature="0"
           sodipodi:nodetypes="ccc" />
        <path
           sodipodi:nodetypes="ccc"
           inkscape:connector-curvature="0"
           id="path886"
           d="m 81.813661,179.06731 -0.21567,-2.67269 -0.586139,-2.6727"
           style="fill:none;stroke:#000000;stroke-width:0.26458332px;stroke-linecap:butt;stroke-linejoin:miter;stroke-opacity:1" />
        <path
           sodipodi:nodetypes="cc"
           inkscape:connector-curvature="0"
           id="path888"
           d="m 78.040591,180.80456 v -6.68174"
           style="fill:none;stroke:#000000;stroke-width:0.26458332px;stroke-linecap:butt;stroke-linejoin:miter;stroke-opacity:1" />
        <path
           sodipodi:nodetypes="ccc"
           inkscape:connector-curvature="0"
           id="path890"
           d="m 79.942757,180.27002 -0.168275,-3.14042 -0.433081,-3.14041"
           style="fill:none;stroke:#000000;stroke-width:0.26458332px;stroke-linecap:butt;stroke-linejoin:miter;stroke-opacity:1" />
      </g>
      <path
         inkscape:connector-curvature="0"
         id="path948"
         d="m 98.475261,117.17484 c -3.312266,3.3697 -3.515342,7.46045 -3.402355,12.0983 0.708804,-2.51084 0.662734,-4.4596 3.402355,-5.21755 2.739629,0.75795 2.693559,2.70671 3.402359,5.21755 0.11298,-4.63785 -0.0901,-8.7286 -3.402359,-12.0983 z"
         style="fill:#000000;fill-opacity:1;stroke:none;stroke-width:0.59883291px;stroke-linecap:butt;stroke-linejoin:miter;stroke-opacity:1" />
      <g
         transform="matrix(2.2633055,0,0,2.2633055,-78.764657,-252.72143)"
         style="fill:#000000;fill-opacity:1;stroke:none"
         id="g903">
        <path
           style="fill:#000000;fill-opacity:1;stroke:none;stroke-width:0.99999994px;stroke-linecap:butt;stroke-linejoin:miter;stroke-opacity:1"
           d="m 277.76758,534.30469 -8.39258,22.67969 -0.17773,29.10742 3.39257,8.39258 -3.21484,0.53515 -8.75,-8.39258 2.14258,18.03516 3.92969,2.67969 0.89257,3.57031 -3.21484,3.03516 9.46484,8.21484 15,-13.75 -8.21484,-6.07031 0.17969,-36.42969 9.82031,-23.03516 z m -7.83399,63.89062 a 7.9589751,4.6566304 36.326595 0 1 6.68946,2.56641 7.9589751,4.6566304 36.326595 0 1 3.08203,8.39062 7.9589751,4.6566304 36.326595 0 1 -9.37696,-1.48242 7.9589751,4.6566304 36.326595 0 1 -3.08203,-8.39062 7.9589751,4.6566304 36.326595 0 1 2.6875,-1.08399 z"
           id="path830"
           transform="scale(0.26458333)"
           inkscape:connector-curvature="0" />
        <path
           style="fill:#000000;fill-opacity:1;stroke:none;stroke-width:0.99999994px;stroke-linecap:butt;stroke-linejoin:miter;stroke-opacity:1"
           d="m 314.18359,534.30469 -12.85742,8.57226 9.82031,23.03516 0.17969,36.42969 -8.21484,6.07031 15,13.75 9.46484,-8.21484 -3.21484,-3.03516 0.89258,-3.57031 3.92968,-2.67969 2.14258,-18.03516 -8.75,8.39258 -3.21484,-0.53515 3.39258,-8.39258 -0.17774,-29.10742 z m 7.83399,63.89062 a 4.6566304,7.9589751 53.673405 0 1 2.6875,1.08399 4.6566304,7.9589751 53.673405 0 1 -3.08203,8.39062 4.6566304,7.9589751 53.673405 0 1 -9.37696,1.48242 4.6566304,7.9589751 53.673405 0 1 3.08203,-8.39062 4.6566304,7.9589751 53.673405 0 1 6.68946,-2.56641 z"
           transform="scale(0.26458333)"
           id="path832"
           inkscape:connector-curvature="0" />
      </g>
    </g>
  </g>
</svg>
