<?xml version="1.0" encoding="UTF-8" standalone="no"?>
<svg
   xmlns:dc="http://purl.org/dc/elements/1.1/"
   xmlns:cc="http://creativecommons.org/ns#"
   xmlns:rdf="http://www.w3.org/1999/02/22-rdf-syntax-ns#"
   xmlns:svg="http://www.w3.org/2000/svg"
   xmlns="http://www.w3.org/2000/svg"
   xmlns:sodipodi="http://sodipodi.sourceforge.net/DTD/sodipodi-0.dtd"
   xmlns:inkscape="http://www.inkscape.org/namespaces/inkscape"
   version="1.1"
   id="图层_1"
   x="0px"
   y="0px"
   viewBox="0 0 800 800"
   sodipodi:docname="Ke’lshan [T'au'va, Greater Good, T'au Empire, Sept].svg"
   width="800"
   height="800"
   inkscape:version="0.92.3 (2405546, 2018-03-11)">
  <metadata
     id="metadata17">
    <rdf:RDF>
      <cc:Work
         rdf:about="">
        <dc:format>image/svg+xml</dc:format>
        <dc:type
           rdf:resource="http://purl.org/dc/dcmitype/StillImage" />
        <dc:title></dc:title>
      </cc:Work>
    </rdf:RDF>
  </metadata>
  <defs
     id="defs15" />
  <sodipodi:namedview
     pagecolor="#ffffff"
     bordercolor="#666666"
     borderopacity="1"
     objecttolerance="10"
     gridtolerance="10"
     guidetolerance="10"
     inkscape:pageopacity="0"
     inkscape:pageshadow="2"
     inkscape:window-width="1920"
     inkscape:window-height="1017"
     id="namedview13"
     showgrid="false"
     fit-margin-top="0"
     fit-margin-left="0"
     fit-margin-right="0"
     fit-margin-bottom="0"
     inkscape:pagecheckerboard="true"
     inkscape:zoom="0.472"
     inkscape:cx="-13.771186"
     inkscape:cy="250"
     inkscape:window-x="-8"
     inkscape:window-y="-8"
     inkscape:window-maximized="1"
     inkscape:current-layer="图层_1" />
  <circle
     cx="400"
     cy="192"
     r="112"
     id="circle2"
     style="stroke-width:1.60000002" />
  <g
     id="g10"
     transform="scale(1.6)">
    <path
       d="M 250,0 C 111.9,0 0,111.9 0,250 0,388.1 111.9,500 250,500 388.1,500 500,388.1 500,250 500,111.9 388.1,0 250,0 Z m 0,485 C 120.2,485 15,379.8 15,250 15,120.2 120.2,15 250,15 379.8,15 485,120.2 485,250 485,379.8 379.8,485 250,485 Z"
       id="path4"
       inkscape:connector-curvature="0" />
    <path
       d="m 107.4,255 h 100.1 c 6.2,-17.5 22.8,-30 42.4,-30 19.6,0 36.3,12.5 42.4,30 h 100.1 c 6.2,-17.5 22.8,-30 42.4,-30 4.8,0 9.4,0.8 13.7,2.1 C 440,151 388.6,87.8 319,62.2 c 13.1,15.6 21,35.8 21,57.8 0,49.7 -40.3,90 -90,90 -49.7,0 -90,-40.3 -90,-90 0,-22 7.9,-42.1 21,-57.8 C 111.4,87.8 60,151 51.3,227.1 55.6,225.8 60.2,225 65,225 c 19.6,0 36.3,12.5 42.4,30 z"
       id="path6"
       inkscape:connector-curvature="0" />
    <path
       d="M 392.6,285 H 292.4 c -6.2,17.5 -22.8,30 -42.4,30 -19.6,0 -36.3,-12.5 -42.4,-30 H 107.4 c -6.2,17.5 -22.8,30 -42.4,30 -1.4,0 -2.9,-0.1 -4.3,-0.2 C 87.6,393.5 162.2,450 250,450 c 87.8,0 162.4,-56.5 189.3,-135.2 -1.4,0.1 -2.9,0.2 -4.3,0.2 -19.6,0 -36.3,-12.5 -42.4,-30 z"
       id="path8"
       inkscape:connector-curvature="0" />
  </g>
</svg>
