<?xml version="1.0" encoding="UTF-8" standalone="no"?>
<!-- Generator: Adobe Illustrator 24.1.0, SVG Export Plug-In . SVG Version: 6.00 Build 0)  -->

<svg
   xmlns:dc="http://purl.org/dc/elements/1.1/"
   xmlns:cc="http://creativecommons.org/ns#"
   xmlns:rdf="http://www.w3.org/1999/02/22-rdf-syntax-ns#"
   xmlns:svg="http://www.w3.org/2000/svg"
   xmlns="http://www.w3.org/2000/svg"
   xmlns:sodipodi="http://sodipodi.sourceforge.net/DTD/sodipodi-0.dtd"
   xmlns:inkscape="http://www.inkscape.org/namespaces/inkscape"
   version="1.1"
   id="Layer_3"
   x="0px"
   y="0px"
   viewBox="0 0 791.31915 800"
   xml:space="preserve"
   sodipodi:docname="Knights of Blood.svg"
   width="791.31915"
   height="800"
   inkscape:version="0.92.3 (2405546, 2018-03-11)"><metadata
   id="metadata19"><rdf:RDF><cc:Work
       rdf:about=""><dc:format>image/svg+xml</dc:format><dc:type
         rdf:resource="http://purl.org/dc/dcmitype/StillImage" /><dc:title></dc:title></cc:Work></rdf:RDF></metadata><defs
   id="defs17" /><sodipodi:namedview
   pagecolor="#ffffff"
   bordercolor="#666666"
   borderopacity="1"
   objecttolerance="10"
   gridtolerance="10"
   guidetolerance="10"
   inkscape:pageopacity="0"
   inkscape:pageshadow="2"
   inkscape:window-width="1920"
   inkscape:window-height="1017"
   id="namedview15"
   showgrid="false"
   fit-margin-top="0"
   fit-margin-left="0"
   fit-margin-right="0"
   fit-margin-bottom="0"
   inkscape:pagecheckerboard="true"
   inkscape:zoom="0.236"
   inkscape:cx="-61.372448"
   inkscape:cy="487.86552"
   inkscape:window-x="-8"
   inkscape:window-y="-8"
   inkscape:window-maximized="1"
   inkscape:current-layer="Layer_3" />
<g
   id="g12"
   transform="matrix(0.83989015,0,0,0.83989015,-28.413547,-29.698516)">
	<path
   d="m 164.42,98.6 h 46.92 c -23.04,-28 -53.64,-49.08 -91.8,-63.24 -4.52,11.02 22.44,89.76 44.88,112.2 1.83,-4.18 0,-48.96 0,-48.96 z"
   id="path2"
   inkscape:connector-curvature="0" />
	<path
   d="M 284.78,786.05 C 272.54,759.53 253.22,737.09 247.1,706.49 l -22.35,29.68 C 177.41,710.19 111.36,709.4 39.99,749.33 l 59.16,36.72 c 28.33,-10.89 56.91,-8.08 80.41,3.01 l -108.97,127.55 0.93,0.98 c -13.67,-4.85 -26.6,-3.6 -33.3,4.53 -10.03,12.18 -2.29,35.11 17.28,51.22 19.57,16.11 43.56,19.31 53.59,7.13 5.15,-6.26 5.59,-15.36 2.16,-24.91 L 229.03,840.5 c 6.92,18.26 6.79,38.53 -3.41,57.75 l 51,53.04 c 28.53,-60.14 26.15,-117.36 2.91,-160.11 z"
   id="path4"
   inkscape:connector-curvature="0" />
	<path
   d="M 845.4,147.56 C 867.84,125.12 894.8,46.38 890.28,35.36 852.13,49.52 821.53,70.6 798.48,98.6 h 46.92 c 0,0 -1.83,44.78 0,48.96 z"
   id="path6"
   inkscape:connector-curvature="0" />
	<path
   d="m 971.61,922.11 c -6.7,-8.13 -19.62,-9.37 -33.3,-4.53 l 0.93,-0.98 -108.97,-127.54 c 23.5,-11.09 52.08,-13.91 80.41,-3.01 l 59.16,-36.72 C 898.47,709.4 832.42,710.18 785.08,736.17 l -20.36,-29.68 c -6.12,30.6 -27.44,53.04 -39.68,79.56 l 5.25,5.12 c -23.23,42.75 -25.62,99.96 2.91,160.11 l 51,-53.04 c -10.21,-19.21 -10.33,-39.48 -3.41,-57.75 l 117.79,115.05 c -3.42,9.55 -2.99,18.65 2.16,24.91 10.03,12.18 34.02,8.98 53.59,-7.13 19.57,-16.11 27.31,-39.04 17.28,-51.21 z"
   id="path8"
   inkscape:connector-curvature="0" />
	<path
   d="M 829.09,371.95 V 112.88 h -324 -0.35 -324 V 371.95 C 201,656 295.48,897.9 504.74,930.83 v 0.06 c 0.06,-0.01 0.12,-0.02 0.18,-0.03 0.06,0.01 0.12,0.02 0.18,0.03 L 508,931 C 717.26,898.08 808,662 829.09,371.95 Z m -324.18,383.5 c -57.35,-0.1 -103.82,-46.61 -103.82,-103.99 0,-56.06 99.09,-397.31 103.82,-413.54 4.72,16.24 103.82,357.48 103.82,413.54 0,57.38 -46.46,103.89 -103.82,103.99 z"
   id="path10"
   inkscape:connector-curvature="0" />
</g>
</svg>