<?xml version="1.0" encoding="UTF-8" standalone="no"?>
<svg
   xmlns:dc="http://purl.org/dc/elements/1.1/"
   xmlns:cc="http://creativecommons.org/ns#"
   xmlns:rdf="http://www.w3.org/1999/02/22-rdf-syntax-ns#"
   xmlns:svg="http://www.w3.org/2000/svg"
   xmlns="http://www.w3.org/2000/svg"
   xmlns:sodipodi="http://sodipodi.sourceforge.net/DTD/sodipodi-0.dtd"
   xmlns:inkscape="http://www.inkscape.org/namespaces/inkscape"
   version="1.1"
   id="图层_1"
   x="0px"
   y="0px"
   viewBox="0 0 800 800"
   sodipodi:docname="Kor’tal [T'au'va, Greater Good, T'au Empire, Sept].svg"
   width="800"
   height="800"
   inkscape:version="0.92.3 (2405546, 2018-03-11)">
  <metadata
     id="metadata23">
    <rdf:RDF>
      <cc:Work
         rdf:about="">
        <dc:format>image/svg+xml</dc:format>
        <dc:type
           rdf:resource="http://purl.org/dc/dcmitype/StillImage" />
        <dc:title></dc:title>
      </cc:Work>
    </rdf:RDF>
  </metadata>
  <defs
     id="defs21" />
  <sodipodi:namedview
     pagecolor="#ffffff"
     bordercolor="#666666"
     borderopacity="1"
     objecttolerance="10"
     gridtolerance="10"
     guidetolerance="10"
     inkscape:pageopacity="0"
     inkscape:pageshadow="2"
     inkscape:window-width="1920"
     inkscape:window-height="1017"
     id="namedview19"
     showgrid="false"
     fit-margin-top="0"
     fit-margin-left="0"
     fit-margin-right="0"
     fit-margin-bottom="0"
     inkscape:pagecheckerboard="true"
     inkscape:zoom="0.472"
     inkscape:cx="-13.771186"
     inkscape:cy="250"
     inkscape:window-x="-8"
     inkscape:window-y="-8"
     inkscape:window-maximized="1"
     inkscape:current-layer="图层_1" />
  <path
     d="M 400,0 C 179.04,0 0,179.04 0,400 0,620.96 179.04,800 400,800 620.96,800 800,620.96 800,400 800,179.04 620.96,0 400,0 Z m 0,776 C 192.32,776 24,607.68 24,400 24,192.32 192.32,24 400,24 607.68,24 776,192.32 776,400 776,607.68 607.68,776 400,776 Z"
     id="path2"
     inkscape:connector-curvature="0"
     style="stroke-width:1.60000002" />
  <g
     id="g16"
     transform="scale(1.6)">
    <circle
       cx="185.10001"
       cy="137.39999"
       r="70"
       id="circle4" />
    <path
       d="m 380.6,157.3 34.8,-20.1 C 370.5,71.2 291.6,39.7 216,52.8 c 18.5,6.7 34.9,19.6 45.9,37.6 46.3,3.4 90.4,27 118.7,66.9 z"
       id="path6"
       inkscape:connector-curvature="0" />
    <path
       d="m 362.7,185 c -19.8,-34.3 -52.8,-56.1 -88.9,-62.8 6.2,36.1 -10.2,73.8 -43.7,93.2 -33.5,19.4 -74.4,14.7 -102.6,-8.7 -12.2,34.6 -9.8,74.1 10,108.4 35.9,62.2 115.4,83.5 177.6,47.6 62.2,-36.1 83.5,-115.6 47.6,-177.7 z"
       id="path8"
       inkscape:connector-curvature="0" />
    <path
       d="M 106.1,180.3 C 96,161.8 93.1,141.2 96.5,121.8 47.4,180.7 35.2,264.7 69.9,336.7 l 34.8,-20.1 C 84.2,272.1 85.9,222.2 106.1,180.3 Z"
       id="path10"
       inkscape:connector-curvature="0" />
    <path
       d="m 119.7,342.6 -34.8,20.1 c 55.6,81.7 163,110.5 252,67.5 L 316.8,395.4 C 247.1,427.5 164,405.2 119.7,342.6 Z"
       id="path12"
       inkscape:connector-curvature="0" />
    <path
       d="m 395.6,183.3 c 32,69.7 9.8,152.8 -52.8,197.1 l 20.1,34.8 c 81.7,-55.6 110.5,-163 67.5,-252 z"
       id="path14"
       inkscape:connector-curvature="0" />
  </g>
</svg>
