<?xml version="1.0" encoding="UTF-8" standalone="no"?>
<!-- Generator: Adobe Illustrator 22.1.0, SVG Export Plug-In . SVG Version: 6.00 Build 0)  -->

<svg
   xmlns:dc="http://purl.org/dc/elements/1.1/"
   xmlns:cc="http://creativecommons.org/ns#"
   xmlns:rdf="http://www.w3.org/1999/02/22-rdf-syntax-ns#"
   xmlns:svg="http://www.w3.org/2000/svg"
   xmlns="http://www.w3.org/2000/svg"
   xmlns:sodipodi="http://sodipodi.sourceforge.net/DTD/sodipodi-0.dtd"
   xmlns:inkscape="http://www.inkscape.org/namespaces/inkscape"
   version="1.1"
   id="Layer_2"
   x="0px"
   y="0px"
   viewBox="0 0 874.28723 800"
   xml:space="preserve"
   sodipodi:docname="Lamenters [Imperium, Adeptus Astartes, Space Marines, Blood Angels, Chapter].svg"
   width="874.28723"
   height="800"
   inkscape:version="0.92.3 (2405546, 2018-03-11)"><metadata
   id="metadata13"><rdf:RDF><cc:Work
       rdf:about=""><dc:format>image/svg+xml</dc:format><dc:type
         rdf:resource="http://purl.org/dc/dcmitype/StillImage" /><dc:title></dc:title></cc:Work></rdf:RDF></metadata><defs
   id="defs11" /><sodipodi:namedview
   pagecolor="#ffffff"
   bordercolor="#666666"
   borderopacity="1"
   objecttolerance="10"
   gridtolerance="10"
   guidetolerance="10"
   inkscape:pageopacity="0"
   inkscape:pageshadow="2"
   inkscape:window-width="1920"
   inkscape:window-height="1017"
   id="namedview9"
   showgrid="false"
   inkscape:pagecheckerboard="true"
   fit-margin-top="0"
   fit-margin-left="0"
   fit-margin-right="0"
   fit-margin-bottom="0"
   inkscape:zoom="0.236"
   inkscape:cx="-115.55922"
   inkscape:cy="421.40003"
   inkscape:window-x="-8"
   inkscape:window-y="-8"
   inkscape:window-maximized="1"
   inkscape:current-layer="Layer_2" />
<g
   id="g6"
   transform="matrix(1.0285529,0,0,1.0285529,-90.529977,-147.70862)">
	<path
   d="m 836.4,177.9 c -196,-108.3 -323.6,75.5 -323.6,75.5 0,0 -128,-184 -324,-75.6 -339.9,187.6 285.5,686.7 327.1,687.7 41.6,1 660.6,-499.8 320.5,-687.6 z"
   id="path2"
   inkscape:connector-curvature="0" />
	<path
   d="m 165.5,635.7 c -21.2,91.5 -49.7,209.1 -51.6,232.4 0,0.1 0,0.2 0,0.3 0.1,29.3 23.9,53 53.2,53 29.3,0 53.1,-23.7 53.2,-53 0,-0.1 0,-0.2 0,-0.3 -0.1,-13.6 -31,-144.2 -51.8,-232.4 -0.4,-1.5 -2.6,-1.5 -3,0 z"
   id="path4"
   inkscape:connector-curvature="0" />
</g>
</svg>