<?xml version="1.0" encoding="UTF-8" standalone="no"?>
<svg
   xmlns:dc="http://purl.org/dc/elements/1.1/"
   xmlns:cc="http://creativecommons.org/ns#"
   xmlns:rdf="http://www.w3.org/1999/02/22-rdf-syntax-ns#"
   xmlns:svg="http://www.w3.org/2000/svg"
   xmlns="http://www.w3.org/2000/svg"
   xmlns:sodipodi="http://sodipodi.sourceforge.net/DTD/sodipodi-0.dtd"
   xmlns:inkscape="http://www.inkscape.org/namespaces/inkscape"
   inkscape:version="1.0 (4035a4fb49, 2020-05-01)"
   sodipodi:docname="Legio Gryphonicus [Imperium, Adeptus Mechanicus, Collegia Titanica, Adeptus Titanicus].svg"
   id="svg8"
   version="1.1"
   viewBox="0 0 172.71694 211.66667"
   height="800"
   width="652.78845">
  <defs
     id="defs2" />
  <sodipodi:namedview
     fit-margin-bottom="0"
     fit-margin-right="0"
     fit-margin-left="0"
     fit-margin-top="0"
     inkscape:pagecheckerboard="true"
     inkscape:window-maximized="1"
     inkscape:window-y="-9"
     inkscape:window-x="-9"
     inkscape:window-height="1001"
     inkscape:window-width="1920"
     inkscape:snap-global="false"
     units="px"
     showgrid="false"
     inkscape:document-rotation="0"
     inkscape:current-layer="layer1"
     inkscape:document-units="px"
     inkscape:cy="370.18397"
     inkscape:cx="527.26664"
     inkscape:zoom="0.80833933"
     inkscape:pageshadow="2"
     inkscape:pageopacity="0.0"
     borderopacity="1.0"
     bordercolor="#666666"
     pagecolor="#ffffff"
     id="base" />
  <metadata
     id="metadata5">
    <rdf:RDF>
      <cc:Work
         rdf:about="">
        <dc:format>image/svg+xml</dc:format>
        <dc:type
           rdf:resource="http://purl.org/dc/dcmitype/StillImage" />
        <dc:title></dc:title>
      </cc:Work>
    </rdf:RDF>
  </metadata>
  <g
     transform="translate(-28.675671,-34.537992)"
     id="layer1"
     inkscape:groupmode="layer"
     inkscape:label="Layer 1">
    <g
       transform="matrix(1.2334815,0,0,1.2334815,-6.6952386,-8.0639822)"
       id="g1222">
      <circle
         style="fill:none;fill-opacity:0.242915;stroke:#000000;stroke-width:0.538828;stroke-miterlimit:4;stroke-dasharray:none;stroke-opacity:1"
         id="circle1022"
         cx="98.687645"
         cy="136.12675"
         r="49.607773" />
      <path
         id="path1012"
         style="fill:#000000;fill-opacity:1;stroke:#000000;stroke-width:0.529167;stroke-miterlimit:4;stroke-dasharray:none;stroke-opacity:1"
         d="m 98.687618,66.983939 -5.03432,15.75822 c -7.85489,0.7465 -15.44544,3.23062 -22.2219,7.272419 l -13.38471,-9.825759 5.22448,15.814019 c -1.65322,1.47447 -3.21275,3.05074 -4.66948,4.719612 l -15.85174,-5.236892 9.92032,13.513912 c -3.9036,6.72498 -6.28579,14.22381 -6.9789,21.96868 l -16.1463,5.15834 16.2295,5.18521 c 0.80701,7.62345 3.25179,14.9825 7.167,21.57336 l -10.19162,13.88288 16.42173,-5.42499 c 1.35485,1.50278 2.7943,2.92706 4.31137,4.26589 l -5.43636,16.45532 14.01309,-10.28671 c 6.53816,3.77938 13.80593,6.1237 21.32015,6.8771 l 5.30769,16.61501 5.308202,-16.61501 c 7.51422,-0.7534 14.78199,-3.09772 21.32014,-6.8771 l 14.01259,10.28671 -5.43636,-16.45532 c 1.51706,-1.33883 2.95652,-2.76311 4.31136,-4.26589 l 16.42174,5.42499 -10.19163,-13.88339 c 3.91496,-6.59074 6.35957,-13.94961 7.16649,-21.57285 l 16.23002,-5.18521 -16.14631,-5.15782 c -0.69312,-7.74526 -3.07549,-15.24448 -6.97941,-21.96972 l 9.92084,-13.513392 -15.85175,5.236892 c -1.45675,-1.668692 -3.01628,-3.244792 -4.66948,-4.719092 l 5.22449,-15.814539 -13.3842,9.826279 c -6.77657,-4.042069 -14.36731,-6.526349 -22.22241,-7.272939 z m 0,19.53525 a 49.607771,49.607771 0 0 1 49.607302,49.607821 49.607771,49.607771 0 0 1 -49.607302,49.60731 49.607771,49.607771 0 0 1 -49.60783,-49.60731 49.607771,49.607771 0 0 1 49.60783,-49.607821 z" />
      <g
         id="g1196"
         style="fill:#000000;fill-opacity:1"
         transform="translate(-144.67637,148.45054)">
        <g
           id="g1179"
           style="fill:#000000;fill-opacity:1">
          <path
             style="fill:#000000;fill-opacity:1;stroke:#000000;stroke-width:0.264583px;stroke-linecap:butt;stroke-linejoin:miter;stroke-opacity:1"
             d="m 216.98139,-20.1677 1.21066,-1.30378 c 0,0 -4.55134,-3.75917 -5.68078,-5.02889 -1.12944,-1.26972 -1.20805,-1.31917 -1.49004,-2.14193 -0.1915,-0.55872 0.48738,-1.6606 -0.0931,-1.76943 -0.99184,-0.18593 -2.04881,-1.11753 -2.04881,-1.11753 0,0 0.40952,-1.94883 0.18626,-2.88695 -0.14176,-0.59562 -0.42161,-1.24391 -0.93128,-1.58317 -1.14753,-0.76385 -4.09761,-0.55876 -4.09761,-0.55876 l 1.30379,1.21066 0.18625,0.46563 1.49004,0.18626 0.83815,1.76942 -1.21066,1.95568 -2.42131,-0.27938 -2.14194,0.65189 -1.0244,0.83815 c 0,0 1.09074,-0.0992 1.58317,0.0931 0.41098,0.16046 1.0244,0.83815 1.0244,0.83815 0,0 0.92243,-1.14155 1.58317,-1.21066 0.71811,-0.0751 1.95568,0.93128 1.95568,0.93128 l 0.0931,2.04881 c 0,0 -0.51352,0.47297 -0.83815,0.55876 -0.42124,0.11132 -1.30378,-0.0931 -1.30378,-0.0931 0,0 -0.19003,1.17171 -0.6519,1.39692 -0.37226,0.18152 -1.21066,-0.27939 -1.21066,-0.27939 0,0 0.33198,1.02105 0.74502,1.30379 0.51805,0.35462 1.27806,0.5085 1.86255,0.27938 0.74024,-0.29017 0.85733,-1.38108 1.49004,-1.86255 0.56441,-0.42949 1.05332,-1.05528 1.95568,-0.83815 2.70153,1.90716 5.08895,4.28918 7.63646,6.42579 z"
             id="path1026"
             sodipodi:nodetypes="cczsscsscccccccccscsccscscssscc" />
          <path
             style="fill:#000000;fill-opacity:1;stroke:#000000;stroke-width:0.264583px;stroke-linecap:butt;stroke-linejoin:miter;stroke-opacity:1"
             d="m 217.9855,-9.38437 v -2.23509 c 0,0 -2.87378,-0.34831 -4.04035,-1.11754 -1.07225,-0.70703 -2.40702,-3.00878 -2.40702,-3.00878 l -1.11755,-2.83685 -3.69649,0.5158 -1.28948,1.80526 c 0,0 0.76158,0.0275 1.11755,-0.086 0.31838,-0.1015 0.85965,-0.51579 0.85965,-0.51579 l 1.11754,0.85965 c 0,0 1.14093,-0.90867 1.63334,-0.60176 0.70899,0.4419 0.4809,1.68787 0.25789,2.49299 -0.19122,0.69038 -0.61552,1.47643 -1.28947,1.7193 -0.69309,0.24976 -2.14913,-0.51579 -2.14913,-0.51579 0,0 -0.70531,1.07406 -1.20351,1.4614 -0.42503,0.33045 -1.4614,0.68772 -1.4614,0.68772 0,0 1.48227,0.3357 2.23509,0.42983 0.48421,0.0605 1.4614,0.086 1.4614,0.086 0,0 0.25656,-0.83331 0.60176,-1.03158 0.5715,-0.32825 1.40236,-0.32239 1.97719,0 0.52723,0.29568 0.93844,0.94293 0.94562,1.54737 0.007,0.62906 -0.42615,1.27847 -0.94562,1.63334 -0.31121,0.2126 -0.84671,-0.0902 -1.11754,0.17193 -0.33519,0.32441 0.023,1.00304 -0.2579,1.37544 -0.19292,0.25577 -0.85965,0.42982 -0.85965,0.42982 l -1.03158,-0.34386 c 0,0 0.83172,1.18195 1.46141,1.46141 0.52448,0.23277 1.23322,0.39094 1.7193,0.086 0.68527,-0.42991 0.36185,-1.67505 0.94561,-2.23509 0.35335,-0.33899 0.93445,-0.30299 1.37544,-0.51579 0.45145,-0.21785 0.92368,-0.43097 1.28948,-0.77368 0.33063,-0.30977 0.36668,-0.91849 0.77368,-1.11755 0.92811,-0.45393 3.09474,0.17189 3.09474,0.17189 z"
             id="path1028"
             sodipodi:nodetypes="ccsccccsccssscscscssssssccssssssc" />
        </g>
        <g
           style="fill:#000000;fill-opacity:1;stroke:#000000;stroke-width:0.529167;stroke-miterlimit:4;stroke-dasharray:none;stroke-opacity:1"
           transform="translate(128.32399,-160.51087)"
           id="g1050">
          <path
             style="fill:#000000;fill-opacity:1;stroke:#000000;stroke-width:0.529167;stroke-linecap:butt;stroke-linejoin:miter;stroke-miterlimit:4;stroke-dasharray:none;stroke-opacity:1"
             d="m 125.5398,134.05135 c -3.2212,2.31028 2.4081,10.55158 10.84309,6.98171 0,0 -0.85834,0.003 -1.39506,-0.1993 -0.53672,-0.20212 -6.22683,-9.0927 -9.44803,-6.78241 z"
             id="path992"
             sodipodi:nodetypes="zczz" />
          <path
             sodipodi:nodetypes="zczz"
             id="path996"
             d="m 131.03153,126.68069 c -3.97332,2.42538 3.78539,12.84913 14.64318,8.63604 0,0 -3.15475,-0.85255 -5.06143,-1.76448 -1.90668,-0.91193 -5.60843,-9.29694 -9.58175,-6.87156 z"
             style="fill:#000000;fill-opacity:1;stroke:#000000;stroke-width:0.529167;stroke-linecap:butt;stroke-linejoin:miter;stroke-miterlimit:4;stroke-dasharray:none;stroke-opacity:1" />
          <path
             style="fill:#000000;fill-opacity:1;stroke:#000000;stroke-width:0.529167;stroke-linecap:butt;stroke-linejoin:miter;stroke-miterlimit:4;stroke-dasharray:none;stroke-opacity:1"
             d="m 135.56571,119.97804 c -3.33456,2.27209 0.75226,9.99308 17.28552,2.45662 0,0 -2.57272,0.24363 -4.92771,-0.0261 -2.35499,-0.26973 -9.02326,-4.7026 -12.35781,-2.43052 z"
             id="path998"
             sodipodi:nodetypes="zczz" />
          <path
             sodipodi:nodetypes="zczz"
             id="path1000"
             d="m 138.4488,112.29623 c -3.45219,1.97397 2.45298,13.4431 21.46443,0.65872 0,0 -3.18193,0.77134 -6.28829,0.99433 -3.10635,0.22299 -11.72395,-3.62702 -15.17614,-1.65305 z"
             style="fill:#000000;fill-opacity:1;stroke:#000000;stroke-width:0.529167;stroke-linecap:butt;stroke-linejoin:miter;stroke-miterlimit:4;stroke-dasharray:none;stroke-opacity:1" />
          <path
             style="fill:#000000;fill-opacity:1;stroke:#000000;stroke-width:0.529167;stroke-linecap:butt;stroke-linejoin:miter;stroke-miterlimit:4;stroke-dasharray:none;stroke-opacity:1"
             d="m 138.73482,102.31276 c -6.60837,5.10598 13.41562,12.70663 17.8487,-14.680423 0,0 -2.23966,3.768932 -4.52381,6.129671 -2.28415,2.360739 -6.71652,3.444767 -13.32489,8.550752 z"
             id="path1002"
             sodipodi:nodetypes="zczz" />
          <path
             sodipodi:nodetypes="zczz"
             id="path1004"
             d="m 133.84245,93.788932 c -3.27954,7.880008 18.8628,8.116878 17.59651,-21.539836 0,0 -4.36648,9.21567 -7.10412,12.173172 -2.73763,2.957502 -7.21285,1.486657 -10.49239,9.366664 z"
             style="fill:#000000;fill-opacity:1;stroke:#000000;stroke-width:0.529167;stroke-linecap:butt;stroke-linejoin:miter;stroke-miterlimit:4;stroke-dasharray:none;stroke-opacity:1" />
          <path
             style="fill:#000000;fill-opacity:1;stroke:#000000;stroke-width:0.529167;stroke-linecap:butt;stroke-linejoin:miter;stroke-miterlimit:4;stroke-dasharray:none;stroke-opacity:1"
             d="m 130.20946,83.147708 c -2.60311,9.039614 21.08538,8.116878 5.32402,-27.047961 0,0 0.94837,9.602205 -0.33976,13.815946 -1.28812,4.213741 -2.38116,4.192402 -4.98426,13.232015 z"
             id="path1006"
             sodipodi:nodetypes="zczz" />
          <path
             sodipodi:nodetypes="zczz"
             id="path1008"
             d="m 125.28114,85.370285 c 4.93432,1.405545 10.26239,-18.264146 -5.69223,-36.518072 0,0 2.97769,12.30795 2.65589,17.777931 -0.3218,5.469981 -1.89798,17.334596 3.03634,18.740141 z"
             style="fill:#000000;fill-opacity:1;stroke:#000000;stroke-width:0.529167;stroke-linecap:butt;stroke-linejoin:miter;stroke-miterlimit:4;stroke-dasharray:none;stroke-opacity:1" />
        </g>
        <path
           sodipodi:nodetypes="csscsscscccccccccccccccccssssssccsssccscccccsccccccccccccczcscscsccscscscscscccscccccscccccccsssscssscsssscccccsscssccccccsccccscsssssccsssssssscsssccssc"
           id="path1030"
           d="m 219.45277,43.44078 c 0,0 0.0723,-1.47608 0.40804,-2.10821 0.21055,-0.39637 0.53472,-0.78704 0.95209,-0.95209 0.65383,-0.25856 2.1082,0.068 2.1082,0.068 0,0 1.49104,-1.96399 2.44824,-2.72026 0.44574,-0.35217 0.93711,-0.71509 1.49614,-0.81608 0.47322,-0.0855 1.42814,0.20402 1.42814,0.20402 0,0 0.30695,1.87358 0.13602,2.78827 -0.16405,0.87785 -1.08811,2.44823 -1.08811,2.44823 l -0.74807,1.76817 2.99229,-2.44823 1.90418,-4.01239 -1.08811,-3.53634 2.17621,-3.1283 4.01239,-2.38023 3.19631,-0.20402 3.06029,0.27203 -1.76817,-1.36013 1.15611,-1.22412 2.17621,0.54405 -1.97219,-2.85628 -1.42813,-1.36013 0.47604,-1.15611 1.0201,-0.54405 -2.24422,-0.95209 c 0,0 -1.06868,-1.08408 -1.36013,-1.76817 -0.47625,-1.11784 -0.8833,-2.43761 -0.54405,-3.60435 0.19291,-0.66346 0.73913,-1.26124 1.36013,-1.56415 0.7753,-0.37817 1.76085,-0.39311 2.58425,-0.13601 0.60161,0.18785 0.8928,0.9739 1.49614,1.15611 0.91376,0.27596 2.74444,0.0266 3.49791,0.6126 1.55443,1.20894 1.98689,2.53957 3.57478,3.94384 2.57899,2.14961 7.32541,2.47713 8.24787,4.86581 0.79733,2.22629 1.1661,7.38414 -0.69915,9.21154 -1.24852,1.22319 -2.06743,2.97596 -3.60434,3.80837 -1.33715,0.72422 -3.14146,0.11032 -4.48844,0.81608 -0.99389,0.52075 -2.38023,2.38023 -2.38023,2.38023 l 2.17621,-0.40804 c 0,0 0.93416,0.774392 1.56416,0.693829 1.03654,-0.132549 2.04019,-1.985949 2.04019,-1.985949 l 1.63216,1.29212 -1.36013,1.29212 -1.0201,1.49615 0.74807,4.48843 c 0,0 -0.0218,-2.60578 0.75991,-3.46834 0.49865,-0.55022 1.82434,-0.47604 1.82434,-0.47604 l 1.42814,-2.58425 2.78827,0.68007 2.24421,2.17621 1.42814,2.72026 0.20402,-3.87638 -0.68006,-3.06029 -1.70017,0.20402 -1.36013,-0.13601 c -0.11141,-5.43856 2.58922,-8.38219 6.39261,-9.52092 -2.78703,-2.67873 -2.79264,-3.23894 1.0201,-4.01239 -4.45445,-1.70487 -3.21753,-3.99526 -0.27202,-6.2566 -5.40872,-0.72309 -4.6776,-2.8112 -0.13602,-3.06029 -7.13155,-1.99775 -12.17306,-12.55114 -7.61673,-14.07736 4.55633,-1.52622 9.03517,10.92438 20.06193,7.75275 2.82261,-0.40363 5.3898,-2.20982 7.48072,-4.1484 0.75614,-0.70105 1.70017,-2.58425 1.70017,-2.58425 0,0 -0.9476,0.1859106 -1.42814,0.20402 -0.34055,0.012834 -1.0201,-0.068 -1.0201,-0.068 0,0 1.07848,-1.5483695 1.63216,-2.31222 0.71311,-0.98379164 2.17621,-2.92429 2.17621,-2.92429 l 0.068,-0.81607 c 0,0 -0.54926,0.4841377 -0.88408,0.61206 -0.51218,0.1956843 -1.63216,0.20401 -1.63216,0.20401 0,0 0.97627,-2.0363163 1.22412,-3.1283 0.34212,-1.5073029 0.34003,-4.62444 0.34003,-4.62444 0,0 -0.82549,0.9006223 -1.29212,1.29212 -0.42397,0.355702 -1.36013,0.9521 -1.36013,0.9521 0,0 0.45914,-3.745433 0.13601,-5.57654 -0.21581,-1.222937 -1.36013,-3.46834 -1.36013,-3.46834 0,0 0.0809,1.108394 -0.068,1.63216 -0.11381,0.400278 -0.61206,1.0881 -0.61206,1.0881 -1.27109,-1.655361 -3.00667,-3.312812 -4.76046,-4.01238 -0.85349,-0.306201 -2.72026,0 -2.72026,0 0,0 1.24476,0.218008 1.76818,0.54405 0.44919,0.279802 1.0881,1.1561 1.0881,1.1561 h -9.52092 c 11.42367,4.06655 13.24851,12.35864 8.22879,18.02175 -9.84928,7.31309 -15.21543,-3.47869 -19.7219,-9.99696 -3.29013,-4.6095 -9.65397,-10.73031 -9.31689,-16.18556 0.15427,-1.82856 1.17621,-3.64277 2.51624,-4.89647 0.6673,-0.62431 2.51624,-1.08811 2.51624,-1.08811 1.01814,-3.70268 0.65745,-5.06246 4.55644,-6.66464 0.21355,-3.67501 0.2502,-4.20309 3.60435,-6.32461 -1.25694,-3.94065 -1.42478,-4.38996 1.97219,-7.48072 -3.11928,-3.25403 -3.83672,-3.40844 -2.51625,-8.22879 -3.15588,-3.670864 -3.42112,-4.482683 -2.38022,-9.520922 -2.53831,-0.968721 -3.5287,-0.434755 -4.0804,-3.468333 0,0 -2.47909,0.659265 -3.53634,0.136012 -2.01228,-0.995914 -2.98741,-3.446765 -3.87637,-5.50853 -2.47309,-5.735843 -1.05248,-12.72338 -3.74036,-18.361768 -2.2869,-4.797269 -5.9506,-9.030259 -10.13298,-12.309189 -3.00818,-2.35837 -10.33699,-4.96448 -10.33699,-4.96448 0,0 1.47264,3.12724 2.51624,4.48844 3.29669,4.29995 8.22316,7.14316 11.62912,11.35709 2.45906,3.04241 5.09632,6.193052 6.2566,9.928958 0.33645,1.083305 0.13601,3.400327 0.13601,3.400327 0,0 -1.68463,-0.82306 -2.44823,-1.360131 -0.59131,-0.415892 -0.96427,-1.704788 -1.63216,-1.428138 -1.25939,0.521656 -0.37559,2.721183 -0.27202,4.080393 0.15879,2.083924 1.32056,4.031 1.36013,6.12059 0.0812,4.285503 -2.66659,8.39456 -2.31222,12.649219 0.90246,8.533402 14.91402,7.269912 13.87333,15.505492 -1.6994,6.30741 -6.54787,7.1416 -10.337,9.52092 -1.67807,1.09593 -4.35242,4.1484 -4.35242,4.1484 -4.69103,-3.18652 -3.56734,-0.38288 -4.96447,3.60435 -0.35261,0.97213 -0.3402,2.61761 -1.36013,2.78826 -0.8221,0.13755 -1.25927,-1.10803 -1.76817,-1.76817 -0.57682,-0.74825 -1.42814,-2.44823 -1.42814,-2.44823 0,0 -1.04196,2.93227 -1.97219,4.1484 -0.88884,1.16201 -1.9731,2.31514 -3.33232,2.85627 -1.2863,0.5121 -4.14844,0.20402 -4.14844,0.20402 v 2.38023 l -1.4281,1.0201 0.61212,1.0881 v 2.31223 h 3.80831 c 0,0 1.34574,0.66694 1.36013,1.29212 0.0181,0.78539 -1.63216,1.70016 -1.63216,1.70016 l -2.7203,0.20402 v 2.65226 l -1.02006,0.81608 c 0,0 1.34942,1.16018 1.49614,1.97219 0.16833,0.93156 -0.81608,2.72015 -0.81608,2.72015 0,0 3.49575,0.41238 5.1685,0 0.99434,-0.24513 1.73783,-1.13888 2.72026,-1.42803 1.22265,-0.35984 2.60011,0.0655 3.80837,-0.34003 0.60823,-0.20415 0.99068,-1.03125 1.63216,-1.0201 1.17555,0.0204 1.92015,1.48859 2.74929,2.32217 0.74932,0.75334 2.20392,1.27224 1.94316,2.30228 -2.5245,3.11823 -9.2528,3.22414 -12.10517,5.30451 -1.31463,1.00534 -2.8882,2.3578 -2.92428,4.01239 -0.0759,3.48229 4.03501,5.69067 5.78056,8.70483 1.77819,3.07051 4.28504,6.00468 4.76046,9.52092 0.23529,1.74023 -0.10246,3.67127 -1.0201,5.1685 -1.47635,2.40882 -4.02123,4.2393 -6.66464,5.2365 -1.52947,0.57698 -3.30444,-0.0989 -4.89648,0.27203 -1.12768,0.26274 -2.26328,0.67444 -3.1963,1.36013 -0.64788,0.47614 -1.49515,1.03512 -1.56415,1.83618 -0.0497,0.57714 0.88408,1.49614 0.88408,1.49614 0,0 -0.0599,-1.19166 0.27203,-1.63216 0.31731,-0.42109 0.91384,-0.56386 1.42814,-0.68006 0.59701,-0.13489 1.23686,0.12427 1.83617,0 0.72574,-0.15048 2.0402,-0.88409 2.0402,-0.88409 l 0.88408,1.70017 c 0,0 -2.06772,1.73932 -2.99228,2.72026 -0.61921,0.65696 -1.50099,1.22767 -1.70017,2.1082 -0.21593,0.95459 0.68006,2.85628 0.68006,2.85628 z"
           style="fill:#000000;fill-opacity:1;stroke:#000000;stroke-width:0.529167;stroke-linecap:butt;stroke-linejoin:miter;stroke-miterlimit:4;stroke-dasharray:none;stroke-opacity:1" />
        <path
           d="m 233.06023,-60.328355 c -3.59837,4.191849 -7.30456,8.114569 -12.18117,10.757998 v 2.033468 c 3.73372,1.017521 9.31052,2.271421 9.96115,6.84661 -0.0114,2.866591 -2.85813,5.072787 -4.21214,6.773748 l 3.58582,-1.593702 2.39107,4.041098 c 0,0 0.96723,-7.429124 3.87057,-7.969022 1.14826,-0.213532 2.5616,2.391068 2.5616,2.391068 0,0 2.27813,-3.169861 3.81372,-4.326353 1.94575,-1.4654 6.6027,-3.130557 6.6027,-3.130557 0,0 -2.00479,-1.113748 -2.84583,-1.878439 -1.39639,-1.26964 -2.73213,-2.732132 -2.73213,-2.732132 l 2.4474,-1.42317 c 0,0 -2.00507,-0.476163 -2.96003,-0.853694 -0.93119,-0.368131 -2.67529,-1.366324 -2.67529,-1.366324 l 0.39843,-1.536856 c 0,0 -1.59297,1.1221 -3.30161,-0.626319 -0.53704,-0.549551 -0.64061,-1.41033 -0.79685,-2.16266 -0.20477,-0.986189 -0.17053,-3.016869 -0.17053,-3.016869 0,0 -1.02232,0.555498 -1.48002,0.910537 -0.60434,0.468802 -1.65054,1.593702 -1.65054,1.593702 z m -3.13831,8.154024 0.11524,1.209744 c -1.63846,0.583311 -2.9415,1.295511 -3.97392,2.706812 -0.44323,-0.6876 -0.79482,-0.88976 -1.49758,-1.03663 1.68168,-1.191239 3.42612,-2.150517 5.35626,-2.879926 z"
           style="fill:#000000;fill-opacity:1;stroke:#000000;stroke-width:0.529167;stroke-linecap:butt;stroke-linejoin:miter;stroke-miterlimit:4;stroke-dasharray:none;stroke-opacity:1"
           id="path1032" />
        <path
           sodipodi:nodetypes="csccccccccc"
           d="m 219.34221,-48.944038 c 0,0 -4.47928,2.801157 -4.66794,6.773746 -0.15801,3.32732 4.83847,4.440039 4.83847,4.440039 -0.43236,-1.020131 -0.85089,-2.130298 -0.39843,-3.187917 1.3826,-1.62206 5.01916,-0.933871 7.11533,-0.284221 -0.37023,1.2676 -0.88875,2.11347 -1.99213,2.845821 1.30633,-0.433173 5.15753,-0.38762 5.19917,-1.705324 -0.32137,-2.378662 -1.91027,-3.855432 -3.85765,-4.872569 -2.00517,-0.860901 -4.21304,-1.409033 -6.04355,-1.907895 v -2.060855 z"
           style="fill:#000000;fill-opacity:1;stroke:#000000;stroke-width:0.529167;stroke-linecap:butt;stroke-linejoin:miter;stroke-miterlimit:4;stroke-dasharray:none;stroke-opacity:1"
           id="path1034" />
      </g>
    </g>
  </g>
</svg>
