<?xml version="1.0" encoding="UTF-8" standalone="no"?>
<svg
   xmlns:dc="http://purl.org/dc/elements/1.1/"
   xmlns:cc="http://creativecommons.org/ns#"
   xmlns:rdf="http://www.w3.org/1999/02/22-rdf-syntax-ns#"
   xmlns:svg="http://www.w3.org/2000/svg"
   xmlns="http://www.w3.org/2000/svg"
   xmlns:sodipodi="http://sodipodi.sourceforge.net/DTD/sodipodi-0.dtd"
   xmlns:inkscape="http://www.inkscape.org/namespaces/inkscape"
   version="1.1"
   id="图层_1"
   x="0px"
   y="0px"
   viewBox="0 0 400 400"
   sodipodi:docname="Lord of War [Battlefield Role].svg"
   width="400"
   height="400"
   inkscape:version="0.92.3 (2405546, 2018-03-11)">
  <metadata
     id="metadata17">
    <rdf:RDF>
      <cc:Work
         rdf:about="">
        <dc:format>image/svg+xml</dc:format>
        <dc:type
           rdf:resource="http://purl.org/dc/dcmitype/StillImage" />
        <dc:title></dc:title>
      </cc:Work>
    </rdf:RDF>
  </metadata>
  <defs
     id="defs15" />
  <sodipodi:namedview
     pagecolor="#ffffff"
     bordercolor="#666666"
     borderopacity="1"
     objecttolerance="10"
     gridtolerance="10"
     guidetolerance="10"
     inkscape:pageopacity="0"
     inkscape:pageshadow="2"
     inkscape:window-width="1920"
     inkscape:window-height="1017"
     id="namedview13"
     showgrid="false"
     fit-margin-top="0"
     fit-margin-left="0"
     fit-margin-right="0"
     fit-margin-bottom="0"
     inkscape:pagecheckerboard="true"
     inkscape:zoom="0.472"
     inkscape:cx="-13.771186"
     inkscape:cy="250"
     inkscape:window-x="-8"
     inkscape:window-y="-8"
     inkscape:window-maximized="1"
     inkscape:current-layer="图层_1" />
  <style
     type="text/css"
     id="style2">
	.st0{fill:none;}
	.st1{fill:#FFFFFF;}
</style>
  <path
     d="M 282.8,0 H 117.2 L 0,117.2 V 282.88 L 117.2,400 H 282.88 L 400,282.8 V 117.2 Z m 4.56,104.72 8.8,-12.24 c 1.44,-2 4.64,-0.72 4.4,1.76 l -1.6,14.96 c -0.16,1.6 -1.84,2.64 -3.28,2 l -7.2,-2.72 c -1.52,-0.56 -2.08,-2.4 -1.12,-3.76 z m -53.92,-19.44 6,-15.04 c 0.96,-2.32 4.32,-1.92 4.72,0.56 l 2.56,16 c 0.24,1.6 -1.12,3.04 -2.72,2.8 l -8.56,-0.96 c -1.6,-0.16 -2.64,-1.84 -2,-3.36 z m -24.16,48.96 c 0,-0.08 0,-0.24 0,-0.32 0.08,-0.64 0.08,-1.28 0.08,-1.92 0,-0.24 0,-0.48 0,-0.72 0,-1.6 -0.08,-2.96 -0.08,-4.24 0,-0.48 0,-0.96 0,-1.44 0.88,-7.6 1.28,-13.92 2.24,-20.08 1.28,-8 6,-12.56 13.92,-13.92 7.84,-1.36 15.6,-0.56 23.12,2.4 5.52,2.08 8.56,6.08 8.08,12 -0.72,8.32 -1.68,16.48 -3.36,24.64 -1.36,6.96 -3.84,13.68 -5.76,20.56 -0.08,0.24 -0.16,0.48 -0.24,0.72 0,0.08 0,0.16 -0.08,0.24 -0.08,0.16 -0.08,0.32 -0.16,0.48 0,0.08 0,0.16 -0.08,0.24 -0.08,0.08 -0.08,0.24 -0.16,0.32 -0.08,0.08 -0.08,0.16 -0.16,0.24 -0.08,0.08 -0.08,0.24 -0.16,0.32 -0.08,0.08 -0.08,0.16 -0.16,0.24 0,0.08 -0.08,0.16 -0.16,0.24 -0.08,0.16 -0.08,0.16 -0.16,0.24 0,0.08 -0.08,0.16 -0.16,0.24 -0.08,0.08 -0.08,0.08 -0.16,0.16 -0.08,0.08 -0.16,0.08 -0.24,0.16 0,0 -0.08,0 -0.16,0.08 -0.08,0.08 -0.16,0.08 -0.24,0.16 0,0 -0.08,0 -0.16,0.08 -0.16,0 -0.24,0 -0.32,0.08 0,0 -0.08,0.08 -0.16,0.08 -0.16,0 -0.24,0.08 -0.32,0.08 0,0.08 -0.08,0.08 -0.16,0.08 -0.08,0 -0.24,0 -0.32,0 0,0 -0.08,0 -0.16,0 -0.16,0 -0.32,0 -0.48,-0.08 -0.08,0 -0.08,0 -0.16,0 -0.16,-0.08 -0.4,-0.08 -0.64,-0.16 0,0 -0.08,-0.08 -0.16,-0.08 -0.16,-0.08 -0.32,-0.08 -0.48,-0.16 -0.16,0 -0.24,0 -0.32,-0.08 -0.16,-0.08 -0.24,-0.08 -0.4,-0.16 -9.12,-4.24 -18.16,-8.4 -27.36,-12.48 -3.12,-1.36 -4.32,-3.44 -4.24,-7.04 0,-0.4 0.08,-0.8 0.08,-1.2 z M 175.44,74 179.28,60.32 c 0.64,-2.4 4,-2.4 4.72,0 L 187.84,74 c 0.4,1.6 -0.72,3.12 -2.4,3.12 h -7.6 c -1.6,0 -2.8,-1.52 -2.4,-3.12 z m 7.12,5.12 c 13.12,0 17.44,3.84 20.08,16.88 2.48,12.16 1.76,24.32 -0.16,36.4 -0.56,3.68 -2.08,5.12 -5.84,3.44 -9.68,-4.24 -19.44,-8.4 -28.96,-12.8 -1.6,-0.72 -3.36,-2.88 -3.6,-4.64 -1.04,-6.16 -1.44,-12.48 -1.76,-16.08 -0.08,-19.6 3.44,-23.2 20.24,-23.2 z m -64.4,-12.4 8,12.48 c 0.88,1.36 0.16,3.2 -1.36,3.68 l -7.68,2.32 C 115.6,85.68 114,84.56 114,82.88 l -0.24,-14.8 c -0.16,-2.48 3.12,-3.52 4.4,-1.36 z m -6.08,22.88 c 6.4,-2.72 13.12,-4.8 19.84,-6.48 5.6,-1.44 9.84,1.28 12.16,6.4 5.2,11.2 7.84,23.04 8.72,35.28 0.16,1.52 -1.28,3.52 -2.56,4.56 -9.68,8.16 -19.44,16.16 -29.28,24 -3.84,3.12 -5.92,2.56 -7.68,-1.76 -5.84,-14.08 -9.68,-28.8 -10.72,-45.84 -0.96,-6.56 1.92,-12.96 9.52,-16.16 z m 0.72,119.68 c -3.2,-8.32 -6.24,-16.8 -8.64,-25.36 -0.56,-1.92 0.8,-5.52 2.48,-6.88 17.68,-15.2 35.44,-30.08 53.36,-44.88 1.36,-1.2 4.32,-1.68 6,-0.96 21.6,9.2 43.2,18.64 64.8,28 3.52,1.44 7.04,2.96 10.32,4.96 1.12,0.64 2.48,3.28 2,4.16 -2.8,5.76 -5.68,11.44 -9.2,16.72 -3.12,4.64 -8.16,6.96 -13.6,6.24 -11.84,-1.52 -23.68,-3.6 -35.52,-5.52 -1.6,-0.32 -3.12,-0.72 -5.04,-1.2 -1.68,5.68 -3.12,11.04 -4.8,16.32 -5.44,16.8 -11.68,21.76 -29.12,22.72 -5.36,0.24 -10.72,-0.24 -16,-1.04 -7.84,-1.2 -14.08,-5.52 -17.04,-13.28 z m 83.36,134.48 -70.4,-30.88 14.4,-41.44 h 120.88 l 13.2,38 z M 281.6,206.48 c -5.84,19.12 -11.76,38.16 -17.36,57.36 -1.04,3.6 -3.04,3.52 -5.6,3.52 -18.96,0 -37.84,0 -56.8,0 0,0.08 0,0.08 0,0.16 -19.12,0 -38.24,0.08 -57.28,-0.16 -1.84,0 -4.08,-1.36 -5.04,-2.96 -5.6,-9.68 -10.96,-19.44 -16.32,-29.28 -2.08,-3.76 -0.48,-6.24 3.92,-6 4.72,0.24 9.28,1.04 14,1.28 4.08,0.16 8.32,0.16 12.48,-0.32 14.96,-1.52 24.88,-8.96 27.68,-24.64 0.48,-2.88 1.6,-5.6 2.08,-8.4 0.88,-4.48 3.2,-5.2 7.28,-4.24 9.6,2.24 19.2,4.24 28.88,5.84 9.76,1.52 17.04,-2.88 22.88,-10.72 6.64,-8.88 6.96,-8.8 12.56,0.32 2.32,3.84 5.52,6.24 9.92,6.8 3.2,0.4 6.32,1.04 9.52,1.28 10.16,0.48 10.16,0.4 7.2,10.16 z M 302,141.76 c -5.6,14.72 -13.12,28.72 -20.24,42.8 -1.12,2.24 -5.04,3.92 -7.84,4.16 -11.52,0.8 -18.88,-4.24 -19.28,-12.8 -0.24,-4.08 -0.08,-8.16 -0.08,-12.24 -0.48,-15.44 3.52,-29.92 9.44,-43.68 4.56,-10.88 13.68,-14.08 25.04,-9.36 11.92,4.96 17.52,18.88 12.96,31.12 z"
     id="path10"
     inkscape:connector-curvature="0"
     style="stroke-width:0.80000001" />
</svg>
