<?xml version="1.0" encoding="UTF-8" standalone="no"?>
<!-- Created with Inkscape (http://www.inkscape.org/) -->

<svg
   xmlns:dc="http://purl.org/dc/elements/1.1/"
   xmlns:cc="http://creativecommons.org/ns#"
   xmlns:rdf="http://www.w3.org/1999/02/22-rdf-syntax-ns#"
   xmlns:svg="http://www.w3.org/2000/svg"
   xmlns="http://www.w3.org/2000/svg"
   xmlns:sodipodi="http://sodipodi.sourceforge.net/DTD/sodipodi-0.dtd"
   xmlns:inkscape="http://www.inkscape.org/namespaces/inkscape"
   width="562.99017"
   height="800"
   viewBox="0 0 148.95781 211.66667"
   version="1.1"
   id="svg8"
   inkscape:version="0.92.3 (2405546, 2018-03-11)"
   sodipodi:docname="Malice [Chaos, Gods].svg">
  <defs
     id="defs2" />
  <sodipodi:namedview
     id="base"
     pagecolor="#ffffff"
     bordercolor="#666666"
     borderopacity="1.0"
     inkscape:pageopacity="0.0"
     inkscape:pageshadow="2"
     inkscape:zoom="0.98994949"
     inkscape:cx="177.92627"
     inkscape:cy="323.64217"
     inkscape:document-units="px"
     inkscape:current-layer="layer1"
     showgrid="false"
     units="px"
     inkscape:window-width="1920"
     inkscape:window-height="1017"
     inkscape:window-x="-8"
     inkscape:window-y="-8"
     inkscape:window-maximized="1"
     inkscape:pagecheckerboard="true"
     fit-margin-top="0"
     fit-margin-left="0"
     fit-margin-right="0"
     fit-margin-bottom="0" />
  <metadata
     id="metadata5">
    <rdf:RDF>
      <cc:Work
         rdf:about="">
        <dc:format>image/svg+xml</dc:format>
        <dc:type
           rdf:resource="http://purl.org/dc/dcmitype/StillImage" />
        <dc:title />
      </cc:Work>
    </rdf:RDF>
  </metadata>
  <g
     inkscape:label="Layer 1"
     inkscape:groupmode="layer"
     id="layer1"
     transform="translate(-12.762037,-39.466096)">
    <path
       style="fill:#000000;fill-opacity:0.9906977;stroke:#000000;stroke-width:1.23812914;stroke-linejoin:miter;stroke-miterlimit:4;stroke-dasharray:none;stroke-opacity:1;stroke-linecap:round"
       d="M 87.244185,40.085161 V 148.95153 c 0,0 3.79333,10.77185 6.433435,15.81275 1.600864,3.05662 3.837611,5.73701 5.660087,8.6669 1.773113,2.85055 5.129533,8.66691 5.129533,8.66691 l -6.367662,4.06793 c 0,0 -2.959851,-4.47302 -4.421958,-6.72121 -0.534981,-0.8226 -1.10953,-1.79738 -1.591672,-2.47625 -0.583374,-0.8214 -1.753718,-1.55637 -2.830286,-1.55637 h -2.011477 v 0.49574 16.18563 23.9646 h 1.74644 c 0.521493,0 0.833942,0.68018 1.061114,1.14959 2.560944,5.29178 1.984622,11.67828 3.236546,17.42232 1.082202,4.96532 3.617177,14.68053 3.617177,14.68053 0,0 4.652188,-9.98842 6.986728,-15.43211 2.33453,-5.4437 6.9872,-17.2366 6.9872,-17.2366 0,0 3.43994,8.63944 5.62817,12.88235 2.18823,4.24291 7.50422,12.50703 7.50422,12.50703 0,0 2.43225,-7.11081 3.62685,-11.63164 1.1946,-4.52083 2.0733,-10.28004 2.88204,-15.50853 0.62081,-4.01355 1.0235,-8.11461 1.62069,-12.13173 0.91373,-6.14645 1.87328,-12.33733 3.75211,-18.26047 1.95311,-6.1573 4.90772,-11.96127 7.75427,-17.7599 0.98994,-2.01659 2.05434,-3.53427 3.23703,-5.9111 7.0826,-14.23374 15.2074,-28.67681 14.1166,-44.70468 C 160.76036,112.58181 160.27833,105.499 160.27833,105.499 157.70684,67.714417 123.99264,40.083776 87.244185,40.085161 Z M 152.40025,106.3952 c 0,0 0.30656,3.54155 0.17701,5.30654 -0.14476,1.97222 -0.43577,3.96057 -1.06111,5.83662 -0.62535,1.87605 -1.32927,3.51105 -2.15803,5.30654 -0.88573,1.91893 -1.94437,3.98952 -2.97151,5.83662 -1.54223,2.77341 -2.84535,5.44184 -4.98782,7.7828 -1.35572,1.48132 -2.89067,3.09712 -4.59897,4.38617 -0.84527,0.63783 -1.92002,1.29215 -2.9217,1.90266 -0.25098,-2.81679 -1.58687,-5.10729 -3.711,-6.36282 -4.29415,-2.53349 -10.62172,-0.2538 -14.31151,5.15613 -1.91346,2.80792 -2.83422,6.0788 -2.53914,9.01996 -0.23822,0.0622 -0.4744,0.12769 -0.71337,0.18911 -3.31051,0.85072 -6.55633,1.47291 -9.90503,2.15802 -0.81688,0.16712 -2.47626,0.35354 -2.47626,0.35354 0,0 1.1176,-7.44272 3.18383,-10.43559 2.24453,-3.25113 5.98899,-5.21553 9.37447,-7.25176 4.04759,-2.43447 8.56306,-3.99382 12.91185,-5.8371 3.09464,-1.3117 6.2812,-2.39949 9.37448,-3.71439 1.96687,-0.83608 3.63325,-1.86419 5.34185,-3.14804 1.73825,-1.30613 3.41826,-2.731 4.74019,-4.45726 1.90895,-2.49283 3.7621,-5.04887 5.30607,-7.78281 0.76542,-1.35535 1.9457,-4.24494 1.9457,-4.24494 z"
       id="path826"
       inkscape:connector-curvature="0"
       sodipodi:nodetypes="ccscccccsccccsssczczcssssssssccssssssccccsscsssssssc" />
    <path
       style="fill:none;stroke:#000000;stroke-width:1.23812914;stroke-linecap:round;stroke-linejoin:miter;stroke-miterlimit:4;stroke-dasharray:none;stroke-opacity:1"
       d="m 87.244182,148.95153 v 26.46065"
       id="path865"
       inkscape:connector-curvature="0" />
    <path
       id="path869"
       d="M 87.244184,40.085162 V 148.95153 c 0,0 -3.793331,10.77185 -6.433436,15.81275 -1.600862,3.05662 -3.837609,5.73701 -5.660085,8.6669 -1.773116,2.85055 -5.129537,8.66691 -5.129537,8.66691 l 6.36766,4.06793 c 0,0 2.959858,-4.47302 4.421962,-6.7212 0.534984,-0.82261 1.109529,-1.7974 1.591672,-2.47627 0.583371,-0.82139 1.753715,-1.55636 2.830291,-1.55636 h 2.011473 v 0.49573 16.18565 23.96459 l -1.746443,-3e-5 c -0.521494,-1e-5 -0.833943,0.68021 -1.061114,1.14963 -2.560945,5.29177 -1.984623,11.67827 -3.236547,17.42231 -1.082202,4.96532 -3.617178,14.68053 -3.617178,14.68053 0,0 -4.761155,-10.24253 -6.986717,-15.43211 -2.443512,-5.6978 -6.987213,-17.2366 -6.987213,-17.2366 0,0 -3.480225,8.71757 -5.628161,12.88235 -2.228526,4.32104 -7.504228,12.50703 -7.504228,12.50703 0,0 -2.589278,-7.70509 -3.626842,-11.63164 -1.351631,-5.1151 -2.073302,-10.28005 -2.88204,-15.50854 -0.620811,-4.01354 -1.023502,-8.1146 -1.620692,-12.13172 -0.913736,-6.14644 -1.873281,-12.33733 -3.752114,-18.26047 -1.953107,-6.1573 -4.907717,-11.96127 -7.754265,-17.7599 -0.989941,-2.01659 -0.856294,-1.58506 -3.237027,-5.9111 -7.66527,-13.9286 -15.20741,-28.67681 -14.116607,-44.70469 l 0.723047,-10.6242 C 16.781533,67.714417 50.495729,40.083777 87.244184,40.085162 Z M 22.088125,106.3952 c 0,0 -0.306566,3.54155 -0.177018,5.30654 0.144757,1.97222 0.435768,3.96057 1.061115,5.83662 0.625345,1.87605 1.32927,3.51105 2.158027,5.30654 0.885734,1.91893 1.944366,3.98952 2.97151,5.83663 1.542234,2.7734 2.84535,5.44184 4.987822,7.7828 1.35572,1.48132 2.890669,3.09711 4.598971,4.38616 0.845269,0.63783 1.920017,1.29214 2.921692,1.90266 0.250981,-2.81679 1.586873,-5.10729 3.710999,-6.36283 4.294155,-2.53348 10.621731,-0.2538 14.311522,5.15613 1.913461,2.80792 2.834218,6.07881 2.539129,9.01997 0.238226,0.0622 0.474402,0.1277 0.713378,0.18911 3.310504,0.85071 6.55633,1.47291 9.90503,2.15802 0.816879,0.16712 2.476255,0.35354 2.476255,0.35354 0,0 -1.1176,-7.44272 -3.18383,-10.43559 -2.244528,-3.25113 -5.988992,-5.21553 -9.374473,-7.25177 -4.04759,-2.43446 -8.563059,-3.99381 -12.911852,-5.83709 -3.094638,-1.31169 -6.28119,-2.39949 -9.374472,-3.71439 -1.966867,-0.83607 -3.633248,-1.8642 -5.341849,-3.14804 -1.738257,-1.30613 -3.418268,-2.73101 -4.740199,-4.45726 -1.908947,-2.49282 -3.762091,-5.04887 -5.306059,-7.7828 -0.765424,-1.35536 -1.945698,-4.24495 -1.945698,-4.24495 z"
       style="fill:#ffffff;fill-opacity:1;stroke:#000000;stroke-width:1.23824998;stroke-linejoin:round;stroke-miterlimit:4;stroke-dasharray:none;stroke-opacity:1;stroke-linecap:round"
       inkscape:connector-curvature="0"
       sodipodi:nodetypes="ccscccccsccccssscscscssssssssccssssssccccsscsssssssc" />
    <path
       style="fill:#000000;fill-opacity:1;stroke:#000000;stroke-width:0.44218898;stroke-linejoin:miter;stroke-miterlimit:4;stroke-dasharray:none;stroke-opacity:1;stroke-linecap:round"
       d="m 73.658617,183.63655 c -1.384587,-0.8802 -2.564683,-1.64568 -2.622434,-1.70105 -0.116211,-0.11143 -0.254601,0.13811 2.606215,-4.69945 2.023219,-3.42121 2.370482,-3.96575 4.399068,-6.89815 1.843779,-2.66525 2.627708,-3.90102 3.366119,-5.30627 1.059155,-2.01564 2.664221,-5.75866 4.285355,-9.99347 0.446888,-1.16737 0.827848,-2.13909 0.846581,-2.15935 0.01872,-0.0203 0.03406,4.8788 0.03406,10.88681 v 10.92367 l -0.994926,0.0516 c -1.520445,0.0789 -2.362719,0.43717 -3.308885,1.4076 -0.251222,0.25767 -0.951126,1.24453 -1.555341,2.19302 -1.132219,1.77736 -4.368869,6.71507 -4.477322,6.83045 -0.03358,0.0357 -1.193903,-0.65522 -2.578491,-1.53542 z"
       id="path876"
       inkscape:connector-curvature="0" />
  </g>
</svg>
