<?xml version="1.0" encoding="UTF-8" standalone="no"?>
<svg
   xmlns:dc="http://purl.org/dc/elements/1.1/"
   xmlns:cc="http://creativecommons.org/ns#"
   xmlns:rdf="http://www.w3.org/1999/02/22-rdf-syntax-ns#"
   xmlns:svg="http://www.w3.org/2000/svg"
   xmlns="http://www.w3.org/2000/svg"
   xmlns:sodipodi="http://sodipodi.sourceforge.net/DTD/sodipodi-0.dtd"
   xmlns:inkscape="http://www.inkscape.org/namespaces/inkscape"
   version="1.1"
   id="图层_1"
   x="0px"
   y="0px"
   viewBox="0 0 533.33331 800"
   sodipodi:docname="Mephrit [Yngir, Necrontyr, Necrons, Dynasty].svg"
   width="533.33331"
   height="800"
   inkscape:version="0.92.3 (2405546, 2018-03-11)">
  <metadata
     id="metadata15">
    <rdf:RDF>
      <cc:Work
         rdf:about="">
        <dc:format>image/svg+xml</dc:format>
        <dc:type
           rdf:resource="http://purl.org/dc/dcmitype/StillImage" />
        <dc:title></dc:title>
      </cc:Work>
    </rdf:RDF>
  </metadata>
  <defs
     id="defs13" />
  <sodipodi:namedview
     pagecolor="#ffffff"
     bordercolor="#666666"
     borderopacity="1"
     objecttolerance="10"
     gridtolerance="10"
     guidetolerance="10"
     inkscape:pageopacity="0"
     inkscape:pageshadow="2"
     inkscape:window-width="1920"
     inkscape:window-height="1017"
     id="namedview11"
     showgrid="false"
     fit-margin-top="0"
     fit-margin-left="0"
     fit-margin-right="0"
     fit-margin-bottom="0"
     inkscape:pagecheckerboard="true"
     inkscape:zoom="0.472"
     inkscape:cx="-123.77119"
     inkscape:cy="209.99999"
     inkscape:window-x="-8"
     inkscape:window-y="-8"
     inkscape:window-maximized="1"
     inkscape:current-layer="图层_1" />
  <g
     id="g8"
     transform="matrix(1.9047619,0,0,1.9047619,-209.52381,-76.190476)">
    <path
       d="m 286.8,195.1 h 23.6 c -0.6,5.9 -2.1,11.5 -4.3,16.8 h 10 c 2.6,-7.3 4,-15.1 4,-23.3 0,-8.2 -1.4,-16 -4,-23.3 h -10 c 2.2,5.3 3.7,10.9 4.3,16.8 h -23.6 -8.8 -5.6 c 0.6,2.1 0.9,4.3 0.9,6.5 0,12.9 -10.4,23.3 -23.3,23.3 -12.9,0 -23.3,-10.4 -23.3,-23.3 0,-2.3 0.3,-4.4 0.9,-6.5 h -9.3 -5 -23.6 c 0.6,-5.9 2.1,-11.5 4.3,-16.8 h -10 c -2.6,7.3 -4,15.1 -4,23.3 0,8.2 1.4,16 4,23.3 h 10 c -2.2,-5.3 -3.7,-10.9 -4.3,-16.8 h 23.6 c 0.9,5 2.8,9.6 5.4,13.7 l -72.4,72.2 10.6,10.5 72.3,-72.1 c 4,2.7 8.5,4.6 13.4,5.6 v 235 h 14.9 V 225 c 4.9,-1 9.4,-2.9 13.4,-5.6 l 72.3,72.1 10.6,-10.5 -72.4,-72.2 c 2.6,-4.1 4.5,-8.8 5.4,-13.7 z"
       id="path2"
       inkscape:connector-curvature="0" />
    <path
       d="m 243.9,129.4 v 45.8 c -4.7,2.3 -7.9,7.1 -7.9,12.7 0,7.8 6.3,14.2 14,14.2 7.7,0 14,-6.3 14,-14.2 0,-5.2 -2.8,-9.8 -7,-12.2 v -46.2 h -13.1 z"
       id="path4"
       inkscape:connector-curvature="0" />
    <path
       d="M 352.6,185.3 C 350.7,132.9 309.5,90.6 257.5,86.9 V 40 h -14.9 v 46.8 c -52,3.7 -93.2,46.1 -95.1,98.4 H 110 v 14.9 h 37.9 8.7 4.2 c -0.5,-3.7 -0.7,-7.4 -0.7,-11.2 0,-49.5 40.2,-89.6 89.8,-89.6 49.6,0 89.8,40.1 89.8,89.6 0,3.8 -0.2,7.5 -0.7,11.2 h 6.1 6.9 38 v -14.9 h -37.4 z"
       id="path6"
       inkscape:connector-curvature="0" />
  </g>
</svg>
