<?xml version="1.0" encoding="UTF-8" standalone="no"?>
<svg
   xmlns:dc="http://purl.org/dc/elements/1.1/"
   xmlns:cc="http://creativecommons.org/ns#"
   xmlns:rdf="http://www.w3.org/1999/02/22-rdf-syntax-ns#"
   xmlns:svg="http://www.w3.org/2000/svg"
   xmlns="http://www.w3.org/2000/svg"
   xmlns:sodipodi="http://sodipodi.sourceforge.net/DTD/sodipodi-0.dtd"
   xmlns:inkscape="http://www.inkscape.org/namespaces/inkscape"
   version="1.1"
   id="图层_1"
   x="0px"
   y="0px"
   viewBox="0 0 524.79999 800"
   sodipodi:docname="Mephrit Dark [Yngir, Necrontyr, Necrons, Dynasty].svg"
   width="524.79999"
   height="800"
   inkscape:version="0.92.3 (2405546, 2018-03-11)">
  <metadata
     id="metadata9">
    <rdf:RDF>
      <cc:Work
         rdf:about="">
        <dc:format>image/svg+xml</dc:format>
        <dc:type
           rdf:resource="http://purl.org/dc/dcmitype/StillImage" />
        <dc:title></dc:title>
      </cc:Work>
    </rdf:RDF>
  </metadata>
  <defs
     id="defs7" />
  <sodipodi:namedview
     pagecolor="#ffffff"
     bordercolor="#666666"
     borderopacity="1"
     objecttolerance="10"
     gridtolerance="10"
     guidetolerance="10"
     inkscape:pageopacity="0"
     inkscape:pageshadow="2"
     inkscape:window-width="1920"
     inkscape:window-height="1017"
     id="namedview5"
     showgrid="false"
     fit-margin-top="0"
     fit-margin-left="0"
     fit-margin-right="0"
     fit-margin-bottom="0"
     inkscape:pagecheckerboard="true"
     inkscape:zoom="0.472"
     inkscape:cx="-99.771186"
     inkscape:cy="250"
     inkscape:window-x="-8"
     inkscape:window-y="-8"
     inkscape:window-maximized="1"
     inkscape:current-layer="图层_1" />
  <path
     d="M 351.2,0 H 173.6 L 0,290.72 132.8,800 H 392 L 524.8,290.72 Z M 422.08,484 298.24,360.48 c -6.88,4.64 -14.56,8 -22.88,9.6 V 772.8 h -25.6 V 369.92 c -8.32,-1.76 -16.16,-4.96 -22.88,-9.6 l -123.84,123.52 -18.08,-18.08 124,-123.84 c -4.64,-7.04 -7.84,-15.04 -9.28,-23.52 h -40.32 c 1.12,10.08 3.68,19.68 7.36,28.8 H 149.6 c -4.48,-12.48 -6.88,-25.92 -6.88,-39.84 0,-13.92 2.4,-27.36 6.88,-39.84 h 16.8 c -3.84,8.96 -6.24,18.72 -7.36,28.8 h 40.32 8.64 16 c -0.96,3.52 -1.6,7.36 -1.6,11.2 0,22.08 17.92,39.84 40,39.84 22.08,0 40,-17.92 40,-39.84 0,-3.84 -0.64,-7.68 -1.6,-11.2 h 9.6 15.04 40.32 c -1.12,-10.08 -3.68,-19.68 -7.36,-28.8 h 17.12 c 4.48,12.48 6.88,25.92 6.88,39.84 0,13.92 -2.4,27.36 -6.88,39.84 H 358.4 c 3.84,-8.96 6.24,-18.72 7.36,-28.8 h -40.32 c -1.44,8.48 -4.8,16.48 -9.28,23.52 l 124,123.84 z M 286.4,306.4 c 0,13.44 -10.72,24.32 -24,24.32 -13.28,0 -24,-10.88 -24,-24.32 0,-9.6 5.6,-17.92 13.6,-21.76 v -78.4 h 22.4 v 79.2 c 7.2,4.16 12,11.84 12,20.96 z m 150.88,20.96 H 425.6 415.2 c 0.8,-6.24 1.12,-12.64 1.12,-19.2 0,-84.8 -68.96,-153.6 -154.08,-153.6 -85.12,0 -154.08,68.8 -154.08,153.6 0,6.56 0.48,12.96 1.12,19.2 H 102.4 87.52 22.4 v -25.6 H 86.56 C 89.76,212 160.48,139.36 249.6,132.96 V 52.8 h 25.6 v 80.32 c 89.12,6.4 159.84,79.04 163.04,168.8 h 64.16 v 25.6 h -65.12 z"
     id="path2"
     inkscape:connector-curvature="0"
     style="stroke-width:1.60000002" />
</svg>
