<?xml version="1.0" encoding="UTF-8" standalone="no"?>
<!-- Generator: Adobe Illustrator 24.0.1, SVG Export Plug-In . SVG Version: 6.00 Build 0)  -->

<svg
   xmlns:dc="http://purl.org/dc/elements/1.1/"
   xmlns:cc="http://creativecommons.org/ns#"
   xmlns:rdf="http://www.w3.org/1999/02/22-rdf-syntax-ns#"
   xmlns:svg="http://www.w3.org/2000/svg"
   xmlns="http://www.w3.org/2000/svg"
   xmlns:sodipodi="http://sodipodi.sourceforge.net/DTD/sodipodi-0.dtd"
   xmlns:inkscape="http://www.inkscape.org/namespaces/inkscape"
   version="1.1"
   id="Layer_1"
   x="0px"
   y="0px"
   viewBox="0 0 937.67761 800.00006"
   xml:space="preserve"
   sodipodi:docname="Metalica [Imperium, Adeptus Mechanicus, Forge World].svg"
   width="937.67761"
   height="800.00006"
   inkscape:version="0.92.3 (2405546, 2018-03-11)"><metadata
   id="metadata57"><rdf:RDF><cc:Work
       rdf:about=""><dc:format>image/svg+xml</dc:format><dc:type
         rdf:resource="http://purl.org/dc/dcmitype/StillImage" /><dc:title></dc:title></cc:Work></rdf:RDF></metadata><defs
   id="defs55" /><sodipodi:namedview
   pagecolor="#ffffff"
   bordercolor="#666666"
   borderopacity="1"
   objecttolerance="10"
   gridtolerance="10"
   guidetolerance="10"
   inkscape:pageopacity="0"
   inkscape:pageshadow="2"
   inkscape:window-width="1920"
   inkscape:window-height="1017"
   id="namedview53"
   showgrid="false"
   inkscape:pagecheckerboard="true"
   fit-margin-top="0"
   fit-margin-left="0"
   fit-margin-right="0"
   fit-margin-bottom="0"
   inkscape:zoom="0.236"
   inkscape:cx="-59.142375"
   inkscape:cy="400.26004"
   inkscape:window-x="-8"
   inkscape:window-y="-8"
   inkscape:window-maximized="1"
   inkscape:current-layer="Layer_1" />
<g
   id="g50"
   transform="matrix(1.0013644,0,0,1.0013644,-31.643115,-101.48828)">
	<path
   d="M 968,583.59 V 478.84 H 798.97 C 804,658 693.71,732.03 538.2,734.36 v 165.9 h 103.26 v -68.04 c 21.56,-4.38 42.09,-10.19 61.5,-17.47 l 33.91,59.59 87.89,-50.01 -33.69,-59.21 c 15.34,-12.39 29.41,-26.34 42.1,-41.91 l 58.32,34.82 51.85,-86.78 -59.98,-35.81 c 6.26,-16.24 11.61,-33.51 15.99,-51.83 H 968 Z"
   id="path2"
   inkscape:connector-curvature="0" />
	<circle
   transform="matrix(0.7071,-0.7071,0.7071,0.7071,-349.8419,295.0285)"
   cx="181.21001"
   cy="569.81"
   id="ellipse4"
   r="22.120001" />
	<rect
   x="328.76001"
   y="779.14001"
   transform="matrix(0.5,-0.866,0.866,0.5,-488.7583,749.5963)"
   width="152.07001"
   height="37.869999"
   id="rect6" />
	<rect
   x="250.19"
   y="727.53003"
   transform="matrix(0.74,-0.6726,0.6726,0.74,-417.2801,413.5394)"
   width="152.07001"
   height="37.869999"
   id="rect8" />
	<path
   d="m 322.72,634.23 c -12.05,-8.48 -50.01,20.19 -73.24,21.68 -2.26,0 -7.52,0.77 -9.64,-2.02 -2.12,-2.8 1.49,-8.34 2.12,-9.64 11.13,-14.98 34.5,-40.43 49.87,-59.84 5.4,-11.61 -10.17,-46.45 -26.79,-22.89 -14.74,20.96 -71.84,80.32 -90.63,114.58 -2.51,4.82 2.02,24.09 13.11,27.85 19.66,6.26 138.19,-40.38 150.48,-40.81 10.65,-0.38 -7.86,-23.61 -15.28,-28.91 z"
   id="path10"
   inkscape:connector-curvature="0" />
	<rect
   x="818.48999"
   y="185.64"
   width="149.50999"
   height="216.06"
   id="rect12" />
	<rect
   x="753.09998"
   y="217.06"
   width="54.689999"
   height="152.07001"
   id="rect14" />
	<rect
   x="300.60999"
   y="213.73"
   width="52.470001"
   height="162.75999"
   id="rect16" />
	<rect
   x="31.6"
   y="242.39999"
   width="54.25"
   height="104.03"
   id="rect18" />
	<polygon
   points="96.6,402.04 184.34,509.2 288.03,509.2 288.03,108.79 96.6,108.79 "
   id="polygon20" />
	<path
   d="m 545.53,230.16 c -0.69,3.93 -2.01,7.72 -3.9,11.23 V 360.4 H 740.19 V 230.3 h -25.44 v 65.14 H 631.49 V 278.2 l -75.41,-0.14 v -47.89 h -10.55 z"
   id="path22"
   inkscape:connector-curvature="0" />
	<path
   d="m 469.78,295.07 v 39.61 c 9.61,6.41 29.24,21.48 37.54,25.87 10.99,0 19.47,0.53 25.44,0 v -95.31 c -12.24,19.37 -32.24,30.36 -62.98,29.83 z"
   id="path24"
   inkscape:connector-curvature="0" />
	<path
   d="m 381.41,255.75 c 10.98,-10.72 23.83,-19.34 37.92,-25.44 h -56.91 v 130.1 l 18.98,0.14 v -104.8 z"
   id="path26"
   inkscape:connector-curvature="0" />
	<rect
   x="643.23999"
   y="166.88"
   width="57.290001"
   height="115.57"
   id="rect28" />
	<rect
   x="566.48999"
   y="127.94"
   width="54.299999"
   height="141.06"
   id="rect30" />
	<rect
   x="490.45001"
   y="101.35"
   width="56.900002"
   height="112.39"
   id="rect32" />
	<rect
   x="414.85001"
   y="140.28"
   width="54.98"
   height="70.660004"
   id="rect34" />
	<rect
   x="547.31"
   y="456.42999"
   width="87.839996"
   height="22.16"
   id="rect36" />
	<path
   d="m 528.13,443.62 c -14.6,20.04 -55.12,17.54 -90.1,0 v 31.99 h 90.1 z"
   id="path38"
   inkscape:connector-curvature="0" />
	<polygon
   points="438.03,488.53 380.06,562.2 528.13,696.1 528.13,488.53 "
   id="polygon40" />
	<polygon
   points="547.31,490.31 547.31,696.1 695.57,562.82 635.15,490.31 "
   id="polygon42" />
	<path
   d="m 670.23,369.13 h -118.3 v 74.49 h 83.21 c 24.05,-9.93 32.63,-40.48 35.09,-74.49 z"
   id="path44"
   inkscape:connector-curvature="0" />
	<path
   d="m 454,228 c -17.35,2.41 -41.36,18.16 -60.25,35.56 l -0.19,128.99 c 10.81,12.26 23.24,22.99 36.96,31.9 88.22,56.33 126.53,-14.79 89.57,-42.5 -12.34,-9.25 -33.82,-21.3 -62.21,-41.68 v -57.82 c 44.47,1.88 70.48,-20.98 80.12,-56.44 z"
   id="path46"
   inkscape:connector-curvature="0" />
	<circle
   cx="483"
   cy="818"
   r="22"
   id="circle48" />
</g>
</svg>