<?xml version="1.0" encoding="UTF-8" standalone="no"?>
<!-- Created with Inkscape (http://www.inkscape.org/) -->

<svg
   xmlns:dc="http://purl.org/dc/elements/1.1/"
   xmlns:cc="http://creativecommons.org/ns#"
   xmlns:rdf="http://www.w3.org/1999/02/22-rdf-syntax-ns#"
   xmlns:svg="http://www.w3.org/2000/svg"
   xmlns="http://www.w3.org/2000/svg"
   xmlns:sodipodi="http://sodipodi.sourceforge.net/DTD/sodipodi-0.dtd"
   xmlns:inkscape="http://www.inkscape.org/namespaces/inkscape"
   width="258.90335"
   height="400"
   viewBox="0 0 68.50151 105.83334"
   version="1.1"
   id="svg8"
   inkscape:version="0.92.3 (2405546, 2018-03-11)"
   sodipodi:docname="Morai-Heg [Aeldari, Eldar, Gods].svg">
  <defs
     id="defs2" />
  <sodipodi:namedview
     id="base"
     pagecolor="#ffffff"
     bordercolor="#666666"
     borderopacity="1.0"
     inkscape:pageopacity="0.0"
     inkscape:pageshadow="2"
     inkscape:zoom="4.0000001"
     inkscape:cx="92.107917"
     inkscape:cy="41.294361"
     inkscape:document-units="px"
     inkscape:current-layer="layer1"
     showgrid="false"
     units="px"
     inkscape:window-width="1920"
     inkscape:window-height="1017"
     inkscape:window-x="-8"
     inkscape:window-y="-8"
     inkscape:window-maximized="1"
     inkscape:snap-global="true"
     fit-margin-top="0"
     fit-margin-left="0"
     fit-margin-right="0"
     fit-margin-bottom="0"
     inkscape:pagecheckerboard="true" />
  <metadata
     id="metadata5">
    <rdf:RDF>
      <cc:Work
         rdf:about="">
        <dc:format>image/svg+xml</dc:format>
        <dc:type
           rdf:resource="http://purl.org/dc/dcmitype/StillImage" />
        <dc:title />
      </cc:Work>
    </rdf:RDF>
  </metadata>
  <g
     inkscape:label="Layer 1"
     inkscape:groupmode="layer"
     id="layer1"
     transform="translate(-112.72386,-51.499687)">
    <g
       id="g886"
       style="fill:#000000;fill-opacity:1;stroke:none;stroke-opacity:1"
       transform="matrix(4.3999904,0,0,4.3999904,-283.14196,-534.63976)">
      <path
         transform="scale(0.26458333)"
         id="path826"
         d="m 344.20312,503.48524 c -0.0729,0.32589 -0.11262,0.65307 -0.11914,0.98046 0.0129,5.6677 9.81868,10.41764 22.72852,11.00977 v 3.51367 c -7.26414,0.47658 -13.12775,2.83951 -14.79688,5.96289 h -11.97265 v 3.53516 h 11.97656 c 1.65618,3.11111 7.47502,5.47096 14.70313,5.96289 h 0.22656 l -0.13672,11.30187 v 0.76172 c -3.42913,1.1e-4 -6.84214,0 -10.46289,0 l 5.68359,-9.31055 h -21.99023 v 3.53516 h 16.17578 l -5.8418,9.31055 h 16.43555 v 1.40234 2 h -8.9668 v 3.53516 h 8.9668 v 5.46484 h -8.9668 v 3.53516 h 8.9668 v 4.0039 7.7793 c 0,0 5.55547,-4 10.6875,-4 5.13204,0 9.73047,2.94788 9.73047,7.21289 0,4.26501 -4.51494,7.53711 -9.73047,7.53711 -5.21554,0 -11.71322,-3.61086 -17.49994,-3.625 -5.78673,-0.0141 -12.87506,9.5 -12.87506,9.5 1.8216,-0.78085 2.11359,-0.78417 3.375,0 0,0 4.74331,-6.875 9.50006,-6.875 4.75675,0 11.52355,3.875 17.49994,3.875 5.97638,0 12.5,-4.52819 12.5,-10.5 0,-5.9718 -10.99702,-12.28334 -17.88477,-8.15039 v -2.75391 -4.0039 h 8.96485 v -3.53516 h -8.96485 v -5.46484 h 8.96485 v -3.53516 h -8.96485 v -2.44922 -0.95312 h 16.43555 l -5.84375,-9.31055 h 16.17774 v -3.53516 h -21.99219 l 5.68359,9.3086 c -3.61994,-1.2e-4 -7.03246,-9e-5 -10.46094,0 v -0.75977 -4.86523 -3.53516 -2.90148 c 7.26339,-0.4769 13.12607,-2.83977 14.79493,-5.96289 h 11.97461 v -3.53516 H 386.9082 c -1.66221,-3.12591 -7.52531,-5.49236 -14.79297,-5.9707 v -3.49609 c 12.91834,-0.59252 22.72704,-5.3481 22.72852,-11.01954 -0.005,-0.32735 -0.0424,-0.65453 -0.11328,-0.98046 h -5.5332 c 0.0931,0.3253 0.144,0.65269 0.15234,0.98046 -0.0105,4.34431 -7.37332,8.01656 -17.23438,8.59571 v -9.57617 h -5.30273 v 9.57617 c -9.86106,-0.57915 -17.22392,-4.2514 -17.23438,-8.59571 0.004,-0.32766 0.0501,-0.65504 0.13868,-0.98046 z m 21.6504,17.17773 c -1.11028,1.01316 -1.74386,2.44615 -1.7461,3.94922 -1.5e-4,2.95888 2.39854,5.35757 5.35742,5.35742 2.95812,-9.2e-4 5.35562,-2.3993 5.35547,-5.35742 -0.002,-1.50307 -0.63581,-2.93606 -1.74609,-3.94922 6.17082,0.70024 10.7332,3.1432 10.73242,6.05664 9.2e-4,3.45914 -6.4212,6.26357 -14.34375,6.26367 -7.92255,-1e-4 -14.34467,-2.80453 -14.34375,-6.26367 -7.7e-4,-2.91374 4.56257,-5.35669 10.73438,-6.05664 z m 3.61132,0.28906 c 2.02132,3.1e-4 3.65985,1.63884 3.66016,3.66016 -3.1e-4,2.02132 -1.63884,3.65985 -3.66016,3.66016 -2.02209,7.7e-4 -3.6618,-1.63807 -3.66211,-3.66016 3.1e-4,-2.02209 1.64002,-3.66093 3.66211,-3.66016 z"
         style="opacity:1;fill:#000000;fill-opacity:1;stroke:none;stroke-width:5.81844521;stroke-linecap:round;stroke-linejoin:round;stroke-miterlimit:4;stroke-dasharray:none;stroke-opacity:1;paint-order:markers fill stroke"
         inkscape:connector-curvature="0"
         sodipodi:nodetypes="ccccccccccccccccccccccccccccccssszcczsscccccccccccccccccccccccccccccccccccccccccccccccccccccc" />
      <path
         inkscape:connector-curvature="0"
         id="path867"
         d="m 91.139393,147.57652 c -0.223252,0.72229 -1.309285,3.67109 0,3.67109 1.309286,0 0.223253,-2.9488 0,-3.67109 z m 13.229167,0 c -0.22325,0.72229 -1.30929,3.67109 0,3.67109 1.3093,0 0.22326,-2.9488 0,-3.67109 z"
         style="fill:#000000;fill-opacity:1;stroke:none;stroke-width:0.26458332px;stroke-linecap:butt;stroke-linejoin:miter;stroke-opacity:1" />
    </g>
  </g>
</svg>
