<?xml version="1.0" encoding="UTF-8" standalone="no"?>
<svg
   xmlns:dc="http://purl.org/dc/elements/1.1/"
   xmlns:cc="http://creativecommons.org/ns#"
   xmlns:rdf="http://www.w3.org/1999/02/22-rdf-syntax-ns#"
   xmlns:svg="http://www.w3.org/2000/svg"
   xmlns="http://www.w3.org/2000/svg"
   xmlns:sodipodi="http://sodipodi.sourceforge.net/DTD/sodipodi-0.dtd"
   xmlns:inkscape="http://www.inkscape.org/namespaces/inkscape"
   version="1.1"
   id="图层_1"
   x="0px"
   y="0px"
   viewBox="0 0 426.66666 800"
   sodipodi:docname="Nephrekh [Yngir, Necrontyr, Necrons, Dynasty].svg"
   width="426.66666"
   height="800"
   inkscape:version="0.92.3 (2405546, 2018-03-11)">
  <metadata
     id="metadata13">
    <rdf:RDF>
      <cc:Work
         rdf:about="">
        <dc:format>image/svg+xml</dc:format>
        <dc:type
           rdf:resource="http://purl.org/dc/dcmitype/StillImage" />
        <dc:title></dc:title>
      </cc:Work>
    </rdf:RDF>
  </metadata>
  <defs
     id="defs11" />
  <sodipodi:namedview
     pagecolor="#ffffff"
     bordercolor="#666666"
     borderopacity="1"
     objecttolerance="10"
     gridtolerance="10"
     guidetolerance="10"
     inkscape:pageopacity="0"
     inkscape:pageshadow="2"
     inkscape:window-width="1920"
     inkscape:window-height="1017"
     id="namedview9"
     showgrid="false"
     fit-margin-top="0"
     fit-margin-left="0"
     fit-margin-right="0"
     fit-margin-bottom="0"
     inkscape:pagecheckerboard="true"
     inkscape:zoom="0.472"
     inkscape:cx="-151.77119"
     inkscape:cy="219.99999"
     inkscape:window-x="-8"
     inkscape:window-y="-8"
     inkscape:window-maximized="1"
     inkscape:current-layer="图层_1" />
  <g
     id="g6"
     transform="matrix(1.9047619,0,0,1.9047619,-262.85714,-95.238095)">
    <path
       d="m 250,257 c -12.7,0 -23,10.3 -23,23 0,12.7 10.3,23 23,23 12.7,0 23,-10.3 23,-23 0,-12.7 -10.3,-23 -23,-23 z m 0,33 c -5.5,0 -10,-4.5 -10,-10 0,-5.5 4.5,-10 10,-10 5.5,0 10,4.5 10,10 0,5.5 -4.5,10 -10,10 z"
       id="path2"
       inkscape:connector-curvature="0" />
    <path
       d="m 362,269 h -37.8 c -2.4,-16.2 -9.9,-30.6 -20.9,-41.7 l 53.8,-53.8 -15.6,-15.6 -56,56 c -7.5,-4 -15.8,-6.9 -24.6,-8.1 v -57 c 22.3,-5 39,-24.9 39,-48.8 0,-27.6 -22.4,-50 -50,-50 -27.6,0 -50,22.4 -50,50 0,23.8 16.7,43.8 39,48.8 v 57 c -8.8,1.3 -17,4.1 -24.6,8.1 l -56,-56 -15.6,15.6 53.8,53.8 c -11,11.1 -18.5,25.6 -20.9,41.7 H 138 v 22 h 37.8 c 4.8,32.6 30.6,58.4 63.2,63.2 V 470 h 22 V 354.2 c 32.6,-4.8 58.4,-30.6 63.2,-63.2 H 362 Z M 215,100 c 0,-19.3 15.7,-35 35,-35 19.3,0 35,15.7 35,35 0,19.3 -15.7,35 -35,35 -19.3,0 -35,-15.7 -35,-35 z m 35,240 c -33.1,0 -60,-26.9 -60,-60 0,-33.1 26.9,-60 60,-60 33.1,0 60,26.9 60,60 0,33.1 -26.9,60 -60,60 z"
       id="path4"
       inkscape:connector-curvature="0" />
  </g>
</svg>
