<?xml version="1.0" encoding="UTF-8" standalone="no"?>
<svg
   xmlns:dc="http://purl.org/dc/elements/1.1/"
   xmlns:cc="http://creativecommons.org/ns#"
   xmlns:rdf="http://www.w3.org/1999/02/22-rdf-syntax-ns#"
   xmlns:svg="http://www.w3.org/2000/svg"
   xmlns="http://www.w3.org/2000/svg"
   xmlns:sodipodi="http://sodipodi.sourceforge.net/DTD/sodipodi-0.dtd"
   xmlns:inkscape="http://www.inkscape.org/namespaces/inkscape"
   version="1.1"
   id="图层_1"
   x="0px"
   y="0px"
   viewBox="0 0 528 800"
   sodipodi:docname="Nephrekh Dark [Yngir, Necrontyr, Necrons, Dynasty].svg"
   width="528"
   height="800"
   inkscape:version="0.92.3 (2405546, 2018-03-11)">
  <metadata
     id="metadata17">
    <rdf:RDF>
      <cc:Work
         rdf:about="">
        <dc:format>image/svg+xml</dc:format>
        <dc:type
           rdf:resource="http://purl.org/dc/dcmitype/StillImage" />
        <dc:title></dc:title>
      </cc:Work>
    </rdf:RDF>
  </metadata>
  <defs
     id="defs15" />
  <sodipodi:namedview
     pagecolor="#ffffff"
     bordercolor="#666666"
     borderopacity="1"
     objecttolerance="10"
     gridtolerance="10"
     guidetolerance="10"
     inkscape:pageopacity="0"
     inkscape:pageshadow="2"
     inkscape:window-width="1920"
     inkscape:window-height="1017"
     id="namedview13"
     showgrid="false"
     fit-margin-top="0"
     fit-margin-left="0"
     fit-margin-right="0"
     fit-margin-bottom="0"
     inkscape:pagecheckerboard="true"
     inkscape:zoom="0.472"
     inkscape:cx="-98.771186"
     inkscape:cy="250"
     inkscape:window-x="-8"
     inkscape:window-y="-8"
     inkscape:window-maximized="1"
     inkscape:current-layer="图层_1" />
  <g
     id="g10"
     transform="matrix(1.6,0,0,1.6,-136,0)">
    <path
       d="m 250,220 c -33.1,0 -60,26.9 -60,60 0,33.1 26.9,60 60,60 33.1,0 60,-26.9 60,-60 0,-33.1 -26.9,-60 -60,-60 z m 0,83 c -12.7,0 -23,-10.3 -23,-23 0,-12.7 10.3,-23 23,-23 12.7,0 23,10.3 23,23 0,12.7 -10.3,23 -23,23 z"
       id="path2"
       inkscape:connector-curvature="0" />
    <circle
       cx="250"
       cy="100"
       r="35"
       id="circle4" />
    <circle
       cx="250"
       cy="280"
       r="10"
       id="circle6" />
    <path
       d="M 305.9,0 H 194.1 L 85,181.7 168.5,500 h 163 L 415,181.7 Z m 18.3,291 c -4.8,32.6 -30.6,58.4 -63.2,63.2 V 470 H 239 V 354.2 C 206.4,349.4 180.6,323.6 175.8,291 H 138 v -22 h 37.8 c 2.4,-16.2 9.9,-30.6 20.9,-41.7 l -53.8,-53.8 15.6,-15.6 56,56 c 7.5,-4 15.8,-6.9 24.6,-8.1 v -57 c -22.3,-5 -39,-24.9 -39,-48.8 0,-27.6 22.4,-50 50,-50 27.6,0 50,22.4 50,50 0,23.8 -16.7,43.8 -39,48.8 v 57 c 8.8,1.3 17,4.1 24.6,8.1 l 56,-56 15.6,15.6 -53.8,53.8 c 11,11.1 18.5,25.6 20.9,41.7 H 362 v 22 z"
       id="path8"
       inkscape:connector-curvature="0" />
  </g>
</svg>
