<?xml version="1.0" encoding="UTF-8" standalone="no"?>
<svg
   xmlns:dc="http://purl.org/dc/elements/1.1/"
   xmlns:cc="http://creativecommons.org/ns#"
   xmlns:rdf="http://www.w3.org/1999/02/22-rdf-syntax-ns#"
   xmlns:svg="http://www.w3.org/2000/svg"
   xmlns="http://www.w3.org/2000/svg"
   xmlns:sodipodi="http://sodipodi.sourceforge.net/DTD/sodipodi-0.dtd"
   xmlns:inkscape="http://www.inkscape.org/namespaces/inkscape"
   version="1.1"
   id="图层_1"
   x="0px"
   y="0px"
   viewBox="0 0 488.57144 800"
   sodipodi:docname="Nihilakh [Yngir, Necrontyr, Necrons, Dynasty].svg"
   width="488.57144"
   height="800"
   inkscape:version="0.92.3 (2405546, 2018-03-11)">
  <metadata
     id="metadata15">
    <rdf:RDF>
      <cc:Work
         rdf:about="">
        <dc:format>image/svg+xml</dc:format>
        <dc:type
           rdf:resource="http://purl.org/dc/dcmitype/StillImage" />
        <dc:title></dc:title>
      </cc:Work>
    </rdf:RDF>
  </metadata>
  <defs
     id="defs13" />
  <sodipodi:namedview
     pagecolor="#ffffff"
     bordercolor="#666666"
     borderopacity="1"
     objecttolerance="10"
     gridtolerance="10"
     guidetolerance="10"
     inkscape:pageopacity="0"
     inkscape:pageshadow="2"
     inkscape:window-width="1920"
     inkscape:window-height="1017"
     id="namedview11"
     showgrid="false"
     fit-margin-top="0"
     fit-margin-left="0"
     fit-margin-right="0"
     fit-margin-bottom="0"
     inkscape:pagecheckerboard="true"
     inkscape:zoom="0.472"
     inkscape:cx="-135.47119"
     inkscape:cy="209.99999"
     inkscape:window-x="-8"
     inkscape:window-y="-8"
     inkscape:window-maximized="1"
     inkscape:current-layer="图层_1" />
  <g
     id="g8"
     transform="matrix(1.9047619,0,0,1.9047619,-231.80952,-76.190476)">
    <path
       d="m 250,128.6 c -11.8,0 -21.4,9.6 -21.4,21.4 0,11.8 9.6,21.4 21.4,21.4 11.8,0 21.4,-9.6 21.4,-21.4 0,-11.9 -9.6,-21.4 -21.4,-21.4 z m 8.2,23.9 c -1.4,4.5 -6.2,7 -10.7,5.6 -4.5,-1.4 -7,-6.2 -5.6,-10.7 1.4,-4.5 6.2,-7 10.7,-5.6 4.4,1.4 7,6.2 5.6,10.7 z"
       id="path2"
       inkscape:connector-curvature="0" />
    <path
       d="m 260.7,397.7 v -44.6 h 42.8 v -21.4 h -107 v 21.4 h 42.8 v 44.6 c -9.1,3.2 -16.3,10.4 -19.6,19.6 h -44.6 v 21.4 h 44.6 c 4.5,12.4 16.3,21.3 30.3,21.3 14,0 25.8,-8.9 30.2,-21.4 h 44.6 V 417.2 H 280.2 C 277,408.1 269.8,400.9 260.7,397.7 Z M 250,446.1 c -10,0 -18.2,-8.1 -18.2,-18.2 0,-10.1 8.1,-18.2 18.2,-18.2 10,0 18.2,8.1 18.2,18.2 0,10.1 -8.2,18.2 -18.2,18.2 z"
       id="path4"
       inkscape:connector-curvature="0" />
    <path
       d="m 318.7,139.2 c -2.1,-13.6 -8.2,-25.9 -17,-35.7 L 350.1,55.1 335,40 285.1,89.9 c -10.3,-6 -22.3,-9.5 -35.1,-9.5 -12.8,0 -24.8,3.5 -35.1,9.5 L 165,40 l -15.1,15.1 48.4,48.4 c -8.8,9.8 -14.9,22.1 -17,35.7 h -59.6 v 21.4 h 59.6 c 4.6,29.8 28.2,53.4 58,58 v 70.3 h -42.8 v 21.4 h 106.9 v -21.4 h -42.8 v -70.3 c 29.8,-4.6 53.4,-28.2 58,-58 h 59.6 V 139.2 Z M 250,203.4 c -29.5,0 -53.5,-23.9 -53.5,-53.5 0,-29.6 23.9,-53.5 53.5,-53.5 29.6,0 53.5,23.9 53.5,53.5 0,29.6 -24,53.5 -53.5,53.5 z"
       id="path6"
       inkscape:connector-curvature="0" />
  </g>
</svg>
