<?xml version="1.0" encoding="UTF-8" standalone="no"?>
<svg
   xmlns:dc="http://purl.org/dc/elements/1.1/"
   xmlns:cc="http://creativecommons.org/ns#"
   xmlns:rdf="http://www.w3.org/1999/02/22-rdf-syntax-ns#"
   xmlns:svg="http://www.w3.org/2000/svg"
   xmlns="http://www.w3.org/2000/svg"
   xmlns:sodipodi="http://sodipodi.sourceforge.net/DTD/sodipodi-0.dtd"
   xmlns:inkscape="http://www.inkscape.org/namespaces/inkscape"
   version="1.1"
   id="图层_1"
   x="0px"
   y="0px"
   viewBox="0 0 528 800"
   sodipodi:docname="Nihilakh Dark [Yngir, Necrontyr, Necrons, Dynasty].svg"
   width="528"
   height="800"
   inkscape:version="0.92.3 (2405546, 2018-03-11)">
  <metadata
     id="metadata17">
    <rdf:RDF>
      <cc:Work
         rdf:about="">
        <dc:format>image/svg+xml</dc:format>
        <dc:type
           rdf:resource="http://purl.org/dc/dcmitype/StillImage" />
        <dc:title></dc:title>
      </cc:Work>
    </rdf:RDF>
  </metadata>
  <defs
     id="defs15" />
  <sodipodi:namedview
     pagecolor="#ffffff"
     bordercolor="#666666"
     borderopacity="1"
     objecttolerance="10"
     gridtolerance="10"
     guidetolerance="10"
     inkscape:pageopacity="0"
     inkscape:pageshadow="2"
     inkscape:window-width="1920"
     inkscape:window-height="1017"
     id="namedview13"
     showgrid="false"
     fit-margin-top="0"
     fit-margin-left="0"
     fit-margin-right="0"
     fit-margin-bottom="0"
     inkscape:pagecheckerboard="true"
     inkscape:zoom="0.472"
     inkscape:cx="-98.771186"
     inkscape:cy="250"
     inkscape:window-x="-8"
     inkscape:window-y="-8"
     inkscape:window-maximized="1"
     inkscape:current-layer="图层_1" />
  <g
     id="g10"
     transform="matrix(1.6,0,0,1.6,-136,0)">
    <path
       d="m 252.4,172.4 c -4.2,-1.3 -8.7,1 -10,5.3 -1.3,4.2 1,8.7 5.3,10 4.2,1.3 8.7,-1 10,-5.3 1.3,-4.2 -1.1,-8.7 -5.3,-10 z"
       id="path2"
       inkscape:connector-curvature="0" />
    <circle
       cx="250"
       cy="440"
       r="17"
       id="circle4" />
    <path
       d="m 250,130 c -27.6,0 -50,22.4 -50,50 0,27.6 22.4,50 50,50 27.6,0 50,-22.4 50,-50 0,-27.6 -22.4,-50 -50,-50 z m 0,70 c -11,0 -20,-9 -20,-20 0,-11 9,-20 20,-20 11,0 20,9 20,20 0,11 -9,20 -20,20 z"
       id="path6"
       inkscape:connector-curvature="0" />
    <path
       d="M 305.9,0 H 194.1 L 85,181.7 168.5,500 h 163 L 415,181.7 Z M 320,450 h -41.7 c -4.1,11.7 -15.2,20 -28.3,20 -13.1,0 -24.2,-8.3 -28.3,-20 H 180 v -20 h 41.7 c 3,-8.5 9.8,-15.3 18.3,-18.3 V 370 h -40 v -20 h 100 v 20 h -40 v 41.7 c 8.5,3 15.3,9.8 18.3,18.3 H 320 Z m -5.8,-260 c -4.3,27.9 -26.3,49.9 -54.2,54.2 V 310 h 40 v 20 H 200 v -20 h 40 V 244.2 C 212.1,239.9 190.1,217.9 185.8,190 H 130 v -20 h 55.8 c 2,-12.7 7.6,-24.2 15.9,-33.4 l -45.3,-45.3 14.1,-14.1 46.7,46.7 c 9.6,-5.6 20.8,-8.9 32.8,-8.9 12,0 23.2,3.2 32.8,8.9 l 46.7,-46.7 14.1,14.1 -45.3,45.3 c 8.2,9.2 13.9,20.7 15.9,33.4 H 370 v 20 z"
       id="path8"
       inkscape:connector-curvature="0" />
  </g>
</svg>
