<?xml version="1.0" encoding="UTF-8" standalone="no"?>
<svg
   xmlns:dc="http://purl.org/dc/elements/1.1/"
   xmlns:cc="http://creativecommons.org/ns#"
   xmlns:rdf="http://www.w3.org/1999/02/22-rdf-syntax-ns#"
   xmlns:svg="http://www.w3.org/2000/svg"
   xmlns="http://www.w3.org/2000/svg"
   xmlns:sodipodi="http://sodipodi.sourceforge.net/DTD/sodipodi-0.dtd"
   xmlns:inkscape="http://www.inkscape.org/namespaces/inkscape"
   version="1.1"
   id="图层_1"
   x="0px"
   y="0px"
   viewBox="0 0 528 800"
   sodipodi:docname="Novokh Dark [Yngir, Necrontyr, Necrons, Dynasty].svg"
   width="528"
   height="800"
   inkscape:version="0.92.3 (2405546, 2018-03-11)">
  <metadata
     id="metadata15">
    <rdf:RDF>
      <cc:Work
         rdf:about="">
        <dc:format>image/svg+xml</dc:format>
        <dc:type
           rdf:resource="http://purl.org/dc/dcmitype/StillImage" />
        <dc:title></dc:title>
      </cc:Work>
    </rdf:RDF>
  </metadata>
  <defs
     id="defs13" />
  <sodipodi:namedview
     pagecolor="#ffffff"
     bordercolor="#666666"
     borderopacity="1"
     objecttolerance="10"
     gridtolerance="10"
     guidetolerance="10"
     inkscape:pageopacity="0"
     inkscape:pageshadow="2"
     inkscape:window-width="1920"
     inkscape:window-height="1017"
     id="namedview11"
     showgrid="false"
     fit-margin-top="0"
     fit-margin-left="0"
     fit-margin-right="0"
     fit-margin-bottom="0"
     inkscape:pagecheckerboard="true"
     inkscape:zoom="0.472"
     inkscape:cx="-98.771186"
     inkscape:cy="250"
     inkscape:window-x="-8"
     inkscape:window-y="-8"
     inkscape:window-maximized="1"
     inkscape:current-layer="图层_1" />
  <g
     id="g8"
     transform="matrix(1.6,0,0,1.6,-136,0)">
    <circle
       cx="250"
       cy="180"
       r="50"
       id="circle2" />
    <circle
       cx="250"
       cy="420"
       r="30"
       id="circle4" />
    <path
       d="M 305.9,0 H 194.1 L 85,181.7 168.5,500 h 163 L 415,181.7 Z m 13.4,190 c -4.4,30.7 -28.6,54.9 -59.3,59.3 V 371 c 19.6,4 35,19.4 39,39 h 21 v 20 h -21 c -4.6,22.8 -24.8,40 -49,40 -24.2,0 -44.4,-17.2 -49,-40 h -21 v -20 h 21 c 4,-19.6 19.4,-35 39,-39 V 249.3 C 209.3,244.9 185.1,220.7 180.7,190 H 120 v -20 h 60.7 c 1.7,-11.9 6.4,-22.8 13.2,-31.9 L 151.7,95.9 165.8,81.8 208,124 c 11.7,-8.8 26.2,-13.9 41.9,-13.9 15.7,0 30.2,5.2 41.9,13.9 l 42.2,-42.2 14.1,14.1 -42.2,42.2 c 6.9,9.2 11.5,20.1 13.2,31.9 H 380 v 20 z"
       id="path6"
       inkscape:connector-curvature="0" />
  </g>
</svg>
