<?xml version="1.0" encoding="UTF-8" standalone="no"?>
<!-- Generator: Adobe Illustrator 22.1.0, SVG Export Plug-In . SVG Version: 6.00 Build 0)  -->

<svg
   xmlns:dc="http://purl.org/dc/elements/1.1/"
   xmlns:cc="http://creativecommons.org/ns#"
   xmlns:rdf="http://www.w3.org/1999/02/22-rdf-syntax-ns#"
   xmlns:svg="http://www.w3.org/2000/svg"
   xmlns="http://www.w3.org/2000/svg"
   xmlns:sodipodi="http://sodipodi.sourceforge.net/DTD/sodipodi-0.dtd"
   xmlns:inkscape="http://www.inkscape.org/namespaces/inkscape"
   version="1.1"
   id="Layer_3"
   x="0px"
   y="0px"
   viewBox="0 0 808.20642 800"
   xml:space="preserve"
   sodipodi:docname="Order of the Valorous Heart [Imperium, Adeptus Ministorum, Ecclesiarchy, Adepta Sororitas , Sisters of Battle, Battle Sisters, Order].svg"
   width="808.20642"
   height="800"
   inkscape:version="0.92.3 (2405546, 2018-03-11)"><metadata
   id="metadata19"><rdf:RDF><cc:Work
       rdf:about=""><dc:format>image/svg+xml</dc:format><dc:type
         rdf:resource="http://purl.org/dc/dcmitype/StillImage" /><dc:title></dc:title></cc:Work></rdf:RDF></metadata><defs
   id="defs17" /><sodipodi:namedview
   pagecolor="#ffffff"
   bordercolor="#666666"
   borderopacity="1"
   objecttolerance="10"
   gridtolerance="10"
   guidetolerance="10"
   inkscape:pageopacity="0"
   inkscape:pageshadow="2"
   inkscape:window-width="1920"
   inkscape:window-height="1017"
   id="namedview15"
   showgrid="false"
   fit-margin-top="0"
   fit-margin-left="0"
   fit-margin-right="0"
   fit-margin-bottom="0"
   inkscape:pagecheckerboard="true"
   inkscape:zoom="0.236"
   inkscape:cx="-32.542373"
   inkscape:cy="488.99999"
   inkscape:window-x="-8"
   inkscape:window-y="-8"
   inkscape:window-maximized="1"
   inkscape:current-layer="Layer_3" />
<g
   id="g12"
   transform="matrix(0.82892964,0,0,0.82892964,-4.1446482,-19.811418)">
	<path
   d="m 671.9,297.7 c -109.1,-68.8 -180.1,48 -180.1,48 0,0 -71.3,-116.9 -180.4,-48 -189.2,119.2 159,436.3 182.1,436.9 23.2,0.7 367.8,-317.6 178.4,-436.9 z"
   id="path2"
   inkscape:connector-curvature="0" />
	<path
   d="m 491.9,328.7 c 32.2,-45.8 84.2,-70.6 145,-58.2 L 738.4,23.9 491.9,151.5 245.3,23.9 346.9,270.4 c 59.5,-13.6 112.8,12.4 145,58.3 z"
   id="path4"
   inkscape:connector-curvature="0" />
	<path
   d="M 493.1,747.4 C 462.1,726.3 425,694.1 387.8,654.5 L 246.6,989 493.1,856.4 739.7,989 598.4,654.5 c -37.2,39.6 -74.3,71.9 -105.3,92.9 z"
   id="path6"
   inkscape:connector-curvature="0" />
	<path
   d="m 353.1,614.9 c -26,-34.7 -52,-60.7 -75.6,-109 -26.1,-53 -41.9,-103.3 -26,-145 L 8.7,266.7 138.8,505.8 5,751.1 Z"
   id="path8"
   inkscape:connector-curvature="0" />
	<path
   d="m 733.5,357.2 c 15.9,41.6 0,91.9 -26,145 C 684,550.5 662.9,575.3 636.9,610 L 980,747.4 846.2,502.1 976.3,263 Z"
   id="path10"
   inkscape:connector-curvature="0" />
</g>
</svg>