<?xml version="1.0" encoding="UTF-8" standalone="no"?>
<!-- Generator: Adobe Illustrator 24.1.0, SVG Export Plug-In . SVG Version: 6.00 Build 0)  -->

<svg
   xmlns:dc="http://purl.org/dc/elements/1.1/"
   xmlns:cc="http://creativecommons.org/ns#"
   xmlns:rdf="http://www.w3.org/1999/02/22-rdf-syntax-ns#"
   xmlns:svg="http://www.w3.org/2000/svg"
   xmlns="http://www.w3.org/2000/svg"
   xmlns:sodipodi="http://sodipodi.sourceforge.net/DTD/sodipodi-0.dtd"
   xmlns:inkscape="http://www.inkscape.org/namespaces/inkscape"
   version="1.1"
   id="Layer_3"
   x="0px"
   y="0px"
   viewBox="0 0 602.79517 800"
   xml:space="preserve"
   sodipodi:docname="Order of the Ebon Chalice [Imperium, Adeptus Ministorum, Ecclesiarchy, Adepta Sororitas , Sisters of Battle, Battle Sisters, Order].svg"
   width="602.79517"
   height="800"
   inkscape:version="0.92.3 (2405546, 2018-03-11)"><metadata
   id="metadata13"><rdf:RDF><cc:Work
       rdf:about=""><dc:format>image/svg+xml</dc:format><dc:type
         rdf:resource="http://purl.org/dc/dcmitype/StillImage" /><dc:title></dc:title></cc:Work></rdf:RDF></metadata><defs
   id="defs11" /><sodipodi:namedview
   pagecolor="#ffffff"
   bordercolor="#666666"
   borderopacity="1"
   objecttolerance="10"
   gridtolerance="10"
   guidetolerance="10"
   inkscape:pageopacity="0"
   inkscape:pageshadow="2"
   inkscape:window-width="1920"
   inkscape:window-height="1017"
   id="namedview9"
   showgrid="false"
   fit-margin-top="0"
   fit-margin-left="0"
   fit-margin-right="0"
   fit-margin-bottom="0"
   inkscape:pagecheckerboard="true"
   inkscape:zoom="0.236"
   inkscape:cx="-162.04237"
   inkscape:cy="481.6479"
   inkscape:window-x="-8"
   inkscape:window-y="-8"
   inkscape:window-maximized="1"
   inkscape:current-layer="Layer_3" />
<g
   id="g6"
   transform="matrix(0.84598083,0,0,0.84598083,-113.78442,-30.45531)">
	<path
   d="M 847.04,500.14 H 788.4 c -0.1,-0.17 -0.21,-0.33 -0.31,-0.5 0,0 -594.34,-0.16 -594.65,0 -0.1,0.17 -0.21,0.33 -0.31,0.5 H 134.5 v 44 h 13.08 c -0.05,0.66 -0.08,1.33 -0.08,2 0,14.28 10.69,26.05 24.51,27.78 0.19,92.92 96.58,171.34 228.6,196.36 L 400,802.64 c -24.12,6.51 -52.39,-0.82 -83,-16 l -1,90 c 31.48,-16.93 60.67,-26.57 85,-12 l -2,37 c -26,22 -103,42 -146,-6 h -16 l 4,86 c 109.61,0.05 385.82,-0.16 499.54,0 l 4,-86 h -16 c -43,48 -120,28 -146,6 l -2,-37 c 24.33,-14.57 53.52,-4.93 85,12 l -1,-90 c -30.61,15.18 -58.88,22.51 -83,16 l -0.61,-32.36 c 132.02,-25.02 228.41,-103.44 228.6,-196.36 13.81,-1.72 24.51,-13.5 24.51,-27.78 0,-0.67 -0.03,-1.34 -0.08,-2 h 13.08 z"
   id="path2"
   inkscape:connector-curvature="0" />
	<path
   d="m 757,489 c -13.45,-9.7 -19.7,-19.77 -24,-42 0,-9 21,-29 24,-70 -3.54,-28.38 -20.01,-54.76 -44,-80 21,94 -68,84 -38,-18 11,-59 -28,-109 -72,-159 42,203 -160,138 -78,-84 -54.4,25.27 -100,76 -85,142 69,123 -41,152 -41,7 -9.89,-9.33 -76,60 -71,112 25,114 -48,138 -66,64 -38.14,36.13 -50.67,82.83 -38,130 z"
   id="path4"
   inkscape:connector-curvature="0" />
</g>
</svg>