<?xml version="1.0" encoding="UTF-8" standalone="no"?>
<!-- Generator: Adobe Illustrator 23.0.2, SVG Export Plug-In . SVG Version: 6.00 Build 0)  -->

<svg
   xmlns:dc="http://purl.org/dc/elements/1.1/"
   xmlns:cc="http://creativecommons.org/ns#"
   xmlns:rdf="http://www.w3.org/1999/02/22-rdf-syntax-ns#"
   xmlns:svg="http://www.w3.org/2000/svg"
   xmlns="http://www.w3.org/2000/svg"
   xmlns:sodipodi="http://sodipodi.sourceforge.net/DTD/sodipodi-0.dtd"
   xmlns:inkscape="http://www.inkscape.org/namespaces/inkscape"
   version="1.1"
   id="Layer_2"
   x="0px"
   y="0px"
   viewBox="0 0 750.48218 800"
   xml:space="preserve"
   sodipodi:docname="Pauper Princes [Hive Mind, Tyranids, Genestealer Cults, Genestealers].svg"
   width="750.48218"
   height="800"
   inkscape:version="0.92.3 (2405546, 2018-03-11)"><metadata
   id="metadata9"><rdf:RDF><cc:Work
       rdf:about=""><dc:format>image/svg+xml</dc:format><dc:type
         rdf:resource="http://purl.org/dc/dcmitype/StillImage" /><dc:title></dc:title></cc:Work></rdf:RDF></metadata><defs
   id="defs7" /><sodipodi:namedview
   pagecolor="#ffffff"
   bordercolor="#666666"
   borderopacity="1"
   objecttolerance="10"
   gridtolerance="10"
   guidetolerance="10"
   inkscape:pageopacity="0"
   inkscape:pageshadow="2"
   inkscape:window-width="1920"
   inkscape:window-height="1017"
   id="namedview5"
   showgrid="false"
   fit-margin-top="0"
   fit-margin-left="0"
   fit-margin-right="0"
   fit-margin-bottom="0"
   inkscape:pagecheckerboard="true"
   inkscape:zoom="0.236"
   inkscape:cx="-72.252373"
   inkscape:cy="484.99364"
   inkscape:window-x="-8"
   inkscape:window-y="-8"
   inkscape:window-maximized="1"
   inkscape:current-layer="Layer_2" />
<path
   d="m 610.82899,689.05494 c -7.59855,-11.27818 -3.14337,-28.83487 10.60991,-40.26156 13.86054,-11.51745 32.1185,-12.60649 41.75487,-2.82161 14.29781,-16.40989 26.31028,-35.27012 36.41692,-56.4817 -2.31009,0.0578 -4.60368,-0.25576 -6.83127,-1.00653 -13.73678,-4.62018 -19.73476,-23.62892 -13.39852,-42.45615 6.33625,-18.82724 22.60588,-30.33643 36.34267,-25.71625 2.76385,0.93228 5.2142,2.45034 7.30978,4.43042 6.56726,-24.19819 11.73196,-50.44246 15.82411,-78.64206 -6.91376,4.14166 -14.65256,5.69272 -22.14386,3.79515 -18.0187,-4.57893 -27.78708,-27.36631 -21.81384,-50.89623 5.97323,-23.52991 25.42748,-38.89201 43.45444,-34.32133 3.25887,0.82503 6.23724,2.25234 8.91034,4.16641 1.2623,-15.92312 2.31834,-32.32476 3.21763,-49.20491 -0.71778,-21.21983 -2.84636,-41.31761 -6.23725,-60.30985 -4.28191,7.49955 -10.75841,13.25827 -18.94273,15.98912 -20.32054,6.79002 -43.45444,-7.64804 -51.67176,-32.24225 -8.20907,-24.5942 1.60881,-50.02994 21.92935,-56.81996 9.59513,-3.20112 19.80902,-1.67481 28.78537,3.41564 -27.86133,-68.50242 -62.59518,-105.950624 -120.9827,-136.955334 22.55638,14.83408 19.18199,28.73587 8.72059,46.86183 -10.98118,19.016984 -40.12131,22.737884 -65.09503,8.316324 -24.97372,-14.421564 -36.31791,-41.523874 -25.34499,-60.532604 9.36412,-16.22013 26.99505,-22.9524 48.9244,-15.15584 C 513.10394,5.3673655 451.74631,-3.4357245 385.01771,1.1597055 c 14.58657,5.74222 25.13873,16.0056205 28.00984,29.3051405 5.56897,25.7575 -19.72651,53.07431 -56.48994,61.02762 -36.76343,7.94506 -71.08477,-6.48475 -76.65373,-32.24225 -3.38263,-15.65086 4.63668,-31.86274 19.69351,-43.97421 C 164.37939,50.917386 42.769662,148.22993 8.687588,295.74566 c 31.499724,5.42871 45.616022,13.03551 45.616022,13.03551 17.20192,17.72168 49.88144,34.66784 87.87417,49.79893 -6.73227,-8.64634 -10.75842,-19.52026 -10.75842,-31.33472 0,-28.19134 22.85339,-51.04473 51.04473,-51.04473 28.19135,0 51.04474,22.85339 51.04474,51.04473 0,24.38795 -17.10292,44.76624 -39.97281,49.82369 26.54128,8.71234 53.47033,16.45939 77.98203,22.94414 -38.00922,-78.19654 35.8394,-128.16048 124.90161,-123.81256 0.91578,0.18151 1.83157,0.38776 2.74735,0.58577 l -10.3459,38.5125 -65.16928,10.85742 v 111.8661 l 38.00923,-76.02671 69.50895,9.77663 41.73012,-66.76159 c 26.21952,15.24659 48.45413,35.20412 61.75365,58.72578 l -58.95679,54.74088 -56.47345,-22.80389 -77.10749,76.02671 84.71429,-23.89293 53.21457,23.89293 75.03666,-38.50425 c 3.48164,22.93589 3.56414,44.04021 0.50327,63.1067 -7.22728,14.1328 -16.54189,26.14527 -28.84312,35.12987 l -71.67878,5.42871 -23.89293,-43.44619 -80.80364,14.69382 -2.82161,0.51152 60.82136,18.46422 8.68759,52.13378 72.45431,12.83749 c -44.70848,24.56946 -109.4735,29.4289 -188.66833,9.96639 4.34792,41.26811 7.59855,58.65153 16.29439,87.97317 -64.73202,-31.21921 -119.02738,-83.749 -162.91084,-156.39308 -19.33875,30.64994 -29.38764,62.80144 -33.66955,90.14301 L 0,438.02244 c 31.433722,137.02957 92.35409,259.56334 183.54488,347.54476 -3.63014,-36.04566 -8.68758,-72.25631 1.08905,-94.49093 78.69155,76.84349 169.8411,124.5056 289.98227,104.2593 l -44.32898,-70.49073 c 77.33026,2.21108 135.97354,-10.10665 180.54177,-35.7899 z M 182.46409,189.31652 c -19.25625,3.00312 -39.37053,10.58516 -59.73232,22.80389 5.34621,-40.82259 32.64652,-67.45462 72.76783,-85.80334 4.32317,12.64775 -0.66828,34.27184 -13.03551,62.99945 z"
   id="path2"
   inkscape:connector-curvature="0"
   style="stroke-width:0.82503206" />
</svg>