<?xml version="1.0" encoding="UTF-8" standalone="no"?>
<!-- Created with Inkscape (http://www.inkscape.org/) -->

<svg
   xmlns:dc="http://purl.org/dc/elements/1.1/"
   xmlns:cc="http://creativecommons.org/ns#"
   xmlns:rdf="http://www.w3.org/1999/02/22-rdf-syntax-ns#"
   xmlns:svg="http://www.w3.org/2000/svg"
   xmlns="http://www.w3.org/2000/svg"
   xmlns:sodipodi="http://sodipodi.sourceforge.net/DTD/sodipodi-0.dtd"
   xmlns:inkscape="http://www.inkscape.org/namespaces/inkscape"
   width="800.00006"
   height="800"
   viewBox="0 0 211.66668 211.66667"
   version="1.1"
   id="svg8"
   inkscape:version="0.92.3 (2405546, 2018-03-11)"
   sodipodi:docname="Prophets of Flesh [Aeldari, Drukhari, Dark Eldar, Haemonculus Covens].svg">
  <defs
     id="defs2" />
  <sodipodi:namedview
     id="base"
     pagecolor="#ffffff"
     bordercolor="#666666"
     borderopacity="1.0"
     inkscape:pageopacity="0.0"
     inkscape:pageshadow="2"
     inkscape:zoom="0.98994949"
     inkscape:cx="228.96734"
     inkscape:cy="451.93382"
     inkscape:document-units="px"
     inkscape:current-layer="layer1"
     showgrid="false"
     units="px"
     inkscape:window-width="1920"
     inkscape:window-height="1017"
     inkscape:window-x="-8"
     inkscape:window-y="-8"
     inkscape:window-maximized="1"
     inkscape:snap-global="true"
     fit-margin-top="0"
     fit-margin-left="0"
     fit-margin-right="0"
     fit-margin-bottom="0"
     inkscape:pagecheckerboard="true" />
  <metadata
     id="metadata5">
    <rdf:RDF>
      <cc:Work
         rdf:about="">
        <dc:format>image/svg+xml</dc:format>
        <dc:type
           rdf:resource="http://purl.org/dc/dcmitype/StillImage" />
        <dc:title></dc:title>
      </cc:Work>
    </rdf:RDF>
  </metadata>
  <g
     inkscape:label="Layer 1"
     inkscape:groupmode="layer"
     id="layer1"
     transform="translate(-5.0555749,-45.740208)">
    <g
       id="g843"
       style="fill:#000000;fill-opacity:1;stroke:none"
       transform="matrix(5.155379,0,0,5.155379,-372.73204,-560.54864)">
      <path
         id="path826"
         transform="scale(0.26458333)"
         d="m 354.55273,444.48438 a 77.589291,77.589291 0 0 0 -77.58789,77.58984 77.589291,77.589291 0 0 0 77.58789,77.58789 77.589291,77.589291 0 0 0 77.58985,-77.58789 77.589291,77.589291 0 0 0 -77.58985,-77.58984 z m 0,14.14257 A 63.447155,63.447155 0 0 1 418,522.07422 a 63.447155,63.447155 0 0 1 -63.44727,63.44531 63.447155,63.447155 0 0 1 -63.44726,-63.44531 63.447155,63.447155 0 0 1 63.44726,-63.44727 z"
         style="opacity:1;fill:#000000;fill-opacity:1;stroke:none;stroke-width:0.41839921;stroke-linecap:round;stroke-linejoin:round;stroke-miterlimit:4;stroke-dasharray:none;stroke-opacity:1;paint-order:normal"
         inkscape:connector-curvature="0" />
      <path
         id="circle830"
         transform="scale(0.26458333)"
         d="m 354.55273,466.07617 c -30.92628,6.6e-4 -55.99651,25.07177 -55.99609,55.99805 0.0256,26.0933 18.07004,48.71058 43.50586,54.53125 v -14.08985 l -14.77344,-6.81835 c 0,0 0.61484,-0.67847 0.83594,-1.30274 0.2211,-0.62426 0.26758,-2.41015 0.26758,-2.41015 0,0 6.25076,3.64476 9.64258,4.82031 3.39181,1.17554 10.53515,2.17578 10.53515,2.17578 v 18.75195 c 1.5308,0.15307 3.06726,0.24299 4.60547,0.26953 v -19.02148 c 0,0 6.07134,-0.57235 9.5957,-3.4082 3.52437,-2.83586 10.55694,-8.46423 8.96485,-14.39454 -1.59209,-5.9303 -10.8866,-9.27918 -17.55078,-9.3457 -6.66418,-0.0664 -17.78031,3.55585 -17.93164,9.0918 0.17858,7.78435 17.72574,9.86419 20.96093,0.12695 0,0 -4.61603,3.26053 -7.19726,3.2832 -2.58123,0.0213 -6.79856,0.24383 -6.94531,-3.03125 -0.14676,-3.27507 6.4169,-5.79347 10.60742,-5.80859 4.19051,-0.0148 10.99363,0.61969 11.49023,6.1875 0.4966,5.56781 -8.12565,11.7876 -16.03515,12.75391 -7.90632,0.96592 -24.83205,-11.34358 -24.84571,-11.35352 l -0.78711,-38.65039 c -0.0299,-1.46075 1.44347,-3.30797 2.9043,-3.28125 1.52488,0.0265 2.80278,2.01344 2.9043,3.53516 l 1.93945,29.08398 c 0.0253,0.3803 0.13542,0.99867 0.5015,0.89258 0.51773,-0.15005 0.38405,-1.06846 0.39108,-1.60742 l 0.53515,-41.07031 c 0.0204,-1.57134 1.29908,-3.54732 2.85743,-3.75 1.34601,-0.175 3.13878,1.14477 3.21484,2.5 l 1.96484,35 c 0.0306,0.5479 0.52481,1.30985 1.07032,1.25 1.00586,-0.11037 1.4339,-1.66776 1.42968,-2.67969 l -0.17968,-42.85742 c -0.006,-1.43354 1.43045,-3.07601 2.85742,-3.21289 1.26804,-0.12171 2.97884,1.04766 3.03515,2.32031 l 1.78711,40.35742 c 0.02,0.45286 0.0854,1.19331 0.53516,1.25 0.96861,0.12208 1.7732,-1.34414 1.78516,-2.32031 l 0.53711,-43.75 c 0.0242,-1.96506 1.42832,-4.76183 3.39257,-4.82227 1.9048,-0.0586 3.54708,2.55928 3.57032,4.46485 l 0.53711,43.92773 c 0.004,0.34696 0.55715,0.62435 0.89257,0.53516 1.64825,-0.43839 2.50953,-2.75736 2.5,-4.46289 l -0.17968,-31.96485 c -0.01,-1.76972 2.16669,-3.727 3.92968,-3.57226 1.6486,0.14475 2.99129,2.27531 3.03516,3.92968 l 1.25,47.14258 c 0.0348,1.305 1.5412,2.21517 2.67773,2.85742 1.48395,0.8386 3.32087,1.3633 5,1.07032 l 16.07227,-10 c 1.82016,-1.13249 5.31621,-1.65331 6.42773,0.17968 1.26993,2.09424 -1.21256,5.19422 -3.21289,6.60743 l -16.42968,11.60742 c 0,0 -5.46593,6.89561 -8.57032,10 -2.71634,2.71634 -5.45314,5.52826 -8.75,7.5 -1.69802,1.01552 -5.53515,2.14258 -5.53515,2.14258 v 14.49414 c 28.57965,-2.88606 50.3405,-26.92931 50.37109,-55.6543 4.2e-4,-30.92704 -25.07101,-55.99847 -55.99805,-55.99805 z"
         style="opacity:1;fill:#000000;fill-opacity:1;stroke:none;stroke-width:0.30196455;stroke-linecap:round;stroke-linejoin:round;stroke-miterlimit:4;stroke-dasharray:none;stroke-opacity:1;paint-order:normal"
         inkscape:connector-curvature="0"
         sodipodi:nodetypes="ccccccccccccssccccccsscccccccccccccccccccccccccccccccscscsccccc" />
    </g>
  </g>
</svg>
