<?xml version="1.0" encoding="UTF-8" standalone="no"?>
<svg
   xmlns:dc="http://purl.org/dc/elements/1.1/"
   xmlns:cc="http://creativecommons.org/ns#"
   xmlns:rdf="http://www.w3.org/1999/02/22-rdf-syntax-ns#"
   xmlns:svg="http://www.w3.org/2000/svg"
   xmlns="http://www.w3.org/2000/svg"
   xmlns:sodipodi="http://sodipodi.sourceforge.net/DTD/sodipodi-0.dtd"
   xmlns:inkscape="http://www.inkscape.org/namespaces/inkscape"
   width="666.93805"
   height="800"
   version="1.1"
   id="svg13"
   sodipodi:docname="Questor Imperialis [Imperium, Adeptus Terra, Questoris Knights, Imperial Knights].svg"
   inkscape:version="0.92.3 (2405546, 2018-03-11)">
  <metadata
     id="metadata19">
    <rdf:RDF>
      <cc:Work
         rdf:about="">
        <dc:format>image/svg+xml</dc:format>
        <dc:type
           rdf:resource="http://purl.org/dc/dcmitype/StillImage" />
        <dc:title>creek united</dc:title>
      </cc:Work>
    </rdf:RDF>
  </metadata>
  <defs
     id="defs17" />
  <sodipodi:namedview
     pagecolor="#ffffff"
     bordercolor="#666666"
     borderopacity="1"
     objecttolerance="10"
     gridtolerance="10"
     guidetolerance="10"
     inkscape:pageopacity="0"
     inkscape:pageshadow="2"
     inkscape:window-width="1920"
     inkscape:window-height="1017"
     id="namedview15"
     showgrid="false"
     showguides="false"
     inkscape:zoom="0.5"
     inkscape:cx="-263.31703"
     inkscape:cy="277.10581"
     inkscape:window-x="-8"
     inkscape:window-y="-8"
     inkscape:window-maximized="1"
     inkscape:current-layer="svg13"
     inkscape:pagecheckerboard="true"
     fit-margin-top="0"
     fit-margin-left="0"
     fit-margin-right="0"
     fit-margin-bottom="0" />
  <title
     id="title2">creek united</title>
  <path
     style="fill:none;fill-opacity:0.83720931;fill-rule:evenodd;stroke:#000000;stroke-width:7.69530058;stroke-miterlimit:4;stroke-dasharray:none;stroke-opacity:1"
     d="m 4.1718082,3.8476503 c 0,0 -0.7285818,85.6585547 0,134.5462797 0.7285919,48.88772 2.9148241,61.00561 3.8784296,83.81932 1.2154021,21.83928 2.0886992,47.93867 4.2133712,71.84327 5.186788,65.06673 26.282051,145.88073 52.100245,209.65748 13.127571,32.23707 42.727506,81.75096 71.062366,122.68093 13.54204,19.56171 29.05191,37.64977 45.34024,54.75195 20.66911,21.7018 42.50548,42.40717 66.17915,60.41598 27.23582,20.71886 57.85483,42.4785 86.63556,54.31796 30.36766,-10.79392 59.39776,-33.5991 86.63359,-54.31796 23.67366,-18.00881 45.51186,-38.71418 66.18112,-60.41598 16.28818,-17.10218 31.74912,-35.22626 45.33825,-54.75195 26.89646,-38.647 54.04715,-76.80046 71.06237,-122.68093 25.80939,-61.78663 41.91463,-133.00901 52.10024,-209.65748 1.03428,-13.64309 2.43842,-37.59 4.21343,-71.84327 1.77155,-34.25318 3.43646,-62.19342 3.88039,-83.81932 0.22161,-10.82061 0,-134.5462797 0,-134.5462797 z M 333.33542,124.75896 h 0.11694 0.11692 c 4.55972,0 7.24754,0.17635 7.24754,0.17635 31.45042,1.46147 104.11479,12.68491 128.72561,84.47136 20.92794,61.20542 -18.76522,130.41901 -10.6979,139.77237 32.32722,37.41293 -11.57551,96.69012 -17.59665,101.60033 -10.81472,8.76859 -45.18806,-9.05971 -39.75148,0.17635 4.09209,7.0149 7.89163,60.03547 7.89163,60.03547 h -10.63844 l -5.08735,-18.47263 -9.11839,-0.11689 -1.75392,18.58952 H 364.2004 l -1.75392,-17.71161 -6.19718,-0.87791 -0.87596,18.58952 h -15.0817 l -0.70156,-19.0572 h -12.21797 l -0.70157,19.0572 h -15.0817 l -0.87795,-18.58952 -6.19519,0.87791 -1.75392,17.71161 h -18.58954 l -1.75391,-18.58952 -9.12037,0.11689 -5.08536,18.47263 h -10.64043 c 0,0 3.80154,-53.02057 7.89361,-60.03547 5.43658,-9.23606 -28.93674,8.65089 -39.75149,-0.17635 -5.96272,-4.85197 -49.92393,-64.1874 -17.59663,-101.60033 8.06719,-9.29492 -31.68433,-78.50831 -10.69791,-139.77237 24.55238,-71.78645 97.2742,-83.00989 128.66615,-84.47136 0,0 2.63135,-0.17635 7.24952,-0.17635 z"
     id="path2-0-6"
     inkscape:connector-curvature="0"
     sodipodi:nodetypes="csccccccccccccccccscsccccccccccccccccccccccccccccccccs" />
  <path
     style="fill:#000000;fill-opacity:1;fill-rule:evenodd;stroke:#000000;stroke-width:7.69530058;stroke-miterlimit:4;stroke-dasharray:none"
     d="M 205.29949,418.74909 H 81.811856 c 6.844972,24.32986 14.885956,48.13147 23.593654,69.64138 11.15449,27.391 36.30496,69.46138 60.38032,104.23824 11.50633,16.62122 24.68291,31.99203 38.52275,46.52338 17.56191,18.43935 36.11746,36.03173 56.23236,51.33324 17.05109,12.97115 31.83988,26.38583 50.23535,36.57855 V 493.785 l -0.0654,-1.38526 -6.19519,0.87791 -1.75392,17.71161 h -18.58954 l -1.75391,-18.58952 -9.12037,0.11689 -5.08536,18.47263 h -10.64048 c 0,0 3.80154,-53.02057 7.89361,-60.03546 5.43658,-9.23607 -28.93674,8.65088 -39.75149,-0.17636 -2.64865,-2.15531 -12.78795,-15.07117 -20.4148,-32.03028 z"
     id="path933-1-3"
     inkscape:connector-curvature="0" />
  <path
     style="fill:#000000;fill-opacity:1;fill-rule:evenodd;stroke:#000000;stroke-width:7.69544983;stroke-miterlimit:4;stroke-dasharray:none"
     d="m 352.3352,68.013232 v 57.807908 c 35.06202,3.70831 95.24919,19.53695 117.20723,83.58553 20.92794,61.20542 -18.76522,130.41901 -10.6979,139.77237 7.32289,8.47493 10.72394,18.07345 11.55008,27.90605 h 124.12776 c 0,0 8.8246,-42.79123 12.05742,-67.12048 0.87883,-11.59218 2.07272,-31.93815 3.58117,-61.04225 1.50509,-29.1039 2.91643,-52.84615 3.2938,-71.22096 0.18843,-9.19395 0,-109.688168 0,-109.688168 z"
     id="path936-1-1"
     inkscape:connector-curvature="0"
     sodipodi:nodetypes="ccccccccccc" />
  <path
     style="fill:none;fill-opacity:0.42325583;stroke:#000000;stroke-width:7.69530058;stroke-linejoin:miter;stroke-miterlimit:4;stroke-dasharray:none;stroke-opacity:1"
     d="m 58.295498,68.013232 0.02374,66.656758 c 0.01228,36.66136 0.486415,73.82965 1.05433,82.59662 0.568067,8.76696 1.78289,30.07181 2.699252,47.34193 2.014008,37.95884 3.263636,52.82585 6.094118,72.5011 1.884117,12.90946 6.999805,39.97545 6.999805,39.97545 H 196.5755 c 0.82336,-9.83382 4.22121,-19.43345 11.54216,-27.90605 8.06719,-9.29492 -31.68433,-78.50831 -10.69791,-139.77237 21.13099,-61.78297 77.9213,-78.6951 113.35654,-83.14353 V 68.013232 Z"
     id="path1112-2"
     inkscape:connector-curvature="0"
     sodipodi:nodetypes="cccccccccccc" />
  <path
     style="fill:none;fill-opacity:0.42325583;stroke:#000000;stroke-width:7.69530058;stroke-linecap:square;stroke-linejoin:miter;stroke-miterlimit:4;stroke-dasharray:none;stroke-opacity:1"
     d="m 461.67655,418.74909 c -7.62086,16.94288 -17.75529,29.85011 -20.42867,32.03028 -10.81472,8.76859 -45.18806,-9.05971 -39.75148,0.17635 4.09209,7.0149 7.89163,60.03547 7.89163,60.03547 h -10.63844 l -5.08735,-18.47263 -9.11839,-0.11689 -1.75392,18.58952 H 364.2004 l -1.75392,-17.71161 -6.19718,-0.87791 -0.87596,18.58952 h -3.03814 v 216.07462 c 0,0 50.9803,-38.63443 66.18113,-51.65429 23.63643,-20.2451 47.4693,-44.49866 64.9187,-66.06621 20.20032,-24.9677 50.06918,-70.52031 62.49494,-95.308 10.67138,-21.28831 28.6651,-69.14855 33.17978,-88.25273 l 0.70745,-7.03549 z"
     id="path1114-2"
     inkscape:connector-curvature="0"
     sodipodi:nodetypes="cccccccccccccccscccc" />
  <path
     inkscape:connector-curvature="0"
     d="M 469.54167,209.40678 C 444.93085,137.62032 372.26751,126.39637 340.81709,124.93491 v 0 c 0,0 -2.68906,-0.17534 -7.24878,-0.17534 -0.0582,0 -0.0582,0 -0.11687,0 -0.0584,0 -0.0584,0 -0.11687,0 -4.61817,0 -7.24879,0.17534 -7.24879,0.17534 v 0 c -31.39195,1.46146 -104.1137,12.68541 -128.66608,84.47187 -20.98642,61.26406 18.76502,130.47826 10.69783,139.77317 -32.32731,37.41293 11.63312,96.74786 17.59585,101.59983 10.81474,8.82724 45.18804,-9.06073 39.75145,0.17533 -4.09206,7.0149 -7.89183,60.03649 -7.89183,60.03649 h 10.63935 l 5.08585,-18.47274 9.11948,-0.11689 1.75371,18.58963 h 18.58965 l 1.75376,-17.71283 6.19656,-0.8768 0.87685,18.58963 h 15.08216 l 0.70151,-19.0573 h 12.21771 l 0.7015,19.0573 h 15.08209 l 0.87685,-18.58963 6.19657,0.8768 1.75372,17.71283 h 18.58966 l 1.75374,-18.58963 9.11945,0.11689 5.08585,18.47274 h 10.63935 c 0,0 -3.79977,-53.02159 -7.89186,-60.03649 -5.43658,-9.23606 28.93677,8.59326 39.75149,-0.17533 6.02114,-4.91022 49.92315,-64.1869 17.59593,-101.59983 -8.06732,-9.35336 31.62568,-78.56776 10.69774,-139.77317 z M 313.45875,387.87911 c -4.20898,4.73498 -10.28862,10.34716 -18.53121,14.96534 -19.81727,11.1654 -39.45915,9.58704 -47.40944,8.47646 -0.52612,-0.0589 -1.05224,-0.23389 -1.46146,-0.52622 -17.36202,-10.99027 -23.96777,-28.11823 -18.82347,-38.81606 0.75995,-1.63711 3.68284,-7.01499 12.8023,-10.34705 0.52612,-0.17554 1.05226,-0.23399 1.57836,-0.23399 10.9901,0.99379 24.61084,3.15682 39.693,7.8919 12.21772,3.79993 22.62326,8.41811 31.15812,12.86075 2.10447,1.11059 2.57216,3.91663 0.9938,5.72887 z m 41.50519,64.8298 c -0.0584,1.22768 -1.57837,1.69526 -2.33833,0.76001 -1.87068,-2.39681 -4.4428,-5.1442 -7.89183,-7.65801 -3.68287,-2.68904 -7.19034,-4.38429 -9.93788,-5.37808 -2.68906,0.99379 -6.25501,2.68904 -9.93787,5.37808 -3.44899,2.51381 -6.02114,5.2612 -7.89183,7.65801 -0.75993,0.93525 -2.27984,0.46767 -2.33831,-0.76001 -0.58458,-9.06082 -0.17537,-27.5919 13.44535,-41.03732 1.75375,-1.7538 4.0336,-3.27371 6.72266,-4.73528 2.63062,1.46157 4.96894,2.98148 6.72267,4.73528 13.62073,13.44542 14.02994,32.03474 13.44537,41.03732 z m 66.4083,-41.91422 c -0.46762,0.29233 -0.93539,0.46757 -1.46144,0.52622 -7.95031,1.11058 -27.53373,2.68894 -47.40948,-8.47646 -8.24258,-4.61818 -14.32219,-10.23036 -18.53118,-14.96534 -1.57836,-1.81224 -1.11069,-4.61828 1.05225,-5.72887 8.53486,-4.44264 18.9404,-9.06082 31.15811,-12.86075 15.14066,-4.73508 28.76138,-6.89811 39.69304,-7.8919 0.52607,-0.0578 1.05214,0 1.57834,0.23399 9.061,3.33206 11.98378,8.76849 12.80234,10.34705 5.08585,10.69783 -1.51996,27.88424 -18.88198,38.81606 z"
     id="path2-6"
     style="fill:none;fill-opacity:0.83720931;stroke:#000000;stroke-width:7.69544983;stroke-miterlimit:4;stroke-dasharray:none;stroke-opacity:1" />
</svg>
