<?xml version="1.0" encoding="UTF-8" standalone="no"?>
<!-- Generator: Adobe Illustrator 21.0.2, SVG Export Plug-In . SVG Version: 6.00 Build 0)  -->

<svg
   xmlns:dc="http://purl.org/dc/elements/1.1/"
   xmlns:cc="http://creativecommons.org/ns#"
   xmlns:rdf="http://www.w3.org/1999/02/22-rdf-syntax-ns#"
   xmlns:svg="http://www.w3.org/2000/svg"
   xmlns="http://www.w3.org/2000/svg"
   xmlns:sodipodi="http://sodipodi.sourceforge.net/DTD/sodipodi-0.dtd"
   xmlns:inkscape="http://www.inkscape.org/namespaces/inkscape"
   version="1.1"
   id="Layer_2"
   x="0px"
   y="0px"
   viewBox="0 0 800.00001 800.00001"
   xml:space="preserve"
   sodipodi:docname="Questor Traitoris [Chaos, Dark Mechanicum, Chaos Knights, Renegade Knights].svg"
   inkscape:version="0.92.3 (2405546, 2018-03-11)"
   width="800"
   height="800"><metadata
   id="metadata9"><rdf:RDF><cc:Work
       rdf:about=""><dc:format>image/svg+xml</dc:format><dc:type
         rdf:resource="http://purl.org/dc/dcmitype/StillImage" /><dc:title></dc:title></cc:Work></rdf:RDF></metadata><defs
   id="defs7" /><sodipodi:namedview
   pagecolor="#ffffff"
   bordercolor="#666666"
   borderopacity="1"
   objecttolerance="10"
   gridtolerance="10"
   guidetolerance="10"
   inkscape:pageopacity="0"
   inkscape:pageshadow="2"
   inkscape:window-width="1920"
   inkscape:window-height="1017"
   id="namedview5"
   showgrid="false"
   inkscape:snap-grids="false"
   inkscape:snap-to-guides="false"
   inkscape:pagecheckerboard="true"
   inkscape:zoom="0.37935259"
   inkscape:cx="-347.4956"
   inkscape:cy="518.55031"
   inkscape:window-x="-8"
   inkscape:window-y="-8"
   inkscape:window-maximized="1"
   inkscape:current-layer="Layer_2"
   fit-margin-top="0"
   fit-margin-left="0"
   fit-margin-right="0"
   fit-margin-bottom="0" />

<path
   style="stroke-width:0.65750134"
   d="m 400,0 -88.83936,88.83758 h 61.10581 v 27.53287 c -17.38003,0.2716 -36.61956,1.63354 -57.30523,4.78624 -24.41307,3.72147 -50.35828,9.64528 -61.07562,18.21257 -10.62344,8.49222 -22.82372,26.24843 -30.85571,47.65283 L 197.9532,161.9454 241.14479,118.7538 H 115.57126 v 125.57353 l 43.10102,-43.09925 52.91327,52.91326 c -0.78275,25.37988 1.58061,44.87699 1.58061,44.87699 0,0 -24.64238,10.71698 -23.57068,30.00146 v 14.99807 h -17.12745 v 30.52183 H 88.837583 V 313.43388 L 0,402.27324 88.837583,491.11083 V 430.09737 H 189.97376 l -0.36585,14.63577 c 9.94907,36.01489 21.62241,66.60235 35.67925,90.84443 l -64.88686,64.92237 -43.19159,-43.1916 v 125.57353 h 125.57353 l -43.10103,-43.10102 61.09694,-61.1289 c 0.0416,0.0331 0.0827,0.0682 0.12431,0.10124 0,0 14.97941,9.10098 22.54949,13.36949 7.57017,4.26833 8.90853,15.95313 12.76213,31.09547 4.20613,-16.62676 47.68568,-126.71853 46.81812,-117.23357 -1.89343,20.69912 -4.36999,73.07154 -13.43877,110.56657 -8.54984,35.34937 -16.50942,68.19016 -16.50942,68.19016 h 59.18244 v 26.50991 H 311.16064 L 400,800 488.83758,711.25122 h -61.01345 v -26.50991 h 57.50946 c 0,0 28.92928,-23.57143 43.92685,-54.64483 2.34622,-35.18365 6.96463,-45.79783 9.29543,-48.98482 l 60.21605,60.21606 -43.10102,43.09924 H 681.33677 V 558.85343 l -43.19159,43.1916 -63.65078,-63.65077 c 14.7723,-24.85958 27.0187,-56.55675 37.26874,-93.66112 l -0.36585,-14.63577 h 99.85393 v 61.01346 L 800,402.27324 711.25122,313.43388 v 61.10581 H 628.9048 v -30.52183 h -17.14166 v -14.99807 c 1.0717,-19.28448 -23.57068,-30.00146 -23.57068,-30.00146 0,0 2.6342,-21.72586 1.419,-49.16773 l 50.16939,-50.16939 43.10102,43.10103 V 117.20871 H 557.30834 l 43.1916,43.19159 -23.4144,23.40196 c -7.90357,-19.73508 -18.5214,-34.35009 -29.61253,-44.433 -11.78903,-10.71728 -36.66253,-14.4911 -61.07561,-18.21257 -21.1895,-3.23014 -40.85909,-4.57681 -58.57327,-4.80045 V 88.83758 h 61.01345 z m -33.23728,133.54586 c 1.65772,0.0413 3.10428,1.28165 3.32284,2.99606 0.77642,5.99258 1.5043,12.14895 2.18089,18.44345 v 25.17971 c 1.14354,18.38075 2.57472,40.81052 3.50932,54.75671 1.74391,26.02097 1.71656,29.23877 -3.50932,29.60542 v 2.88418 h -8.03271 c -0.85142,-5.251 -2.34919,-9.64181 -4.89103,-14.20421 -0.55177,-0.21455 -1.15303,-0.38076 -1.80616,-0.50083 -18.42441,3.894 -34.328,10.92948 -47.68302,21.13938 l -0.99454,-0.99454 c -7.65777,5.314 -8.60517,7.70542 -5.89268,10.97372 5.43824,6.55274 25.08975,17.63982 39.59349,22.72709 l -2.58582,-2.58581 c 5.98966,2.1423 12.29377,3.89291 18.92829,5.23023 2.82074,-4.85235 4.43063,-9.44877 5.33147,-14.99807 h 8.03271 v 2.85754 c 0.93648,3.0705 0.90794,10.04009 0,21.75386 v 17.4489 l -1.47584,-1.47583 c -1.07952,10.07489 -2.19485,17.75734 -2.80425,18.78266 -0.8311,1.3983 -13.64682,2.54142 -28.47945,2.54142 -26.75852,0 -27.02247,-0.0852 -33.83046,-11.01635 -3.77377,-6.05932 -7.76139,-15.24354 -8.86209,-20.40945 -3.04057,-14.271 -6.03525,-13.65423 -11.59886,3.09019 l 1.65874,1.65876 c -0.26245,0.92387 -0.53752,1.8572 -0.83648,2.80425 -2.81409,8.89595 -6.43665,16.08335 -9.64529,21.42886 -14.6425,-7.14051 -29.28604,-14.28844 -43.92863,-21.42886 -1.96932,-9.86181 -5.06843,-35.83042 -6.2816,-63.49626 l 3.60522,3.60522 c -0.058,-4.75803 -0.10214,-9.60003 -0.11011,-14.54164 -0.0615,-38.24668 0.19434,-50.93962 3.29797,-60.83409 l -1.77952,-1.77952 c 0.98217,-2.95191 2.11465,-5.5169 3.41875,-7.60293 5.95044,-12.11122 13.04479,-22.4017 20.35617,-31.07415 5.41786,-0.80873 16.49719,-1.6773 28.93055,3.2145 6.55437,2.57939 11.54105,5.99919 15.07621,8.93313 0.66246,0.1256 1.20767,0.10927 1.65521,-0.0604 -0.62309,-3.30074 -1.17953,-9.83844 2.55207,-16.36735 2.72861,-4.78003 6.5361,-7.38433 8.57438,-8.57438 18.09446,-3.35326 36.18817,-6.70051 54.28254,-10.05377 0.24245,-0.0452 0.48422,-0.0627 0.72104,-0.0568 z m 67.84739,0 c 0.23682,-0.006 0.47682,0.0116 0.71927,0.0568 18.09446,3.35326 36.18997,6.70051 54.2843,10.05377 2.03828,1.18354 5.83745,3.79435 8.57261,8.57438 3.7271,6.52114 3.17254,13.05022 2.55207,16.35491 0.43279,0.18313 0.96747,0.2133 1.61258,0.11189 3.53776,-2.93813 8.53934,-6.37675 15.12061,-8.97221 12.43336,-4.8918 23.51279,-4.01662 28.93056,-3.2145 7.31147,8.66594 14.40582,18.95641 20.35617,31.07415 0.79605,1.27388 1.52677,2.73045 2.20042,4.3387 l -1.59659,1.59659 c 4.26911,10.66738 4.56131,21.45472 4.44348,64.28125 -0.009,3.34327 -0.0355,6.64827 -0.0675,9.92234 l 3.63186,-3.63185 c -1.0479,29.36284 -4.38562,57.72768 -6.46809,68.13687 -14.64258,7.14041 -29.28604,14.28656 -43.92862,21.42707 -3.202,-5.35203 -6.8312,-12.53111 -9.6453,-21.42707 -0.6856,-2.17197 -1.26546,-4.28216 -1.76709,-6.32601 l 1.20057,-1.20055 c -4.42182,-11.98502 -5.6018,-12.68231 -7.4431,-6.55156 -1.28947,4.29332 -5.57814,14.20915 -9.52986,22.03446 l -1.52023,3.01027 6.07205,-6.07204 c -2.7431,5.99005 -7.21858,13.64953 -14.87021,21.89061 h -7.0204 l 4.4115,-4.41151 -23.91876,0.78853 c -28.92845,0.95525 -29.66188,0.78859 -29.68534,-6.77888 -0.009,-2.82099 -0.46202,-9.91834 -1.09755,-17.96216 l -1.55397,1.55219 c -0.27126,-2.66635 -0.53123,-5.35789 -0.78143,-8.07355 v -29.93753 h 9.30786 c 0.90075,5.55581 2.51082,10.14572 5.33146,14.99806 4.19037,-0.8444 8.25191,-1.85053 12.18493,-3.0156 l -2.32297,2.32297 c 0.56635,-0.15094 1.04413,-0.26957 1.66764,-0.44043 15.84204,-4.34112 23.23074,-8.03077 37.6701,-18.81108 l 11.22946,-8.38436 -13.20256,-9.70922 -0.77077,0.76899 c -13.09822,-9.38421 -28.52066,-15.8681 -46.25337,-19.46818 -0.0701,0.023 -0.15028,0.0385 -0.21667,0.0639 -0.0203,0.008 -0.0401,0.0185 -0.0604,0.0266 -2.77205,4.80249 -4.36452,9.36373 -5.25687,14.86131 h -9.30786 v -3.36901 c -2.59191,-1.10883 -3.32285,-4.13638 -3.32285,-11.04831 0,-7.93424 1.54708,-33.38744 3.32285,-58.4898 v -26.73901 c 0.9985,-10.81386 2.16241,-21.23695 3.45603,-31.22156 0.22437,-1.71449 1.67215,-2.95073 3.32995,-2.99073 z m -130.10047,213.51957 11.95582,11.95583 h -2.56983 c -3.88155,-4.18057 -6.94809,-8.21407 -9.38599,-11.95583 z m -77.39679,18.38307 c 11.53797,3.13251 24.54914,6.23016 38.71438,9.09119 h -8.33285 c 80.23912,18.27631 206.31898,18.27631 286.55812,0 h -8.50335 c 14.16465,-2.86097 27.17496,-5.95874 38.71083,-9.09119 0,3.02988 -0.4404,6.06018 -0.99277,9.09119 h -1.35862 l -0.58962,3.10085 c -1.11526,5.86819 -2.37173,11.10546 -2.79183,11.63793 -0.42,0.53246 -18.12408,5.34489 -39.34307,10.69489 -62.5477,15.77036 -125.62673,20.13025 -189.14438,13.07292 -23.81848,-2.64643 -104.49185,-20.56295 -107.01996,-23.76781 -0.42001,-0.53246 -1.67667,-5.76974 -2.79183,-11.63793 l -0.58962,-3.10085 h -1.53266 c -0.55238,-3.03101 -0.99277,-6.06131 -0.99277,-9.09119 z m -21.11096,55.06574 c 2.79453,0 19.53643,4.66179 35.7272,9.58313 h 6.36152 l 26.15827,7.13407 c 5.84231,8.46149 9.66531,21.05182 14.08167,35.26899 l -1.42433,1.42433 c 2.32618,6.49375 4.40022,10.99681 5.22312,10.99681 1.18082,0 6.26071,-8.38992 11.28985,-18.64414 l 8.54596,-17.42404 -2.80248,2.80426 c 1.47313,-2.33365 3.03747,-4.64655 4.72764,-6.92451 0,0 0.80182,0.003 2.16846,0.0249 l -2.8753,2.87529 15.51843,0.0178 c 8.87619,0.0104 21.85914,1.60852 28.85064,3.55016 l 12.71239,3.52885 v 14.37826 l 2.00152,-2.00329 v 189.7713 h -38.00754 c 0,0 10.02718,-58.79752 12.33234,-88.68841 1.63063,-21.14428 1.70045,-57.39329 1.60369,-76.99896 l 0.42624,-0.42623 -0.39071,-14.3161 -13.96978,28.6837 3.40808,-3.40987 c -14.30709,32.45662 -38.87981,85.1832 -44.12931,76.93859 -1.98288,-3.11594 -7.73926,-9.55298 -15.17743,-17.60164 l 1.22364,-1.22543 c -11.14514,-11.77014 -25.68979,-27.8898 -37.26164,-41.29848 l -1.57351,1.57351 c -11.62874,-13.21252 -21.633,-25.62472 -25.42656,-33.58892 -7.6263,-20.10137 -10.3088,-42.83297 -11.25965,-56.4208 h 1.44031 c -0.48868,-5.55849 -0.33154,-9.58313 0.49727,-9.58313 z m 389.59459,0.70505 c 0.16961,0.0171 0.28444,0.0518 0.33921,0.10657 0.67566,0.67566 0.65041,3.99081 0.15096,8.77151 h 1.21654 c -0.95032,13.58954 -3.6323,36.3194 -11.25433,56.4208 -4.01976,8.43908 -14.97169,21.8529 -27.48668,35.94385 l -1.70672,-1.7067 c -1.32598,1.5326 -2.65587,3.05127 -3.98527,4.52872 -14.83119,16.48284 -25.21707,28.23539 -32.74001,37.40194 l 0.71749,0.71749 c -4.04702,4.40619 -7.46234,8.21636 -9.88328,11.13711 -2.17552,3.07356 -3.94835,5.84753 -5.39539,8.45539 -5.88752,13.33286 -8.4536,36.37543 -8.45362,36.37543 l -30.00147,37.50494 H 428.54517 V 471.10097 l 2.73677,2.73677 v -19.10767 l 12.71239,-3.52885 c 6.99159,-1.94164 19.97268,-3.53976 28.84887,-3.55016 l 10.89379,-0.0124 -2.77228,-2.77229 c 3.87532,-0.12437 6.51248,-0.14031 6.51248,-0.14031 4.16447,5.61276 7.60091,11.42577 10.63984,17.29263 l -4.08118,-4.08118 4.09006,8.33995 c 5.02913,10.25422 10.11071,18.64237 11.29162,18.64237 0.67087,0 2.1783,-3.01895 3.96929,-7.63135 l -1.41012,-1.41012 c 4.88203,-15.59521 8.83919,-29.52828 15.14015,-38.65399 l 26.1334,-7.12697 h 6.55866 c 16.26458,-4.77241 33.08433,-9.15112 35.78757,-8.87808 z"
   id="path2"
   inkscape:connector-curvature="0" /></svg>