<?xml version="1.0" encoding="UTF-8" standalone="no"?>
<!-- Generator: Adobe Illustrator 22.1.0, SVG Export Plug-In . SVG Version: 6.00 Build 0)  -->

<svg
   xmlns:dc="http://purl.org/dc/elements/1.1/"
   xmlns:cc="http://creativecommons.org/ns#"
   xmlns:rdf="http://www.w3.org/1999/02/22-rdf-syntax-ns#"
   xmlns:svg="http://www.w3.org/2000/svg"
   xmlns="http://www.w3.org/2000/svg"
   xmlns:sodipodi="http://sodipodi.sourceforge.net/DTD/sodipodi-0.dtd"
   xmlns:inkscape="http://www.inkscape.org/namespaces/inkscape"
   version="1.1"
   id="Layer_2"
   x="0px"
   y="0px"
   viewBox="0 0 679.27765 800"
   xml:space="preserve"
   sodipodi:docname="Ravenwing [Imperium, Adeptus Astartes, Space Marines, Dark Angels, Chapter].svg"
   width="679.27765"
   height="800"
   inkscape:version="0.92.3 (2405546, 2018-03-11)"><metadata
   id="metadata9"><rdf:RDF><cc:Work
       rdf:about=""><dc:format>image/svg+xml</dc:format><dc:type
         rdf:resource="http://purl.org/dc/dcmitype/StillImage" /><dc:title></dc:title></cc:Work></rdf:RDF></metadata><defs
   id="defs7" /><sodipodi:namedview
   pagecolor="#ffffff"
   bordercolor="#666666"
   borderopacity="1"
   objecttolerance="10"
   gridtolerance="10"
   guidetolerance="10"
   inkscape:pageopacity="0"
   inkscape:pageshadow="2"
   inkscape:window-width="1920"
   inkscape:window-height="1017"
   id="namedview5"
   showgrid="false"
   fit-margin-top="0"
   fit-margin-left="0"
   fit-margin-right="0"
   fit-margin-bottom="0"
   inkscape:pagecheckerboard="true"
   inkscape:zoom="0.236"
   inkscape:cx="-126.54237"
   inkscape:cy="490"
   inkscape:window-x="-8"
   inkscape:window-y="-8"
   inkscape:window-maximized="1"
   inkscape:current-layer="Layer_2" />
<path
   d="m 574.88011,444.68932 c -10.77441,-9.0603 -12.81501,-21.54882 -8.65217,-36.5677 41.9549,-12.89664 75.25762,-30.44587 96.88807,-46.28099 6.20345,-36.15958 6.69319,-58.68789 -1.06112,-68.89093 -23.26293,29.62963 -59.99388,50.93358 -108.7236,64.56484 -9.46842,-11.42741 -12.89664,-23.99755 -9.71329,-37.71044 38.6083,-22.77318 71.42128,-50.6887 97.94919,-83.99143 0.81624,-44.40363 -5.87695,-77.54311 -23.67106,-93.70472 -21.63044,50.19896 -51.91307,95.33721 -107.66248,125.94633 -15.18212,-7.26456 -21.38557,-19.75309 -20.48771,-36.5677 46.52587,-37.54719 81.70595,-82.27732 96.88808,-139.98571 C 579.2062,60.7285 556.0249,27.34415 530.63973,0 c -10.52954,64.64646 -33.38435,158.26956 -82.93031,165.779 -30.11938,1.06112 -23.67106,-32.32323 -39.83267,-33.38435 -21.54882,129.21131 -114.11081,131.33354 -109.78472,189.45006 8.65218,72.1559 105.54025,11.83553 142.10795,80.72646 45.21988,58.11651 6.3667,93.94959 -19.34497,80.72645 3.91797,19.99796 12.89665,36.5677 -4.32608,59.17764 -10.20304,26.60953 -45.3015,47.75023 -65.70759,59.17763 -21.95694,13.79451 -53.79042,1.06112 -53.79042,1.06112 l -11.99878,-18.85522 v 0 l 24.81379,-13.14152 32.73136,8.97868 18.03897,-44.56688 -44.56688,-18.03898 -13.54964,30.77237 -19.34496,10.77441 L 118.43689,159.4123 0,72.23753 3.26497,218.67156 234.75156,582.5528 l -17.63086,9.22355 -27.01765,-10.93766 -18.03897,44.56688 44.56688,18.03898 11.91715,-29.38476 23.34455,-12.4069 10.77441,19.58984 -13.95775,9.71329 -13.87614,27.75228 c -0.57137,1.22436 0.16325,2.61197 1.46924,2.85685 l 27.5074,4.89746 -11.18254,26.2014 c -0.81624,1.87736 0.57137,3.9996 2.61198,4.08122 l 32.32323,0.97949 -7.75431,30.11938 c -0.48974,1.71411 0.73462,3.42822 2.44873,3.59147 l 43.99551,-1.38762 v 7.50944 24.73217 L 376.8595,800 v -64.56484 l -27.99714,-15.1005 c 0.97949,-43.83226 16.89624,-67.34007 33.38435,-76.40037 10.85603,-11.7539 34.44546,-16.16161 85.05255,0 -15.1005,-10.03979 -17.05949,-20.56933 -15.1005,-31.26211 40.40404,3.42822 75.33925,3.0201 99.0103,-5.38721 -29.22151,-10.03979 -46.68911,-20.65095 -40.89379,-34.44546 65.38109,0.81624 111.58045,-16.73299 120.55913,-43.09765 -28.32364,4.40772 -60.402,7.67269 -78.60422,-5.3872 -8.16244,-6.61157 -3.10173,-15.91675 7.50943,-30.11938 26.36466,0.3265 51.9947,-7.50944 86.11367,-18.28385 17.05948,-13.22314 27.42577,-35.42495 33.38434,-63.50372 -31.26211,14.36588 -65.29945,26.03816 -104.39751,32.24161 z"
   id="path2"
   inkscape:connector-curvature="0"
   style="stroke-width:0.81624323" />
</svg>