<?xml version="1.0" encoding="UTF-8" standalone="no"?>
<!-- Generator: Adobe Illustrator 24.0.1, SVG Export Plug-In . SVG Version: 6.00 Build 0)  -->

<svg
   xmlns:dc="http://purl.org/dc/elements/1.1/"
   xmlns:cc="http://creativecommons.org/ns#"
   xmlns:rdf="http://www.w3.org/1999/02/22-rdf-syntax-ns#"
   xmlns:svg="http://www.w3.org/2000/svg"
   xmlns="http://www.w3.org/2000/svg"
   xmlns:sodipodi="http://sodipodi.sourceforge.net/DTD/sodipodi-0.dtd"
   xmlns:inkscape="http://www.inkscape.org/namespaces/inkscape"
   version="1.1"
   id="Layer_2"
   x="0px"
   y="0px"
   viewBox="0 0 612.784 800"
   xml:space="preserve"
   sodipodi:docname="Red Scorpions [Imperium, Adeptus Astartes, Space Marines, Chapter].svg"
   width="612.784"
   height="800"
   inkscape:version="0.92.3 (2405546, 2018-03-11)"><metadata
   id="metadata9"><rdf:RDF><cc:Work
       rdf:about=""><dc:format>image/svg+xml</dc:format><dc:type
         rdf:resource="http://purl.org/dc/dcmitype/StillImage" /><dc:title></dc:title></cc:Work></rdf:RDF></metadata><defs
   id="defs7" /><sodipodi:namedview
   pagecolor="#ffffff"
   bordercolor="#666666"
   borderopacity="1"
   objecttolerance="10"
   gridtolerance="10"
   guidetolerance="10"
   inkscape:pageopacity="0"
   inkscape:pageshadow="2"
   inkscape:window-width="1920"
   inkscape:window-height="1017"
   id="namedview5"
   showgrid="false"
   fit-margin-top="0"
   fit-margin-left="0"
   fit-margin-right="0"
   fit-margin-bottom="0"
   inkscape:pagecheckerboard="true"
   inkscape:zoom="0.236"
   inkscape:cx="-150.56463"
   inkscape:cy="488.99393"
   inkscape:window-x="-8"
   inkscape:window-y="-8"
   inkscape:window-maximized="1"
   inkscape:current-layer="Layer_2" />
<path
   d="m 549.68,346.7392 c 27.75479,29.0186 44.92623,60.23866 56.61031,92.95083 19.26691,-38.55013 -8.43896,-93.54604 -29.76872,-126.43759 l -65.58741,1.37796 C 525.5617,285.12259 554.09108,220.32608 556.68392,159.3536 560.18996,77.05135 484.88349,0 414.83607,0 299.25905,5.25091 306.26298,73.55346 306.26298,73.55346 c 0,29.76872 29.76872,49.03564 42.03171,49.03564 0,22.7648 -42.03171,49.03564 -42.03171,49.03564 56.03956,-1.75302 94.29617,-41.45281 84.05527,-127.84001 135.20268,-1.68779 113.44078,151.63216 8.23512,248.84731 l -4.58232,-0.90505 c -14.6846,-15.92395 -32.86708,-41.7708 -40.43361,-50.05484 -55.64004,5.87873 -106.43685,29.96441 -106.43685,29.96441 0,0 -3.48973,6.49841 -3.35112,12.47498 0.36691,0.53814 2.09547,1.05182 4.35401,1.50842 -39.49594,18.31294 -72.69733,40.17269 -72.69733,40.17269 0,0 -3.35927,8.27589 -2.95159,15.48365 1.09258,1.60626 12.2956,1.85902 17.0899,1.89163 -32.77739,24.21614 -58.4041,49.10087 -58.4041,49.10087 0,0 -1.75302,8.75695 0,15.76087 1.75302,1.75302 19.26691,-1.75302 19.26691,-1.75302 0,0 80.55739,-56.03956 87.56131,-52.53352 5.92766,2.9679 9.35216,44.81208 10.25721,57.5969 0,0 -19.01415,1.94055 -20.76717,3.69357 -1.75302,1.75302 0.33429,2.36454 0.94581,6.45764 C 187.47345,413.35396 36.591433,415.7185 5.0533828,492.08494 -14.694597,539.91385 24.320293,663.70968 106.62254,710.99229 94.367713,691.72538 64.590833,593.66226 96.112573,558.63447 c 26.270837,10.50997 12.254837,106.82007 0,120.83608 71.800437,-21.01178 84.055267,-192.63651 57.792587,-210.14225 26.48283,-3.1799 56.52062,-3.04944 82.14733,0.43214 6.47394,38.24029 8.92002,76.6192 21.17485,87.12101 14.38292,12.32822 71.53137,-19.56859 120.04518,-38.3789 19.16907,25.39025 36.13667,68.91407 37.56355,103.16726 -30.16825,-11.21933 -165.08556,78.49453 -139.23056,150.32758 4.15018,-18.49232 74.88249,-87.63469 99.29432,-72.23258 -9.84953,46.95648 -108.31218,81.00583 -131.50912,82.40825 88.28698,39.6753 237.04092,7.76221 250.24972,-43.16506 21.63145,-83.45191 -38.9252,-195.04997 -73.58607,-237.39967 1.78563,-4.26433 3.53865,-4.26433 5.29167,-7.77037 0,-1.75302 1.78564,-4.9003 1.78564,-4.9003 21.03624,-12.33637 45.00777,-21.15039 71.76782,-26.62144 27.75479,32.95677 47.85337,73.17024 59.53745,110.32611 19.26691,-43.77658 -8.43895,-106.24117 -29.76872,-143.60088 l -51.04958,-1.31273 c 14.04862,-10.77903 20.42473,-14.57045 44.41256,-21.92498 30.77162,30.1601 54.61269,68.26994 69.79466,104.1457 15.00259,-45.41545 -18.53309,-104.9529 -43.32813,-140.10299 l -35.84315,2.5113 C 521.13431,357.68131 540.15661,348.83467 549.68,346.7392 Z M 255.80046,316.53834 c 16.09517,-6.06627 29.49151,-10.28982 31.76636,-8.55311 4.88399,3.73434 5.77273,34.16351 5.92765,47.07062 -12.32821,-10.97472 -27.02097,-27.74663 -37.69401,-38.51751 z m 78.82067,-6.93055 c -7.1833,-10.54258 -14.49706,-22.56096 -20.61225,-31.88865 11.93684,-1.76118 21.76191,-2.60915 23.77584,-1.02736 4.0931,3.21252 -0.28537,22.19405 -3.16359,32.91601 z"
   id="path2"
   inkscape:connector-curvature="0"
   style="stroke-width:0.81535816" />
</svg>