<?xml version="1.0" encoding="UTF-8" standalone="no"?>
<!-- Created with Inkscape (http://www.inkscape.org/) -->

<svg
   xmlns:dc="http://purl.org/dc/elements/1.1/"
   xmlns:cc="http://creativecommons.org/ns#"
   xmlns:rdf="http://www.w3.org/1999/02/22-rdf-syntax-ns#"
   xmlns:svg="http://www.w3.org/2000/svg"
   xmlns="http://www.w3.org/2000/svg"
   xmlns:sodipodi="http://sodipodi.sourceforge.net/DTD/sodipodi-0.dtd"
   xmlns:inkscape="http://www.inkscape.org/namespaces/inkscape"
   width="683.48438"
   height="800"
   viewBox="0 0 180.83857 211.66667"
   version="1.1"
   id="svg8"
   inkscape:version="0.92.3 (2405546, 2018-03-11)"
   sodipodi:docname="Renegades and Heretics [Chaos, Lost and Damned].svg">
  <defs
     id="defs2" />
  <sodipodi:namedview
     id="base"
     pagecolor="#ffffff"
     bordercolor="#666666"
     borderopacity="1.0"
     inkscape:pageopacity="0.0"
     inkscape:pageshadow="2"
     inkscape:zoom="0.49497475"
     inkscape:cx="989.31174"
     inkscape:cy="330.10278"
     inkscape:document-units="px"
     inkscape:current-layer="layer1"
     showgrid="false"
     units="px"
     inkscape:window-width="1920"
     inkscape:window-height="1017"
     inkscape:window-x="-8"
     inkscape:window-y="-8"
     inkscape:window-maximized="1"
     inkscape:snap-global="false"
     fit-margin-top="0"
     fit-margin-left="0"
     fit-margin-right="0"
     fit-margin-bottom="0"
     inkscape:pagecheckerboard="true" />
  <metadata
     id="metadata5">
    <rdf:RDF>
      <cc:Work
         rdf:about="">
        <dc:format>image/svg+xml</dc:format>
        <dc:type
           rdf:resource="http://purl.org/dc/dcmitype/StillImage" />
        <dc:title />
      </cc:Work>
    </rdf:RDF>
  </metadata>
  <g
     inkscape:label="Layer 1"
     inkscape:groupmode="layer"
     id="layer1"
     transform="translate(-21.261366,-49.708821)">
    <path
       style="fill:#000000;fill-opacity:1;stroke:none;stroke-width:2.76994061;stroke-linecap:round;stroke-linejoin:round;stroke-miterlimit:4;stroke-dasharray:none;stroke-opacity:1"
       d="m 162.46332,49.708821 c 0,0 -5.12564,2.653689 -7.15606,4.184668 -2.10706,1.588596 -2.9153,2.881796 -4.67989,4.843939 -1.65903,1.844783 -3.54954,3.482199 -5.50475,5.009537 -1.04279,0.814586 -2.16587,1.524803 -3.30257,2.202222 -1.51603,0.903516 -4.67988,2.477664 -4.67988,2.477664 0,0 2.45453,0.112728 3.57952,0.549427 0.92515,0.359186 1.80965,0.915983 2.47617,1.65128 1.04753,1.155626 2.20223,4.128974 2.20223,4.128974 l -3.30259,1.101854 -19.76571,41.092364 c -4.19174,-1.53958 -8.58792,-2.4516 -13.04619,-2.70647 l -1.18161,-5.21877 c 0,0 0.84788,0.22138 1.23882,0.41246 0.44576,0.21788 1.23884,0.82638 1.23884,0.82638 0,0 -0.97648,-2.3647 -1.37732,-3.57803 -0.53766,-1.62751 -1.37581,-4.95535 -1.37581,-4.95535 0,0 -1.22353,3.05487 -1.92675,4.5414 -0.46507,0.9831 -1.51432,2.89013 -1.51432,2.89013 l 2.20222,-0.41246 c 0,0 0.12089,2.30059 0,3.44107 -0.0577,0.54456 -0.21293,1.29454 -0.3718,1.99599 -4.68856,0.0699 -9.337886,0.86666 -13.782236,2.36176 -1.63704,-1.59766 -3.95453,-3.9635 -5.11341,-5.73359 -1.75538,-2.68116 -3.8535,-8.80883 -3.8535,-8.80883 0,0 1.88679,-1.51761 3.0286,-1.65128 2.07802,-0.24323 6.0557,1.65128 6.0557,1.65128 0,0 -5.20962,-5.810261 -7.70698,-8.807349 -2.17388,-2.609006 -4.37485,-5.206564 -6.33116,-7.982448 -4.29714,-6.09735 -11.83595,-18.991985 -11.83595,-18.991985 0,0 2.18311,12.637107 3.02709,18.991985 0.57092,4.298824 1.14761,8.605803 1.37732,12.93629 0.21876,4.122947 0,12.386897 0,12.386897 0,0 3.17291,-3.15462 5.22932,-3.30408 1.80251,-0.13108 3.79128,0.81852 4.95384,2.20222 0.73008,0.86888 0.83847,2.16922 0.82641,3.30405 -0.0116,1.04604 -0.82641,3.02712 -0.82641,3.02712 0,0 2.54128,-2.13197 3.8535,-1.65131 0.77057,0.28226 0.98581,1.38985 1.10185,2.20222 0.11623,0.81339 -0.0405,1.94263 -0.26652,3.00903 -2.40889,1.25181 -4.67089,2.70606 -6.77675,4.33066 -0.5104,-0.31645 -1.01141,-0.64855 -1.4902,-1.01001 -0.88173,-0.66574 -4.01759,-3.74211 -4.01759,-3.74211 0,0 2.32273,4.46512 2.64175,5.9443 0.0623,0.28838 0.13545,0.67632 0.20477,1.03113 -3.21045,2.89505 -5.98089,6.21882 -8.23231,9.86554 -1.54554,-0.10661 -3.23999,-0.30906 -4.35927,-0.712 -1.86753,-0.67229 -4.47872,-1.37543 -4.95384,-3.30256 -0.27527,-1.11618 0.85991,-2.1947 1.65128,-3.0286 0.96408,-1.01587 3.57803,-2.20222 3.57803,-2.20222 0,0 -9.00399,-0.80777 -13.48723,-1.37581 -6.07602,-0.76985 -12.130905,-1.70622 -18.165599,-2.75165 -3.776428,-0.65424 -11.285009,-2.2022 -11.285009,-2.2022 0,0 7.556439,4.27174 11.009538,6.8806 2.073153,1.56628 5.780226,5.22931 5.780226,5.22931 l 3.578032,0.55091 v 4.12898 c 0,0 6.133762,4.67312 8.807342,7.4315 1.95469,2.01667 5.23083,6.60664 5.23083,6.60664 0,0 -1.50188,-5.44781 -0.27556,-7.70698 0.51048,-0.94036 1.68327,-1.70983 2.75162,-1.65128 2.27047,0.12438 4.04756,1.96028 5.63726,3.79178 -1.33421,4.06606 -2.1088,8.35151 -2.24285,12.75115 -2.03564,0.23682 -4.64689,0.54462 -6.97241,0.79778 -2.65925,0.28954 -7.98248,0.8249 -7.98248,0.8249 0,0 7.71243,0.27614 11.56048,0.55091 0.9062,0.0647 2.23765,0.19225 3.39289,0.30707 0.0955,3.25366 0.54121,6.48756 1.32918,9.64579 -1.17407,1.69798 -2.63499,3.61092 -3.89566,4.63474 -1.49733,1.21601 -5.22931,2.47766 -5.22931,2.47766 0,0 0.17914,-2.07044 0.54943,-3.02709 0.31238,-0.80724 1.37732,-2.20222 1.37732,-2.20222 0,0 -3.49545,3.1099 -5.23082,4.6784 -2.11994,1.91609 -4.13909,3.94532 -6.32966,5.78023 -3.812399,3.19338 -11.835947,9.0843 -11.835947,9.0843 0,0 6.964921,-0.97719 10.458626,-1.37733 3.755051,-0.43008 7.537801,-0.61805 11.286521,-1.10034 2.30391,-0.29641 6.8806,-1.10185 6.8806,-1.10185 0,0 -3.64133,-1.41738 -4.40442,-3.02712 -0.47328,-0.99833 -0.31246,-2.36721 0.27556,-3.30253 0.96294,-1.53215 2.94416,-2.24146 4.67988,-2.75317 1.14261,-0.33684 2.9361,-0.38356 4.38336,-0.36125 4.47141,9.55138 12.1321,17.2456 21.66385,21.75869 l -4.57753,9.15506 -3.30404,-3.02712 -5.22932,19.54295 4.95385,-5.23082 -0.27411,-2.47618 h 2.75162 l 5.50479,-6.88208 1.92674,-1.92675 3.85348,-0.54943 -4.12895,-1.92675 2.99097,-4.86051 c 3.9942,1.38886 8.163046,2.21218 12.385376,2.44605 0.93702,2.50592 1.6904,8.35877 1.6904,8.35877 0,0 0.22808,-4.86492 0.54943,-6.49525 0.11651,-0.59228 0.26391,-1.17922 0.42749,-1.76116 4.05723,-0.0291 8.09224,-0.60183 11.99701,-1.70397 2.57477,5.37798 7.8024,17.14741 7.94481,24.38389 0.0175,0.9577 0.12886,2.32997 0.23195,3.28231 0.10166,0.93914 0.77843,2.27359 1.37581,3.00534 0.53495,0.65528 0.93488,1.47233 1.39759,2.18045 1.20663,1.84653 1.39758,4.74366 1.39758,4.74366 0,0 -2.26118,-0.99498 -3.30256,-1.65128 -0.88502,-0.55775 -2.47767,-1.92675 -2.47767,-1.92675 0,0 2.25847,3.93911 3.57952,5.78023 1.59567,2.22392 3.59638,4.13442 5.22931,6.33119 1.57881,2.12387 2.94923,4.39463 4.40442,6.60513 1.2034,1.82803 3.57803,5.50478 3.57803,5.50478 0,0 0.2642,-6.05369 0.27556,-9.08282 0.0146,-4.038 -0.34483,-8.07397 -0.27556,-12.11142 0.0554,-3.21602 0.54943,-9.63373 0.54943,-9.63373 0,0 -2.16042,3.15217 -3.57803,4.40442 -0.64873,0.57305 -2.2022,1.37584 -2.2022,1.37584 L 125.3191,200.86659 c 3.8635,-1.72591 7.40034,-3.95225 10.55044,-6.58103 3.00149,1.193 7.32615,3.78275 7.32615,3.78275 0,0 -2.05675,-3.09415 -3.02709,-4.67837 -0.32056,-0.52336 -0.75359,-1.27911 -1.16358,-1.98548 1.84607,-1.86121 3.52653,-3.87264 5.01857,-6.01355 l 31.37736,7.72356 c 0,0 1.10861,2.38727 0.8249,3.578 -0.33227,1.39413 -1.64776,2.38856 -2.75165,3.30259 -1.45519,1.20488 -4.95533,2.75313 -4.95533,2.75313 0,0 7.51356,-0.77427 11.28501,-0.82641 4.04077,-0.0559 8.08207,0.24177 12.11139,0.55094 3.40451,0.26129 10.18467,1.10037 10.18467,1.10037 0,0 -5.0093,-1.57997 -7.15758,-3.02712 -2.6903,-1.81233 -4.77511,-4.41289 -6.88056,-6.88059 -2.94224,-3.44844 -5.25477,-7.39055 -7.98245,-11.01105 -1.61248,-2.14021 -4.95387,-6.32966 -4.95387,-6.32966 0,0 1.00951,4.57028 1.37584,6.8806 0.24585,1.55113 0.55091,4.67988 0.55091,4.67988 0,0 -2.96059,0.006 -4.40441,-0.27556 -7.67261,-1.4922 -20.46474,-6.40311 -25.09287,-8.22931 1.9387,-3.96279 3.29712,-8.22541 4.01756,-12.66085 4.94467,0.4009 14.22483,1.54141 14.22483,1.54141 0,0 -8.63333,-2.2767 -13.23436,-3.11439 -0.22954,-0.0419 -0.47739,-0.11448 -0.73157,-0.20157 0.21846,-1.79075 0.33702,-3.60579 0.33871,-5.44006 -0.0175,-3.30122 -0.39569,-6.59068 -1.12746,-9.80984 0.70407,-0.84707 1.52949,-1.60051 2.3377,-1.72204 0.73148,-0.1101 1.35804,0.62881 1.92672,1.10186 1.20118,0.99911 3.02712,3.57803 3.02712,3.57803 0,0 4.09414,-3.30813 6.33117,-4.67989 3.67279,-2.2522 7.60945,-4.06235 11.56048,-5.78022 4.5793,-1.99104 14.03814,-5.22932 14.03814,-5.22932 0,0 -7.88137,1.34485 -11.83595,1.92673 -3.47905,0.51193 -6.94808,1.1976 -10.46011,1.37584 -3.11684,0.15817 -6.30524,0.37162 -9.35826,-0.27556 -2.13348,-0.4522 -6.05572,-2.47618 -6.05572,-2.47618 0,0 2.66129,1.85486 3.0286,3.30256 0.0929,0.36667 0.0146,0.85776 -0.27556,1.10037 -1.05833,0.88455 -2.77673,0.5475 -4.12894,0.27556 -0.87488,-0.17594 -1.98268,-0.66067 -3.04064,-1.20422 -1.3551,-2.99478 -3.03178,-5.83335 -5.00053,-8.46566 0.21176,-0.2776 0.43201,-0.57241 0.60963,-0.78875 0.94765,-1.15443 3.02712,-3.30407 3.02712,-3.30407 0,0 -2.32197,1.75186 -3.57803,2.47766 -0.26041,0.15059 -0.61805,0.32592 -0.94983,0.49525 -2.70836,-3.44425 -5.90163,-6.4778 -9.48019,-9.00604 l 20.61469,-41.52891 c 0,0 -0.72504,-1.927479 -0.82641,-3.68942 -0.12671,-2.200271 -0.0446,-1.388394 0.5064,-3.522338 0.20507,-0.794604 0.97599,-1.390404 1.71866,-1.739978 1.1075,-0.521318 1.33238,-0.284588 2.26814,0.364168 0.7646,0.813217 0.45642,2.334263 1.01318,3.302561 0.71287,1.243303 3.30257,2.75162 3.30257,2.75162 0,0 -0.367,-2.532979 0.0204,-4.402901 -0.15643,-1.186007 0.12758,-2.417483 0.4177,-3.578032 0.29013,-1.160548 0.0894,-1.869542 0.38535,-3.028605 0.68269,-2.672797 -0.57914,-5.499482 -0.54943,-8.257918 0.0335,-3.13143 0.8249,-9.358258 0.8249,-9.358258 z m -55.64081,76.807929 c 18.21879,-3e-5 32.98804,14.76922 32.98801,32.98801 3e-5,18.21879 -14.76922,32.98807 -32.98801,32.98801 -18.218786,3e-5 -32.988026,-14.76922 -32.987996,-32.98801 -6e-5,-18.21879 14.76921,-32.98804 32.987996,-32.98801 z"
       id="path826"
       inkscape:connector-curvature="0"
       sodipodi:nodetypes="cccccccccccccccccsccccccccccsccccccccccccccccccccccccccccccccccccccccccccccccccccccccccccccccccccccccsccscccccccccccccccccccccccccccccccccccccccccsccccccccccccccccccscccccccccccccc" />
  </g>
</svg>
