<?xml version="1.0" encoding="UTF-8" standalone="no"?>
<!-- Created with Inkscape (http://www.inkscape.org/) -->

<svg
   xmlns:dc="http://purl.org/dc/elements/1.1/"
   xmlns:cc="http://creativecommons.org/ns#"
   xmlns:rdf="http://www.w3.org/1999/02/22-rdf-syntax-ns#"
   xmlns:svg="http://www.w3.org/2000/svg"
   xmlns="http://www.w3.org/2000/svg"
   xmlns:sodipodi="http://sodipodi.sourceforge.net/DTD/sodipodi-0.dtd"
   xmlns:inkscape="http://www.inkscape.org/namespaces/inkscape"
   version="1.1"
   id="svg815"
   width="630.94006"
   height="800"
   viewBox="0 0 630.94009 800.00001"
   sodipodi:docname="Rusted Claw [Hive Mind, Tyranids, Genestealer Cults, Genestealers].svg"
   inkscape:version="0.92.3 (2405546, 2018-03-11)">
  <metadata
     id="metadata821">
    <rdf:RDF>
      <cc:Work
         rdf:about="">
        <dc:format>image/svg+xml</dc:format>
        <dc:type
           rdf:resource="http://purl.org/dc/dcmitype/StillImage" />
        <dc:title></dc:title>
      </cc:Work>
    </rdf:RDF>
  </metadata>
  <defs
     id="defs819" />
  <sodipodi:namedview
     pagecolor="#ffffff"
     bordercolor="#666666"
     borderopacity="1"
     objecttolerance="10"
     gridtolerance="10"
     guidetolerance="10"
     inkscape:pageopacity="0"
     inkscape:pageshadow="2"
     inkscape:window-width="1920"
     inkscape:window-height="1017"
     id="namedview817"
     showgrid="false"
     inkscape:pagecheckerboard="true"
     fit-margin-top="0"
     fit-margin-left="0"
     fit-margin-right="0"
     fit-margin-bottom="0"
     inkscape:zoom="0.63600004"
     inkscape:cx="274.69453"
     inkscape:cy="610.84279"
     inkscape:window-x="-8"
     inkscape:window-y="-8"
     inkscape:window-maximized="1"
     inkscape:current-layer="svg815" />
  <path
     style="fill:#000000;stroke-width:0.8475762"
     d="m 372.05341,796.6565 c -5.52859,-13.8172 -12.40331,-72.2192 -15.02104,-127.607 -1.11041,-23.4932 -0.63022,-70.4315 0.88003,-86.029 2.03489,-21.0155 6.0428,-39.7104 10.71277,-49.96919 1.15765,-2.54311 4.3084,-6.92932 7.00166,-9.74711 31.20857,-32.65194 66.25875,-98.96439 82.38257,-155.86186 4.34018,-15.3156 6.46584,-27.05894 7.54968,-41.70917 4.73628,-64.01888 -11.95775,-101.40174 -59.14368,-132.44023 -10.29278,-6.77049 -15.96713,-8.99243 -30.6655,-12.00794 -42.41043,-8.7009 -75.93039,2.08792 -96.87778,31.18129 -7.595,10.54851 -15.00229,26.44708 -15.00229,32.19997 0,1.84646 -2.45144,4.75921 -12.1707,14.46114 l -12.17071,12.14898 -12.6209,-10.53623 c -6.94152,-5.79492 -15.67217,-13.3215 -19.40153,-16.72574 -3.72935,-3.40423 -7.8295,-6.55602 -9.11148,-7.00397 l -2.33086,-0.81446 4.30859,-2.14706 c 9.19864,-4.58387 16.1886,-14.36403 17.57604,-24.59184 2.08491,-15.36918 -5.12131,-28.60349 -19.18959,-35.24204 -5.06016,-2.38777 -6.47176,-2.6694 -13.2897,-2.65148 -9.94182,0.0262 -15.54211,2.16502 -22.47505,8.5837 -8.87864,8.22006 -12.92431,20.57063 -10.23582,31.24768 0.55171,2.19102 0.8199,4.16687 0.59595,4.39081 -0.22395,0.22393 -13.72069,-8.73901 -29.99288,-19.91764 -17.68818,-12.15142 -33.411969,-22.28198 -39.100562,-25.19177 l -9.514891,-4.86699 0.55851,-3.50038 c 0.905085,-5.67249 5.324411,-18.19546 8.663586,-24.54999 C 109.48323,89.203151 178.5342,37.895311 250.73238,13.845831 c 15.94228,-5.3104399 26.1451,-7.9654399 42.37884,-11.0279199 15.5491,-2.93335004 37.93649,-3.66265004 54.66866,-1.78091 9.93896,1.11776 44.05462,5.34583 47.36392,5.86996 0.64407,0.10202 -0.71845,1.40841 -3.02782,2.9031 -9.69835,6.2770599 -17.09673,17.7750599 -18.91326,29.3935399 -2.79312,17.865 6.93199,36.31916 23.28479,44.18454 30.72201,14.7767 65.20459,-10.1327 60.64954,-43.81183 -0.60911,-4.50379 -1.86305,-8.2458 -4.56572,-13.6253 -2.04931,-4.07896 -3.60985,-7.41629 -3.4679,-7.41629 0.14201,0 5.34049,1.76628 11.55225,3.92506 38.19891,13.27534 68.53061,31.03973 96.25525,56.37388 4.7736,4.36202 9.27562,8.78746 10.0045,9.83431 1.287,1.84845 1.26507,1.88049 -0.76015,1.1105 -3.83666,-1.45869 -11.93977,-1.91955 -17.07608,-0.97118 -11.42816,2.11012 -21.19962,9.55813 -26.43344,20.148079 -2.73197,5.52774 -3.18687,7.32084 -3.49562,13.77848 -0.77146,16.13574 6.40984,28.29378 20.95952,35.48461 6.10363,3.01659 6.67244,3.13285 15.32636,3.13285 8.69944,0 9.19648,-0.10329 15.50959,-3.2234 8.09961,-4.00303 14.11608,-9.935 17.71716,-17.46827 2.15884,-4.51618 2.7621,-7.04101 3.15667,-13.21137 l 0.48776,-7.62819 6.30139,10.54698 c 17.70788,29.63868 28.28055,64.12767 31.81208,103.77381 l 0.51942,5.83103 -4.31374,-3.87843 c -14.06899,-12.6492 -35.84689,-8.61607 -44.0243,8.15304 -7.10725,14.57437 -1.71526,30.46384 12.90556,38.03103 2.60369,1.3476 5.57664,1.95344 10.91275,2.22389 6.59164,0.33409 7.8358,0.14263 12.28984,-1.89126 2.72567,-1.24465 6.386,-3.65539 8.13412,-5.35722 l 3.17841,-3.09424 v 2.95195 c 0,9.76423 -5.05621,39.7908 -9.77202,58.03126 -2.69269,10.41515 -8.47454,29.4681 -9.43607,31.09482 -0.20145,0.34076 -1.52506,-0.70028 -2.94143,-2.31341 -1.41636,-1.61315 -5.01343,-4.13331 -7.99345,-5.60038 -5.05736,-2.48974 -5.88527,-2.64178 -12.42924,-2.28269 -10.75606,0.5902 -17.50834,4.94824 -22.43343,14.47883 -1.9066,3.68962 -2.29125,5.54373 -2.32367,11.20205 -0.0451,7.88274 1.67318,12.51664 6.70791,18.0895 4.78956,5.30139 11.19851,8.07601 18.79326,8.1361 3.42398,0.0271 6.22644,0.1842 6.22772,0.34912 0.007,0.88202 -16.6388,33.73929 -19.95591,39.39173 -4.96246,8.45629 -15.77886,19.6767 -46.57658,48.31629 -28.44551,26.45213 -53.76092,51.67102 -65.2285,64.97962 -23.97539,27.8246 -36.76665,50.6599 -37.19103,66.3947 -0.134,4.9683 -0.0678,5.1287 2.8293,6.8516 4.22487,2.5126 18.72885,2.2364 32.20791,-0.6133 5.3609,-1.1334 9.81456,-2.0118 9.897,-1.9519 0.0824,0.06 -3.68396,4.4911 -8.36971,9.8473 -32.90335,37.611 -61.58361,88.2657 -83.37601,147.2578 -2.28172,6.1766 -4.40038,11.2303 -4.70811,11.2303 -0.30767,0 -1.16146,-1.5045 -1.89726,-3.3435 z M 200.51349,98.824331 c 4.07898,-1.43295 7.41631,-2.94034 7.41631,-3.34977 0,-0.98406 -6.77917,-17.00436 -7.54033,-17.81906 -0.56665,-0.6065 -28.19823,21.75112 -30.38873,24.588489 -0.58273,0.75479 -1.05949,2.80413 -1.05949,4.55411 v 3.18175 l 12.07796,-4.27509 c 6.64288,-2.35129 15.4153,-5.44749 19.49428,-6.880429 z M 318.5385,661.2764 c -27.70061,-1.9343 -59.80085,-8.7292 -87.25698,-18.4705 -14.23502,-5.0504 -27.67919,-10.7208 -28.11571,-11.8582 -0.20177,-0.526 2.31318,-19.2171 5.58885,-41.536 3.27561,-22.3188 5.95571,-41.3988 5.95571,-42.3999 0,-1.2591 -1.11016,-2.4431 -3.60216,-3.8417 -6.2773,-3.52289 -22.85964,-14.86537 -29.40024,-20.11006 l -6.30374,-5.05476 -30.4247,28.05782 c -16.73357,15.4318 -31.16546,28.5876 -32.07087,29.2351 -1.52373,1.0899 -2.54565,0.2705 -13.742047,-11.0184 -25.018989,-25.22581 -43.801871,-51.64196 -60.643698,-85.28932 -3.78892,-7.5697 -6.889015,-14.28321 -6.889015,-14.91884 0,-0.63564 15.660603,-13.65497 34.801309,-28.93185 26.539605,-21.18219 34.674751,-28.10352 34.268361,-29.15512 -1.776737,-4.59754 -5.848281,-20.76117 -7.568755,-30.04755 -1.107613,-5.97822 -2.14441,-10.99146 -2.304094,-11.14053 -0.159619,-0.14907 -19.742127,-2.65344 -43.516639,-5.56527 C 16.793645,355.49328 3.8067847,353.59245 3.1320081,352.76456 0.30582857,349.29714 -1.1110434,304.49075 1.0458898,286.7926 2.4282443,275.4495 4.9046714,263.27227 8.0266974,252.46576 11.973966,238.80271 21.511233,216.28579 22.976417,217.17037 c 0.333034,0.20107 33.978866,13.61207 74.768429,29.80223 40.789624,16.19017 74.295864,29.55383 74.458344,29.69701 0.16248,0.14319 -0.87425,4.7679 -2.30384,10.27713 -4.15844,16.02554 -5.40063,25.98805 -5.42332,43.49604 -0.0286,22.28763 3.06005,40.34615 10.1486,59.33033 23.6927,63.45251 82.84942,107.35516 149.42308,110.89324 l 10.59472,0.56303 v 80.09592 80.096 l -5.93301,0.075 c -3.26321,0.041 -7.84012,-0.058 -10.17092,-0.2204 z"
     id="path825"
     inkscape:connector-curvature="0" />
</svg>
