<?xml version="1.0" encoding="UTF-8" standalone="no"?>
<!-- Generator: Adobe Illustrator 24.0.1, SVG Export Plug-In . SVG Version: 6.00 Build 0)  -->

<svg
   xmlns:dc="http://purl.org/dc/elements/1.1/"
   xmlns:cc="http://creativecommons.org/ns#"
   xmlns:rdf="http://www.w3.org/1999/02/22-rdf-syntax-ns#"
   xmlns:svg="http://www.w3.org/2000/svg"
   xmlns="http://www.w3.org/2000/svg"
   xmlns:sodipodi="http://sodipodi.sourceforge.net/DTD/sodipodi-0.dtd"
   xmlns:inkscape="http://www.inkscape.org/namespaces/inkscape"
   version="1.1"
   id="Layer_1"
   x="0px"
   y="0px"
   viewBox="0 0 673.77179 800"
   xml:space="preserve"
   sodipodi:docname="Ryza [Imperium, Adeptus Mechanicus, Forge World].svg"
   width="673.77179"
   height="800"
   inkscape:version="0.92.3 (2405546, 2018-03-11)"><metadata
   id="metadata15"><rdf:RDF><cc:Work
       rdf:about=""><dc:format>image/svg+xml</dc:format><dc:type
         rdf:resource="http://purl.org/dc/dcmitype/StillImage" /><dc:title></dc:title></cc:Work></rdf:RDF></metadata><defs
   id="defs13" /><sodipodi:namedview
   pagecolor="#ffffff"
   bordercolor="#666666"
   borderopacity="1"
   objecttolerance="10"
   gridtolerance="10"
   guidetolerance="10"
   inkscape:pageopacity="0"
   inkscape:pageshadow="2"
   inkscape:window-width="1920"
   inkscape:window-height="1017"
   id="namedview11"
   showgrid="false"
   fit-margin-top="0"
   fit-margin-left="0"
   fit-margin-right="0"
   fit-margin-bottom="0"
   inkscape:pagecheckerboard="true"
   inkscape:zoom="0.236"
   inkscape:cx="-140.62237"
   inkscape:cy="459"
   inkscape:window-x="-8"
   inkscape:window-y="-8"
   inkscape:window-maximized="1"
   inkscape:current-layer="Layer_1" />
<g
   id="g8"
   transform="matrix(0.87108014,0,0,0.87108014,-98.501742,-35.365854)">
	<path
   d="m 374,578.82 c 2.16,0 4.01,0.35 5.48,0.43 h 0.73 l -0.52,64.49 h 68.85 v -126.4 l -11.05,0.15 c -95,0 -203,-59 -200.26,-175.28 C 238.5,240.5 327.5,174.5 439.5,170.5 l 8.4,-0.53 V 40.6 h -67.69 v 62.9 c -20.15,2.96 -39.41,8.38 -57.53,15.88 L 291.67,66.03 234,99.61 l 31.78,53.02 c -15.62,12.24 -29.66,26.31 -41.82,41.84 l -54.5,-31.27 -33.37,57.76 54.16,31.58 c -7.32,17.98 -12.5,36.96 -15.24,56.57 h -61.93 v 66.74 h 62.28 c 2.92,18.89 8.17,36.93 15.29,53.91 l -53.22,33.51 35.01,56.81 52.06,-32.77 c 12.95,16.63 27.66,31.42 43.31,44.02 l -32.21,53.27 57.2,34.36 32.15,-53.14 c 16.61,6.99 33.22,11.44 49.05,13 z"
   id="path2"
   inkscape:connector-curvature="0" />
	<path
   d="M 852.38,869.86 701.21,535.91 698.2,537.44 C 764.43,493.37 803.33,421.02 799.24,342.04 793.11,224.24 711.91,124.99 562.68,112 l -26.33,-0.57 V 40.6 h -65.7 v 129.71 l 4.85,0.19 c 159,5 225,52 226.97,165.59 C 700.5,457.5 660.5,511.5 475.63,517.39 l -4.98,0.47 V 704 H 367.87 c -18.22,0 -29.7,-3.02 -29.61,-8.63 v 66.65 c 0,-5.83 11.4,-8.63 29.61,-8.63 h 102.78 v 49.04 H 367.87 c -18.22,0 -29.7,-3.02 -29.61,-8.63 v 66.65 c 0,-5.83 11.4,-8.63 29.61,-8.63 H 469.7 v 41.44 c -8.07,18.65 -41.83,29.48 -86.72,32.03 H 327.16 V 959 H 682.82 V 924.47 H 620.4 c -37.64,0.6 -73.39,-10.19 -84.05,-31.43 V 851.6 h 102.78 c 18.22,0 29.66,3.02 29.61,8.63 v -67.3 c 0,5.78 -11.4,8.63 -29.61,8.63 H 536.35 v -48.78 h 102.78 c 18.22,0 29.66,3.02 29.61,8.63 v -66.65 c 0,5.83 -11.4,8.63 -29.61,8.63 H 536.35 V 581.5 c 40.09,1.09 77.16,-5.34 110.08,-17.67 l -1.21,0.61 139,334.55 3.32,53.36 99.03,-42.78 z"
   id="path4"
   inkscape:connector-curvature="0" />
	<path
   d="m 357.69,260.08 c -15.86,46.3 14.18,98.61 8.08,105.63 -24.43,28.27 8.79,73.11 13.3,76.78 8.17,6.67 34.15,-6.85 30.04,0.13 -3.09,5.3 -5.96,45.37 -5.96,45.37 h 10.69 l 2.08,-13.96 6.89,-0.09 0.44,14.05 h 11.84 l 1.33,-14.27 6.89,0.22 0.66,14.05 h 11.4 l 0.53,-14.4 h 9.23 l 0.53,14.4 h 11.4 l 0.66,-14.05 7.33,-0.22 1.33,14.27 h 11.4 l 0.44,-14.05 6.89,0.09 2.08,13.96 h 10.69 c 0,0 -2.87,-40.07 -5.96,-45.37 -4.11,-6.98 21.87,6.49 30.04,-0.13 4.55,-3.71 37.73,-48.51 13.3,-76.78 -6.1,-7.07 23.9,-59.38 8.08,-105.63 -18.6,-54.25 -73.51,-62.73 -97.28,-63.84 0,0 -2.03,-0.13 -5.48,-0.13 -0.04,0 -0.04,0 -0.09,0 -0.05,0 -0.04,0 -0.09,0 -3.49,0 -5.48,0.13 -5.48,0.13 -23.72,1.11 -78.68,9.59 -97.23,63.84 z m 119.1,130.55 c 6.45,-3.36 14.31,-6.85 23.55,-9.72 11.44,-3.58 21.74,-5.21 30,-5.96 0.4,-0.04 0.8,0 1.19,0.18 6.85,2.52 9.06,6.63 9.68,7.82 3.84,8.08 -1.15,21.07 -14.27,29.33 -0.35,0.22 -0.71,0.35 -1.1,0.4 -6.01,0.84 -20.81,2.03 -35.83,-6.41 -6.23,-3.49 -10.82,-7.73 -14,-11.31 -1.2,-1.37 -0.85,-3.49 0.78,-4.33 z m -20.36,22.31 c 1.33,-1.33 3.05,-2.47 5.08,-3.58 1.99,1.1 3.76,2.25 5.08,3.58 10.29,10.16 10.6,24.21 10.16,31.01 -0.04,0.93 -1.19,1.28 -1.77,0.57 -1.41,-1.81 -3.36,-3.89 -5.96,-5.79 -2.78,-2.03 -5.43,-3.31 -7.51,-4.06 -2.03,0.75 -4.73,2.03 -7.51,4.06 -2.61,1.9 -4.55,3.98 -5.96,5.79 -0.57,0.71 -1.72,0.35 -1.77,-0.57 -0.45,-6.84 -0.14,-20.85 10.16,-31.01 z m -76.21,-30 c 0.57,-1.24 2.78,-5.3 9.67,-7.82 0.4,-0.13 0.8,-0.18 1.19,-0.18 8.31,0.75 18.6,2.39 30,5.96 9.23,2.87 17.1,6.36 23.55,9.72 1.59,0.84 1.94,2.96 0.75,4.33 -3.18,3.58 -7.78,7.82 -14,11.31 -14.98,8.44 -29.82,7.25 -35.83,6.41 -0.4,-0.04 -0.8,-0.18 -1.1,-0.4 -13.13,-8.3 -18.12,-21.24 -14.23,-29.33 z"
   id="path6"
   inkscape:connector-curvature="0" />
</g>
</svg>