<?xml version="1.0" encoding="UTF-8" standalone="no"?>
<svg
   xmlns:dc="http://purl.org/dc/elements/1.1/"
   xmlns:cc="http://creativecommons.org/ns#"
   xmlns:rdf="http://www.w3.org/1999/02/22-rdf-syntax-ns#"
   xmlns:svg="http://www.w3.org/2000/svg"
   xmlns="http://www.w3.org/2000/svg"
   xmlns:sodipodi="http://sodipodi.sourceforge.net/DTD/sodipodi-0.dtd"
   xmlns:inkscape="http://www.inkscape.org/namespaces/inkscape"
   version="1.1"
   id="图层_1"
   x="0px"
   y="0px"
   viewBox="0 0 406.49728 800"
   sodipodi:docname="Sautekh [Yngir, Necrontyr, Necrons, Dynasty].svg"
   width="406.49728"
   height="800"
   inkscape:version="0.92.3 (2405546, 2018-03-11)">
  <metadata
     id="metadata15">
    <rdf:RDF>
      <cc:Work
         rdf:about="">
        <dc:format>image/svg+xml</dc:format>
        <dc:type
           rdf:resource="http://purl.org/dc/dcmitype/StillImage" />
        <dc:title></dc:title>
      </cc:Work>
    </rdf:RDF>
  </metadata>
  <defs
     id="defs13" />
  <sodipodi:namedview
     pagecolor="#ffffff"
     bordercolor="#666666"
     borderopacity="1"
     objecttolerance="10"
     gridtolerance="10"
     guidetolerance="10"
     inkscape:pageopacity="0"
     inkscape:pageshadow="2"
     inkscape:window-width="1920"
     inkscape:window-height="1017"
     id="namedview11"
     showgrid="false"
     inkscape:pagecheckerboard="true"
     fit-margin-top="0"
     fit-margin-left="0"
     fit-margin-right="0"
     fit-margin-bottom="0"
     inkscape:zoom="0.472"
     inkscape:cx="-141.77119"
     inkscape:cy="240.19999"
     inkscape:window-x="-8"
     inkscape:window-y="-8"
     inkscape:window-maximized="1"
     inkscape:current-layer="图层_1" />
  <g
     id="g8"
     transform="matrix(1.6659725,0,0,1.6659725,-213.24448,-16.659725)">
    <path
       d="M 258.4,407.4 V 152.3 c 19.1,-3.9 33.4,-20.7 33.4,-40.8 0,-23 -18.7,-41.7 -41.8,-41.7 -23.1,0 -41.8,18.7 -41.8,41.7 0,20.2 14.4,37 33.4,40.8 v 255.1 c -19.1,3.9 -33.4,20.7 -33.4,40.8 0,23 18.7,41.7 41.8,41.7 23.1,0 41.8,-18.7 41.8,-41.7 0,-20.1 -14.4,-36.9 -33.4,-40.8 z M 223.3,111.5 c 0,-14.7 12,-26.7 26.7,-26.7 14.8,0 26.7,11.9 26.7,26.7 0,14.8 -12,26.7 -26.7,26.7 -14.8,0 -26.7,-12 -26.7,-26.7 z M 250,474.9 c -14.8,0 -26.7,-11.9 -26.7,-26.7 0,-14.8 12,-26.7 26.7,-26.7 14.8,0 26.7,11.9 26.7,26.7 0,14.8 -11.9,26.7 -26.7,26.7 z"
       id="path2"
       inkscape:connector-curvature="0" />
    <path
       d="m 191.5,446.7 c 0,-27 18.4,-49.8 43.5,-56.4 v -10.6 -6.6 -0.1 -6.7 -146 -14.1 -8.8 c -47.4,-7 -83.6,-46.7 -83.6,-94.6 0,-30.9 15.1,-58.3 38.5,-75.8 L 174.6,10 C 146.2,31.7 128,65.3 128,103 c 0,54.7 38.3,100.7 90.2,114.3 v 51 3.2 5.2 H 148 v 16.7 h 70.2 v 5 68.2 6.7 5.6 c -25.7,11.9 -43.5,37.9 -43.5,68 0,16.2 5.1,31.1 13.8,43.3 h 22.2 C 199,479.3 191.5,463.9 191.5,446.7 Z"
       id="path4"
       inkscape:connector-curvature="0" />
    <path
       d="M 281.8,271.4 V 266.6 219 C 333.8,205.4 372,159.4 372,104.7 372,67 353.8,33.4 325.4,11.7 l -15.2,17.2 c 23.4,17.5 38.5,44.9 38.5,75.8 0,47.9 -36.3,87.6 -83.6,94.6 v 7.1 15.7 137.6 13.3 0.1 6.6 10.6 c 25,6.6 43.5,29.4 43.5,56.4 0,17.2 -7.5,32.7 -19.3,43.3 h 22.2 c 8.7,-12.2 13.8,-27.2 13.8,-43.3 0,-30.1 -17.8,-56.1 -43.5,-68 v -5.6 -13.3 -63.2 -3.3 h 71.9 v -16.7 h -71.9 z"
       id="path6"
       inkscape:connector-curvature="0" />
  </g>
</svg>
