<?xml version="1.0" encoding="UTF-8" standalone="no"?>
<svg
   xmlns:dc="http://purl.org/dc/elements/1.1/"
   xmlns:cc="http://creativecommons.org/ns#"
   xmlns:rdf="http://www.w3.org/1999/02/22-rdf-syntax-ns#"
   xmlns:svg="http://www.w3.org/2000/svg"
   xmlns="http://www.w3.org/2000/svg"
   xmlns:sodipodi="http://sodipodi.sourceforge.net/DTD/sodipodi-0.dtd"
   xmlns:inkscape="http://www.inkscape.org/namespaces/inkscape"
   version="1.1"
   id="图层_1"
   x="0px"
   y="0px"
   viewBox="0 0 528 800"
   sodipodi:docname="Sautekh Dark [Yngir, Necrontyr, Necrons, Dynasty].svg"
   width="528"
   height="800"
   inkscape:version="0.92.3 (2405546, 2018-03-11)">
  <metadata
     id="metadata21">
    <rdf:RDF>
      <cc:Work
         rdf:about="">
        <dc:format>image/svg+xml</dc:format>
        <dc:type
           rdf:resource="http://purl.org/dc/dcmitype/StillImage" />
        <dc:title></dc:title>
      </cc:Work>
    </rdf:RDF>
  </metadata>
  <defs
     id="defs19" />
  <sodipodi:namedview
     pagecolor="#ffffff"
     bordercolor="#666666"
     borderopacity="1"
     objecttolerance="10"
     gridtolerance="10"
     guidetolerance="10"
     inkscape:pageopacity="0"
     inkscape:pageshadow="2"
     inkscape:window-width="1920"
     inkscape:window-height="1017"
     id="namedview17"
     showgrid="false"
     fit-margin-top="0"
     fit-margin-left="0"
     fit-margin-right="0"
     fit-margin-bottom="0"
     inkscape:pagecheckerboard="true"
     inkscape:zoom="0.472"
     inkscape:cx="-98.771186"
     inkscape:cy="250"
     inkscape:window-x="-8"
     inkscape:window-y="-8"
     inkscape:window-maximized="1"
     inkscape:current-layer="图层_1" />
  <g
     id="g14"
     transform="matrix(1.6,0,0,1.6,-136,0)">
    <g
       id="g4">
      <ellipse
         cx="250"
         cy="415.20001"
         rx="21.9"
         ry="22.200001"
         id="ellipse2" />
    </g>
    <g
       id="g8">
      <ellipse
         cx="250"
         cy="134.60001"
         rx="21.9"
         ry="22.200001"
         id="ellipse6" />
    </g>
    <g
       id="g12">
      <path
         d="M 305.8,0 H 194.2 L 85,181.7 168.5,500 H 331.4 L 415,181.7 Z M 199.7,450 c -7.1,-10.2 -11.3,-22.7 -11.3,-36.1 0,-25.1 14.6,-46.7 35.6,-56.7 V 352.5 347 290.2 286 H 166.5 V 272.1 H 224 v -4.3 -2.6 -42.5 C 181.4,211.4 150,173.1 150,127.5 150,96.1 164.9,68.1 188.2,50 l 12.5,14.3 c -19.2,14.6 -31.5,37.5 -31.5,63.2 0,39.9 29.7,73 68.6,78.8 v 0.5 6.8 11.7 121.7 5.6 0.1 5.5 2.9 5.9 c -20.5,5.5 -35.6,24.5 -35.6,47 0,14.3 6.1,27.2 15.9,36.1 h -18.4 z m 50.3,-0.1 c -18.9,0 -34.2,-15.5 -34.2,-34.7 0,-16.8 11.8,-30.8 27.4,-34 V 168.6 c -15.6,-3.2 -27.4,-17.2 -27.4,-34 0,-19.2 15.3,-34.7 34.2,-34.7 18.9,0 34.2,15.5 34.2,34.7 0,16.8 -11.8,30.8 -27.4,34 v 212.5 c 15.6,3.2 27.4,17.2 27.4,34 0,19.3 -15.3,34.8 -34.2,34.8 z M 334.9,286 H 276 v 2.8 52.6 11.1 4.7 c 21,10 35.6,31.6 35.6,56.7 0,13.5 -4.2,25.9 -11.3,36.1 h -18.2 c 9.7,-8.9 15.9,-21.8 15.9,-36.1 0,-22.5 -15.1,-41.5 -35.6,-47 v -5.9 -2.9 -5.5 -0.1 -11.1 -114.7 -13.1 -5.9 -0.9 h 4.8 C 303.6,199.1 331,167.1 331,128.9 331,103.2 318.6,80.3 299.5,65.7 L 312,51.4 c 23.2,18.1 38.2,46 38.2,77.5 0,45.6 -31.4,83.9 -74,95.2 v 39.7 4 4.3 h 58.9 V 286 Z"
         id="path10"
         inkscape:connector-curvature="0" />
    </g>
  </g>
</svg>
