<?xml version="1.0" encoding="UTF-8" standalone="no"?>
<!-- Generator: Adobe Illustrator 24.0.1, SVG Export Plug-In . SVG Version: 6.00 Build 0)  -->

<svg
   xmlns:dc="http://purl.org/dc/elements/1.1/"
   xmlns:cc="http://creativecommons.org/ns#"
   xmlns:rdf="http://www.w3.org/1999/02/22-rdf-syntax-ns#"
   xmlns:svg="http://www.w3.org/2000/svg"
   xmlns="http://www.w3.org/2000/svg"
   xmlns:sodipodi="http://sodipodi.sourceforge.net/DTD/sodipodi-0.dtd"
   xmlns:inkscape="http://www.inkscape.org/namespaces/inkscape"
   version="1.1"
   id="Layer_1"
   x="0px"
   y="0px"
   viewBox="0 0 375.15671 800"
   xml:space="preserve"
   sodipodi:docname="Sisters of Silence [Imperium, Adeptus Astra Telepathica, Talons of the Emperor].svg"
   width="375.15671"
   height="800"
   inkscape:version="0.92.3 (2405546, 2018-03-11)"><metadata
   id="metadata17"><rdf:RDF><cc:Work
       rdf:about=""><dc:format>image/svg+xml</dc:format><dc:type
         rdf:resource="http://purl.org/dc/dcmitype/StillImage" /><dc:title></dc:title></cc:Work></rdf:RDF></metadata><defs
   id="defs15" /><sodipodi:namedview
   pagecolor="#ffffff"
   bordercolor="#666666"
   borderopacity="1"
   objecttolerance="10"
   gridtolerance="10"
   guidetolerance="10"
   inkscape:pageopacity="0"
   inkscape:pageshadow="2"
   inkscape:window-width="1920"
   inkscape:window-height="1017"
   id="namedview13"
   showgrid="false"
   inkscape:pagecheckerboard="true"
   fit-margin-top="0"
   fit-margin-left="0"
   fit-margin-right="0"
   fit-margin-bottom="0"
   inkscape:zoom="0.236"
   inkscape:cx="-301.45694"
   inkscape:cy="483"
   inkscape:window-x="-8"
   inkscape:window-y="-8"
   inkscape:window-maximized="1"
   inkscape:current-layer="Layer_1" />
<style
   type="text/css"
   id="style2">
	.st0{fill:#010101;}
</style>
<g
   id="g10"
   transform="matrix(0.82884376,0,0,0.82884376,-227.03238,-14.753419)">
	<path
   class="st0"
   d="M 603.37,905.58 C 590.63,882.8 588.5,861.56 588.5,851.13 v -44.21 c -13.13,11.01 -25.29,23.94 -36.3,38.81 -23.93,32.43 -33.2,62.55 -33.2,62.74 l -9.56,21.62 -18.52,-0.19 -9.95,-21.62 c 0,-0.39 -9.46,-30.31 -33.21,-62.75 -11.01,-14.87 -22.98,-27.8 -36.3,-38.81 v 44.21 c 0,10.43 -2.12,31.47 -14.87,54.45 -21.62,39 -81.25,38.81 -92.44,38.81 0,13.13 0,25.87 0,38.81 h 391.48 c 0,-12.94 0,-25.87 0,-38.81 -10.82,0.19 -70.44,0.39 -92.26,-38.61 z"
   id="path4"
   inkscape:connector-curvature="0"
   style="fill:#010101" />
	<path
   class="st0"
   d="m 396.78,95.42 c 3.09,5.41 5.41,10.81 7.34,15.83 38.42,-13.9 74.91,-18.34 95.96,-18.34 21.05,0 57.34,4.63 95.96,18.34 1.93,-5.02 4.44,-10.43 7.34,-15.83 21.62,-39 81.25,-38.81 92.44,-38.81 0,-13.13 0,-25.87 0,-38.81 H 304.53 c 0,12.94 0,25.87 0,38.81 11,0 70.63,-0.19 92.25,38.81 z"
   id="path6"
   inkscape:connector-curvature="0"
   style="fill:#010101" />
	<path
   class="st0"
   d="M 718.06,249.88 C 678.1,133.45 538.69,112.6 500.27,112.6 c -38.42,0 -178.02,20.85 -217.79,137.28 -33.98,99.44 45.95,193.85 18.92,227.25 -34.95,43.25 13.13,111.99 30.7,270.12 129.75,26.84 168.17,155.43 168.17,155.43 0,0 38.42,-128.59 168.17,-155.43 17.57,-158.13 65.84,-226.87 30.7,-270.12 -27.22,-33.4 52.71,-127.81 18.92,-227.25 z M 342.33,544.9 c -11.01,-4.44 -12.74,-45.37 -7.34,-51.17 9.07,-9.65 32.55,-16.05 53.48,-5.79 20.52,10.05 67.96,19.31 67.96,25.87 0.2,6.77 -66.41,50.6 -114.1,31.09 z m 3.86,-267.99 c 0,0 40.36,-51.03 107.8,-75.46 -9.94,11 -15.99,25.57 -15.99,41.55 0,34.24 27.76,62 62,62 34.24,0 62,-27.76 62,-62 0,-16.99 -6.84,-32.39 -17.92,-43.58 76.73,22.56 110.07,77.69 110.07,77.69 0,0 -68.93,67.58 -153.88,67.96 -85.15,-0.39 -154.08,-68.16 -154.08,-68.16 z M 658.02,544.9 c -47.69,19.69 -114.3,-24.33 -114.3,-30.89 0,-6.56 48.29,-14.01 67.96,-25.87 19.99,-12.05 44.6,-3.86 53.48,5.79 5.41,5.6 3.86,46.34 -7.14,50.97 z"
   id="path8"
   inkscape:connector-curvature="0"
   style="fill:#010101" />
</g>
</svg>