<?xml version="1.0" encoding="UTF-8" standalone="no"?>
<!-- Created with Inkscape (http://www.inkscape.org/) -->

<svg
   xmlns:dc="http://purl.org/dc/elements/1.1/"
   xmlns:cc="http://creativecommons.org/ns#"
   xmlns:rdf="http://www.w3.org/1999/02/22-rdf-syntax-ns#"
   xmlns:svg="http://www.w3.org/2000/svg"
   xmlns="http://www.w3.org/2000/svg"
   xmlns:sodipodi="http://sodipodi.sourceforge.net/DTD/sodipodi-0.dtd"
   xmlns:inkscape="http://www.inkscape.org/namespaces/inkscape"
   width="708.93225"
   height="800"
   viewBox="0 0 187.57165 211.66667"
   version="1.1"
   id="svg8"
   inkscape:version="0.92.3 (2405546, 2018-03-11)"
   sodipodi:docname="Snotlings [Orkoids].svg">
  <defs
     id="defs2" />
  <sodipodi:namedview
     id="base"
     pagecolor="#ffffff"
     bordercolor="#666666"
     borderopacity="1.0"
     inkscape:pageopacity="0.0"
     inkscape:pageshadow="2"
     inkscape:zoom="0.35"
     inkscape:cx="803.55619"
     inkscape:cy="278.58349"
     inkscape:document-units="px"
     inkscape:current-layer="layer1"
     showgrid="false"
     units="px"
     inkscape:pagecheckerboard="true"
     fit-margin-top="0"
     fit-margin-left="0"
     fit-margin-right="0"
     fit-margin-bottom="0"
     inkscape:window-width="1920"
     inkscape:window-height="1017"
     inkscape:window-x="-8"
     inkscape:window-y="-8"
     inkscape:window-maximized="1" />
  <metadata
     id="metadata5">
    <rdf:RDF>
      <cc:Work
         rdf:about="">
        <dc:format>image/svg+xml</dc:format>
        <dc:type
           rdf:resource="http://purl.org/dc/dcmitype/StillImage" />
        <dc:title></dc:title>
      </cc:Work>
    </rdf:RDF>
  </metadata>
  <g
     inkscape:label="Layer 1"
     inkscape:groupmode="layer"
     id="layer1"
     transform="translate(-46.30205,-14.462895)">
    <g
       id="g867"
       transform="matrix(1.6138285,0,0,1.6138285,-28.421515,-138.80476)">
      <path
         id="path826"
         transform="scale(0.26458333)"
         d="M 444.28516,358.94727 427.85742,417.51953 360,418.94727 334.28516,361.80469 312.85742,511.0918 l 30.71485,12.85547 52.85546,63.57226 45,-55 44.28711,-20 z m -3.57032,115 15,0.71484 -0.71484,25 H 407.85742 V 486.0918 Z M 345,476.0918 l 30,8.57031 2.14258,12.14258 -39.28516,-0.71289 -2.14258,-19.28711 z"
         style="fill:#000000;fill-opacity:1;stroke:none;stroke-width:0.99999994px;stroke-linecap:butt;stroke-linejoin:miter;stroke-opacity:1"
         inkscape:connector-curvature="0" />
      <path
         id="path826-6"
         d="m 151.5682,165.65316 -4.34651,15.49724 -17.95394,0.37775 -6.80372,-15.11897 -5.66942,39.49888 8.12663,3.40134 13.98468,16.82016 11.90625,-14.55208 11.71763,-5.29167 z m -0.94465,30.42708 3.96875,0.18913 -0.18913,6.61458 h -12.47314 v -3.59047 z m -25.32455,0.5674 7.9375,2.26756 0.56689,3.21273 -10.3942,-0.18862 -0.56689,-5.10305 z"
         style="fill:#000000;fill-opacity:1;stroke:none;stroke-width:0.26458332px;stroke-linecap:butt;stroke-linejoin:miter;stroke-opacity:1"
         inkscape:connector-curvature="0" />
      <path
         id="path826-6-1"
         d="m 81.075638,163.19632 -4.34651,15.49724 -17.95394,0.37775 -6.80372,-15.11897 -5.66942,39.49888 8.12663,3.40134 13.98468,16.82016 11.90625,-14.55208 11.71763,-5.29167 z m -0.94465,30.42708 3.96875,0.18913 -0.18913,6.61458 h -12.47314 v -3.59047 z m -25.32455,0.5674 7.9375,2.26756 0.56689,3.21273 -10.3942,-0.18862 -0.56689,-5.10305 z"
         style="fill:#000000;fill-opacity:1;stroke:none;stroke-width:0.26458332px;stroke-linecap:butt;stroke-linejoin:miter;stroke-opacity:1"
         inkscape:connector-curvature="0" />
    </g>
  </g>
</svg>
