<?xml version="1.0" encoding="UTF-8" standalone="no"?>
<svg
   xmlns:dc="http://purl.org/dc/elements/1.1/"
   xmlns:cc="http://creativecommons.org/ns#"
   xmlns:rdf="http://www.w3.org/1999/02/22-rdf-syntax-ns#"
   xmlns:svg="http://www.w3.org/2000/svg"
   xmlns="http://www.w3.org/2000/svg"
   xmlns:sodipodi="http://sodipodi.sourceforge.net/DTD/sodipodi-0.dtd"
   xmlns:inkscape="http://www.inkscape.org/namespaces/inkscape"
   inkscape:version="1.0 (4035a4fb49, 2020-05-01)"
   height="800"
   width="800.00812"
   sodipodi:docname="Sons of Medusa 2 [Imperium, Adeptus Astartes, Space Marines, Chapter, Iron Hands].svg"
   xml:space="preserve"
   viewBox="0 0 800.00812 800"
   y="0px"
   x="0px"
   id="Layer_3"
   version="1.1"><metadata
   id="metadata13"><rdf:RDF><cc:Work
       rdf:about=""><dc:format>image/svg+xml</dc:format><dc:type
         rdf:resource="http://purl.org/dc/dcmitype/StillImage" /><dc:title></dc:title></cc:Work></rdf:RDF></metadata><defs
   id="defs11" /><sodipodi:namedview
   inkscape:current-layer="Layer_3"
   inkscape:window-maximized="1"
   inkscape:window-y="-9"
   inkscape:window-x="-9"
   inkscape:cy="491"
   inkscape:cx="491"
   inkscape:zoom="0.83"
   inkscape:pagecheckerboard="true"
   fit-margin-bottom="0"
   fit-margin-right="0"
   fit-margin-left="0"
   fit-margin-top="0"
   showgrid="false"
   id="namedview9"
   inkscape:window-height="1001"
   inkscape:window-width="1920"
   inkscape:pageshadow="2"
   inkscape:pageopacity="0"
   guidetolerance="10"
   gridtolerance="10"
   objecttolerance="10"
   borderopacity="1"
   bordercolor="#666666"
   pagecolor="#ffffff" />
<g
   transform="matrix(0.81384348,0,0,0.81384348,-7.3245913,-7.3245913)"
   id="g6">
	<path
   id="path2"
   d="m 634.35,393.8 c -24.21,-70.62 -95.69,-81.66 -126.63,-83.09 0,0 -2.65,-0.17 -7.13,-0.17 -0.06,0 -0.06,0 -0.12,0 -0.06,0 -0.06,0 -0.11,0 -4.54,0 -7.13,0.17 -7.13,0.17 -30.88,1.44 -102.42,12.48 -126.57,83.09 -20.64,60.27 18.46,128.35 10.52,137.49 -31.8,36.8 11.44,95.17 17.31,99.94 10.64,8.68 44.45,-8.91 39.1,0.17 -4.03,6.9 -7.76,59.06 -7.76,59.06 h 13.92 l 2.7,-18.17 8.97,-0.11 0.58,18.29 h 15.41 l 1.73,-18.57 8.97,0.29 0.86,18.29 h 14.84 l 0.69,-18.75 h 12.02 l 0.69,18.75 h 14.84 l 0.86,-18.29 9.55,-0.29 1.73,18.57 h 14.84 l 0.58,-18.29 8.97,0.11 2.7,18.17 h 13.92 c 0,0 -3.74,-52.16 -7.76,-59.06 -5.35,-9.09 28.47,8.45 39.1,-0.17 5.92,-4.83 49.11,-63.14 17.31,-99.94 -7.96,-9.2 31.09,-77.28 10.5,-137.49 z M 480.82,569.36 c -4.14,4.66 -10.12,10.18 -18.23,14.72 -19.49,10.98 -38.82,9.43 -46.64,8.34 -0.52,-0.06 -1.04,-0.23 -1.44,-0.52 -17.08,-10.81 -23.58,-27.66 -18.52,-38.18 0.75,-1.61 3.62,-6.9 12.59,-10.18 0.52,-0.17 1.04,-0.23 1.55,-0.23 10.81,0.98 24.21,3.11 39.05,7.76 12.02,3.74 22.25,8.28 30.65,12.65 2.08,1.1 2.54,3.86 0.99,5.64 z m 40.82,63.77 c -0.06,1.21 -1.55,1.67 -2.3,0.75 -1.84,-2.36 -4.37,-5.06 -7.76,-7.53 -3.62,-2.65 -7.07,-4.31 -9.78,-5.29 -2.65,0.98 -6.15,2.65 -9.78,5.29 -3.39,2.47 -5.92,5.18 -7.76,7.53 -0.75,0.92 -2.24,0.46 -2.3,-0.75 -0.58,-8.91 -0.17,-27.14 13.23,-40.37 1.73,-1.73 3.97,-3.22 6.61,-4.66 2.59,1.44 4.89,2.93 6.61,4.66 13.41,13.23 13.81,31.52 13.23,40.37 z m 65.33,-41.23 c -0.46,0.29 -0.92,0.46 -1.44,0.52 -7.82,1.09 -27.08,2.65 -46.64,-8.34 -8.11,-4.54 -14.09,-10.06 -18.23,-14.72 -1.55,-1.78 -1.09,-4.54 1.04,-5.64 8.4,-4.37 18.63,-8.91 30.65,-12.65 14.89,-4.66 28.29,-6.79 39.05,-7.76 0.52,-0.06 1.04,0 1.55,0.23 8.91,3.28 11.79,8.63 12.59,10.18 5.01,10.52 -1.49,27.43 -18.57,38.18 z" />
	<path
   id="path4"
   d="M 806.98,561.02 C 839.2,534.85 919.77,518.92 992,501.22 920.26,483.64 840.28,467.8 807.63,441.95 799.7,399.6 783.25,360.25 760.09,325.77 764.88,284.4 810.24,216.64 848.55,153.47 785.71,191.58 718.33,236.65 676.91,241.84 642.37,218.17 602.84,201.27 560.21,193.02 534.52,160.14 518.74,80.49 501.22,9 c -17.46,71.25 -33.2,150.62 -58.74,183.69 -42.69,8.02 -82.33,24.7 -117,48.18 -41.39,-4.97 -108.98,-50.2 -172.01,-88.42 38.19,62.97 83.37,130.5 88.4,171.9 -23.35,34.35 -40.02,73.61 -48.17,115.9 -32.44,26.01 -112.71,41.89 -184.7,59.53 71.99,17.64 152.26,33.52 184.7,59.53 8.06,41.77 24.42,80.59 47.32,114.64 -3.98,41.24 -49.86,109.74 -88.57,173.58 63.76,-38.67 132.19,-84.49 173.44,-88.56 33.74,22.77 72.17,39.12 113.53,47.31 26.5,31.75 42.54,112.96 60.37,185.71 17.77,-72.5 33.75,-153.41 60.1,-185.39 41.41,-7.97 79.9,-24.09 113.75,-46.66 41.2,3.76 109.9,49.78 173.91,88.6 C 808.96,784.94 763.25,716.68 759,675.4 782.1,641.46 798.69,602.74 806.98,561.02 Z M 500.5,743.15 c -134.41,0 -243.37,-108.96 -243.37,-243.37 0,-134.41 108.96,-243.37 243.37,-243.37 134.41,0 243.37,108.96 243.37,243.37 0,134.41 -108.96,243.37 -243.37,243.37 z" />
</g>
</svg>
