<?xml version="1.0" encoding="UTF-8" standalone="no"?>
<!-- Created with Inkscape (http://www.inkscape.org/) -->

<svg
   xmlns:dc="http://purl.org/dc/elements/1.1/"
   xmlns:cc="http://creativecommons.org/ns#"
   xmlns:rdf="http://www.w3.org/1999/02/22-rdf-syntax-ns#"
   xmlns:svg="http://www.w3.org/2000/svg"
   xmlns="http://www.w3.org/2000/svg"
   xmlns:sodipodi="http://sodipodi.sourceforge.net/DTD/sodipodi-0.dtd"
   xmlns:inkscape="http://www.inkscape.org/namespaces/inkscape"
   width="1535.0435"
   height="799.90002"
   viewBox="0 0 406.1469 211.64022"
   version="1.1"
   id="svg8"
   inkscape:version="0.92.3 (2405546, 2018-03-11)"
   sodipodi:docname="Sons of Malice [Chaos, Heretic Astartes, Chaos Space Marines, Regades, Malice].svg">
  <defs
     id="defs2" />
  <sodipodi:namedview
     id="base"
     pagecolor="#ffffff"
     bordercolor="#666666"
     borderopacity="1.0"
     inkscape:pageopacity="0.0"
     inkscape:pageshadow="2"
     inkscape:zoom="0.125"
     inkscape:cx="2120.2599"
     inkscape:cy="1200.2789"
     inkscape:document-units="px"
     inkscape:current-layer="layer1"
     showgrid="false"
     inkscape:window-width="1920"
     inkscape:window-height="1017"
     inkscape:window-x="-8"
     inkscape:window-y="-8"
     inkscape:window-maximized="1"
     units="px"
     fit-margin-top="-0.1"
     fit-margin-left="0"
     fit-margin-right="0"
     fit-margin-bottom="0" />
  <metadata
     id="metadata5">
    <rdf:RDF>
      <cc:Work
         rdf:about="">
        <dc:format>image/svg+xml</dc:format>
        <dc:type
           rdf:resource="http://purl.org/dc/dcmitype/StillImage" />
        <dc:title></dc:title>
      </cc:Work>
    </rdf:RDF>
  </metadata>
  <g
     inkscape:label="Layer 1"
     inkscape:groupmode="layer"
     id="layer1"
     transform="translate(151.34166,-134.51484)">
    <g
       id="g1150"
       transform="matrix(0.56188343,0,0,0.56188343,-66.30529,151.65626)">
      <g
         id="g1119">
        <path
           style="fill:#000000;fill-opacity:1;stroke:#000000;stroke-width:5;stroke-linejoin:round;stroke-miterlimit:4;stroke-dasharray:none;stroke-opacity:1"
           d="m 791.83203,86.107422 c -14.01031,0.06141 -28.00826,0.722393 -41.94141,1.980469 C 524.78601,108.41104 358.93856,277.66519 374.78711,470.89648 c 3.94739,46.33844 18.35024,91.58322 42.41211,133.23243 2.66573,11.23056 4.39914,22.94764 3.02344,31.49804 -2.9723,18.47373 -18.02251,32.83924 -28.28321,48.48633 -6.86917,10.47523 -14.92655,20.12223 -22.22265,30.30469 -9.57583,13.36407 -28.4662,23.96659 -28.28516,40.40625 0.27587,25.05173 36.24345,36.9374 44.44727,60.60937 6.39889,18.46387 -10.46884,43.55792 2.01953,58.58789 3.9679,4.77544 12.99131,0.63672 18.18359,4.04102 7.66008,5.02231 7.3012,19.90225 16.16211,22.22266 17.19923,4.50398 32.3239,-14.81486 48.48633,-22.22266 16.16243,-7.4078 31.52024,-16.91363 48.48828,-22.22266 18.28055,-5.71971 38.8835,-17.45947 56.56836,-10.10156 9.831,4.09024 13.56453,16.66881 18.18164,26.26367 6.0974,12.67102 12.92015,26.36712 12.12305,40.40625 -0.8722,15.36144 -10.77372,28.94141 -18.1836,42.42578 -7.46642,13.58733 -30.15261,23.37879 -26.26367,38.38672 4.91048,18.9501 39.36858,11.77 52.52735,26.2637 12.61007,13.8893 13.572,28.786 28.20312,40.5273 10.62206,8.5241 20.56669,11.3291 32.40625,18.0606 8.32052,4.7306 8.82397,20.2227 18.18359,22.2246 10.3078,2.2046 17.74407,-14.3357 28.28321,-14.1426 8.46425,0.1551 13.8754,13.155 22.28515,12.1836 8.07304,-0.9325 10.87382,-12.6706 18.16211,-16.2656 9.82088,-4.8443 32.28516,-6.0801 32.28516,-6.0801 V 842.24219 c -1.07776,0.0594 -8.84658,4.3344 -14.45899,7.96093 -10.05259,6.49588 -20.02765,14.8767 -28.66406,24.0879 -5.41557,5.77579 -13.15078,15.7265 -17.80859,22.90625 -2.06332,3.18054 -3.98962,6.03656 -4.28125,6.34765 -0.29178,0.31106 -1.31987,0.62973 -2.28516,0.70899 -1.3646,0.11111 -1.95509,-0.0341 -2.65234,-0.64063 -1.77071,-1.54775 -2.01391,-2.5493 -2.34961,-9.64453 -0.1697,-3.59562 -0.31099,-11.04117 -0.3125,-16.54687 -0.0189,-57.66626 11.60806,-107.72307 33.875,-145.875 4.43149,-7.59274 8.27514,-13.25628 13.79687,-20.33008 6.85172,-8.77777 12.44288,-14.18619 21.79883,-21.08008 l 3.3418,-2.46094 V 86.189453 c -0.71606,-0.02891 -1.43221,-0.05626 -2.14844,-0.08203 z M 491.35547,532.60938 c 3.1967,-0.0198 17.20379,2.03914 29.55664,4.375 61.39249,11.60968 121.19308,35.91765 177.74219,72.25195 10.74107,6.90142 27.92205,18.96956 29.51172,20.72851 4.23821,4.68938 5.608,13.1629 3.24414,20.08008 -1.09214,3.19623 -4.44154,8.55019 -11.71289,18.7207 -36.15738,50.57466 -82.16577,82.72495 -133.19922,93.07813 -7.93338,1.60947 -14.05877,2.45873 -23.82227,3.30273 -3.61697,0.31231 -23.80235,0.21447 -27.92578,-0.13476 -10.03748,-0.8513 -21.8337,-2.68777 -24.19727,-3.76758 -2.50922,-1.14622 -14.99254,-13.32923 -21.68945,-21.16797 -26.19435,-30.66055 -43.16495,-68.95588 -47.4414,-107.05469 -0.7262,-6.46563 -0.87411,-20.97015 -0.28126,-27.51757 1.59621,-17.62987 6.2511,-31.051 15.30469,-44.12696 3.8775,-5.60046 7.54105,-9.80251 12.63086,-14.48633 6.36064,-5.85316 18.22195,-13.60997 21.78906,-14.25 0.11334,-0.0203 0.27713,-0.0299 0.49024,-0.0312 z"
           id="path830"
           transform="scale(0.26458333)"
           inkscape:connector-curvature="0"
           sodipodi:nodetypes="ccccscssssssssccccccccccscccccccccccccccccccscccccccscccccc" />
        <g
           id="g1097"
           style="fill:#000000;fill-opacity:1;stroke:#000000;stroke-width:1.32291663;stroke-miterlimit:4;stroke-dasharray:none;stroke-opacity:1">
          <path
             sodipodi:nodetypes="ssscssssssss"
             inkscape:connector-curvature="0"
             id="path839"
             d="m 146.76815,275.03958 c -6.57308,8.89971 -6.16791,12.0467 -5.70744,22.90535 0.42948,10.12803 3.58703,19.97692 9.14476,28.45472 4.68092,7.14031 18.37191,17.84737 18.37191,17.84737 0,0 -4.2501,-12.18523 -5.29167,-18.52084 -0.85939,-5.22749 -0.73581,-10.57738 -0.75595,-15.875 -0.024,-6.3046 -0.98654,-12.83975 0.75595,-18.89881 0.58515,-2.03472 3.03672,-3.39797 3.15639,-5.51178 0.15902,-2.80889 -1.93019,-5.31665 -3.34087,-7.75081 -1.17262,-2.02338 -2.51677,-3.99904 -4.2095,-5.61266 -1.75277,-1.67086 -7.07189,-1.43005 -7.07189,-1.43005 -2.4479,1.24551 -4.11247,3.1208 -5.05169,4.39251 z"
             style="fill:#000000;fill-opacity:1;stroke:#000000;stroke-width:1.32291663;stroke-linecap:butt;stroke-linejoin:miter;stroke-miterlimit:4;stroke-dasharray:none;stroke-opacity:1" />
          <path
             sodipodi:nodetypes="ssssscssssss"
             inkscape:connector-curvature="0"
             id="path841"
             d="m 172.38884,285.5074 c -2.0923,0.0863 -4.24882,1.90024 -4.94448,3.8754 -0.52269,1.48405 -0.86772,3.09067 -1.06908,4.67723 -0.40396,3.18294 -0.94701,6.48606 -0.26727,9.6217 0.47271,2.1806 1.70342,4.15629 2.93997,6.01356 1.87179,2.81138 6.68173,7.6172 6.68173,7.6172 0,0 2.24758,-2.6551 3.06285,-4.42069 0.49337,-1.06846 1.07534,-2.96259 1.20809,-4.13194 0.24281,-2.13896 0.0895,-4.36539 0.13364,-6.5481 0.045,-2.22724 -0.10255,-4.47341 -0.39553,-6.68176 -0.29292,-2.20789 -0.54774,-4.62284 -1.87089,-6.41445 -1.29912,-1.75907 -3.2941,-3.69825 -5.47903,-3.60815 z"
             style="fill:#000000;fill-opacity:1;stroke:#000000;stroke-width:1.32291663;stroke-linecap:butt;stroke-linejoin:miter;stroke-miterlimit:4;stroke-dasharray:none;stroke-opacity:1" />
          <path
             sodipodi:nodetypes="ssssccssss"
             inkscape:connector-curvature="0"
             id="path843"
             d="m 190.02863,292.05552 c -1.97546,-0.59729 -4.74509,1.0538 -5.41221,3.00678 -0.66283,1.94042 -1.19404,3.36105 -1.67043,5.07812 -0.53735,1.93679 -1.04394,3.89134 -1.33635,5.87991 -0.33128,2.25291 -0.34655,4.54147 -0.46772,6.81538 0.57153,4.91946 0.56414,5.03644 2.47224,9.02036 5.78526,-1.13162 6.57767,-4.15191 8.01809,-9.08717 0.8441,-2.89213 1.01441,-6.39519 1.06908,-9.6217 0.0394,-2.32285 0.0999,-4.71416 -0.53454,-6.94902 -0.4244,-1.49489 -0.6507,-3.69292 -2.13816,-4.14266 z"
             style="fill:#000000;fill-opacity:1;stroke:#000000;stroke-width:1.32291663;stroke-linecap:butt;stroke-linejoin:miter;stroke-miterlimit:4;stroke-dasharray:none;stroke-opacity:1" />
          <path
             sodipodi:nodetypes="csssssssscssssssscc"
             inkscape:connector-curvature="0"
             id="path847"
             d="m 201.46131,290.4232 c -0.85288,0.38683 -1.5762,1.09973 -2.07887,1.8899 -0.74331,1.16845 -1.35126,2.1157 -1.7576,3.43958 -0.4444,1.44786 -0.61368,2.84295 -0.79374,4.34673 -0.30491,2.54653 -0.31254,2.94886 -0.4891,5.21607 -0.16156,2.07473 -0.0319,4.15615 0.0166,6.2366 0.0479,2.05552 0.30328,4.10302 0.56696,6.14212 0.22114,1.71011 0.36745,3.44734 0.85045,5.10267 0.51784,1.77474 1.39738,3.42467 2.17336,5.10268 0.65038,1.4064 2.07887,4.15774 2.07887,4.15774 0,0 2.36752,-3.42519 3.38289,-4.9893 1.14145,-1.75831 1.48621,-3.3418 2.11707,-5.78302 0.45968,-1.77881 0.51968,-3.82422 0.73982,-5.76414 0.224,-1.97395 0.25021,-3.96678 0.28348,-5.95312 0.0375,-2.23627 -0.0307,-4.47342 -0.0945,-6.70909 -0.0837,-2.93082 0.0563,-5.88826 -0.37798,-8.78793 -0.24104,-1.60932 -0.18832,-1.35657 -1.22842,-2.60805 -0.71151,-0.85611 -0.98349,-1.23754 -2.08204,-1.41739 -1.1132,-0.11163 -2.22661,0.13192 -3.30725,0.37795 z"
             style="fill:#000000;fill-opacity:1;stroke:#000000;stroke-width:1.32291663;stroke-linecap:butt;stroke-linejoin:miter;stroke-miterlimit:4;stroke-dasharray:none;stroke-opacity:1" />
        </g>
      </g>
      <g
         id="g1127">
        <path
           sodipodi:nodetypes="ccccscssssssssccccccccccscccccccccccccccccccscccccccscccccc"
           inkscape:connector-curvature="0"
           id="path1077"
           d="m 210.64242,22.782588 c 3.70689,0.01625 7.41052,0.191134 11.097,0.524 59.55892,5.377166 103.43939,50.158993 99.24613,101.284772 -1.04441,12.26038 -4.85517,24.23139 -11.22154,35.25108 -0.70531,2.97142 -1.16394,6.07156 -0.79995,8.33386 0.78642,4.88784 4.76846,8.68871 7.48327,12.82867 1.81746,2.77157 3.94931,5.32401 5.87974,8.01812 2.5336,3.53591 7.53168,6.34116 7.48378,10.69082 -0.073,6.62827 -9.58941,9.77302 -11.76001,16.03622 -1.69304,4.88524 2.76988,11.5247 -0.53433,15.50138 -1.04984,1.26351 -3.43728,0.16847 -4.81107,1.06919 -2.02673,1.32882 -1.93178,5.2658 -4.27623,5.87975 -4.55063,1.19167 -8.55236,-3.91977 -12.82867,-5.87975 -4.27631,-1.95998 -8.33973,-4.47506 -12.82919,-5.87975 -4.83673,-1.51334 -10.28793,-4.61948 -14.96705,-2.6727 -2.60112,1.08221 -3.58895,4.41029 -4.81056,6.94893 -1.61327,3.35254 -3.41845,6.9763 -3.20755,10.69082 0.23077,4.06438 2.85054,7.65741 4.81107,11.22515 1.97549,3.59499 7.97788,6.18564 6.94893,10.15649 -1.29923,5.01388 -10.41627,3.11415 -13.89786,6.94894 -3.33641,3.67487 -3.59092,7.61629 -7.46207,10.72285 -2.81042,2.25533 -5.44161,2.99749 -8.57416,4.77853 -2.20147,1.25164 -2.33467,5.35059 -4.81107,5.88026 -2.72727,0.5833 -4.69479,-3.79299 -7.48327,-3.7419 -2.2395,0.041 -3.6712,3.4806 -5.89628,3.22358 -2.13599,-0.24672 -2.87703,-3.35243 -4.80539,-4.30361 -2.59844,-1.28172 -8.54211,-1.60869 -8.54211,-1.60869 v -61.84636 c 0.28516,0.0157 2.34066,1.14681 3.82561,2.10633 2.65974,1.7187 5.29898,3.93613 7.58403,6.37326 1.43287,1.52818 3.47948,4.16097 4.71185,6.06061 0.54592,0.84152 1.05559,1.59717 1.13275,1.67948 0.0772,0.0823 0.34922,0.16662 0.60462,0.18759 0.36105,0.0294 0.51728,-0.009 0.70176,-0.1695 0.4685,-0.40951 0.53285,-0.6745 0.62167,-2.55178 0.0449,-0.95134 0.0823,-2.92131 0.0827,-4.37803 0.005,-15.25753 -3.0713,-28.50173 -8.96276,-38.59609 -1.1725,-2.00891 -2.18946,-3.50739 -3.65042,-5.379 -1.81285,-2.32245 -3.29218,-3.75343 -5.76761,-5.57744 L 210.074,181.94755 V 22.804292 c 0.18946,-0.0076 0.37894,-0.01488 0.56844,-0.0217 z M 290.1435,140.91956 c -0.84579,-0.005 -4.55183,0.53953 -7.82019,1.15756 -16.24343,3.07172 -32.06566,9.50321 -47.02762,19.11666 -2.8419,1.826 -7.38771,5.01903 -7.80831,5.48442 -1.12136,1.24073 -1.48378,3.48268 -0.85834,5.31285 0.28896,0.84567 1.17516,2.26224 3.09903,4.95318 9.56664,13.38122 21.7397,21.88765 35.24229,24.62693 2.09904,0.42584 3.71972,0.65054 6.30298,0.87384 0.95699,0.0826 6.2977,0.0567 7.3887,-0.0357 2.65575,-0.22524 5.77683,-0.71114 6.40219,-0.99684 0.6639,-0.30327 3.96678,-3.52669 5.73867,-5.60069 6.93058,-8.11227 11.42072,-18.24458 12.5522,-28.32489 0.19214,-1.7107 0.23127,-5.54835 0.0744,-7.28069 -0.42233,-4.66457 -1.65394,-8.21558 -4.04937,-11.67526 -1.02592,-1.48179 -1.99523,-2.59358 -3.34191,-3.83284 -1.68292,-1.54865 -4.82122,-3.60097 -5.76502,-3.77031 -0.03,-0.005 -0.0733,-0.008 -0.12971,-0.008 z"
           style="fill:#ffffff;fill-opacity:1;stroke:#000000;stroke-width:1.32291663;stroke-linejoin:round;stroke-miterlimit:4;stroke-dasharray:none;stroke-opacity:1" />
        <g
           id="g1103"
           style="fill:#ffffff;fill-opacity:1;stroke:#000000;stroke-width:1.32291663;stroke-miterlimit:4;stroke-dasharray:none;stroke-opacity:1">
          <path
             style="fill:#ffffff;fill-opacity:1;stroke:#000000;stroke-width:1.32291663;stroke-linecap:butt;stroke-linejoin:miter;stroke-miterlimit:4;stroke-dasharray:none;stroke-opacity:1"
             d="m 273.37982,275.03958 c 6.57308,8.89971 6.16791,12.0467 5.70744,22.90535 -0.42948,10.12803 -3.58703,19.97692 -9.14476,28.45472 -4.68092,7.14031 -18.37191,17.84737 -18.37191,17.84737 0,0 4.2501,-12.18523 5.29167,-18.52084 0.85939,-5.22749 0.73581,-10.57738 0.75595,-15.875 0.024,-6.3046 0.98654,-12.83975 -0.75595,-18.89881 -0.58515,-2.03472 -3.03672,-3.39797 -3.15639,-5.51178 -0.15902,-2.80889 1.93019,-5.31665 3.34087,-7.75081 1.17262,-2.02338 2.51677,-3.99904 4.2095,-5.61266 1.75277,-1.67086 7.07189,-1.43005 7.07189,-1.43005 2.4479,1.24551 4.11247,3.1208 5.05169,4.39251 z"
             id="path1079"
             inkscape:connector-curvature="0"
             sodipodi:nodetypes="ssscssssssss" />
          <path
             style="fill:#ffffff;fill-opacity:1;stroke:#000000;stroke-width:1.32291663;stroke-linecap:butt;stroke-linejoin:miter;stroke-miterlimit:4;stroke-dasharray:none;stroke-opacity:1"
             d="m 247.75913,285.5074 c 2.0923,0.0863 4.24882,1.90024 4.94448,3.8754 0.52269,1.48405 0.86772,3.09067 1.06908,4.67723 0.40396,3.18294 0.94701,6.48606 0.26727,9.6217 -0.47271,2.1806 -1.70342,4.15629 -2.93997,6.01356 -1.87179,2.81138 -6.68173,7.6172 -6.68173,7.6172 0,0 -2.24758,-2.6551 -3.06285,-4.42069 -0.49337,-1.06846 -1.07534,-2.96259 -1.20809,-4.13194 -0.24281,-2.13896 -0.0895,-4.36539 -0.13364,-6.5481 -0.045,-2.22724 0.10255,-4.47341 0.39553,-6.68176 0.29292,-2.20789 0.54774,-4.62284 1.87089,-6.41445 1.29912,-1.75907 3.2941,-3.69825 5.47903,-3.60815 z"
             id="path1081"
             inkscape:connector-curvature="0"
             sodipodi:nodetypes="ssssscssssss" />
          <path
             style="fill:#ffffff;fill-opacity:1;stroke:#000000;stroke-width:1.32291663;stroke-linecap:butt;stroke-linejoin:miter;stroke-miterlimit:4;stroke-dasharray:none;stroke-opacity:1"
             d="m 230.11934,292.05552 c 1.97546,-0.59729 4.74509,1.0538 5.41221,3.00678 0.66283,1.94042 1.19404,3.36105 1.67043,5.07812 0.53735,1.93679 1.04394,3.89134 1.33635,5.87991 0.33128,2.25291 0.34655,4.54147 0.46772,6.81538 -0.57153,4.91946 -0.56414,5.03644 -2.47224,9.02036 -5.78526,-1.13162 -6.57767,-4.15191 -8.01809,-9.08717 -0.8441,-2.89213 -1.01441,-6.39519 -1.06908,-9.6217 -0.0394,-2.32285 -0.0999,-4.71416 0.53454,-6.94902 0.4244,-1.49489 0.6507,-3.69292 2.13816,-4.14266 z"
             id="path1083"
             inkscape:connector-curvature="0"
             sodipodi:nodetypes="ssssccssss" />
          <path
             style="fill:#ffffff;fill-opacity:1;stroke:#000000;stroke-width:1.32291663;stroke-linecap:butt;stroke-linejoin:miter;stroke-miterlimit:4;stroke-dasharray:none;stroke-opacity:1"
             d="m 218.68666,290.4232 c 0.85288,0.38683 1.5762,1.09973 2.07887,1.8899 0.74331,1.16845 1.35126,2.1157 1.7576,3.43958 0.4444,1.44786 0.61368,2.84295 0.79374,4.34673 0.30491,2.54653 0.31254,2.94886 0.4891,5.21607 0.16156,2.07473 0.0319,4.15615 -0.0166,6.2366 -0.0479,2.05552 -0.30328,4.10302 -0.56696,6.14212 -0.22114,1.71011 -0.36745,3.44734 -0.85045,5.10267 -0.51784,1.77474 -1.39738,3.42467 -2.17336,5.10268 -0.65038,1.4064 -2.07887,4.15774 -2.07887,4.15774 0,0 -2.36752,-3.42519 -3.38289,-4.9893 -1.14145,-1.75831 -1.48621,-3.3418 -2.11707,-5.78302 -0.45968,-1.77881 -0.51968,-3.82422 -0.73982,-5.76414 -0.224,-1.97395 -0.25021,-3.96678 -0.28348,-5.95312 -0.0375,-2.23627 0.0307,-4.47342 0.0945,-6.70909 0.0837,-2.93082 -0.0563,-5.88826 0.37798,-8.78793 0.24104,-1.60932 0.18832,-1.35657 1.22842,-2.60805 0.71151,-0.85611 0.98349,-1.23754 2.08204,-1.41739 1.17308,-0.0795 2.387,-0.006 3.30725,0.37795 z"
             id="path1085"
             inkscape:connector-curvature="0"
             sodipodi:nodetypes="csssssssscssssssscc" />
        </g>
      </g>
      <g
         style="fill:#000000;fill-opacity:0.95348834;stroke:none;stroke-width:1.32291663;stroke-miterlimit:4;stroke-dasharray:none;stroke-opacity:1"
         id="g1111">
        <path
           style="fill:#000000;fill-opacity:0.95348834;stroke:none;stroke-width:1.32291663;stroke-linecap:butt;stroke-linejoin:miter;stroke-miterlimit:4;stroke-dasharray:none;stroke-opacity:1"
           d="m 11.641667,340.39167 c 0,0 14.696967,-21.17524 22.754166,-31.22084 6.177327,-7.7018 12.922546,-14.93346 19.579166,-22.225 6.057012,-6.63474 14.281356,-11.65868 18.520833,-19.57916 4.099052,-7.65813 2.502897,-17.37253 5.820834,-25.40001 2.542536,-6.15146 10.583333,-16.93333 10.583333,-16.93333 0,0 -1.370287,9.87503 -1.058333,14.81667 0.22666,3.59049 -0.582468,8.20474 2.116666,10.58333 1.857424,1.63684 5.241351,1.72644 7.408333,0.52917 2.624648,-1.45013 1.826582,-6.14887 4.233335,-7.9375 2.16566,-1.60946 5.27041,-0.12044 7.9375,-0.52917 2.45492,-0.37621 5.07573,0.059 7.40833,-0.79375 3.69885,-1.35217 6.34714,-3.64329 9.78959,-5.55624 3.96851,-2.20528 8.19124,-4.47316 12.43541,-6.08542 3.28546,-1.24806 3.92184,-1.50125 7.9375,-2.11666 1.64485,-0.25208 3.63561,-0.16609 4.7625,1.05832 2.21708,2.40894 2.81441,5.13844 3.96875,8.20209 0.64107,1.70141 1.03136,2.95991 0.79375,4.76249 -0.23733,1.80046 -0.17872,3.17371 -1.05833,4.7625 -1.41486,2.55557 -2.08414,3.57793 -4.23333,5.55625 -2.0622,1.89825 -4.08173,4.35598 -6.61459,5.55625 -3.0296,1.43566 -6.50867,2.2499 -8.99583,4.49792 -2.32342,2.10002 -3.1525,5.42865 -5.02708,7.9375 -1.68348,2.25308 -4.64253,3.69 -5.55625,6.35 -1.00445,2.92414 1.07211,6.21662 0.52916,9.26042 -0.38843,2.17753 -2.64583,6.08542 -2.64583,6.08542 0,0 -0.012,-3.67148 -1.05833,-5.02709 -0.96396,-1.24893 -2.65567,-2.11666 -4.23334,-2.11666 -2.16929,0 -3.91637,1.87173 -5.82083,2.91041 -2.43004,1.32533 -5.4284,2.06097 -7.14375,4.23334 -1.65958,2.10174 -2.07448,5.01257 -2.38125,7.67291 -0.42541,3.68916 0.37444,7.42264 0.79375,11.1125 0.32253,2.8382 0.45337,5.74577 1.32292,8.46667 0.5403,1.69064 2.38125,4.7625 2.38125,4.7625 0,0 -3.82163,-1.90714 -5.82084,-2.64583 -3.874991,-1.43176 -7.820159,-2.83182 -11.906248,-3.43959 -6.194281,-0.92134 -12.605493,-1.27776 -18.785416,-0.26458 -5.493395,0.90062 -10.541512,3.58825 -15.749275,5.5549 -8.428674,3.18299 -16.703214,6.76022 -25.069882,10.1028 -5.965675,2.38335 -17.918342,7.09647 -17.918342,7.09647 z"
           id="path944"
           inkscape:connector-curvature="0"
           sodipodi:nodetypes="csssscssssssssssssssssssscssssssscsssssc" />
        <path
           style="fill:#000000;fill-opacity:0.95348834;stroke:none;stroke-width:1.32291663;stroke-linecap:butt;stroke-linejoin:miter;stroke-miterlimit:4;stroke-dasharray:none;stroke-opacity:1"
           d="m 101.07084,179.26042 c 0,0 2.94927,-2.96058 4.23332,-5.02709 1.41336,-2.27463 3.02931,-4.99758 2.91042,-7.67291 -0.13407,-3.01689 -1.26282,-5.57612 -2.38384,-8.38021 -1.3413,-3.35511 -3.70777,-6.72361 -4.9872,-10.10279 -1.34138,-3.54282 -1.974931,-6.98319 -2.870524,-10.66406 -0.891487,-3.66399 -1.932331,-11.22531 -1.932331,-11.22531 0,0 -4.692199,-0.0943 -7.547745,0.18708 -5.356818,0.52776 -10.540301,2.33682 -15.902538,2.80633 -3.479011,0.30462 -7.078066,0.80237 -10.476965,0 -1.628607,-0.38446 -3.242096,-1.13034 -4.490127,-2.24506 -1.109469,-0.99095 -2.432153,-3.74177 -2.432153,-3.74177 0,0 -2.856593,2.88089 -4.303041,4.30303 -1.855496,1.82431 -3.452009,3.97555 -5.612659,5.42558 -2.318685,1.55608 -5.046294,2.41337 -7.670636,3.36759 -1.465221,0.53276 -2.931882,1.25886 -4.490127,1.30962 -1.149305,0.0374 -2.683015,0.17558 -3.367595,-0.74835 -0.968144,-1.30664 -0.0805,-3.30294 0.374176,-4.86431 0.29641,-1.01789 1.496711,-2.80633 1.496711,-2.80633 l -4.303041,0.74836 -75.998278,-10.20065 -4.7625,8.46666 -1.058333,-7.9375 c 0,0 -4.159712,-3.06876 -5.291667,-5.29166 -1.539627,-3.02347 -1.5875,-10.05417 -1.5875,-10.05417 0,0 -5.229461,2.91514 -6.879166,5.29167 -1.368093,1.97084 -0.576974,5.03926 -2.116667,6.87916 -4.202166,5.02151 -11.623709,6.03235 -17.4625,8.99584 -9.144428,4.64128 -18.152254,9.57864 -27.516664,13.75833 -6.58037,2.93707 -13.10506,6.23989 -20.10833,7.9375 -5.16838,1.25283 -15.875,1.5875 -15.875,1.5875 l 18.52083,7.9375 c 0,0 11.03412,5.82503 16.40416,8.99583 7.37398,4.35406 14.75336,8.74481 21.695838,13.75834 4.06481,2.93541 8.033184,6.04388 11.641666,9.525 4.227509,4.0783 11.641667,13.22916 11.641667,13.22916 0,0 -1.87791,-8.44362 -1.5875,-12.7 0.186398,-2.73194 0,-7.9375 0,-7.9375 -0.378141,-4.22378 2.727311,-9.27024 5.820833,-12.17083 2.247187,-2.10704 5.915669,-2.16212 8.995833,-2.11667 5.475988,0.0808 10.868721,2.01295 15.875,4.23334 3.264888,1.44805 6.218318,3.57544 8.995833,5.82083 1.55192,1.2546 4.233334,4.23333 4.233334,4.23333 0,0 4.012794,-4.92267 6.879166,-5.82083 3.550698,-1.11259 7.449616,0.40367 11.1125,1.05833 6.1070015,1.0915 11.84570752,3.9175 17.9916666,4.7625 C 18.937839,183.82875 43.391666,182.7 43.391666,182.7 l -0.529167,-4.7625 c 0,0 5.692665,4.19986 8.995834,5.29167 9.432405,3.11774 29.633333,3.175 29.633333,3.175 L 73.024999,176.35 l 7.408333,-3.70417 13.229167,-0.52916 z"
           id="path946"
           inkscape:connector-curvature="0"
           sodipodi:nodetypes="cssssscsssscsssssscccccscsssssccssscsssssscsssccsccccc" />
        <path
           style="fill:#000000;fill-opacity:0.95348834;stroke:none;stroke-width:1.32291663;stroke-linecap:butt;stroke-linejoin:miter;stroke-miterlimit:4;stroke-dasharray:none;stroke-opacity:1"
           d="m 157.16249,31.093751 c 0,0 -5.9816,-0.476662 -8.99583,-0.79375 -3.27479,-0.344498 -4.26726,-0.249359 -7.14375,-1.852083 -3.51368,-1.957756 -6.59983,-4.647504 -9.52499,-7.408334 -1.3636,-1.286997 -2.60944,-2.711049 -3.70417,-4.233333 -1.43069,-1.98946 -3.70417,-6.35 -3.70417,-6.35 0,0 -4.98887,-0.444326 -7.14375,-1.5874998 -1.92896,-1.0233206 -3.40478,-2.7877509 -4.7625,-4.4979166 -1.52366,-1.9191831 -3.70416,-6.35 -3.70416,-6.35 l -10.583338,1.32291667 c 0,0 -1.157902,-3.30221267 -1.322917,-5.02708317 -0.126265,-1.3198272 -0.43869,-2.8447873 0.264584,-3.96875 0.754323,-1.2055491 2.356261,-1.6633561 3.704171,-2.1166671 1.93894,-0.652079 6.08541,-0.79375 6.08541,-0.79375 0,0 -5.09652,-1.65069 -7.672915,-2.381249 -3.066334,-0.869484 -6.131307,-1.775375 -9.260416,-2.38125 -3.318639,-0.642573 -6.681121,-1.101958 -10.054167,-1.322917 -2.376157,-0.155655 -4.80652,0.455749 -7.14375,0 -3.456065,-0.673916 -6.782005,-2.137625 -9.789583,-3.96875 -1.389032,-0.845694 -2.675758,-1.915244 -3.704166,-3.175 -1.148442,-1.406792 -2.645834,-4.7625 -2.645834,-4.7625 0,0 -1.593729,4.359421 -2.116666,6.614583 -0.684645,2.952522 -1.417545,5.966449 -1.322917,8.995834 0.146353,4.685314 1.750864,9.2164147 2.910417,13.7583326 0.455538,1.78432238 2.064695,3.5130138 1.5875,5.2916667 -0.533521,1.9885944 -4.497917,4.2333332 -4.497917,4.2333332 l -0.529167,4.4979165 c 0,0 4.287295,-0.02257 6.35,-0.529167 1.765702,-0.433654 3.215868,-1.957737 5.027084,-2.116666 1.982141,-0.173927 5.820833,1.322917 5.820833,1.322917 0,0 0.71126,2.694885 0,3.704166 -1.51052,2.143435 -5.265139,1.134972 -7.408333,2.645833 -1.024498,0.722228 -2.38125,2.910417 -2.38125,2.910417 0,0 4.253123,0.190784 6.349999,0.529166 2.597489,0.419168 5.105886,1.275021 7.672917,1.852084 2.10947,0.474204 4.416669,0.354946 6.35,1.322916 3.57586,1.790343 6.180699,5.097233 8.995833,7.937501 2.464709,2.486714 3.871986,6.144346 6.879167,7.937499 2.793515,1.665746 6.770361,0.38739 9.525001,2.116667 1.80819,1.135125 3.96875,5.027083 3.96875,5.027083 0,0 -7.56714,-1.569419 -11.377085,-1.322916 -1.814381,0.11739 -5.291666,1.322916 -5.291666,1.322916 0,0 4.877564,2.600577 7.408331,3.704167 2.07215,0.903603 4.34618,1.334826 6.35,2.38125 2.75399,1.438173 5.59988,2.977508 7.67292,5.291667 0.86886,0.969918 0.79375,2.38125 0.79375,2.38125 0,0 4.3457,-4.649447 6.61459,-6.879167 2.40354,-2.362043 4.82899,-4.710472 7.40833,-6.879166 2.11969,-1.782216 4.32692,-3.995487 6.61458,-5.556251 3.4985,-2.386869 6.55482,-4.14389 10.31875,-6.085416 2.38773,-1.23165 4.02408,-1.830272 6.35,-3.175 1.52704,-0.882857 4.76249,-1.5875 4.76249,-1.5875 z"
           id="path948"
           inkscape:connector-curvature="0"
           sodipodi:nodetypes="csssscssccssscsssssscssssccsscsscsssssscscssscsssssc" />
        <path
           sodipodi:nodetypes="csssscssssssssssssssssssscssssssscsssssc"
           inkscape:connector-curvature="0"
           id="path1087"
           d="m 408.5063,340.39167 c 0,0 -14.69696,-21.17524 -22.75416,-31.22084 -6.17733,-7.7018 -12.92255,-14.93346 -19.57917,-22.225 -6.05701,-6.63474 -14.28135,-11.65868 -18.52083,-19.57916 -4.09905,-7.65813 -2.5029,-17.37253 -5.82084,-25.40001 -2.54253,-6.15146 -10.58333,-16.93333 -10.58333,-16.93333 0,0 1.37029,9.87503 1.05833,14.81667 -0.22666,3.59049 0.58247,8.20474 -2.11666,10.58333 -1.85743,1.63684 -5.24135,1.72644 -7.40833,0.52917 -2.62465,-1.45013 -1.82659,-6.14887 -4.23334,-7.9375 -2.16566,-1.60946 -5.27041,-0.12044 -7.9375,-0.52917 -2.45492,-0.37621 -5.07573,0.059 -7.40833,-0.79375 -3.69885,-1.35217 -6.34714,-3.64329 -9.78959,-5.55624 -3.96851,-2.20528 -8.19124,-4.47316 -12.43541,-6.08542 -3.28546,-1.24806 -3.92184,-1.50125 -7.9375,-2.11666 -1.64485,-0.25208 -3.63561,-0.16609 -4.7625,1.05832 -2.21708,2.40894 -2.81441,5.13844 -3.96875,8.20209 -0.64107,1.70141 -1.03136,2.95991 -0.79375,4.76249 0.23733,1.80046 0.17872,3.17371 1.05833,4.7625 1.41486,2.55557 2.08414,3.57793 4.23333,5.55625 2.0622,1.89825 4.08173,4.35598 6.61459,5.55625 3.0296,1.43566 6.50867,2.2499 8.99583,4.49792 2.32342,2.10002 3.1525,5.42865 5.02708,7.9375 1.68348,2.25308 4.64253,3.69 5.55625,6.35 1.00445,2.92414 -1.07211,6.21662 -0.52916,9.26042 0.38843,2.17753 2.64583,6.08542 2.64583,6.08542 0,0 0.012,-3.67148 1.05833,-5.02709 0.96396,-1.24893 2.65567,-2.11666 4.23334,-2.11666 2.16929,0 3.91637,1.87173 5.82083,2.91041 2.43004,1.32533 5.4284,2.06097 7.14375,4.23334 1.65958,2.10174 2.07448,5.01257 2.38125,7.67291 0.42541,3.68916 -0.37444,7.42264 -0.79375,11.1125 -0.32253,2.8382 -0.45337,5.74577 -1.32292,8.46667 -0.5403,1.69064 -2.38125,4.7625 -2.38125,4.7625 0,0 3.82163,-1.90714 5.82084,-2.64583 3.87499,-1.43176 7.82016,-2.83182 11.90625,-3.43959 6.19428,-0.92134 12.60549,-1.27776 18.78541,-0.26458 5.4934,0.90062 10.54152,3.58825 15.74928,5.5549 8.42867,3.18299 16.70321,6.76022 25.06988,10.1028 5.96568,2.38335 17.91834,7.09647 17.91834,7.09647 z"
           style="fill:#000000;fill-opacity:0.95348834;stroke:none;stroke-width:1.32291663;stroke-linecap:butt;stroke-linejoin:miter;stroke-miterlimit:4;stroke-dasharray:none;stroke-opacity:1" />
        <path
           sodipodi:nodetypes="cssssscsssscsssssscccccscsssssccssscsssssscsssccsccccc"
           inkscape:connector-curvature="0"
           id="path1089"
           d="m 319.07713,179.26042 c 0,0 -2.94927,-2.96058 -4.23332,-5.02709 -1.41336,-2.27463 -3.02931,-4.99758 -2.91042,-7.67291 0.13407,-3.01689 1.26282,-5.57612 2.38384,-8.38021 1.3413,-3.35511 3.70777,-6.72361 4.9872,-10.10279 1.34138,-3.54282 1.97493,-6.98319 2.87052,-10.66406 0.89149,-3.66399 1.93234,-11.22531 1.93234,-11.22531 0,0 4.69219,-0.0943 7.54774,0.18708 5.35682,0.52776 10.5403,2.33682 15.90254,2.80633 3.47901,0.30462 7.07807,0.80237 10.47696,0 1.62861,-0.38446 3.2421,-1.13034 4.49013,-2.24506 1.10947,-0.99095 2.43215,-3.74177 2.43215,-3.74177 0,0 2.8566,2.88089 4.30305,4.30303 1.85549,1.82431 3.452,3.97555 5.61265,5.42558 2.31869,1.55608 5.0463,2.41337 7.67064,3.36759 1.46522,0.53276 2.93188,1.25886 4.49013,1.30962 1.1493,0.0374 2.68301,0.17558 3.36759,-0.74835 0.96815,-1.30664 0.0805,-3.30294 -0.37417,-4.86431 -0.29641,-1.01789 -1.49672,-2.80633 -1.49672,-2.80633 l 4.30305,0.74836 75.99828,-10.20065 4.7625,8.46666 1.05833,-7.9375 c 0,0 4.15971,-3.06876 5.29167,-5.29166 1.53962,-3.02347 1.5875,-10.05417 1.5875,-10.05417 0,0 5.22946,2.91514 6.87916,5.29167 1.3681,1.97084 0.57698,5.03926 2.11667,6.87916 4.20217,5.02151 11.62371,6.03235 17.4625,8.99584 9.14443,4.64128 18.15225,9.57864 27.51666,13.75833 6.58037,2.93707 13.10506,6.23989 20.10833,7.9375 5.16838,1.25283 15.875,1.5875 15.875,1.5875 L 552.9688,157.3 c 0,0 -11.03412,5.82503 -16.40416,8.99583 -7.37398,4.35406 -14.75336,8.74481 -21.69583,13.75834 -4.06481,2.93541 -8.03319,6.04388 -11.64167,9.525 -4.22751,4.0783 -11.64167,13.22916 -11.64167,13.22916 0,0 1.87791,-8.44362 1.5875,-12.7 -0.18639,-2.73194 0,-7.9375 0,-7.9375 0.37814,-4.22378 -2.72731,-9.27024 -5.82083,-12.17083 -2.24719,-2.10704 -5.91567,-2.16212 -8.99583,-2.11667 -5.47599,0.0808 -10.86872,2.01295 -15.875,4.23334 -3.26489,1.44805 -6.21832,3.57544 -8.99584,5.82083 -1.55192,1.2546 -4.23333,4.23333 -4.23333,4.23333 0,0 -4.0128,-4.92267 -6.87917,-5.82083 -3.5507,-1.11259 -7.44962,0.40367 -11.1125,1.05833 -6.107,1.0915 -11.84571,3.9175 -17.99167,4.7625 -12.05867,1.65792 -36.5125,0.52917 -36.5125,0.52917 l 0.52917,-4.7625 c 0,0 -5.69266,4.19986 -8.99583,5.29167 -9.43241,3.11774 -29.63334,3.175 -29.63334,3.175 l 8.46667,-10.05417 -7.40833,-3.70417 -13.22917,-0.52916 z"
           style="fill:#000000;fill-opacity:0.95348834;stroke:none;stroke-width:1.32291663;stroke-linecap:butt;stroke-linejoin:miter;stroke-miterlimit:4;stroke-dasharray:none;stroke-opacity:1" />
        <path
           sodipodi:nodetypes="csssscssccssscsssssscssssccsscsscsssssscscssscsssssc"
           inkscape:connector-curvature="0"
           id="path1091"
           d="m 262.98548,31.093751 c 0,0 5.9816,-0.476662 8.99583,-0.79375 3.27479,-0.344498 4.26726,-0.249359 7.14375,-1.852083 3.51368,-1.957756 6.59983,-4.647504 9.52499,-7.408334 1.3636,-1.286997 2.60944,-2.711049 3.70417,-4.233333 1.43069,-1.98946 3.70417,-6.35 3.70417,-6.35 0,0 4.98887,-0.444326 7.14375,-1.5874993 1.92896,-1.0233206 3.40478,-2.7877509 4.7625,-4.4979166 1.52366,-1.9191831 3.70416,-6.35 3.70416,-6.35 l 10.58334,1.32291666 c 0,0 1.1579,-3.30221266 1.32292,-5.02708316 0.12626,-1.3198272 0.43869,-2.8447873 -0.26459,-3.96875 -0.75432,-1.2055496 -2.35626,-1.6633566 -3.70417,-2.1166676 -1.93894,-0.652079 -6.08541,-0.79375 -6.08541,-0.79375 0,0 5.09652,-1.65069 7.67292,-2.381249 3.06633,-0.869484 6.1313,-1.775375 9.26041,-2.38125 3.31864,-0.642573 6.68112,-1.101958 10.05417,-1.322917 2.37616,-0.155655 4.80652,0.455749 7.14375,0 3.45606,-0.673916 6.782,-2.137625 9.78958,-3.96875 1.38903,-0.845694 2.67576,-1.915244 3.70417,-3.175 1.14844,-1.406792 2.64583,-4.7625 2.64583,-4.7625 0,0 1.59373,4.359421 2.11667,6.614583 0.68464,2.952522 1.41754,5.966449 1.32292,8.995834 -0.14636,4.685314 -1.75087,9.2164152 -2.91042,13.7583331 -0.45554,1.78432237 -2.0647,3.5130138 -1.5875,5.2916667 0.53352,1.9885944 4.49792,4.2333332 4.49792,4.2333332 l 0.52916,4.497916 c 0,0 -4.28729,-0.02257 -6.35,-0.529167 -1.7657,-0.433654 -3.21587,-1.957737 -5.02708,-2.116666 -1.98214,-0.173927 -5.82084,1.322917 -5.82084,1.322917 0,0 -0.71126,2.694885 0,3.704166 1.51053,2.143435 5.26514,1.134972 7.40834,2.645833 1.0245,0.722228 2.38125,2.910417 2.38125,2.910417 0,0 -4.25312,0.190784 -6.35,0.529166 -2.59749,0.419168 -5.10589,1.275021 -7.67292,1.852084 -2.10947,0.474204 -4.41667,0.354946 -6.35,1.322916 -3.57586,1.790343 -6.1807,5.097233 -8.99583,7.937501 -2.46471,2.486714 -3.87199,6.144346 -6.87917,7.937499 -2.79351,1.665746 -6.77036,0.38739 -9.525,2.116667 -1.80819,1.135125 -3.96875,5.027083 -3.96875,5.027083 0,0 7.56714,-1.569419 11.37709,-1.322916 1.81438,0.11739 5.29166,1.322916 5.29166,1.322916 0,0 -4.87756,2.600577 -7.40833,3.704167 -2.07215,0.903603 -4.34618,1.334826 -6.35,2.38125 -2.75399,1.438173 -5.59988,2.977508 -7.67292,5.291667 -0.86886,0.969918 -0.79375,2.38125 -0.79375,2.38125 0,0 -4.3457,-4.649447 -6.61459,-6.879167 -2.40354,-2.362043 -4.82899,-4.710472 -7.40833,-6.879166 -2.11969,-1.782216 -4.32692,-3.995487 -6.61458,-5.556251 -3.4985,-2.386869 -6.55482,-4.14389 -10.31875,-6.085416 -2.38773,-1.23165 -4.02408,-1.830272 -6.35,-3.175 -1.52704,-0.882857 -4.76249,-1.5875 -4.76249,-1.5875 z"
           style="fill:#000000;fill-opacity:0.95348834;stroke:none;stroke-width:1.32291663;stroke-linecap:butt;stroke-linejoin:miter;stroke-miterlimit:4;stroke-dasharray:none;stroke-opacity:1" />
      </g>
    </g>
    <path
       style="fill:none;stroke:#000000;stroke-width:0.26458332px;stroke-linecap:butt;stroke-linejoin:miter;stroke-opacity:1"
       d="M 46.892467,314.84023 Z"
       id="path1152"
       inkscape:connector-curvature="0" />
  </g>
</svg>
