<?xml version="1.0" encoding="UTF-8" standalone="no"?>
<!-- Created with Inkscape (http://www.inkscape.org/) -->

<svg
   xmlns:dc="http://purl.org/dc/elements/1.1/"
   xmlns:cc="http://creativecommons.org/ns#"
   xmlns:rdf="http://www.w3.org/1999/02/22-rdf-syntax-ns#"
   xmlns:svg="http://www.w3.org/2000/svg"
   xmlns="http://www.w3.org/2000/svg"
   xmlns:sodipodi="http://sodipodi.sourceforge.net/DTD/sodipodi-0.dtd"
   xmlns:inkscape="http://www.inkscape.org/namespaces/inkscape"
   width="799.99994"
   height="800"
   viewBox="0 0 211.66665 211.66667"
   version="1.1"
   id="svg8"
   sodipodi:docname="Sons of Medusa [Imperium, Adeptus Astartes, Space Marines, Chapter, Iron Hands].svg"
   inkscape:version="0.92.3 (2405546, 2018-03-11)">
  <defs
     id="defs2" />
  <sodipodi:namedview
     id="base"
     pagecolor="#ffffff"
     bordercolor="#666666"
     borderopacity="1.0"
     inkscape:pageopacity="0.0"
     inkscape:pageshadow="2"
     inkscape:zoom="0.7"
     inkscape:cx="477.587"
     inkscape:cy="394.91723"
     inkscape:document-units="px"
     inkscape:current-layer="layer1"
     showgrid="false"
     units="px"
     inkscape:window-width="1920"
     inkscape:window-height="1017"
     inkscape:window-x="-8"
     inkscape:window-y="-8"
     inkscape:window-maximized="1"
     inkscape:pagecheckerboard="true"
     fit-margin-top="0"
     fit-margin-left="0"
     fit-margin-right="0"
     fit-margin-bottom="0" />
  <metadata
     id="metadata5">
    <rdf:RDF>
      <cc:Work
         rdf:about="">
        <dc:format>image/svg+xml</dc:format>
        <dc:type
           rdf:resource="http://purl.org/dc/dcmitype/StillImage" />
        <dc:title></dc:title>
      </cc:Work>
    </rdf:RDF>
  </metadata>
  <g
     inkscape:label="Layer 1"
     inkscape:groupmode="layer"
     id="layer1"
     transform="translate(3.961158,-18.866407)">
    <g
       id="g1043"
       transform="matrix(2.2195728,0,0,2.2195728,-115.13831,-201.45203)">
      <path
         id="path826"
         transform="scale(0.26458333)"
         d="m 369.5293,375.16211 c -5.80672,28.62443 -10.57924,58.76192 -21.2793,77.41992 a 105,105 0 0 0 -0.47656,0.12109 105,105 0 0 0 -0.85156,0.2168 105,105 0 0 0 -1.62891,0.41797 105,105 0 0 0 -1.59766,0.4082 105,105 0 0 0 -6.07226,1.64649 105,105 0 0 0 -0.69727,0.2539 105,105 0 0 0 -2.2539,0.82422 105,105 0 0 0 -0.99805,0.36524 105,105 0 0 0 -5.85156,2.23437 105,105 0 0 0 -0.53321,0.25781 105,105 0 0 0 -2.94726,1.42383 105,105 0 0 0 -0.40039,0.19336 105,105 0 0 0 -5.52539,2.77149 105,105 0 0 0 -0.41993,0.25195 105,105 0 0 0 -2.21679,1.33203 105,105 0 0 0 -3.89844,2.3418 c -20.75741,-5.62991 -45.44023,-23.56511 -69.7832,-39.69727 16.13429,24.34612 34.06984,49.03193 39.69726,69.79102 a 105,105 0 0 0 -9.85351,19.02734 105,105 0 0 0 -0.42969,1.09375 105,105 0 0 0 -0.36524,1.09766 105,105 0 0 0 -0.4746,1.45117 105,105 0 0 0 -2.20118,6.72461 105,105 0 0 0 -0.21679,0.66406 105,105 0 0 0 -0.0977,0.4043 105,105 0 0 0 -1.42773,5.9043 c -18.65867,10.69674 -48.79382,15.46755 -77.41407,21.27343 28.62444,5.80673 58.76192,10.57926 77.41993,21.2793 a 105,105 0 0 0 0.12109,0.47266 105,105 0 0 0 14.93945,35.89648 c -5.62993,20.75743 -23.56507,45.44025 -39.69726,69.7832 24.36703,-16.14813 49.0736,-34.10182 69.84375,-39.71289 a 105,105 0 0 0 0.39062,0.2793 105,105 0 0 0 3.54297,2.09961 105,105 0 0 0 5.50391,3.1543 105,105 0 0 0 3.86914,1.80078 105,105 0 0 0 5.67773,2.53906 105,105 0 0 0 1.08203,0.42578 105,105 0 0 0 1.20703,0.40039 105,105 0 0 0 1.78907,0.59375 105,105 0 0 0 5.84375,1.94141 105,105 0 0 0 1.09961,0.32226 105,105 0 0 0 0.40429,0.0977 105,105 0 0 0 5.9043,1.42773 c 10.69675,18.65867 15.46757,48.79383 21.27344,77.41407 5.80684,-28.62487 10.58084,-58.76201 21.28125,-77.41992 a 105,105 0 0 0 0.47265,-0.1211 105,105 0 0 0 0.84375,-0.2168 105,105 0 0 0 1.67578,-0.42773 105,105 0 0 0 1.56055,-0.39844 105,105 0 0 0 6.07227,-1.64648 105,105 0 0 0 0.68945,-0.25195 105,105 0 0 0 2.29688,-0.83985 105,105 0 0 0 0.96289,-0.35156 105,105 0 0 0 5.85156,-2.23438 105,105 0 0 0 0.52539,-0.2539 105,105 0 0 0 2.97656,-1.4375 105,105 0 0 0 0.37891,-0.1836 105,105 0 0 0 5.52539,-2.77148 105,105 0 0 0 0.42969,-0.25781 105,105 0 0 0 2.19335,-1.31836 105,105 0 0 0 3.91211,-2.34961 c 20.75743,5.62994 45.44025,23.56507 69.78321,39.69726 -16.13453,-24.34647 -34.07014,-49.03175 -39.69727,-69.79101 a 105,105 0 0 0 9.85156,-19.02149 105,105 0 0 0 0.42579,-1.08203 105,105 0 0 0 0.47851,-1.4375 105,105 0 0 0 0.39453,-1.20508 105,105 0 0 0 2.17383,-6.65234 105,105 0 0 0 0.21875,-0.66797 105,105 0 0 0 0.0918,-0.37695 105,105 0 0 0 1.43164,-5.92383 c 18.65869,-10.69674 48.79382,-15.46755 77.41406,-21.27344 -28.62487,-5.80683 -58.76201,-10.58083 -77.41992,-21.28125 a 105,105 0 0 0 -0.1211,-0.4707 105,105 0 0 0 -14.93945,-35.89648 c 5.62995,-20.7574 23.56507,-45.44025 39.69727,-69.78321 -24.36666,16.14792 -49.07379,34.10153 -69.84375,39.71289 a 105,105 0 0 0 -0.39063,-0.27929 105,105 0 0 0 -3.54297,-2.09961 105,105 0 0 0 -5.5039,-3.1543 105,105 0 0 0 -3.86914,-1.80078 105,105 0 0 0 -5.67774,-2.53906 105,105 0 0 0 -1.06445,-0.41993 105,105 0 0 0 -1.56055,-0.51757 105,105 0 0 0 -1.45312,-0.48243 105,105 0 0 0 -5.84375,-1.9414 105,105 0 0 0 -1.10742,-0.32422 105,105 0 0 0 -0.37696,-0.0918 105,105 0 0 0 -5.92383,-1.43164 c -10.6967,-18.65871 -15.46748,-48.79385 -21.27339,-77.4141 z m 0,97.80469 a 82.410711,82.410711 0 0 1 82.41015,82.41015 82.410711,82.410711 0 0 1 -82.41015,82.41016 82.410711,82.410711 0 0 1 -82.41016,-82.41016 82.410711,82.410711 0 0 1 82.41016,-82.41015 z"
         style="opacity:1;fill:#000000;fill-opacity:1;stroke:none;stroke-width:8.77351379;stroke-linecap:round;stroke-linejoin:round;stroke-miterlimit:4;stroke-dasharray:none;stroke-opacity:1;paint-order:markers fill stroke"
         inkscape:connector-curvature="0" />
      <path
         id="path839"
         transform="scale(0.26458333)"
         d="m 368.91016,493.69922 c -4.65172,4e-5 -9.33397,0.62004 -13.8418,1.76758 -6.7414,1.71609 -14.22061,2.98336 -19.44531,7.57617 -6.98849,6.14328 -10.49588,15.65113 -13.38477,24.49609 -1.39721,4.27786 -2.21067,8.90637 -1.76758,13.38477 0.3853,3.8942 2.7083,7.35032 3.78907,11.11133 1.62411,5.65179 4.44861,11.30758 4.03906,17.17382 -0.19026,2.72516 -0.27938,7.1484 -2.9668,7.63868 -1.08489,0.19793 -2.20898,-2.46289 -2.20898,-2.46289 0,0 -0.7741,8.08457 0.63086,11.74414 1.00834,2.6265 3.81364,5.22298 6.375,6.38671 3.47109,1.57732 10.63053,0.11167 14.58593,3.71485 3.01093,2.7428 4.08789,11.91797 4.08789,11.91797 0.39477,0.0804 0.78675,0.14918 1.17969,0.22265 0.0867,-0.35065 0.18233,-0.66639 0.30078,-0.83789 0.13113,-0.0223 0.28222,0.52049 0.39258,0.96875 0.12848,0.0228 0.25452,0.0365 0.38281,0.0586 0.0931,-0.34347 0.19491,-0.64155 0.31446,-0.82032 0.12302,-0.0217 0.28442,0.4522 0.41406,0.93165 0.30702,0.0497 0.60997,0.083 0.91601,0.1289 0.10747,-0.36191 0.2267,-0.67244 0.36329,-0.86328 0.14076,-0.0232 0.32175,0.46906 0.47265,0.98047 0.3426,0.0477 0.68182,0.0816 1.02344,0.125 0.14031,-0.4619 0.29472,-0.86752 0.47656,-1.10547 0.18664,-0.0288 0.42534,0.60202 0.61914,1.23828 0.52308,0.0596 1.04326,0.10602 1.56446,0.15625 0.25425,-0.57904 0.54287,-1.07871 0.88086,-1.36914 0.34067,-0.0345 0.78325,0.78247 1.12304,1.53906 0.83575,0.0616 1.66776,0.1052 2.5,0.14453 0.41247,-0.56616 0.83239,-1.05 1.2168,-1.32226 0.35824,-0.0299 0.5954,0.65997 0.74805,1.38672 0.55528,0.0135 1.11222,0.0351 1.66601,0.0371 0.47072,-0.51916 1.00048,-0.99944 1.58594,-1.41407 0.70905,-0.0592 1.55743,0.68715 1.97266,1.10352 0.4315,-0.42916 1.26655,-1.16167 1.96289,-1.10352 0.51199,0.3626 0.97873,0.7783 1.40429,1.22266 0.63673,-0.0328 1.27622,-0.0813 1.91407,-0.12109 0.15295,-0.61416 0.36967,-1.13736 0.68164,-1.11133 0.3115,0.22062 0.647,0.58109 0.98242,1.00781 0.97047,-0.0687 1.95418,-0.16185 2.92969,-0.24219 0.30389,-0.60901 0.65179,-1.1549 0.92773,-1.12695 0.26265,0.22569 0.49747,0.57548 0.70898,0.99023 0.61897,-0.054 1.25765,-0.1196 1.87891,-0.17578 0.16163,-0.46009 0.33423,-0.86179 0.47656,-0.83984 0.13508,0.17676 0.25726,0.44858 0.36914,0.75977 0.41293,-0.0379 0.83342,-0.0795 1.2461,-0.11719 0.12265,-0.35747 0.25067,-0.66017 0.35742,-0.64258 0.0989,0.13813 0.1861,0.34854 0.26953,0.58398 0.36184,-0.0332 0.7301,-0.0685 1.0918,-0.10156 0.11217,-0.3705 0.23281,-0.69718 0.33203,-0.67969 0.0963,0.14387 0.1828,0.3657 0.26172,0.62305 0.15947,-0.0147 0.32127,-0.0304 0.48047,-0.0449 0.10852,-0.40211 0.24097,-0.80339 0.34765,-0.78516 0.10614,0.15371 0.19486,0.42249 0.27539,0.72657 0.40026,-0.0367 0.79675,-0.0709 1.20508,-0.11133 0,0 1.07697,-9.17517 4.08789,-11.91797 3.95539,-3.60318 11.11486,-2.13753 14.58594,-3.71485 2.56139,-1.16373 5.36666,-3.76021 6.375,-6.38671 1.40496,-3.65957 0.63086,-11.74414 0.63086,-11.74414 0,0 -1.12407,2.66082 -2.20899,2.46289 -2.68739,-0.49028 -2.77848,-4.91352 -2.96875,-7.63868 -0.40955,-5.86624 2.41688,-11.52203 4.04102,-17.17382 1.08076,-3.76101 3.40374,-7.21713 3.78906,-11.11133 0.44308,-4.4784 -0.37021,-9.10691 -1.76758,-13.38477 -2.88892,-8.84496 -6.39626,-18.35281 -13.38476,-24.49609 -5.22467,-4.59281 -12.70392,-5.86008 -19.44531,-7.57617 -4.50785,-1.14754 -9.19203,-1.76762 -13.84375,-1.76758 z m -25.38282,63.46289 c 4.8897,1.37163 17.13039,8.20583 18.03516,11.875 0.16819,2.06245 0.12805,3.58623 -0.0898,5.08984 -3.98545,4.79082 -12.48149,6.98411 -17.85743,6.60743 -6.23107,-0.33789 -9.08341,-1.99056 -9.30078,-7.1875 -0.0648,-1.78678 -0.54814,-8.0755 0,-9.77735 1.96567,-3.67789 5.17223,-6.79428 9.21289,-6.60742 z m 50.76758,0 c 4.04066,-0.18686 7.24724,2.92953 9.21289,6.60742 0.54815,1.70185 0.0646,7.99057 0,9.77735 -0.21736,5.19695 -3.06966,6.84961 -9.30078,7.1875 -5.37596,0.37669 -13.87197,-1.81661 -17.85742,-6.60743 -0.2177,-1.50361 -0.25803,-3.02739 -0.0898,-5.08984 0.90477,-3.66917 13.14543,-10.50337 18.03515,-11.875 z m -25.08398,18.16992 c 3.66388,1.65392 4.81416,5.54079 6.125,8.65039 1.51007,3.99235 4.14868,8.52711 2.71484,12.5 -0.99686,1.80374 -2.90586,3.48006 -4.86133,3.59961 -2.3507,-0.0835 -3.14875,-1.63251 -3.97851,-3.71484 -0.82976,2.08233 -1.62782,3.63131 -3.97852,3.71484 -1.95547,-0.11955 -3.86445,-1.79587 -4.86133,-3.59961 -1.43384,-3.97289 1.20478,-8.50765 2.71485,-12.5 1.31083,-3.1096 2.46111,-6.99647 6.125,-8.65039 z"
         style="fill:#000000;fill-opacity:1;stroke:none;stroke-width:0.99999994px;stroke-linecap:butt;stroke-linejoin:miter;stroke-opacity:0.33953486"
         inkscape:connector-curvature="0" />
      <g
         style="fill:#000000;fill-opacity:1"
         id="g1006">
        <path
           style="fill:#000000;fill-opacity:1;stroke:none;stroke-width:0.26458332px;stroke-linecap:butt;stroke-linejoin:miter;stroke-opacity:1"
           d="m 96.430485,163.12555 h 0.992075 v -1.48828 c 0,0 -0.22643,-0.26242 -0.398534,-0.24805 -0.302343,0.21412 -0.528327,0.52157 -0.617165,0.83863 -0.08884,0.31706 0.02362,0.8977 0.02362,0.8977 z"
           id="path844"
           inkscape:connector-curvature="0"
           sodipodi:nodetypes="cccczcc" />
        <path
           sodipodi:nodetypes="cccczcc"
           inkscape:connector-curvature="0"
           id="path848"
           d="m 95.323017,163.05038 h 0.763196 v -1.14492 c 0,0 -0.04056,-0.54432 -0.172954,-0.53327 -0.23259,0.16473 -0.540073,0.74368 -0.608415,0.9876 -0.06834,0.24391 0.01817,0.69059 0.01817,0.69059 z"
           style="fill:#000000;fill-opacity:1;stroke:none;stroke-width:0.20354192px;stroke-linecap:butt;stroke-linejoin:miter;stroke-opacity:1" />
        <path
           style="fill:#000000;fill-opacity:1;stroke:none;stroke-width:0.18478629px;stroke-linecap:butt;stroke-linejoin:miter;stroke-opacity:1"
           d="m 94.379757,162.89169 h 0.629025 v -1.14492 c 0,0 -0.175417,-0.49421 -0.284535,-0.48316 -0.1917,0.16473 -0.30314,0.69357 -0.359468,0.93749 -0.05632,0.24391 0.01498,0.69059 0.01498,0.69059 z"
           id="path850"
           inkscape:connector-curvature="0"
           sodipodi:nodetypes="cccczcc" />
        <path
           sodipodi:nodetypes="cccczcc"
           inkscape:connector-curvature="0"
           id="path852"
           d="m 93.721469,162.66618 h 0.368574 v -1.02159 c 0,0 -0.102785,-0.44097 -0.166722,-0.43111 -0.112325,0.14698 -0.177623,0.61885 -0.210628,0.8365 -0.033,0.21764 0.0088,0.6162 0.0088,0.6162 z"
           style="fill:#000000;fill-opacity:1;stroke:none;stroke-width:0.13361305px;stroke-linecap:butt;stroke-linejoin:miter;stroke-opacity:1" />
        <path
           style="fill:#000000;fill-opacity:1;stroke:none;stroke-width:0.11146051px;stroke-linecap:butt;stroke-linejoin:miter;stroke-opacity:1"
           d="m 93.241258,162.41561 h 0.297541 v -0.88064 c 0,0 -0.08298,-0.38013 -0.134591,-0.37163 -0.09068,0.1267 -0.143391,0.53347 -0.170035,0.72109 -0.02664,0.18761 0.0071,0.53118 0.0071,0.53118 z"
           id="path854"
           inkscape:connector-curvature="0"
           sodipodi:nodetypes="cccczcc" />
        <path
           sodipodi:nodetypes="cccczcc"
           inkscape:connector-curvature="0"
           id="path856"
           d="m 92.820891,162.2068 h 0.250186 v -0.79255 c 0,0 -0.06977,-0.3421 -0.11317,-0.33445 -0.07625,0.11402 -0.120569,0.4801 -0.142973,0.64896 -0.0224,0.16884 0.006,0.47804 0.006,0.47804 z"
           style="fill:#000000;fill-opacity:1;stroke:none;stroke-width:0.09695989px;stroke-linecap:butt;stroke-linejoin:miter;stroke-opacity:1" />
        <path
           style="fill:#000000;fill-opacity:1;stroke:none;stroke-width:0.07735537px;stroke-linecap:butt;stroke-linejoin:miter;stroke-opacity:1"
           d="m 92.560044,161.84898 h 0.20283 v -0.62224 c 0,0 -0.05656,-0.26858 -0.09175,-0.26258 -0.06182,0.0895 -0.09775,0.37694 -0.11591,0.50951 -0.01816,0.13255 0.0049,0.37531 0.0049,0.37531 z"
           id="path858"
           inkscape:connector-curvature="0"
           sodipodi:nodetypes="cccczcc" />
        <path
           style="fill:#000000;fill-opacity:1;stroke:none;stroke-width:0.26458332px;stroke-linecap:butt;stroke-linejoin:miter;stroke-opacity:1"
           d="m 98.785053,163.12555 h -0.992076 v -1.48828 c 0,0 0.22643,-0.26242 0.398534,-0.24805 0.302344,0.21412 0.528328,0.52157 0.617166,0.83863 0.08884,0.31706 -0.02362,0.8977 -0.02362,0.8977 z"
           id="path876"
           inkscape:connector-curvature="0"
           sodipodi:nodetypes="cccczcc" />
        <path
           sodipodi:nodetypes="cccczcc"
           inkscape:connector-curvature="0"
           id="path878"
           d="m 99.892521,163.05038 h -0.763196 v -1.14492 c 0,0 0.04056,-0.54432 0.172954,-0.53327 0.23259,0.16473 0.540073,0.74368 0.608415,0.9876 0.06834,0.24391 -0.01817,0.69059 -0.01817,0.69059 z"
           style="fill:#000000;fill-opacity:1;stroke:none;stroke-width:0.20354192px;stroke-linecap:butt;stroke-linejoin:miter;stroke-opacity:1" />
        <path
           style="fill:#000000;fill-opacity:1;stroke:none;stroke-width:0.18478629px;stroke-linecap:butt;stroke-linejoin:miter;stroke-opacity:1"
           d="m 100.83577,162.89169 h -0.62903 v -1.14492 c 0,0 0.17542,-0.49421 0.28454,-0.48316 0.1917,0.16473 0.30314,0.69357 0.35947,0.93749 0.0563,0.24391 -0.015,0.69059 -0.015,0.69059 z"
           id="path880"
           inkscape:connector-curvature="0"
           sodipodi:nodetypes="cccczcc" />
        <path
           sodipodi:nodetypes="cccczcc"
           inkscape:connector-curvature="0"
           id="path882"
           d="m 101.49406,162.66618 h -0.36857 v -1.02159 c 0,0 0.10278,-0.44097 0.16672,-0.43111 0.11232,0.14698 0.17762,0.61885 0.21063,0.8365 0.033,0.21764 -0.009,0.6162 -0.009,0.6162 z"
           style="fill:#000000;fill-opacity:1;stroke:none;stroke-width:0.13361305px;stroke-linecap:butt;stroke-linejoin:miter;stroke-opacity:1" />
        <path
           style="fill:#000000;fill-opacity:1;stroke:none;stroke-width:0.11146051px;stroke-linecap:butt;stroke-linejoin:miter;stroke-opacity:1"
           d="m 101.97427,162.41561 h -0.29754 v -0.88064 c 0,0 0.083,-0.38013 0.13459,-0.37163 0.0907,0.1267 0.14339,0.53347 0.17004,0.72109 0.0266,0.18761 -0.007,0.53118 -0.007,0.53118 z"
           id="path884"
           inkscape:connector-curvature="0"
           sodipodi:nodetypes="cccczcc" />
        <path
           sodipodi:nodetypes="cccczcc"
           inkscape:connector-curvature="0"
           id="path886"
           d="m 102.39464,162.2068 h -0.25019 v -0.79255 c 0,0 0.0698,-0.3421 0.11317,-0.33445 0.0763,0.11402 0.12057,0.4801 0.14297,0.64896 0.0224,0.16884 -0.006,0.47804 -0.006,0.47804 z"
           style="fill:#000000;fill-opacity:1;stroke:none;stroke-width:0.09695989px;stroke-linecap:butt;stroke-linejoin:miter;stroke-opacity:1" />
        <path
           style="fill:#000000;fill-opacity:1;stroke:none;stroke-width:0.07735537px;stroke-linecap:butt;stroke-linejoin:miter;stroke-opacity:1"
           d="m 102.65548,161.84898 h -0.20283 v -0.62224 c 0,0 0.0566,-0.26858 0.0917,-0.26258 0.0618,0.0895 0.0978,0.37694 0.11591,0.50951 0.0182,0.13255 -0.005,0.37531 -0.005,0.37531 z"
           id="path888"
           inkscape:connector-curvature="0"
           sodipodi:nodetypes="cccczcc" />
      </g>
    </g>
  </g>
</svg>
