<?xml version="1.0" encoding="UTF-8" standalone="no"?>
<!-- Generator: Adobe Illustrator 24.1.0, SVG Export Plug-In . SVG Version: 6.00 Build 0)  -->

<svg
   xmlns:dc="http://purl.org/dc/elements/1.1/"
   xmlns:cc="http://creativecommons.org/ns#"
   xmlns:rdf="http://www.w3.org/1999/02/22-rdf-syntax-ns#"
   xmlns:svg="http://www.w3.org/2000/svg"
   xmlns="http://www.w3.org/2000/svg"
   xmlns:sodipodi="http://sodipodi.sourceforge.net/DTD/sodipodi-0.dtd"
   xmlns:inkscape="http://www.inkscape.org/namespaces/inkscape"
   version="1.1"
   id="Layer_2"
   x="0px"
   y="0px"
   viewBox="0 0 1159.3488 800"
   xml:space="preserve"
   sodipodi:docname="Soul Drinkers [Imperium, Adeptus Astartes, Space Marines, Imperial Fists, Chapter].svg"
   width="1159.3488"
   height="800"
   inkscape:version="0.92.3 (2405546, 2018-03-11)"><metadata
   id="metadata77"><rdf:RDF><cc:Work
       rdf:about=""><dc:format>image/svg+xml</dc:format><dc:type
         rdf:resource="http://purl.org/dc/dcmitype/StillImage" /><dc:title></dc:title></cc:Work></rdf:RDF></metadata><defs
   id="defs75" /><sodipodi:namedview
   pagecolor="#ffffff"
   bordercolor="#666666"
   borderopacity="1"
   objecttolerance="10"
   gridtolerance="10"
   guidetolerance="10"
   inkscape:pageopacity="0"
   inkscape:pageshadow="2"
   inkscape:window-width="1920"
   inkscape:window-height="1017"
   id="namedview73"
   showgrid="false"
   fit-margin-top="0"
   fit-margin-left="0"
   fit-margin-right="0"
   fit-margin-bottom="0"
   inkscape:pagecheckerboard="true"
   inkscape:zoom="0.236"
   inkscape:cx="-41.312373"
   inkscape:cy="439.00001"
   inkscape:window-x="-8"
   inkscape:window-y="-8"
   inkscape:window-maximized="1"
   inkscape:current-layer="Layer_2" />
<g
   id="g70"
   transform="matrix(1.1949216,0,0,1.1949216,-16.45407,-322.03137)">
	<path
   d="m 372.28,892.22 c 8.07,-4.84 14.52,-8.07 20.97,-16.13 l -12.91,-43.56 c -82.18,12.05 -153.79,37.35 -216.18,74.21 79.59,-12.37 154.07,-21.24 208.12,-14.52 z"
   id="path2"
   inkscape:connector-curvature="0" />
	<path
   d="M 320.66,622.8 C 307,699.33 303.45,769.44 310.98,832.52 L 375.51,818 c -17.75,-45.17 -40,-120.76 -54.85,-195.2 z"
   id="path4"
   inkscape:connector-curvature="0" />
	<path
   d="M 293.23,811.55 278.71,756.7 c -72.07,12.05 -141.68,28.81 -208.11,51.62 76.56,-4.5 150.93,-3.8 222.63,3.23 z"
   id="path6"
   inkscape:connector-curvature="0" />
	<path
   d="m 267.42,572.79 c -24.91,55.99 -43.04,119.98 -46.78,183.91 20.97,-4.84 40.33,-8.07 54.85,-9.68 -7.35,-53.49 -7.63,-115.58 -8.07,-174.23 z"
   id="path8"
   inkscape:connector-curvature="0" />
	<path
   d="m 209.79,682.62 c -58.65,-2.09 -116.12,-0.08 -172.06,7.2 60.97,8.75 119.39,21.24 174.68,38.29 z"
   id="path10"
   inkscape:connector-curvature="0" />
	<path
   d="m 208.81,674.48 c 2.81,-43.28 12.56,-92.18 21.63,-138.41 -28.6,40.06 -53.14,87.5 -66.35,137.22 17.28,-0.44 33.03,0.13 44.72,1.19 z"
   id="path12"
   inkscape:connector-curvature="0" />
	<path
   d="M 159.45,607.74 C 110.5,596.87 61.91,589.62 13.77,587.04 c 49.87,16.83 97,36.41 140.8,59.33 z"
   id="path14"
   inkscape:connector-curvature="0" />
	<path
   d="m 159.89,600.75 c 9.09,-35.92 24.88,-75.49 39.69,-112.92 -30.25,29.21 -58.25,65.25 -77.08,104.96 14.59,2.32 27.74,5.25 37.39,7.96 z"
   id="path16"
   inkscape:connector-curvature="0" />
	<path
   d="M 129.95,535.8 C 92.74,520.37 55.31,507.86 17.59,499.11 c 37.1,20.27 71.66,42.33 103.12,66.57 z"
   id="path18"
   inkscape:connector-curvature="0" />
	<path
   d="m 102.8,518.83 c 11.22,3.87 21.21,8.02 28.47,11.51 12.2,-27.15 30.21,-56.25 47.15,-83.8 -28.01,18.89 -55.19,43.5 -75.62,72.29 z"
   id="path20"
   inkscape:connector-curvature="0" />
	<path
   d="m 102.21,495.77 11.97,-22.58 C 86.66,455.14 58.51,439.41 29.56,426.64 c 26.7,21.92 51.08,44.88 72.65,69.13 z"
   id="path22"
   inkscape:connector-curvature="0" />
	<path
   d="m 94.97,455.43 c 8.42,4.81 15.81,9.66 21.1,13.57 13.93,-19.94 32.81,-40.56 50.6,-60.1 -25.36,10.91 -50.92,26.53 -71.7,46.53 z"
   id="path24"
   inkscape:connector-curvature="0" />
	<path
   d="m 114.49,417.87 c -23.52,-20.1 -47.9,-38.12 -73.38,-53.47 22.29,23.61 42.3,47.93 59.53,73.1 z"
   id="path26"
   inkscape:connector-curvature="0" />
	<path
   d="m 171.08,364.16 c -24.94,7.15 -50.63,18.68 -72.4,34.87 7.28,5.49 13.59,10.89 18.07,15.16 15.36,-16.94 35.42,-33.92 54.33,-50.03 z"
   id="path28"
   inkscape:connector-curvature="0" />
	<path
   d="m 520.37,751.86 h 12.39 c 5.32,0 9.68,-4.36 9.68,-9.68 v -6.45 c 0,-5.32 -4.36,-9.68 -9.68,-9.68 v -4.84 c 5.32,0 9.68,-4.36 9.68,-9.68 v -12.91 c 0,-4.19 -2.71,-7.77 -6.45,-9.11 v -10.25 h 9.68 c 5.32,0 9.68,-4.36 9.68,-9.68 v -9.68 c 0,-5.32 -4.36,-9.68 -9.68,-9.68 h -3.19 v -2.19 C 646.36,629.68 724.74,547 724.74,447.76 c 0,-0.27 -0.01,-0.54 -0.01,-0.81 h 16.95 v -24.2 H 256.09 v 24.2 h 16.95 c 0,0.27 -0.01,0.54 -0.01,0.81 0,99.25 78.42,181.95 182.33,200.28 v 2.18 h -3.26 c -5.32,0 -9.68,4.36 -9.68,9.68 v 9.68 c 0,5.32 4.36,9.68 9.68,9.68 h 9.68 v 10.25 c -3.75,1.34 -6.45,4.92 -6.45,9.11 v 12.91 c 0,5.32 4.36,9.68 9.68,9.68 v 4.84 c -5.32,0 -9.68,4.36 -9.68,9.68 v 6.45 c 0,5.32 4.36,9.68 9.68,9.68 H 477.4 C 452.77,868.8 375,916.43 298.84,926.09 V 939 H 498.88 698.92 V 926.09 C 622.78,916.43 545.01,868.8 520.37,751.86 Z"
   id="path30"
   inkscape:connector-curvature="0" />
	<path
   d="m 604.52,876.11 c 6.45,8.07 12.91,11.29 20.97,16.13 54.05,-6.72 128.53,2.15 208.11,14.52 -62.39,-36.86 -134,-62.16 -216.18,-74.21 z"
   id="path32"
   inkscape:connector-curvature="0" />
	<path
   d="m 686.8,832.55 c 7.53,-63.08 3.98,-133.19 -9.68,-209.72 -14.85,74.44 -37.1,150.03 -54.85,195.2 z"
   id="path34"
   inkscape:connector-curvature="0" />
	<path
   d="m 704.55,811.58 c 71.7,-7.03 146.07,-7.73 222.63,-3.23 -66.43,-22.81 -136.04,-39.57 -208.11,-51.62 z"
   id="path36"
   inkscape:connector-curvature="0" />
	<path
   d="m 722.29,747.05 c 14.52,1.61 33.88,4.84 54.85,9.68 -3.74,-63.94 -21.87,-127.92 -46.78,-183.91 -0.44,58.65 -0.72,120.73 -8.07,174.23 z"
   id="path38"
   inkscape:connector-curvature="0" />
	<path
   d="m 787.98,682.64 -2.62,45.5 c 55.3,-17.05 113.71,-29.54 174.68,-38.29 -55.94,-7.29 -113.4,-9.3 -172.06,-7.21 z"
   id="path40"
   inkscape:connector-curvature="0" />
	<path
   d="m 833.69,673.32 c -13.21,-49.71 -37.76,-97.15 -66.35,-137.22 9.07,46.23 18.82,95.13 21.63,138.41 11.68,-1.06 27.44,-1.63 44.72,-1.19 z"
   id="path42"
   inkscape:connector-curvature="0" />
	<path
   d="m 843.2,646.39 c 43.8,-22.92 90.94,-42.5 140.8,-59.33 -48.13,2.58 -96.72,9.82 -145.68,20.7 z"
   id="path44"
   inkscape:connector-curvature="0" />
	<path
   d="m 875.27,592.82 c -18.83,-39.71 -46.82,-75.75 -77.08,-104.96 14.81,37.43 30.6,77 39.69,112.92 9.66,-2.71 22.8,-5.64 37.39,-7.96 z"
   id="path46"
   inkscape:connector-curvature="0" />
	<path
   d="m 877.07,565.71 c 31.46,-24.24 66.02,-46.3 103.12,-66.57 -37.72,8.75 -75.15,21.26 -112.36,36.69 z"
   id="path48"
   inkscape:connector-curvature="0" />
	<path
   d="m 894.98,518.86 c -20.43,-28.79 -47.61,-53.4 -75.61,-72.29 16.93,27.54 34.95,56.65 47.15,83.8 7.25,-3.5 17.24,-7.65 28.46,-11.51 z"
   id="path50"
   inkscape:connector-curvature="0" />
	<path
   d="m 895.57,495.8 c 21.57,-24.25 45.95,-47.21 72.65,-69.13 -28.95,12.76 -57.09,28.5 -84.62,46.55 z"
   id="path52"
   inkscape:connector-curvature="0" />
	<path
   d="m 881.71,469.03 c 5.3,-3.91 12.69,-8.76 21.1,-13.57 -20.78,-20 -46.34,-35.62 -71.7,-46.53 17.79,19.54 36.67,40.16 50.6,60.1 z"
   id="path54"
   inkscape:connector-curvature="0" />
	<path
   d="m 897.13,437.53 c 17.23,-25.18 37.24,-49.49 59.53,-73.1 -25.48,15.34 -49.86,33.37 -73.38,53.47 z"
   id="path56"
   inkscape:connector-curvature="0" />
	<path
   d="m 881.03,414.21 c 4.47,-4.27 10.79,-9.67 18.07,-15.16 -21.76,-16.18 -47.45,-27.71 -72.4,-34.87 18.91,16.11 38.97,33.1 54.33,50.03 z"
   id="path58"
   inkscape:connector-curvature="0" />
	<polygon
   points="275.49,364.68 275.49,414.69 328.72,414.69 "
   id="polygon60" />
	<polygon
   points="381.96,335.64 375.51,414.69 431.97,414.69 "
   id="polygon62" />
	<polygon
   points="498.11,414.69 535.22,414.69 498.11,269.5 461.01,414.69 "
   id="polygon64" />
	<polygon
   points="722.56,364.2 669.32,414.21 722.56,414.21 "
   id="polygon66" />
	<polygon
   points="616.09,335.16 566.07,414.21 622.54,414.21 "
   id="polygon68" />
</g>
</svg>