<?xml version="1.0" encoding="UTF-8" standalone="no"?>
<!-- Generator: Adobe Illustrator 24.1.0, SVG Export Plug-In . SVG Version: 6.00 Build 0)  -->

<svg
   xmlns:dc="http://purl.org/dc/elements/1.1/"
   xmlns:cc="http://creativecommons.org/ns#"
   xmlns:rdf="http://www.w3.org/1999/02/22-rdf-syntax-ns#"
   xmlns:svg="http://www.w3.org/2000/svg"
   xmlns="http://www.w3.org/2000/svg"
   xmlns:sodipodi="http://sodipodi.sourceforge.net/DTD/sodipodi-0.dtd"
   xmlns:inkscape="http://www.inkscape.org/namespaces/inkscape"
   version="1.1"
   id="Layer_3"
   x="0px"
   y="0px"
   viewBox="0 0 930.82727 800"
   xml:space="preserve"
   sodipodi:docname="Star Dragons [Imperium, Adeptus Astartes, Space Marines, Chapter].svg"
   width="930.82727"
   height="800"
   inkscape:version="0.92.3 (2405546, 2018-03-11)"><metadata
   id="metadata9"><rdf:RDF><cc:Work
       rdf:about=""><dc:format>image/svg+xml</dc:format><dc:type
         rdf:resource="http://purl.org/dc/dcmitype/StillImage" /><dc:title></dc:title></cc:Work></rdf:RDF></metadata><defs
   id="defs7" /><sodipodi:namedview
   pagecolor="#ffffff"
   bordercolor="#666666"
   borderopacity="1"
   objecttolerance="10"
   gridtolerance="10"
   guidetolerance="10"
   inkscape:pageopacity="0"
   inkscape:pageshadow="2"
   inkscape:window-width="1920"
   inkscape:window-height="1017"
   id="namedview5"
   showgrid="false"
   fit-margin-top="0"
   fit-margin-left="0"
   fit-margin-right="0"
   fit-margin-bottom="0"
   inkscape:pagecheckerboard="true"
   inkscape:zoom="0.236"
   inkscape:cx="-82.542373"
   inkscape:cy="465.06"
   inkscape:window-x="-8"
   inkscape:window-y="-8"
   inkscape:window-maximized="1"
   inkscape:current-layer="Layer_3" />
<path
   d="M 930.82726,0 C 826.49278,47.77906 723.4369,83.77445 624.28845,85.98389 L 590.6457,97.19473 c -1.55479,-16.75489 -11.24153,-29.67395 -28.03734,-39.24818 1.00243,63.82816 -130.83749,61.6801 -203.73865,63.55198 -41.12006,5.60542 -42.99195,-3.73354 -39.24818,-35.51464 -46.72548,24.3038 -64.81012,59.665 -57.94655,84.11201 -65.39317,5.46221 -140.18668,28.03733 -143.92022,33.64275 -7.4773,-7.4773 -46.61296,4.3575 -74.762815,13.08273 -11.937093,4.95077 -26.922389,4.62345 -42.991945,0 1.17632,20.91804 4.060862,38.64467 13.082726,44.86383 5.380386,55.78826 25.316456,100.10996 67.285514,127.10395 -14.95461,-50.46925 11.21084,-42.99195 50.46925,-20.56003 0,-37.38653 14.95461,-41.12006 48.59736,-5.60542 5.60543,-31.77088 24.3038,-31.77088 57.94656,11.21084 v -31.77088 c 36.76256,-13.16455 89.71743,-7.4773 95.32285,18.68815 1.64685,50.56131 -36.47616,79.63176 -80.36824,104.67204 -16.85718,5.09398 -41.30418,-10.33116 -67.28551,-29.90922 28.03733,59.80821 -9.34919,85.98389 -63.55198,24.3038 3.23232,86.8022 53.87546,121.59059 115.88288,143.92021 -1.87188,-87.84554 95.32285,-119.62664 170.09589,-123.36018 7.47731,-35.51464 22.43192,-52.33091 41.12007,-54.20279 22.64672,2.04578 31.77087,7.47731 31.77087,61.68009 0,54.20279 -143.92022,134.58126 -143.92022,134.58126 C 280.29152,677.04897 249.28781,736.92878 233.64787,800 l 480.36824,-5.60542 c 7.47731,-52.33091 -20.56003,-151.39752 -28.03733,-186.91216 -5.60543,-39.24818 13.08272,-50.46925 44.86382,-29.90922 -9.33896,-39.60619 -15.47628,-75.21289 -18.68814,-104.67204 -8.39791,-40.79273 5.60542,-46.72548 54.20278,-16.82649 -7.72279,-44.73085 -33.53024,-89.62537 -65.42386,-134.58125 1.90257,-25.0812 27.61796,-19.1996 57.94656,-5.60543 -16.82649,-42.99194 -67.28551,-69.15739 -72.90116,-78.50658 2.42424,-18.21762 16.82649,-28.03734 42.99194,-29.90922 -10.29024,-14.39202 -7.13975,-29.84785 -3.73354,-42.99194 C 803.02775,151.66347 866.30354,89.28781 930.82726,0 Z M 57.49648,254.71935 C 51.00115,252.86792 45.47756,247.53868 40.567702,240.04092 57.38397,236.18463 73.88314,232.63521 83.3653,236.01074 76.96203,243.5085 69.47449,250.3823 57.49648,254.71935 Z m 280.8132,-41.64174 c -17.05153,1.04335 -33.56093,1.71845 -41.12006,-3.73354 8.7866,-14.23858 16.54008,-19.51668 37.38652,-26.16545 h 31.77087 c -6.80219,11.00627 -14.46362,21.67498 -28.03733,29.89899 z"
   id="path2"
   inkscape:connector-curvature="0"
   style="stroke-width:1.02288711" />
</svg>