<?xml version="1.0" encoding="UTF-8" standalone="no"?>
<!-- Created with Inkscape (http://www.inkscape.org/) -->

<svg
   xmlns:dc="http://purl.org/dc/elements/1.1/"
   xmlns:cc="http://creativecommons.org/ns#"
   xmlns:rdf="http://www.w3.org/1999/02/22-rdf-syntax-ns#"
   xmlns:svg="http://www.w3.org/2000/svg"
   xmlns="http://www.w3.org/2000/svg"
   xmlns:sodipodi="http://sodipodi.sourceforge.net/DTD/sodipodi-0.dtd"
   xmlns:inkscape="http://www.inkscape.org/namespaces/inkscape"
   width="388.73688"
   height="800"
   viewBox="0 0 102.8533 211.66667"
   version="1.1"
   id="svg8"
   inkscape:version="0.92.3 (2405546, 2018-03-11)"
   sodipodi:docname="Szarekhan [Yngir, Necrontyr, Necrons, Dynasty].svg">
  <defs
     id="defs2" />
  <sodipodi:namedview
     id="base"
     pagecolor="#ffffff"
     bordercolor="#666666"
     borderopacity="1.0"
     inkscape:pageopacity="0.0"
     inkscape:pageshadow="2"
     inkscape:zoom="0.44065723"
     inkscape:cx="181.45509"
     inkscape:cy="439.56106"
     inkscape:document-units="px"
     inkscape:current-layer="layer1"
     showgrid="false"
     inkscape:window-width="1920"
     inkscape:window-height="1017"
     inkscape:window-x="-8"
     inkscape:window-y="-8"
     inkscape:window-maximized="1"
     units="px"
     inkscape:snap-global="false"
     fit-margin-top="0"
     fit-margin-left="0"
     fit-margin-right="0"
     fit-margin-bottom="0"
     inkscape:pagecheckerboard="true" />
  <metadata
     id="metadata5">
    <rdf:RDF>
      <cc:Work
         rdf:about="">
        <dc:format>image/svg+xml</dc:format>
        <dc:type
           rdf:resource="http://purl.org/dc/dcmitype/StillImage" />
        <dc:title></dc:title>
      </cc:Work>
    </rdf:RDF>
  </metadata>
  <g
     inkscape:label="Layer 1"
     inkscape:groupmode="layer"
     id="layer1"
     transform="translate(-81.635858,3.3021307)">
    <g
       id="g911">
      <path
         id="path831"
         d="m 114.74321,-3.3021307 a 18.362379,18.362379 0 0 0 -0.0433,1.2114849 18.362379,18.362379 0 0 0 15.66571,18.1457248 v 9.966233 a 31.0176,31.0176 0 0 0 -17.93036,7.781234 l -14.2084,-14.2084 -3.814406,3.814411 14.309676,14.30968 A 31.0176,31.0176 0 0 0 102.2281,53.839245 H 81.635858 v 5.394651 h 20.526412 a 31.0176,31.0176 0 0 0 5.94139,15.974488 l 3.55775,-3.936343 a 25.803045,25.803045 0 0 1 -4.40147,-14.376546 25.803045,25.803045 0 0 1 25.80208,-25.803055 25.803045,25.803045 0 0 1 25.80305,25.803055 25.803045,25.803045 0 0 1 -4.3936,14.385397 l 3.56267,3.942243 a 31.0176,31.0176 0 0 0 5.95024,-15.989239 h 20.50478 v -5.394651 h -20.5628 A 31.0176,31.0176 0 0 0 157.3989,37.722169 l 14.31362,-14.313612 -3.81441,-3.814411 -14.19955,14.199549 a 31.0176,31.0176 0 0 0 -17.93922,-7.754681 v -9.989835 a 18.362379,18.362379 0 0 0 15.66572,-18.1398248 18.362379,18.362379 0 0 0 -0.06,-1.2114849 h -5.2914 a 13.078073,13.078073 0 0 1 0.0669,1.2114849 13.078073,13.078073 0 0 1 -10.3812,12.7815598 V -3.3021307 h -5.39367 V 10.701733 a 13.078073,13.078073 0 0 1 -10.3812,-12.7923788 13.078073,13.078073 0 0 1 0.06,-1.2114849 z"
         style="opacity:1;fill:#000000;fill-opacity:1;stroke:none;stroke-width:0.26506221;stroke-linecap:round;stroke-linejoin:round;stroke-miterlimit:4;stroke-dasharray:none;stroke-opacity:1;paint-order:normal"
         inkscape:connector-curvature="0" />
      <path
         id="path826"
         d="m 133.06298,35.093681 a 21.802417,21.802417 0 0 0 -21.80279,21.801814 21.802417,21.802417 0 0 0 8.51481,17.242024 l -28.963535,45.461171 4.549952,2.8989 29.071703,-45.635213 a 21.802417,21.802417 0 0 0 5.93254,1.641205 V 208.36454 h 5.39366 V 78.51047 a 21.802417,21.802417 0 0 0 5.94139,-1.633341 l 29.06286,45.620461 4.54995,-2.8989 -28.9655,-45.46609 A 21.802417,21.802417 0 0 0 154.8648,56.895495 21.802417,21.802417 0 0 0 133.06298,35.093681 Z m 0,5.304181 a 16.497956,16.497956 0 0 1 16.49764,16.497633 16.497956,16.497956 0 0 1 -16.49764,16.498614 16.497956,16.497956 0 0 1 -16.49762,-16.498614 16.497956,16.497956 0 0 1 16.49762,-16.497633 z"
         style="opacity:1;fill:#000000;fill-opacity:1;stroke:none;stroke-width:0.05160266;stroke-linecap:round;stroke-linejoin:round;stroke-miterlimit:4;stroke-dasharray:none;stroke-opacity:1;paint-order:normal"
         inkscape:connector-curvature="0" />
    </g>
  </g>
</svg>
