<?xml version="1.0" encoding="UTF-8" standalone="no"?>
<svg
   xmlns:dc="http://purl.org/dc/elements/1.1/"
   xmlns:cc="http://creativecommons.org/ns#"
   xmlns:rdf="http://www.w3.org/1999/02/22-rdf-syntax-ns#"
   xmlns:svg="http://www.w3.org/2000/svg"
   xmlns="http://www.w3.org/2000/svg"
   xmlns:sodipodi="http://sodipodi.sourceforge.net/DTD/sodipodi-0.dtd"
   xmlns:inkscape="http://www.inkscape.org/namespaces/inkscape"
   version="1.1"
   id="图层_1"
   x="0px"
   y="0px"
   viewBox="0 0 528.00128 800"
   sodipodi:docname="Szarekhan Dark [Yngir, Necrontyr, Necrons, Dynasty].svg"
   width="528.00128"
   height="800"
   inkscape:version="0.92.3 (2405546, 2018-03-11)">
  <metadata
     id="metadata15">
    <rdf:RDF>
      <cc:Work
         rdf:about="">
        <dc:format>image/svg+xml</dc:format>
        <dc:type
           rdf:resource="http://purl.org/dc/dcmitype/StillImage" />
        <dc:title></dc:title>
      </cc:Work>
    </rdf:RDF>
  </metadata>
  <defs
     id="defs13" />
  <sodipodi:namedview
     pagecolor="#ffffff"
     bordercolor="#666666"
     borderopacity="1"
     objecttolerance="10"
     gridtolerance="10"
     guidetolerance="10"
     inkscape:pageopacity="0"
     inkscape:pageshadow="2"
     inkscape:window-width="1920"
     inkscape:window-height="1017"
     id="namedview11"
     showgrid="false"
     fit-margin-top="0"
     fit-margin-left="0"
     fit-margin-right="0"
     fit-margin-bottom="0"
     inkscape:pagecheckerboard="true"
     inkscape:zoom="0.472"
     inkscape:cx="-324.95157"
     inkscape:cy="188.46325"
     inkscape:window-x="-8"
     inkscape:window-y="-8"
     inkscape:window-maximized="1"
     inkscape:current-layer="图层_1" />
  <path
     style="fill:#000000;fill-opacity:1;stroke-width:1.59999895"
     d="M 174.56093,0 0,290.72083 133.60091,800 H 394.40039 L 528.00131,290.72083 353.44036,0 Z m 28.42728,48.13563 h 17.65727 a 43.556077,43.556077 0 0 0 -0.19987,4.033429 43.556077,43.556077 0 0 0 34.57404,42.604859 V 48.13563 h 17.96199 V 94.737866 A 43.556077,43.556077 0 0 0 307.5557,52.169059 43.556077,43.556077 0 0 0 307.3329,48.13563 h 17.62449 a 61.155276,61.155276 0 0 1 0.19989,4.033429 61.155276,61.155276 0 0 1 -52.17564,60.416121 v 33.26998 a 103.30306,103.30306 0 0 1 59.74772,25.8257 l 47.29029,-47.29031 12.70316,12.70315 -47.67039,47.67037 a 103.30306,103.30306 0 0 1 21.73983,53.67956 h 68.48297 v 17.96528 h -68.28964 a 103.30306,103.30306 0 0 1 -19.81651,53.25032 l -11.86436,-13.1291 a 85.936162,85.936162 0 0 0 14.62976,-47.90956 85.936162,85.936162 0 0 0 -85.93382,-85.93708 85.936162,85.936162 0 0 0 -85.93381,85.93708 85.936162,85.936162 0 0 0 14.65924,47.88007 l -11.84797,13.10945 A 103.30306,103.30306 0 0 1 161.0878,256.40891 H 92.726071 v -17.96528 h 68.581259 a 103.30306,103.30306 0 0 1 21.62844,-53.69266 l -47.65727,-47.65727 12.70314,-12.70315 47.3198,47.31979 a 103.30306,103.30306 0 0 1 59.71821,-25.91415 v -33.19135 a 61.155276,61.155276 0 0 1 -52.17562,-60.435781 61.155276,61.155276 0 0 1 0.14411,-4.033429 z m 61.01572,127.87682 a 72.612206,72.612206 0 0 1 72.60812,72.60812 72.612206,72.612206 0 0 1 -28.365,57.40826 l 96.47117,151.42202 -15.15401,9.65596 -96.79226,-151.93644 a 72.612206,72.612206 0 0 1 -19.79031,5.43906 V 753.08322 H 255.01965 V 320.5865 a 72.612206,72.612206 0 0 1 -19.75753,-5.46528 l -96.82176,151.98559 -15.154,-9.65596 96.46134,-151.40563 a 72.612206,72.612206 0 0 1 -28.35846,-57.42465 72.612206,72.612206 0 0 1 72.61469,-72.60812 z m 0,17.66381 a 54.945879,54.945879 0 0 0 -54.9443,54.94431 54.945879,54.945879 0 0 0 54.9443,54.94757 54.945879,54.945879 0 0 0 54.94429,-54.94757 54.945879,54.945879 0 0 0 -54.94429,-54.94431 z"
     id="path6"
     inkscape:connector-curvature="0" />
</svg>
