<?xml version="1.0" encoding="UTF-8" standalone="no"?>
<!-- Created with Inkscape (http://www.inkscape.org/) -->

<svg
   xmlns:dc="http://purl.org/dc/elements/1.1/"
   xmlns:cc="http://creativecommons.org/ns#"
   xmlns:rdf="http://www.w3.org/1999/02/22-rdf-syntax-ns#"
   xmlns:svg="http://www.w3.org/2000/svg"
   xmlns="http://www.w3.org/2000/svg"
   xmlns:sodipodi="http://sodipodi.sourceforge.net/DTD/sodipodi-0.dtd"
   xmlns:inkscape="http://www.inkscape.org/namespaces/inkscape"
   width="542.73419"
   height="800"
   viewBox="0 0 143.59842 211.66668"
   version="1.1"
   id="svg8"
   inkscape:version="0.92.3 (2405546, 2018-03-11)"
   sodipodi:docname="Talons of the Emperor [Imperium, Adeptus Custodes, Sisters of Silence].svg">
  <defs
     id="defs2" />
  <sodipodi:namedview
     id="base"
     pagecolor="#ffffff"
     bordercolor="#666666"
     borderopacity="1.0"
     inkscape:pageopacity="0.0"
     inkscape:pageshadow="2"
     inkscape:zoom="0.98994949"
     inkscape:cx="346.71457"
     inkscape:cy="417.18058"
     inkscape:document-units="px"
     inkscape:current-layer="layer1"
     showgrid="false"
     inkscape:window-width="1920"
     inkscape:window-height="1017"
     inkscape:window-x="-8"
     inkscape:window-y="-8"
     inkscape:window-maximized="1"
     inkscape:snap-global="true"
     units="px"
     fit-margin-top="0"
     fit-margin-left="0"
     fit-margin-right="0"
     fit-margin-bottom="0"
     inkscape:pagecheckerboard="true" />
  <metadata
     id="metadata5">
    <rdf:RDF>
      <cc:Work
         rdf:about="">
        <dc:format>image/svg+xml</dc:format>
        <dc:type
           rdf:resource="http://purl.org/dc/dcmitype/StillImage" />
        <dc:title></dc:title>
      </cc:Work>
    </rdf:RDF>
  </metadata>
  <g
     inkscape:label="Layer 1"
     inkscape:groupmode="layer"
     id="layer1"
     transform="translate(-82.719875,-16.043694)">
    <path
       style="fill:#000000;fill-opacity:0.94883722;stroke:none;stroke-width:0.73846459px;stroke-linecap:butt;stroke-linejoin:miter;stroke-opacity:1"
       d="m 149.85536,16.043694 -13.98615,10.256274 2.61204,48.675197 -1.86491,0.372129 -9.32453,-42.333339 -10.07169,7.833214 13.24188,37.484292 -1.11925,0.559601 -19.02266,-32.44919 -7.64571,7.273613 19.95444,30.770332 -1.11925,1.11923 -24.429926,-25.363078 -6.713973,10.256277 26.296269,21.261131 -0.74711,1.677439 -28.719344,-15.664984 -3.729843,13.427943 30.398217,10.256305 -0.18616,2.42451 -30.957825,-4.475493 0.745656,12.308683 29.466489,-0.18756 0.18616,1.67886 -29.278955,6.15433 3.170184,12.49476 27.414051,-9.1385 1.30533,2.42455 -25.735222,13.98753 5.035132,9.88421 23.68422,-16.97174 1.49134,1.30531 -21.445741,23.31212 8.019271,10.8159 19.76689,-25.73517 2.42453,3.91586 -27.97367,38.41747 11.56303,-0.74713 -16.410658,24.0578 31.329958,-32.07561 -11.00343,0.93173 21.44722,-20.88616 4.10194,6.90004 -0.37213,3.5438 -31.70351,33.56838 h 10.62988 l -12.68227,16.97027 25.17701,-21.25971 h -9.51061 l 16.5967,-13.61399 -7.45964,23.12461 5.78222,6.90004 8.76495,-12.68084 -6.15436,16.22458 13.42653,12.68084 13.42794,-12.68084 -6.15436,-16.22458 8.76495,12.68084 5.78078,-6.90004 -7.45965,-23.12461 16.59814,13.61399 h -9.51059 l 25.17557,21.25971 -12.68082,-16.97027 h 10.62986 l -31.70352,-33.56838 -0.37357,-3.5438 4.10343,-6.90004 21.44576,20.88616 -11.00199,-0.93173 31.32993,32.07561 -16.41063,-24.0578 11.56158,0.74713 -27.97366,-38.41747 2.42453,-3.91586 19.76836,25.73517 8.01926,-10.8159 -21.4472,-23.31212 1.49281,-1.30531 23.68418,16.97174 5.03516,-9.88421 -25.73524,-13.98753 1.30531,-2.42455 27.41404,9.1385 3.17022,-12.49476 -29.27897,-6.15433 0.18616,-1.67886 29.46502,0.18756 0.74713,-12.308683 -30.95783,4.475493 -0.18617,-2.42451 30.39676,-10.256305 -3.72985,-13.427943 -28.71934,15.664984 -0.74565,-1.677439 26.29483,-21.261131 -6.71256,-10.256277 -24.43135,25.363078 -1.11923,-1.11923 19.95588,-30.770332 -7.64717,-7.273613 -19.02124,32.44919 -1.11921,-0.559601 13.24041,-37.484292 -10.07025,-7.833214 -9.32454,42.333339 -1.86491,-0.372129 2.61059,-48.675197 -13.9847,-10.256274 2.42312,71.612313 4.47547,3.543768 c 9.1374,-6.842512 22.79602,21.884565 5.2212,34.128025 l -7.64575,-5.9683 c -0.39752,-2.13819 1.18957,-5.78285 3.35627,-5.59474 1.72508,0.14989 1.86494,4.84905 1.86494,4.84905 8.01907,-7.08662 3.37343,-9.82458 -4.66157,-15.4789 l -9.6981,8.951 -9.69671,-8.951 c -8.03497,5.65432 -12.68207,8.39228 -4.66299,15.4789 0,0 0.13982,-4.69922 1.86493,-4.84905 2.16668,-0.18811 3.75522,3.45655 3.35767,5.59474 l -7.64712,5.9683 c -17.57483,-12.24346 -3.91474,-40.970537 5.2226,-34.128025 l 4.4755,-3.543768 z"
       id="path826"
       inkscape:connector-curvature="0" />
  </g>
</svg>
