<?xml version="1.0" encoding="UTF-8" standalone="no"?>
<svg
   xmlns:dc="http://purl.org/dc/elements/1.1/"
   xmlns:cc="http://creativecommons.org/ns#"
   xmlns:rdf="http://www.w3.org/1999/02/22-rdf-syntax-ns#"
   xmlns:svg="http://www.w3.org/2000/svg"
   xmlns="http://www.w3.org/2000/svg"
   xmlns:sodipodi="http://sodipodi.sourceforge.net/DTD/sodipodi-0.dtd"
   xmlns:inkscape="http://www.inkscape.org/namespaces/inkscape"
   version="1.2"
   id="图层_1"
   x="0px"
   y="0px"
   viewBox="0 0 800 800"
   sodipodi:docname="Tash'var [T'au'va, Greater Good, T'au Empire, Sept].svg"
   width="800"
   height="800"
   inkscape:version="0.92.3 (2405546, 2018-03-11)">
  <metadata
     id="metadata21">
    <rdf:RDF>
      <cc:Work
         rdf:about="">
        <dc:format>image/svg+xml</dc:format>
        <dc:type
           rdf:resource="http://purl.org/dc/dcmitype/StillImage" />
        <dc:title></dc:title>
      </cc:Work>
    </rdf:RDF>
  </metadata>
  <defs
     id="defs19" />
  <sodipodi:namedview
     pagecolor="#ffffff"
     bordercolor="#666666"
     borderopacity="1"
     objecttolerance="10"
     gridtolerance="10"
     guidetolerance="10"
     inkscape:pageopacity="0"
     inkscape:pageshadow="2"
     inkscape:window-width="1920"
     inkscape:window-height="1017"
     id="namedview17"
     showgrid="false"
     fit-margin-top="0"
     fit-margin-left="0"
     fit-margin-right="0"
     fit-margin-bottom="0"
     inkscape:pagecheckerboard="true"
     inkscape:zoom="0.472"
     inkscape:cx="-13.771186"
     inkscape:cy="250"
     inkscape:window-x="-8"
     inkscape:window-y="-8"
     inkscape:window-maximized="1"
     inkscape:current-layer="图层_1" />
  <path
     d="M 400,0 C 179.04,0 0,179.04 0,400 0,620.96 179.04,800 400,800 620.96,800 800,620.96 800,400 800,179.04 620.96,0 400,0 Z m 0,776 C 192.32,776 24,607.68 24,400 24,192.32 192.32,24 400,24 607.68,24 776,192.32 776,400 776,607.68 607.68,776 400,776 Z"
     id="path2"
     inkscape:connector-curvature="0"
     style="stroke-width:1.60000002" />
  <circle
     cx="400"
     cy="192"
     r="112"
     id="circle4"
     style="stroke-width:1.60000002" />
  <g
     id="g14"
     transform="scale(1.6)">
    <path
       d="M 448.4,225 C 439.1,149.8 388,87.5 319,62.2 c 13.1,15.6 21,35.8 21,57.8 0,49.7 -40.3,90 -90,90 -49.7,0 -90,-40.3 -90,-90 0,-22 7.9,-42.1 21,-57.8 C 112,87.5 60.9,149.8 51.6,225 Z"
       id="path6"
       inkscape:connector-curvature="0" />
    <path
       d="m 64.5,325 c 5.8,14.2 13.1,27.6 21.8,40 h 327.3 c 8.7,-12.4 16,-25.8 21.8,-40 z"
       id="path8"
       inkscape:connector-curvature="0" />
    <path
       d="m 112.2,395 c 35.9,34.1 84.4,55 137.8,55 53.4,0 101.9,-20.9 137.8,-55 z"
       id="path10"
       inkscape:connector-curvature="0" />
    <path
       d="m 50.1,255 c 0.3,13.7 2.1,27.1 5,40 h 389.8 c 3,-12.9 4.7,-26.3 5,-40 z"
       id="path12"
       inkscape:connector-curvature="0" />
  </g>
</svg>
