<?xml version="1.0" encoding="UTF-8" standalone="no"?>
<svg
   xmlns:dc="http://purl.org/dc/elements/1.1/"
   xmlns:cc="http://creativecommons.org/ns#"
   xmlns:rdf="http://www.w3.org/1999/02/22-rdf-syntax-ns#"
   xmlns:svg="http://www.w3.org/2000/svg"
   xmlns="http://www.w3.org/2000/svg"
   xmlns:sodipodi="http://sodipodi.sourceforge.net/DTD/sodipodi-0.dtd"
   xmlns:inkscape="http://www.inkscape.org/namespaces/inkscape"
   sodipodi:docname="Titanicus Traitoris [Chaos, Dark Mechanicum].svg"
   inkscape:version="1.0 (4035a4fb49, 2020-05-01)"
   id="svg8"
   version="1.1"
   viewBox="0 0 211.66665 211.66667"
   height="800"
   width="799.99994">
  <defs
     id="defs2">
    <pattern
       id="EMFhbasepattern"
       patternUnits="userSpaceOnUse"
       width="6"
       height="6"
       x="0"
       y="0" />
  </defs>
  <sodipodi:namedview
     inkscape:window-maximized="1"
     inkscape:window-y="-9"
     inkscape:window-x="-9"
     inkscape:window-height="1001"
     inkscape:window-width="1920"
     inkscape:snap-global="true"
     units="px"
     showgrid="false"
     inkscape:document-rotation="0"
     inkscape:current-layer="layer1"
     inkscape:document-units="px"
     inkscape:cy="264.99606"
     inkscape:cx="588.60486"
     inkscape:zoom="0.97028304"
     inkscape:pageshadow="2"
     inkscape:pageopacity="0.0"
     borderopacity="1.0"
     bordercolor="#666666"
     pagecolor="#ffffff"
     id="base"
     showguides="false"
     inkscape:pagecheckerboard="true"
     fit-margin-top="0"
     fit-margin-left="0"
     fit-margin-right="0"
     fit-margin-bottom="0" />
  <metadata
     id="metadata5">
    <rdf:RDF>
      <cc:Work
         rdf:about="">
        <dc:format>image/svg+xml</dc:format>
        <dc:type
           rdf:resource="http://purl.org/dc/dcmitype/StillImage" />
        <dc:title />
      </cc:Work>
    </rdf:RDF>
  </metadata>
  <g
     id="layer1"
     inkscape:groupmode="layer"
     inkscape:label="Layer 1"
     transform="translate(-61.660147,-41.112045)">
    <path
       id="path866"
       style="fill:#000000;fill-opacity:1;stroke:none;stroke-width:1.04309;stroke-miterlimit:4;stroke-dasharray:none;stroke-opacity:1"
       d="m 160.4214,41.112048 -2.60757,15.127618 c -9.36124,0.998597 -18.51148,3.440302 -27.1257,7.238356 l -9.83467,-11.810831 -12.40132,7.159578 5.3052,14.405084 c -7.60732,5.545723 -14.310339,12.235618 -19.870965,19.832064 l -14.423517,-5.311327 -7.159562,12.40028 11.795475,9.8224 c -3.839485,8.66193 -6.30607,17.86917 -7.311022,27.29047 l -15.127602,2.60756 v 14.31914 l 15.147045,2.61166 c 1.017405,9.35895 3.477397,18.50401 7.292601,27.11036 l -11.796497,9.82342 7.159562,12.40029 14.422495,-5.31135 c 5.560852,7.59688 12.264227,14.28716 19.871987,19.83312 l -5.3052,14.40407 12.40132,7.15956 9.83467,-11.81186 c 8.61416,3.79843 17.7644,6.24047 27.1257,7.2394 l 2.60757,15.1276 h 14.31913 l 2.61166,-15.14704 c 9.35895,-1.01741 18.50402,-3.47742 27.11037,-7.29262 l 9.82342,11.79651 12.40028,-7.15958 -5.31135,-14.42249 c 7.59689,-5.56085 14.28716,-12.26423 19.83312,-19.87199 l 14.40407,5.30521 7.15956,-12.40131 -11.81186,-9.83469 c 3.77399,-8.5589 6.20912,-17.64735 7.21996,-26.94661 l 15.14704,-2.61166 V 139.8733 l -15.1276,-2.60756 c -0.99861,-9.36124 -3.4403,-18.51148 -7.23837,-27.12569 l 11.81083,-9.83572 -7.15956,-12.400282 -14.4051,5.305207 C 235.66126,85.601938 228.97136,78.898912 221.37491,73.338278 l 5.31135,-14.423501 -12.40028,-7.159578 -9.82241,11.795483 c -8.60667,-3.815303 -17.75208,-6.275288 -27.11138,-7.292599 l -2.61166,-15.146035 z m 7.21586,5.202862 c 2.3066,-5.9e-5 4.17648,1.869817 4.17642,4.176423 6e-5,2.306605 -1.86982,4.176481 -4.17642,4.176422 -2.30661,5.9e-5 -4.17649,-1.869817 -4.17643,-4.176422 -6e-5,-2.306606 1.86982,-4.176482 4.17643,-4.176423 z m -0.0491,0.863735 c -1.77014,0.02693 -3.19097,1.469665 -3.19089,3.240028 -4.4e-4,1.789771 1.45025,3.24092 3.24002,3.241038 1.78978,-1.18e-4 3.24047,-1.451267 3.24003,-3.241038 -1.2e-4,-1.789374 -1.45065,-3.239909 -3.24003,-3.240028 -0.0158,-1.19e-4 -0.0327,-1.19e-4 -0.0491,0 z M 119.44325,59.16549 c 1.47322,0.01782 2.82772,0.81177 3.56443,2.087696 1.15348,1.997669 0.46892,4.552176 -1.52893,5.70534 -1.99743,1.152788 -4.55117,0.468316 -5.70431,-1.528918 -1.15296,-1.997173 -0.46896,-4.550848 1.5279,-5.704329 0.65032,-0.375714 1.38992,-0.569096 2.14091,-0.559789 z m 96.3819,0.143378 c 0.7399,-0.004 1.46745,0.189719 2.10817,0.559789 1.99785,1.153164 2.6824,3.707671 1.52892,5.70534 -1.15316,1.997847 -3.70767,2.682418 -5.70534,1.528937 -1.99784,-1.153164 -2.68242,-3.707671 -1.52893,-5.70534 0.74237,-1.286323 2.11203,-2.081636 3.59718,-2.088726 z m -96.474,0.730694 c -0.56768,4.95e-4 -1.12528,0.150111 -1.61694,0.433917 -0.0141,0.0079 -0.028,0.01584 -0.042,0.02456 -1.5189,0.908491 -2.02783,2.867661 -1.14312,4.40052 0.89438,1.550107 2.87607,2.081616 4.42612,1.187127 1.54997,-0.895123 2.0806,-2.877404 1.18508,-4.427136 -0.57965,-1.003032 -1.6507,-1.620311 -2.80918,-1.618984 z m 96.53438,0.143378 c -1.15906,-0.0015 -2.23064,0.616249 -2.81021,1.619994 -0.89554,1.549751 -0.3649,3.532053 1.18509,4.427156 1.55027,0.895182 3.53273,0.363594 4.42714,-1.187127 0.89464,-1.549771 0.36363,-3.531379 -1.1861,-4.426106 -0.0139,-0.0079 -0.0285,-0.01584 -0.043,-0.02456 -0.48101,-0.267863 -1.02234,-0.408746 -1.57292,-0.40936 z m -48.46112,15.312822 h 0.0695 c 27.76891,-1.59e-4 53.02275,16.088905 64.75741,41.256538 7.01767,4.20262 14.40406,8.96471 22.21656,14.28945 -5.26214,2.95188 -8.8431,4.95827 -15.86851,8.89726 0.22962,2.32863 0.34472,4.66714 0.34486,7.00707 8e-5,39.46097 -31.98936,71.4504 -71.45032,71.45032 -39.46096,8e-5 -71.450408,-31.98935 -71.450321,-71.45032 -8.3e-5,-2.34231 0.11502,-4.68321 0.344878,-7.01424 -7.025579,-3.93701 -10.600613,-5.94211 -15.869548,-8.89215 7.811764,-5.32355 15.198657,-10.08441 22.217571,-14.28636 11.72373,-25.145256 36.94385,-41.230517 64.68783,-41.257568 z m 0.0695,2.920734 c -4.02616,-3.9e-5 -8.04447,0.354742 -12.00834,1.060206 2.55011,0.284063 5.72772,0.634052 7.71424,0.798244 1.42343,0.109118 2.88398,0.183183 4.3074,0.183183 1.42341,0 2.88398,-0.07426 4.30741,-0.183183 1.97828,-0.164964 5.14187,-0.513824 7.68764,-0.797214 -3.96383,-0.70582 -7.98216,-1.060939 -12.00835,-1.061236 z m -15.70478,1.823655 c -18.91954,4.454386 -35.05758,16.733314 -44.39626,33.779719 3.09264,-1.78171 6.11211,-3.44776 9.06305,-4.99922 8.78546,-11.82277 21.40296,-20.228767 35.69752,-23.782306 -0.1511,-2.08534 -0.28151,-3.897211 -0.36431,-4.998193 z m 31.43209,0.0059 c -0.0824,1.1032 -0.21313,2.911606 -0.36433,4.996133 14.28375,3.556272 26.89126,11.958031 35.67194,23.772096 2.95082,1.5519 5.97025,3.21988 9.06306,5.00227 C 218.25694,96.979446 202.12955,84.704894 183.22123,80.246092 Z M 84.013768,94.41785 c 0.739809,-0.004 1.467338,0.189124 2.108165,0.558758 1.997843,1.153164 2.682407,3.707671 1.52893,5.705342 -1.153162,1.99785 -3.707677,2.68242 -5.705342,1.52894 -1.997843,-1.15317 -2.682406,-3.707675 -1.528929,-5.705344 0.742627,-1.285928 2.11223,-2.080805 3.597176,-2.087696 z m 167.011482,0.248674 c 1.51741,-0.02594 2.92949,0.77335 3.68824,2.087696 1.15366,1.997391 0.46959,4.55182 -1.52789,5.70534 -1.99766,1.1535 -4.55219,0.46893 -5.70535,-1.52892 -1.15279,-1.99743 -0.4683,-4.551204 1.52893,-5.704328 0.61364,-0.354643 1.30744,-0.547292 2.01607,-0.559788 z M 83.914503,95.318419 c -1.137229,0.0198 -2.180892,0.634111 -2.749822,1.618984 -0.0083,0.01386 -0.01644,0.02852 -0.02458,0.04297 -0.86151,1.546463 -0.322454,3.498097 1.210654,4.383137 1.549735,0.89552 3.532023,0.3649 4.427142,-1.18507 0.89518,-1.550268 0.363594,-3.532728 -1.187119,-4.427138 -0.509159,-0.293668 -1.088608,-0.443324 -1.676296,-0.432907 z m 167.192617,0.248693 c -0.55066,0.0099 -1.08989,0.158429 -1.5668,0.433897 -1.55011,0.894391 -2.08162,2.876078 -1.18713,4.426131 0.89512,1.54998 2.87742,2.0806 4.42715,1.18506 1.54936,-0.89508 2.0799,-2.87659 1.18507,-4.426103 -0.008,-0.01386 -0.0158,-0.02812 -0.0246,-0.04198 -0.59465,-0.994557 -1.67513,-1.595854 -2.83374,-1.57702 z M 99.181283,141.49639 c -0.144606,1.8129 -0.216977,3.63083 -0.216957,5.44949 -9.9e-5,37.84788 30.681704,68.52969 68.529594,68.52959 37.84748,-4.5e-4 68.52867,-30.6821 68.52857,-68.52959 -2e-4,-1.81593 -0.0725,-3.63112 -0.21695,-5.44131 -2.07116,1.1612 -2.89368,1.6228 -4.78532,2.68331 0.04,0.91878 0.0602,1.83835 0.0604,2.758 -2.6e-4,33.86839 -26.54717,61.79274 -60.37224,63.5048 l -3.195,3.72306 -3.2001,-3.72102 c -33.83916,-1.69475 -60.40592,-29.62526 -60.40599,-63.50684 4e-5,-0.92272 0.0202,-1.84535 0.0604,-2.76721 -1.89221,-1.06053 -2.71481,-1.52134 -4.786344,-2.68228 z m -28.141923,1.41635 c 2.306592,-6e-5 4.17647,1.86982 4.176416,4.1764 6.4e-5,2.30661 -1.869816,4.17649 -4.176416,4.17643 -2.306595,6e-5 -4.176473,-1.86982 -4.17641,-4.17643 -5.3e-5,-2.30658 1.869821,-4.17646 4.17641,-4.1764 z m 192.9081,0 c 2.30658,-6e-5 4.17646,1.86982 4.1764,4.1764 6e-5,2.30659 -1.86982,4.17649 -4.1764,4.17643 -2.30659,6e-5 -4.17646,-1.86984 -4.1764,-4.17643 -6e-5,-2.30658 1.86981,-4.17646 4.1764,-4.1764 z m -192.980759,0.9364 c -1.770353,-8e-5 -3.213054,1.42075 -3.240019,3.19089 -1.24e-4,0.0158 -1.24e-4,0.0327 0,0.0491 1.21e-4,1.78936 1.450654,3.23991 3.240019,3.24003 1.789765,4.4e-4 3.240925,-1.45026 3.241046,-3.24003 -1.32e-4,-1.78975 -1.451289,-3.24044 -3.241046,-3.24 z m 193.053419,0 c -1.78975,-4.4e-4 -3.2409,1.45025 -3.24104,3.24 1.2e-4,1.78977 1.45127,3.24047 3.24104,3.24003 1.78935,-1.4e-4 3.23989,-1.45067 3.24001,-3.24003 1.2e-4,-0.0158 1.2e-4,-0.0327 0,-0.0491 -0.0269,-1.77014 -1.46967,-3.19097 -3.24001,-3.19089 z m -12.97542,47.02225 c 0.75099,-0.01 1.49059,0.18418 2.1409,0.55979 1.99748,1.15352 2.68155,3.70795 1.52789,5.70534 -1.1535,1.99686 -3.70715,2.68083 -5.70431,1.52789 -1.99723,-1.15313 -2.6817,-3.70688 -1.52893,-5.70431 0.73645,-1.27632 2.09102,-2.07005 3.56445,-2.08871 z m -166.99102,0.24868 c 1.48516,0.008 2.854815,0.8024 3.597183,2.08872 1.153477,1.99767 0.468913,4.55218 -1.52893,5.70534 -1.997665,1.15348 -4.552179,0.46891 -5.705341,-1.52894 -1.153477,-1.99766 -0.468914,-4.55217 1.528929,-5.70534 0.640724,-0.37005 1.368259,-0.56323 2.108159,-0.55978 z m 167.10869,0.72352 c -1.15869,-0.001 -2.22979,0.61659 -2.80918,1.62001 -0.89449,1.55005 -0.36298,3.53174 1.18713,4.42613 1.53287,0.88473 3.49204,0.37579 4.40054,-1.14312 0.008,-0.0139 0.0158,-0.0279 0.0246,-0.042 0.89483,-1.54951 0.36429,-3.53104 -1.18509,-4.42612 -0.49186,-0.2843 -1.04982,-0.4343 -1.61795,-0.43493 z m -167.244796,0.2497 c -0.550655,0.01 -1.089893,0.15843 -1.566798,0.43392 -1.533108,0.88504 -2.072164,2.83667 -1.210654,4.38313 0.0081,0.0139 0.01624,0.0287 0.02458,0.043 0.894736,1.54973 2.876341,2.08076 4.426117,1.18609 1.550726,-0.89441 2.082314,-2.87689 1.18712,-4.42715 -0.588686,-1.01906 -1.683634,-1.63881 -2.860344,-1.61899 z m 131.947406,34.13586 c 1.48495,0.006 2.85455,0.80176 3.59718,2.08769 1.15348,1.99767 0.46893,4.55218 -1.52891,5.70534 -1.99767,1.1535 -4.5522,0.46893 -5.70536,-1.52892 -1.15348,-1.99766 -0.46891,-4.55217 1.52893,-5.70534 0.64083,-0.36969 1.36835,-0.56254 2.10816,-0.55877 z m -96.52619,0.14337 c 0.75064,-0.01 1.48986,0.18418 2.13988,0.55979 1.99785,1.15317 2.68241,3.70767 1.52893,5.70534 -1.15351,1.99747 -3.70794,2.68157 -5.70534,1.52791 -1.99685,-1.15348 -2.68085,-3.70714 -1.5279,-5.70431 0.73645,-1.27632 2.091,-2.07007 3.56443,-2.08873 z m 96.48935,0.85556 c -0.55091,0.008 -1.0905,0.15764 -1.56781,0.43289 -1.54997,0.8951 -2.08061,2.8774 -1.18509,4.42713 0.88505,1.53312 2.83669,2.07217 4.38315,1.21066 0.0139,-0.008 0.0287,-0.0159 0.043,-0.0246 1.54973,-0.89475 2.08076,-2.87636 1.1861,-4.42613 -0.58825,-1.01913 -1.68278,-1.63924 -2.85933,-1.61999 z m -96.46991,0.14318 c -1.1589,-8.9e-4 -2.23005,0.61722 -2.80917,1.62104 -0.88472,1.53286 -0.37579,3.49203 1.14311,4.40052 0.0139,0.008 0.0279,0.0159 0.042,0.0246 1.54951,0.89483 3.53103,0.36429 4.42612,-1.18507 0.89553,-1.54973 0.3649,-3.53201 -1.18507,-4.42713 -0.49166,-0.28379 -1.04926,-0.43343 -1.61694,-0.43392 z m 48.27897,11.85176 c 2.30658,-5e-5 4.17648,1.86982 4.17642,4.17641 6e-5,2.3066 -1.86982,4.17648 -4.17642,4.17642 -2.30661,6e-5 -4.17649,-1.86982 -4.17643,-4.17642 -6e-5,-2.30659 1.86984,-4.17646 4.17643,-4.17641 z m -0.0501,1.00803 c -1.77014,0.0275 -3.19052,1.47067 -3.18986,3.24104 -8e-5,1.77036 1.42075,3.21305 3.19089,3.24002 0.0159,1.2e-4 0.0327,1.2e-4 0.0491,0 1.78937,-1.1e-4 3.2399,-1.45065 3.24002,-3.24002 4.4e-4,-1.78977 -1.45025,-3.24092 -3.24002,-3.24104 -0.0159,-1.4e-4 -0.0335,-1.4e-4 -0.0501,0 z"
       sodipodi:nodetypes="ccccccccccccccccccccccccccccccccccccccccccccccccccccccsccccssccccccccccccscccccssscccccsscscccccccccsccccsccccccccccccccccccccccccccccccsccscccscssccccccccccccscccccccccccccccccccccccccccccccccccsccsccssscccccsscccccccccccccccccccscscccsscccccscccccss" />
    <g
       transform="matrix(1.9803606,0,0,1.9803606,-54.681749,-224.74459)"
       style="fill:#000000;fill-opacity:1"
       id="g923">
      <path
         class="st0"
         d="m 114.84858,206.87035 1.25086,-14.46489 c -1.11142,0.11401 -2.58949,0.15174 -3.91582,0.15174 -1.32632,0 -2.80439,-0.0254 -3.91581,-0.15174 l 1.25086,14.46489 -9.42371,-3.12018 12.10097,14.07282 12.07718,-14.07282 z"
         id="path4"
         inkscape:connector-curvature="0"
         style="fill:#000000;fill-opacity:1;stroke-width:0.0820238" />
      <path
         class="st0"
         d="m 113.72485,156.50365 c -0.50527,0.0377 -1.02356,0.0632 -1.52882,0.0632 -0.50527,0 -1.02376,-0.0254 -1.52903,-0.0632 -1.25086,-0.10089 -3.94124,-0.41668 -4.08068,-0.41668 0.0509,0.63158 0.29037,3.8912 0.35352,4.73769 1.93248,-0.2149 3.70174,-0.30349 5.25527,-0.31579 1.55353,0.0123 3.30966,0.0886 5.25526,0.31579 0.0632,-0.84649 0.30349,-4.10529 0.35352,-4.73769 -0.1378,-8.2e-4 -2.829,0.31497 -4.07904,0.41668 z"
         id="path6"
         inkscape:connector-curvature="0"
         style="fill:#000000;fill-opacity:1;stroke-width:0.0820238"
         sodipodi:nodetypes="csccccccc" />
      <path
         class="st0"
         d="m 152.11526,179.38172 c -16.73777,-11.40787 -29.24476,-17.23156 -39.91933,-17.23156 -10.67458,0 -23.193867,5.82369 -39.932459,17.23074 6.429844,3.60002 19.365814,10.85175 19.365814,10.85175 0,0 -2.31143,-3.73947 -3.410549,-5.5202 7.996499,4.28246 15.992994,6.41754 23.977194,6.39211 7.98419,0.0123 15.98069,-2.12196 23.97719,-6.39211 -1.09912,1.78155 -3.41055,5.5202 -3.41055,5.5202 0,0 12.93515,-7.25091 19.35269,-10.85093 z m -39.91933,8.26144 c -6.75876,0 -20.768423,-2.93071 -25.846516,-9.08332 4.58595,-5.98773 14.300026,-10.66227 21.475466,-12.4184 -1.2402,6.32239 0.56432,12.47418 4.33332,19.15173 0.0123,-0.0123 0.0254,-0.0377 0.0377,-0.0755 0.0254,0.0377 0.0377,0.0632 0.0377,0.0755 3.9478,-7.00565 5.42423,-12.91136 4.33331,-19.15091 7.16314,1.75613 16.89034,6.42985 21.47547,12.4184 -5.07809,6.15179 -19.10088,9.0825 -25.84651,9.0825 z"
         id="path8"
         inkscape:connector-curvature="0"
         style="fill:#000000;fill-opacity:1;stroke-width:0.0820238" />
    </g>
    <path
       transform="matrix(0.26458334,0,0,0.26458334,61.660147,41.112045)"
       d="M 347.89453 152.18164 L 353.28516 201.47852 C 259.21709 229.43325 234.73409 248.45579 82.935547 339.88477 L 272.23047 447.63867 L 239.96484 395.15234 C 239.96484 395.15234 280.1831 411.88944 301.05664 417.95312 C 321.04411 423.75943 362.14648 430.85938 362.14648 430.85938 L 370.32422 534.11328 L 283.41602 503.56836 L 400.05273 639.52148 L 516.68945 503.56836 L 429.78125 534.11328 L 437.95898 430.85938 C 437.95898 430.85938 479.06136 423.75942 499.04883 417.95312 C 519.92236 411.88944 560.14062 395.15234 560.14062 395.15234 L 527.875 447.63867 L 717.16992 339.88477 C 565.3714 248.4558 540.88837 229.43324 446.82031 201.47852 L 452.21094 152.18164 C 436.01585 156.38591 418.22569 158.35258 400.05273 158.22461 C 381.87975 158.35258 364.08962 156.38591 347.89453 152.18164 z "
       style="fill:none;fill-opacity:0.40081;stroke:#000000;stroke-width:3.99999;stroke-linecap:butt;stroke-linejoin:miter;stroke-miterlimit:4;stroke-dasharray:none;stroke-opacity:1"
       id="path1021" />
  </g>
</svg>
