<?xml version="1.0" encoding="UTF-8" standalone="no"?>
<!-- Generator: Adobe Illustrator 23.0.2, SVG Export Plug-In . SVG Version: 6.00 Build 0)  -->

<svg
   xmlns:dc="http://purl.org/dc/elements/1.1/"
   xmlns:cc="http://creativecommons.org/ns#"
   xmlns:rdf="http://www.w3.org/1999/02/22-rdf-syntax-ns#"
   xmlns:svg="http://www.w3.org/2000/svg"
   xmlns="http://www.w3.org/2000/svg"
   xmlns:sodipodi="http://sodipodi.sourceforge.net/DTD/sodipodi-0.dtd"
   xmlns:inkscape="http://www.inkscape.org/namespaces/inkscape"
   version="1.1"
   id="Layer_2"
   x="0px"
   y="0px"
   viewBox="0 0 716.76251 800"
   xml:space="preserve"
   sodipodi:docname="Twisted Helix [Hive Mind, Tyranids, Genestealer Cults, Genestealers].svg"
   width="716.76251"
   height="800"
   inkscape:version="0.92.3 (2405546, 2018-03-11)"><metadata
   id="metadata9"><rdf:RDF><cc:Work
       rdf:about=""><dc:format>image/svg+xml</dc:format><dc:type
         rdf:resource="http://purl.org/dc/dcmitype/StillImage" /><dc:title></dc:title></cc:Work></rdf:RDF></metadata><defs
   id="defs7" /><sodipodi:namedview
   pagecolor="#ffffff"
   bordercolor="#666666"
   borderopacity="1"
   objecttolerance="10"
   gridtolerance="10"
   guidetolerance="10"
   inkscape:pageopacity="0"
   inkscape:pageshadow="2"
   inkscape:window-width="1920"
   inkscape:window-height="1017"
   id="namedview5"
   showgrid="false"
   fit-margin-top="0"
   fit-margin-left="0"
   fit-margin-right="0"
   fit-margin-bottom="0"
   inkscape:pagecheckerboard="true"
   inkscape:zoom="0.236"
   inkscape:cx="-126.54237"
   inkscape:cy="458"
   inkscape:window-x="-8"
   inkscape:window-y="-8"
   inkscape:window-maximized="1"
   inkscape:current-layer="Layer_2" />
<path
   d="m 487.67589,0 c 7.04235,5.20794 11.61495,13.56569 11.61495,22.99725 0,15.78488 -12.79613,28.58996 -28.58996,28.58996 -15.78488,0 -28.58997,-12.79613 -28.58997,-28.58996 0,-6.78285 2.37132,-13.01984 6.31754,-17.92354 -33.01045,9.43156 -57.6184,32.4646 -64.51758,73.0543 32.67041,-11.23018 42.88048,26.54974 19.40002,44.92964 l -44.92965,33.05519 -44.92964,-33.05519 c -23.48046,-18.3799 -13.2704,-56.15982 19.40001,-44.92964 -6.89917,-40.5897 -31.50712,-63.62274 -64.51757,-73.0543 3.94622,4.9037 6.31753,11.13174 6.31753,17.92354 0,15.78488 -12.79613,28.58996 -28.58996,28.58996 -15.79383,0 -28.58997,-12.79613 -28.58997,-28.58996 C 217.47164,13.56569 222.04425,5.20794 229.0866,0 140.68589,0.04474 25.10011,66.19986 0,148.58728 l 29.61008,13.2704 c 14.78266,17.78931 31.81136,33.04624 51.37245,45.44864 -1.52122,-3.97306 -2.36236,-8.27722 -2.36236,-12.77823 0,-19.74005 15.99964,-35.7397 35.73969,-35.7397 19.74005,0 35.73969,15.99965 35.73969,35.7397 0,16.07123 -10.61274,29.66376 -25.20749,34.15583 18.23673,6.55914 38.15575,11.23018 59.92707,13.83414 -27.3014,-43.48001 52.52679,-62.91581 87.80117,-27.59669 L 154.18894,308.879 c -39.05952,18.24567 -68.75014,7.31079 -90.87045,-23.48046 -2.1476,71.98049 27.0777,124.70414 90.87045,156.22022 -7.72242,-53.01 17.07345,-81.06307 68.41011,-85.7699 l 53.01895,39.52485 -75.4793,58.49533 c -26.71081,18.02197 -55.79294,23.58784 -86.79001,19.40001 4.68894,53.01 37.61885,84.1234 88.83023,101.08052 -14.29051,-42.88048 7.14973,-61.26038 37.77992,-61.26038 l 60.19552,51.27402 -72.44581,70.22662 128.16716,160.95389 1.50332,4.45628 1.02011,-1.27961 1.02011,1.27961 1.50332,-4.45628 128.16716,-160.95389 -72.44581,-70.22662 60.19552,-51.27402 c 30.63019,0 52.07043,18.3799 37.77992,61.26038 51.21138,-16.95712 84.14129,-48.07052 88.83023,-101.08052 -30.99707,4.18783 -60.0792,-1.37804 -86.79001,-19.40001 l -75.47929,-58.49533 53.01894,-39.52485 c 51.33666,4.69788 76.13253,32.75095 68.41011,85.7699 63.79275,-31.51608 93.01805,-84.23973 90.87045,-156.22022 -22.12031,30.8002 -51.81092,41.72613 -90.87045,23.48046 L 444.17798,214.92137 c 35.26543,-35.31912 115.09362,-15.88332 87.80117,27.59669 21.77133,-2.59502 41.69034,-7.26605 59.92707,-13.83414 -14.59475,-4.49207 -25.20749,-18.0846 -25.20749,-34.15583 0,-19.74005 15.99964,-35.7397 35.73969,-35.7397 19.74005,0 35.7397,15.99965 35.7397,35.7397 0,4.50101 -0.84115,8.81412 -2.36237,12.77823 19.56109,-12.4024 36.58979,-27.65933 51.37246,-45.44864 l 29.57428,-13.2704 C 691.66238,66.19986 576.0766,0.04474 487.67589,0 Z M 122.52075,85.27773 84.74083,112.84759 88.82128,86.29785 122.5118,58.72799 v 26.54974 z m 235.86049,586.33141 -25.78913,-35.9992 25.78913,-15.31957 25.78914,15.31957 z m 0,-165.40123 -25.78913,-29.86957 25.78913,-21.44024 25.78914,21.44024 z m 0,-173.58 -35.99919,-29.86958 35.99919,-25.52963 35.9992,25.52963 z M 594.24174,85.27773 V 58.72799 l 33.69052,27.56986 4.08045,26.54974 z"
   id="path2"
   inkscape:connector-curvature="0"
   style="stroke-width:0.89483458" />
</svg>