<?xml version="1.0" encoding="UTF-8" standalone="no"?>
<svg
   xmlns:dc="http://purl.org/dc/elements/1.1/"
   xmlns:cc="http://creativecommons.org/ns#"
   xmlns:rdf="http://www.w3.org/1999/02/22-rdf-syntax-ns#"
   xmlns:svg="http://www.w3.org/2000/svg"
   xmlns="http://www.w3.org/2000/svg"
   xmlns:sodipodi="http://sodipodi.sourceforge.net/DTD/sodipodi-0.dtd"
   xmlns:inkscape="http://www.inkscape.org/namespaces/inkscape"
   version="1.1"
   id="图层_1"
   x="0px"
   y="0px"
   viewBox="0 0 363.09525 400"
   sodipodi:docname="T’au Number 7 [T'au'va, Greater Good].svg"
   width="363.09525"
   height="400"
   inkscape:version="0.92.3 (2405546, 2018-03-11)">
  <metadata
     id="metadata9">
    <rdf:RDF>
      <cc:Work
         rdf:about="">
        <dc:format>image/svg+xml</dc:format>
        <dc:type
           rdf:resource="http://purl.org/dc/dcmitype/StillImage" />
        <dc:title></dc:title>
      </cc:Work>
    </rdf:RDF>
  </metadata>
  <defs
     id="defs7" />
  <sodipodi:namedview
     pagecolor="#ffffff"
     bordercolor="#666666"
     borderopacity="1"
     objecttolerance="10"
     gridtolerance="10"
     guidetolerance="10"
     inkscape:pageopacity="0"
     inkscape:pageshadow="2"
     inkscape:window-width="1920"
     inkscape:window-height="1017"
     id="namedview5"
     showgrid="false"
     fit-margin-top="0"
     fit-margin-left="0"
     fit-margin-right="0"
     fit-margin-bottom="0"
     inkscape:pagecheckerboard="true"
     inkscape:zoom="0.472"
     inkscape:cx="-111.27119"
     inkscape:cy="168"
     inkscape:window-x="-8"
     inkscape:window-y="-8"
     inkscape:window-maximized="1"
     inkscape:current-layer="图层_1" />
  <path
     d="M 333.33333,0 H 303.57143 5.95238 C 2.61905,0 0,2.619048 0,5.952381 V 89.28571 c 0,3.33334 2.61905,5.95239 5.95238,5.95239 h 291.66667 c 3.33333,0 5.95238,2.61904 5.95238,5.95238 v 45.23809 c 0,3.33333 -2.61905,5.95238 -5.95238,5.95238 H 5.95238 C 2.61905,152.38095 0,155 0,158.33333 v 47.61905 c 0,3.33333 2.61905,5.95238 5.95238,5.95238 h 291.66667 c 3.33333,0 5.95238,2.61905 5.95238,5.95238 v 176.19048 c 0,3.33333 2.61905,5.95238 5.95238,5.95238 h 47.61905 c 3.33333,0 5.95238,-2.61905 5.95238,-5.95238 V 5.952381 C 363.09524,2.619048 360.47619,0 357.14286,0 Z"
     id="path2"
     inkscape:connector-curvature="0"
     style="stroke-width:1.19047618" />
</svg>
