<?xml version="1.0" encoding="UTF-8" standalone="no"?>
<svg
   xmlns:dc="http://purl.org/dc/elements/1.1/"
   xmlns:cc="http://creativecommons.org/ns#"
   xmlns:rdf="http://www.w3.org/1999/02/22-rdf-syntax-ns#"
   xmlns:svg="http://www.w3.org/2000/svg"
   xmlns="http://www.w3.org/2000/svg"
   xmlns:sodipodi="http://sodipodi.sourceforge.net/DTD/sodipodi-0.dtd"
   xmlns:inkscape="http://www.inkscape.org/namespaces/inkscape"
   version="1.1"
   id="图层_1"
   x="0px"
   y="0px"
   viewBox="0 0 349.89066 400"
   sodipodi:docname="T’au Number 3 [T'au'va, Greater Good].svg"
   width="349.89066"
   height="400"
   inkscape:version="0.92.3 (2405546, 2018-03-11)">
  <metadata
     id="metadata11">
    <rdf:RDF>
      <cc:Work
         rdf:about="">
        <dc:format>image/svg+xml</dc:format>
        <dc:type
           rdf:resource="http://purl.org/dc/dcmitype/StillImage" />
        <dc:title></dc:title>
      </cc:Work>
    </rdf:RDF>
  </metadata>
  <defs
     id="defs9" />
  <sodipodi:namedview
     pagecolor="#ffffff"
     bordercolor="#666666"
     borderopacity="1"
     objecttolerance="10"
     gridtolerance="10"
     guidetolerance="10"
     inkscape:pageopacity="0"
     inkscape:pageshadow="2"
     inkscape:window-width="1920"
     inkscape:window-height="1017"
     id="namedview7"
     showgrid="false"
     fit-margin-top="0"
     fit-margin-left="0"
     fit-margin-right="0"
     fit-margin-bottom="0"
     inkscape:pagecheckerboard="true"
     inkscape:zoom="0.472"
     inkscape:cx="-123.77119"
     inkscape:cy="160.10001"
     inkscape:window-x="-8"
     inkscape:window-y="-8"
     inkscape:window-maximized="1"
     inkscape:current-layer="图层_1" />
  <g
     id="g4"
     transform="matrix(1.2496095,0,0,1.2496095,-137.45704,-112.46486)">
    <path
       d="M 389.2,97.9 C 387.5,93.3 383.1,90 378,90 H 377.1 342 122.9 c -7.1,0 -12.9,5.3 -12.9,11.8 v 74.6 c 0,6.5 5.8,11.8 12.9,11.8 H 330 V 311.9 H 122.9 c -7.1,0 -12.9,5.3 -12.9,11.8 v 74.6 c 0,6.5 5.8,11.8 12.9,11.8 H 342 377.1 378 c 5.1,0 9.5,-3.3 11.2,-7.9 0.5,-1.2 0.8,-2.5 0.8,-3.9 V 398 323.6 176.4 102 101.8 c 0,-1.4 -0.3,-2.7 -0.8,-3.9 z"
       id="path2"
       inkscape:connector-curvature="0" />
  </g>
</svg>
