<?xml version="1.0" encoding="UTF-8" standalone="no"?>
<svg
   xmlns:dc="http://purl.org/dc/elements/1.1/"
   xmlns:cc="http://creativecommons.org/ns#"
   xmlns:rdf="http://www.w3.org/1999/02/22-rdf-syntax-ns#"
   xmlns:svg="http://www.w3.org/2000/svg"
   xmlns="http://www.w3.org/2000/svg"
   xmlns:sodipodi="http://sodipodi.sourceforge.net/DTD/sodipodi-0.dtd"
   xmlns:inkscape="http://www.inkscape.org/namespaces/inkscape"
   version="1.1"
   id="图层_1"
   x="0px"
   y="0px"
   viewBox="0 0 310 400"
   sodipodi:docname="T’au Number 5 [T'au'va, Greater Good].svg"
   width="310"
   height="400"
   inkscape:version="0.92.3 (2405546, 2018-03-11)">
  <metadata
     id="metadata9">
    <rdf:RDF>
      <cc:Work
         rdf:about="">
        <dc:format>image/svg+xml</dc:format>
        <dc:type
           rdf:resource="http://purl.org/dc/dcmitype/StillImage" />
        <dc:title></dc:title>
      </cc:Work>
    </rdf:RDF>
  </metadata>
  <defs
     id="defs7" />
  <sodipodi:namedview
     pagecolor="#ffffff"
     bordercolor="#666666"
     borderopacity="1"
     objecttolerance="10"
     gridtolerance="10"
     guidetolerance="10"
     inkscape:pageopacity="0"
     inkscape:pageshadow="2"
     inkscape:window-width="1920"
     inkscape:window-height="1017"
     id="namedview5"
     showgrid="false"
     fit-margin-top="0"
     fit-margin-left="0"
     fit-margin-right="0"
     fit-margin-bottom="0"
     inkscape:pagecheckerboard="true"
     inkscape:zoom="0.472"
     inkscape:cx="-93.771186"
     inkscape:cy="200"
     inkscape:window-x="-8"
     inkscape:window-y="-8"
     inkscape:window-maximized="1"
     inkscape:current-layer="图层_1" />
  <path
     d="M 272.8,80 C 293.3,80 310,78.9 310,77.6 V 2.4 C 310,1.1 293.3,0 272.8,0 H 37.2 C 16.7,0 0,1.1 0,2.4 v 19.3 55.9 74.8 75.2 160.7 c 0,6.4 3.2,11.7 7.2,11.7 h 45.6 c 4,0 7.2,-5.3 7.2,-11.7 V 230 h 100 v 163.1 c 0,3.8 8.1,6.9 18,6.9 h 114 c 9.9,0 18,-3.1 18,-6.9 V 227.6 176.9 152.4 c 0,-1.3 -16.7,-2.4 -37.2,-2.4 H 60 V 80 Z"
     id="path2"
     inkscape:connector-curvature="0" />
</svg>
