<?xml version="1.0" encoding="UTF-8" standalone="no"?>
<svg
   xmlns:dc="http://purl.org/dc/elements/1.1/"
   xmlns:cc="http://creativecommons.org/ns#"
   xmlns:rdf="http://www.w3.org/1999/02/22-rdf-syntax-ns#"
   xmlns:svg="http://www.w3.org/2000/svg"
   xmlns="http://www.w3.org/2000/svg"
   xmlns:sodipodi="http://sodipodi.sourceforge.net/DTD/sodipodi-0.dtd"
   xmlns:inkscape="http://www.inkscape.org/namespaces/inkscape"
   version="1.1"
   id="图层_1"
   x="0px"
   y="0px"
   viewBox="0 0 800 800"
   sodipodi:docname="Vash’ya [T'au'va, Greater Good, T'au Empire, Sept].svg"
   width="800"
   height="800"
   inkscape:version="0.92.3 (2405546, 2018-03-11)">
  <metadata
     id="metadata23">
    <rdf:RDF>
      <cc:Work
         rdf:about="">
        <dc:format>image/svg+xml</dc:format>
        <dc:type
           rdf:resource="http://purl.org/dc/dcmitype/StillImage" />
        <dc:title></dc:title>
      </cc:Work>
    </rdf:RDF>
  </metadata>
  <defs
     id="defs21" />
  <sodipodi:namedview
     pagecolor="#ffffff"
     bordercolor="#666666"
     borderopacity="1"
     objecttolerance="10"
     gridtolerance="10"
     guidetolerance="10"
     inkscape:pageopacity="0"
     inkscape:pageshadow="2"
     inkscape:window-width="1920"
     inkscape:window-height="1017"
     id="namedview19"
     showgrid="false"
     fit-margin-top="0"
     fit-margin-left="0"
     fit-margin-right="0"
     fit-margin-bottom="0"
     inkscape:pagecheckerboard="true"
     inkscape:zoom="0.472"
     inkscape:cx="-13.771186"
     inkscape:cy="250"
     inkscape:window-x="-8"
     inkscape:window-y="-8"
     inkscape:window-maximized="1"
     inkscape:current-layer="图层_1" />
  <g
     id="g16"
     transform="scale(1.6)">
    <path
       d="M 250,0 C 111.9,0 0,111.9 0,250 0,388.1 111.9,500 250,500 388.1,500 500,388.1 500,250 500,111.9 388.1,0 250,0 Z m 0,485 C 120.2,485 15,379.8 15,250 15,120.2 120.2,15 250,15 379.8,15 485,120.2 485,250 485,379.8 379.8,485 250,485 Z"
       id="path2"
       inkscape:connector-curvature="0" />
    <circle
       cx="250"
       cy="120"
       r="70"
       id="circle4" />
    <path
       d="m 363.6,85.3 c -18,25.3 -28.6,56.3 -28.6,89.7 0,67 42.6,124.1 102.1,145.7 8.3,-22 12.9,-45.8 12.9,-70.7 0,-68.3 -34.2,-128.6 -86.4,-164.7 z"
       id="path6"
       inkscape:connector-curvature="0" />
    <path
       d="M 342.1,72.4 C 334.7,68.5 327,65.1 319,62.2 c 6,7.1 10.9,15.2 14.4,24 2.7,-4.8 5.6,-9.3 8.7,-13.8 z"
       id="path8"
       inkscape:connector-curvature="0" />
    <path
       d="m 181,62.2 c -8,2.9 -15.7,6.3 -23.1,10.2 3.1,4.5 6,9.1 8.7,13.8 3.5,-8.8 8.4,-16.8 14.4,-24 z"
       id="path10"
       inkscape:connector-curvature="0" />
    <path
       d="M 310.4,186.7 C 294.4,201.2 273.2,210 250,210 226.8,210 205.6,201.2 189.6,186.7 185,258.8 137.9,319.3 73.2,343.6 106.8,406.9 173.3,450 250,450 326.7,450 393.2,406.9 426.8,343.6 362.1,319.3 315,258.8 310.4,186.7 Z"
       id="path12"
       inkscape:connector-curvature="0" />
    <path
       d="M 165,175 C 165,141.6 154.4,110.6 136.4,85.3 84.2,121.4 50,181.7 50,250 c 0,24.9 4.6,48.7 12.9,70.7 C 122.4,299.1 165,242 165,175 Z"
       id="path14"
       inkscape:connector-curvature="0" />
  </g>
</svg>
