<?xml version="1.0" encoding="UTF-8" standalone="no"?>
<svg
   xmlns:dc="http://purl.org/dc/elements/1.1/"
   xmlns:cc="http://creativecommons.org/ns#"
   xmlns:rdf="http://www.w3.org/1999/02/22-rdf-syntax-ns#"
   xmlns:svg="http://www.w3.org/2000/svg"
   xmlns="http://www.w3.org/2000/svg"
   xmlns:sodipodi="http://sodipodi.sourceforge.net/DTD/sodipodi-0.dtd"
   xmlns:inkscape="http://www.inkscape.org/namespaces/inkscape"
   version="1.2"
   id="图层_1"
   x="0px"
   y="0px"
   viewBox="0 0 800 800"
   sodipodi:docname="Vior’la [T'au'va, Greater Good, T'au Empire, Sept].svg"
   width="800"
   height="800"
   inkscape:version="0.92.3 (2405546, 2018-03-11)">
  <metadata
     id="metadata19">
    <rdf:RDF>
      <cc:Work
         rdf:about="">
        <dc:format>image/svg+xml</dc:format>
        <dc:type
           rdf:resource="http://purl.org/dc/dcmitype/StillImage" />
        <dc:title></dc:title>
      </cc:Work>
    </rdf:RDF>
  </metadata>
  <defs
     id="defs17" />
  <sodipodi:namedview
     pagecolor="#ffffff"
     bordercolor="#666666"
     borderopacity="1"
     objecttolerance="10"
     gridtolerance="10"
     guidetolerance="10"
     inkscape:pageopacity="0"
     inkscape:pageshadow="2"
     inkscape:window-width="1920"
     inkscape:window-height="1017"
     id="namedview15"
     showgrid="false"
     fit-margin-top="0"
     fit-margin-left="0"
     fit-margin-right="0"
     fit-margin-bottom="0"
     inkscape:pagecheckerboard="true"
     inkscape:zoom="0.472"
     inkscape:cx="-13.744142"
     inkscape:cy="250.02703"
     inkscape:window-x="-8"
     inkscape:window-y="-8"
     inkscape:window-maximized="1"
     inkscape:current-layer="图层_1" />
  <g
     id="g12"
     transform="matrix(1.5998269,0,0,1.5998269,0.04326623,0.04326623)">
    <path
       d="M 375,33.5 C 255.4,-35.5 102.5,5.4 33.5,125 -35.5,244.6 5.4,397.5 125,466.5 244.6,535.5 397.5,494.6 466.5,375 535.5,255.4 494.6,102.5 375,33.5 Z m -242.5,420 c -112.4,-64.9 -150.9,-208.6 -86,-321 64.9,-112.4 208.6,-150.9 321,-86 112.4,64.9 150.9,208.6 86,321 -64.9,112.4 -208.6,150.9 -321,86 z"
       id="path2"
       inkscape:connector-curvature="0" />
    <circle
       cx="315"
       cy="137.39999"
       r="70"
       id="circle4" />
    <circle
       cx="185"
       cy="362.60001"
       r="70"
       id="circle6" />
    <path
       d="m 221.1,280.1 40.6,-70.2 C 225.2,183.1 214,132.6 237.1,92.4 248.1,73.4 265,59.9 284.2,52.9 203.9,39 119.9,75.3 76.8,150 33.7,224.7 44.2,315.5 96.4,378.1 92.9,358 96.1,336.6 107.1,317.6 c 23.1,-40.1 72.5,-55.7 114,-37.5 z"
       id="path8"
       inkscape:connector-curvature="0" />
    <path
       d="m 403.6,121.9 c 3.5,20.1 0.3,41.5 -10.7,60.5 -23.2,40.1 -72.5,55.7 -114,37.5 l -40.6,70.2 c 36.5,26.8 47.7,77.3 24.6,117.5 -11,19 -27.9,32.5 -47.1,39.5 C 296.1,461 380,424.6 423.1,350 466.2,275.4 455.8,184.5 403.6,121.9 Z"
       id="path10"
       inkscape:connector-curvature="0" />
  </g>
</svg>
