<?xml version="1.0" encoding="UTF-8" standalone="no"?>
<svg
   xmlns:dc="http://purl.org/dc/elements/1.1/"
   xmlns:cc="http://creativecommons.org/ns#"
   xmlns:rdf="http://www.w3.org/1999/02/22-rdf-syntax-ns#"
   xmlns:svg="http://www.w3.org/2000/svg"
   xmlns="http://www.w3.org/2000/svg"
   xmlns:sodipodi="http://sodipodi.sourceforge.net/DTD/sodipodi-0.dtd"
   xmlns:inkscape="http://www.inkscape.org/namespaces/inkscape"
   inkscape:version="1.0 (4035a4fb49, 2020-05-01)"
   height="800"
   width="844.58289"
   sodipodi:docname="Void Tridents [Imperium, Adeptus Astartes, Space Marines, Ultramarines, Chapter].svg"
   xml:space="preserve"
   viewBox="0 0 844.58289 800"
   y="0px"
   x="0px"
   id="Layer_2"
   version="1.1"><metadata
   id="metadata15"><rdf:RDF><cc:Work
       rdf:about=""><dc:format>image/svg+xml</dc:format><dc:type
         rdf:resource="http://purl.org/dc/dcmitype/StillImage" /><dc:title></dc:title></cc:Work></rdf:RDF></metadata><defs
   id="defs13" /><sodipodi:namedview
   inkscape:current-layer="Layer_2"
   inkscape:window-maximized="1"
   inkscape:window-y="-9"
   inkscape:window-x="-9"
   inkscape:cy="452.79"
   inkscape:cx="486"
   inkscape:zoom="0.83"
   fit-margin-bottom="0"
   fit-margin-right="0"
   fit-margin-left="0"
   fit-margin-top="0"
   inkscape:pagecheckerboard="true"
   showgrid="false"
   id="namedview11"
   inkscape:window-height="1001"
   inkscape:window-width="1920"
   inkscape:pageshadow="2"
   inkscape:pageopacity="0"
   guidetolerance="10"
   gridtolerance="10"
   objecttolerance="10"
   borderopacity="1"
   bordercolor="#666666"
   pagecolor="#ffffff" />
<g
   transform="matrix(0.86535133,0,0,0.86535133,-12.114919,-40.853236)"
   id="g8">
	<polygon
   id="polygon2"
   points="398.96,101.59 268.73,194.61 311.67,214.65 14,699.79 449.05,971.69 360.32,738.43 192.89,636.82 358.89,236.12 398.96,251.86 " />
	<polygon
   id="polygon4"
   points="450.48,148.82 476.24,150.25 413.27,744.15 502,963.11 590.73,744.15 527.76,150.25 553.52,148.82 502,47.21 " />
	<polygon
   id="polygon6"
   points="605.04,251.86 645.11,236.12 811.11,636.82 643.68,738.43 554.95,971.69 990,699.79 692.33,214.65 735.27,194.61 605.04,101.59 " />
</g>
</svg>
