<?xml version="1.0" encoding="UTF-8" standalone="no"?>
<!-- Created with Inkscape (http://www.inkscape.org/) -->

<svg
   xmlns:dc="http://purl.org/dc/elements/1.1/"
   xmlns:cc="http://creativecommons.org/ns#"
   xmlns:rdf="http://www.w3.org/1999/02/22-rdf-syntax-ns#"
   xmlns:svg="http://www.w3.org/2000/svg"
   xmlns="http://www.w3.org/2000/svg"
   xmlns:sodipodi="http://sodipodi.sourceforge.net/DTD/sodipodi-0.dtd"
   xmlns:inkscape="http://www.inkscape.org/namespaces/inkscape"
   width="705.99768"
   height="800"
   viewBox="0 0 186.79522 211.66667"
   version="1.1"
   id="svg8"
   inkscape:version="0.92.3 (2405546, 2018-03-11)"
   sodipodi:docname="Webway[Aeldari, Eldar].svg">
  <defs
     id="defs2" />
  <sodipodi:namedview
     id="base"
     pagecolor="#ffffff"
     bordercolor="#666666"
     borderopacity="1.0"
     inkscape:pageopacity="0.0"
     inkscape:pageshadow="2"
     inkscape:zoom="0.7"
     inkscape:cx="-177.82231"
     inkscape:cy="610.63428"
     inkscape:document-units="px"
     inkscape:current-layer="layer1"
     showgrid="false"
     inkscape:pagecheckerboard="true"
     fit-margin-top="0"
     fit-margin-left="0"
     fit-margin-right="0"
     fit-margin-bottom="0"
     inkscape:window-width="1920"
     inkscape:window-height="1017"
     inkscape:window-x="-8"
     inkscape:window-y="-8"
     inkscape:window-maximized="1"
     units="px" />
  <metadata
     id="metadata5">
    <rdf:RDF>
      <cc:Work
         rdf:about="">
        <dc:format>image/svg+xml</dc:format>
        <dc:type
           rdf:resource="http://purl.org/dc/dcmitype/StillImage" />
        <dc:title></dc:title>
      </cc:Work>
    </rdf:RDF>
  </metadata>
  <g
     inkscape:label="Layer 1"
     inkscape:groupmode="layer"
     id="layer1"
     transform="translate(-51.338321,-36.816344)">
    <path
       style="fill:#000000;fill-opacity:1;stroke:none;stroke-width:0.98846316px;stroke-linecap:butt;stroke-linejoin:miter;stroke-opacity:1"
       d="m 51.338321,36.816344 v 37.81044 C 73.745914,83.616089 89.926565,102.86289 95.36919,125.6762 H 65.271679 v 33.96846 h 30.100315 c -5.490116,23.0111 -21.815919,42.1322 -44.033673,51.04287 v 37.79548 c 35.667438,-16.55976 60.572659,-49.96482 66.300509,-88.83835 h 10.11194 v 88.83835 h 33.97032 v -88.83835 h 10.11194 c 5.72737,38.87411 30.63266,72.27832 66.30051,88.83835 v -37.79548 c -22.21773,-8.91067 -38.54357,-28.03177 -44.03367,-51.04287 h 30.09938 V 125.6762 h -30.09658 c 5.44265,-22.81331 21.6233,-42.060111 44.03087,-51.049416 v -37.81044 h -0.002 C 202.1414,53.528144 177.48155,87.158023 171.82263,125.6762 H 161.72109 V 36.816344 H 127.75077 V 125.6762 h -10.1026 C 111.98914,87.157343 87.329532,53.527842 51.338321,36.816344 Z"
       id="path826"
       inkscape:connector-curvature="0" />
  </g>
</svg>
