<?xml version="1.0" encoding="UTF-8" standalone="no"?>
<svg
   xmlns:dc="http://purl.org/dc/elements/1.1/"
   xmlns:cc="http://creativecommons.org/ns#"
   xmlns:rdf="http://www.w3.org/1999/02/22-rdf-syntax-ns#"
   xmlns:svg="http://www.w3.org/2000/svg"
   xmlns="http://www.w3.org/2000/svg"
   xmlns:sodipodi="http://sodipodi.sourceforge.net/DTD/sodipodi-0.dtd"
   xmlns:inkscape="http://www.inkscape.org/namespaces/inkscape"
   version="1.1"
   id="图层_1"
   x="0px"
   y="0px"
   viewBox="0 0 800 800"
   sodipodi:docname="Yo’vai [T'au'va, Greater Good, T'au Empire, Sept].svg"
   width="800"
   height="800"
   inkscape:version="0.92.3 (2405546, 2018-03-11)">
  <metadata
     id="metadata15">
    <rdf:RDF>
      <cc:Work
         rdf:about="">
        <dc:format>image/svg+xml</dc:format>
        <dc:type
           rdf:resource="http://purl.org/dc/dcmitype/StillImage" />
        <dc:title></dc:title>
      </cc:Work>
    </rdf:RDF>
  </metadata>
  <defs
     id="defs13" />
  <sodipodi:namedview
     pagecolor="#ffffff"
     bordercolor="#666666"
     borderopacity="1"
     objecttolerance="10"
     gridtolerance="10"
     guidetolerance="10"
     inkscape:pageopacity="0"
     inkscape:pageshadow="2"
     inkscape:window-width="1920"
     inkscape:window-height="1017"
     id="namedview11"
     showgrid="false"
     fit-margin-top="0"
     fit-margin-left="0"
     fit-margin-right="0"
     fit-margin-bottom="0"
     inkscape:pagecheckerboard="true"
     inkscape:zoom="0.472"
     inkscape:cx="-13.771186"
     inkscape:cy="250"
     inkscape:window-x="-8"
     inkscape:window-y="-8"
     inkscape:window-maximized="1"
     inkscape:current-layer="图层_1" />
  <path
     d="M 400,0 C 179.04,0 0,179.04 0,400 0,620.96 179.04,800 400,800 620.96,800 800,620.96 800,400 800,179.04 620.96,0 400,0 Z m 0,776 C 192.32,776 24,607.68 24,400 24,192.32 192.32,24 400,24 607.68,24 776,192.32 776,400 776,607.68 607.68,776 400,776 Z"
     id="path2"
     inkscape:connector-curvature="0"
     style="stroke-width:1.60000002" />
  <g
     id="g8"
     transform="scale(1.6)">
    <circle
       cx="250"
       cy="250"
       r="125"
       id="circle4" />
    <path
       d="m 415,275 v -50 h 33.4 C 436.1,126.3 352,50 250,50 148,50 63.9,126.3 51.6,225 H 85 v 50 H 51.6 C 63.9,373.7 148,450 250,450 352,450 436.1,373.7 448.4,275 Z M 250,400 c -82.8,0 -150,-67.2 -150,-150 0,-82.8 67.2,-150 150,-150 82.8,0 150,67.2 150,150 0,82.8 -67.2,150 -150,150 z"
       id="path6"
       inkscape:connector-curvature="0" />
  </g>
</svg>
