<?xml version="1.0" encoding="UTF-8" standalone="no"?>
<svg
   xmlns:dc="http://purl.org/dc/elements/1.1/"
   xmlns:cc="http://creativecommons.org/ns#"
   xmlns:rdf="http://www.w3.org/1999/02/22-rdf-syntax-ns#"
   xmlns:svg="http://www.w3.org/2000/svg"
   xmlns="http://www.w3.org/2000/svg"
   xmlns:sodipodi="http://sodipodi.sourceforge.net/DTD/sodipodi-0.dtd"
   xmlns:inkscape="http://www.inkscape.org/namespaces/inkscape"
   sodipodi:docname="Zuvassin [Chaos, Gods].svg"
   inkscape:version="1.0 (4035a4fb49, 2020-05-01)"
   id="svg8"
   version="1.1"
   viewBox="0 0 117.05904 211.6667"
   height="800.00012"
   width="442.42789">
  <defs
     id="defs2" />
  <sodipodi:namedview
     fit-margin-bottom="0"
     fit-margin-right="0"
     fit-margin-left="0"
     fit-margin-top="0"
     inkscape:pagecheckerboard="true"
     inkscape:window-maximized="1"
     inkscape:window-y="-9"
     inkscape:window-x="-9"
     inkscape:window-height="1001"
     inkscape:window-width="1920"
     units="px"
     showgrid="false"
     inkscape:document-rotation="0"
     inkscape:current-layer="layer1"
     inkscape:document-units="px"
     inkscape:cy="402.49523"
     inkscape:cx="178.20748"
     inkscape:zoom="0.99215147"
     inkscape:pageshadow="2"
     inkscape:pageopacity="0.0"
     borderopacity="1.0"
     bordercolor="#666666"
     pagecolor="#ffffff"
     id="base" />
  <metadata
     id="metadata5">
    <rdf:RDF>
      <cc:Work
         rdf:about="">
        <dc:format>image/svg+xml</dc:format>
        <dc:type
           rdf:resource="http://purl.org/dc/dcmitype/StillImage" />
        <dc:title></dc:title>
      </cc:Work>
    </rdf:RDF>
  </metadata>
  <g
     transform="translate(-53.011418,-76.116038)"
     id="layer1"
     inkscape:groupmode="layer"
     inkscape:label="Layer 1">
    <path
       d="m 56.634968,76.116038 c -2.39638,6.23404 -3.6232,12.82682 -3.62355,19.47228 4e-4,24.537552 16.56679,46.240632 40.92868,53.619312 2.493,3.92481 4.93923,8.11174 6.280432,11.35251 2.80062,6.76728 5.03178,14.06383 5.03178,21.38775 v 0.001 0.002 c 0,7.32392 -2.23116,14.62047 -5.03178,21.38775 -1.341202,3.24076 -3.787432,7.4277 -6.280432,11.35251 -24.36189,7.37865 -40.92828,29.08175 -40.92868,53.6193 3.5e-4,6.64547 1.22717,13.23825 3.62355,19.47229 l 19.54988,-7.17401 c -1.17994,-3.32938 -1.78089,-6.80513 -1.7812,-10.30227 -7e-4,-17.20921 14.30496,-31.65064 33.172872,-33.48765 -1.5636,-0.95621 -2.47764,-2.42331 -2.47784,-3.97709 -1.8e-4,-2.78679 2.88364,-5.04619 6.44154,-5.04673 3.55845,-6e-5 6.44319,2.25948 6.44301,5.04673 -2.3e-4,1.55378 -0.91427,3.02088 -2.47787,3.97709 18.86791,1.83701 33.17357,16.27844 33.17288,33.48765 -3.2e-4,3.49714 -0.60126,6.97289 -1.78121,10.30227 l 19.55138,7.17401 c 2.39586,-6.23413 3.6222,-12.82691 3.62205,-19.47229 -8.6e-4,-24.53662 -16.56642,-46.2388 -40.92718,-53.61783 -2.49323,-3.9251 -4.93911,-8.11293 -6.28043,-11.35398 -2.80061,-6.76728 -5.03178,-14.06383 -5.03178,-21.38775 v -0.002 -0.001 c 0,-7.32392 2.23117,-14.62047 5.03178,-21.38775 1.34132,-3.24105 3.7872,-7.42888 6.28043,-11.35402 24.36076,-7.37899 40.92634,-29.0812 40.92718,-53.617802 1.5e-4,-6.64537 -1.22619,-13.23815 -3.62205,-19.47228 l -19.55138,7.17401 c 1.17995,3.32938 1.78089,6.80513 1.78121,10.30226 6.9e-4,17.209222 -14.30497,31.650652 -33.17288,33.487622 1.5636,0.95622 2.47764,2.42334 2.47787,3.97713 1.8e-4,2.78724 -2.88456,5.04682 -6.44301,5.0467 -3.5579,-5.5e-4 -6.44172,-2.25992 -6.44154,-5.0467 2e-4,-1.55379 0.91424,-3.02091 2.47784,-3.97713 -18.867912,-1.83697 -33.173572,-16.2784 -33.172872,-33.487622 3.1e-4,-3.49713 0.60126,-6.97288 1.7812,-10.30226 z"
       style="fill:#000000;fill-opacity:0.967611;stroke-width:0.834659"
       id="path847" />
  </g>
</svg>
